<svg xmlns="http://www.w3.org/2000/svg" width="21" height="21" viewBox="0 0 21 21"><g transform="translate(-161 233)"><rect width="21" height="21" transform="translate(161 -233)" fill="none"/><g transform="translate(83.997 -264)"><g transform="translate(0 -183.857)" fill="none"><path d="M94.965,232.963a10.187,10.187,0,0,0-2.2-6.424,6.715,6.715,0,0,0-10.517,0,10.184,10.184,0,0,0-2.2,6.416,18.183,18.183,0,0,0,7.463,1.9A16.605,16.605,0,0,0,94.965,232.963Z" stroke="none"/><path d="M 87.50259399414062 233.8571319580078 C 90.36765289306641 233.8571319580078 92.82249450683594 232.8845367431641 93.93904113769531 232.3593444824219 C 93.79718017578125 230.3357391357422 93.11724853515625 228.515380859375 91.99587249755859 227.1825714111328 C 90.81130981445312 225.7751007080078 89.21556854248047 224.9999694824219 87.50259399414062 224.9999694824219 C 85.78961181640625 224.9999694824219 84.19386291503906 225.7751007080078 83.00936889648438 227.1824951171875 C 81.89290618896484 228.5093078613281 81.21393585205078 230.3198852539062 81.06804656982422 232.3334197998047 C 82.25856781005859 232.8637084960938 84.84396362304688 233.8571319580078 87.50259399414062 233.8571319580078 M 87.50259399414062 234.8571319580078 C 84.06265258789062 234.8571319580078 80.82289886474609 233.346923828125 80.04000091552734 232.9547576904297 C 80.08071136474609 230.4558715820312 80.85967254638672 228.1840667724609 82.24420928955078 226.5386505126953 C 83.62200927734375 224.9015655517578 85.48927307128906 223.9999694824219 87.50259399414062 223.9999694824219 C 89.51590728759766 223.9999694824219 91.38316345214844 224.9015655517578 92.76096343994141 226.5386505126953 C 94.14681243896484 228.185791015625 94.92627716064453 230.4608001708984 94.96533966064453 232.9627685546875 C 94.23931121826172 233.3558044433594 91.22235107421875 234.8571319580078 87.50259399414062 234.8571319580078 Z" stroke="none" fill="#000"/></g><g transform="translate(83.77 32)" fill="none" stroke="#000" stroke-width="1"><circle cx="3.732" cy="3.732" r="3.732" stroke="none"/><circle cx="3.732" cy="3.732" r="3.232" fill="none"/></g></g></g></svg>