<svg xmlns="http://www.w3.org/2000/svg" width="20" height="20" viewBox="0 0 20 20"><g transform="translate(-325 -736)"><g transform="translate(325 736)" fill="#fff" stroke="#000" stroke-linecap="round" stroke-linejoin="round" stroke-width="1.5"><rect width="20" height="20" rx="4" stroke="none"/><rect x="0.75" y="0.75" width="18.5" height="18.5" rx="3.25" fill="none"/></g><path d="M2347.948-134.52v-1.062a2.8,2.8,0,0,0,.918-1.567c.174-.015.445-.187.527-.869a.643.643,0,0,0-.233-.636,3,3,0,0,0,.259-1.176c0-1.29-.467-2.39-1.471-2.39a1.548,1.548,0,0,0-1.471-.8c-2.081,0-2.942,1.445-2.942,3.187a3.382,3.382,0,0,0,.259,1.176.644.644,0,0,0-.232.636c.081.682.353.854.527.869a2.8,2.8,0,0,0,.918,1.567v1.062c-.469,1.524-2.86.543-3.953,3.03h11.167C2351.128-133.977,2348.417-132.995,2347.948-134.52Z" transform="translate(-2011.637 883.021)" fill="none" stroke="#000" stroke-linecap="round" stroke-linejoin="round" stroke-miterlimit="10" stroke-width="1.3"/></g></svg>