<svg xmlns="http://www.w3.org/2000/svg" width="15" height="15" viewBox="0 0 15 15">
  <g id="Group_5267" data-name="Group 5267" transform="translate(-27.5 -218.5)">
    <path id="Path_5462" data-name="Path 5462" d="M2,0H6A2,2,0,0,1,8,2V6A2,2,0,0,1,6,8H2A2,2,0,0,1,0,6V2A2,2,0,0,1,2,0Z" transform="translate(28 219)" fill="#fff" stroke="#000" stroke-width="1"/>
    <path id="Path_5463" data-name="Path 5463" d="M2,0H6A2,2,0,0,1,8,2V6A2,2,0,0,1,6,8H2A2,2,0,0,1,0,6V2A2,2,0,0,1,2,0Z" transform="translate(31 222)" fill="#fff" stroke="#000" stroke-width="1"/>
    <path id="Path_5464" data-name="Path 5464" d="M2,0H6A2,2,0,0,1,8,2V6A2,2,0,0,1,6,8H2A2,2,0,0,1,0,6V2A2,2,0,0,1,2,0Z" transform="translate(34 225)" fill="#fff" stroke="#000" stroke-width="1"/>
  </g>
</svg>
