<svg xmlns="http://www.w3.org/2000/svg" width="28" height="28" viewBox="0 0 28 28"><g transform="translate(-124.5 -129.5)"><g transform="translate(4.5 -67.5)"><g transform="translate(3729 -5667)"><g transform="translate(-3608 5865)"><path d="M33,19A13,13,0,1,1,20,6,13,13,0,0,1,33,19Z" transform="translate(-7 -6)" fill="none" stroke="#38d989" stroke-width="2"/><path d="M30.841,21.381l-7.9,7.911-2.722-2.714a1.3,1.3,0,0,0-1.837,0h0a1.3,1.3,0,0,0,0,1.84l3.641,3.632a1.3,1.3,0,0,0,1.838,0l8.82-8.83a1.3,1.3,0,0,0,0-1.838h0A1.3,1.3,0,0,0,30.841,21.381Z" transform="translate(-12.28 -13.2)"/></g></g></g></g></svg>