<svg xmlns="http://www.w3.org/2000/svg" width="13.268" height="10.004"><defs><clipPath id="a"><path d="M0 5a.752.752 0 00.751.751h9.822l-2.9 2.9a.751.751 0 000 1.063l.065.065a.751.751 0 001.063 0l4.25-4.25a.751.751 0 000-1.063L8.8.22a.751.751 0 00-1.063 0L7.67.285a.751.751 0 000 1.063l2.9 2.9H.751A.752.752 0 000 5z" fill="#23b16a"/></clipPath><clipPath id="b"><path d="M0 2843.552h1487.9V0H0z" fill="#23b16a"/></clipPath></defs><g clip-path="url(#a)"><g transform="translate(-504.986 -1281.38)" clip-path="url(#b)"><path d="M501.229 1295.142v-17.519h20.783v17.519z" fill="#23b16a"/></g></g></svg>