<svg xmlns="http://www.w3.org/2000/svg" xmlns:xlink="http://www.w3.org/1999/xlink" width="13.268" height="10.004" viewBox="0 0 13.268 10.004"><defs><clipPath id="a"><path d="M0,5a.752.752,0,0,0,.751.751h9.822l-2.9,2.9a.751.751,0,0,0,0,1.063l.065.065a.751.751,0,0,0,1.063,0l4.25-4.25a.751.751,0,0,0,0-1.063L8.8.22a.751.751,0,0,0-1.063,0L7.67.285a.751.751,0,0,0,0,1.063l2.9,2.9H.751A.752.752,0,0,0,0,5Z" transform="translate(0 0)" fill="#23b16a"/></clipPath><clipPath id="b"><path d="M0,2843.552H1487.9V0H0Z" fill="#23b16a"/></clipPath></defs><g transform="translate(0 0)" clip-path="url(#a)"><g transform="translate(-504.986 -1281.38)" clip-path="url(#b)"><path d="M0,17.519V0H20.783V17.519Z" transform="translate(501.229 1277.623)" fill="#23b16a"/></g></g></svg>
