<svg xmlns="http://www.w3.org/2000/svg" width="404.756" height="481.053" viewBox="0 0 404.756 481.053">
  <g id="Group_5651" data-name="Group 5651" transform="translate(540.582 -1167.474)">
    <path id="Path_6473" data-name="Path 6473" d="M143.849,0c8.741,1.676,17.648,2.756,26.2,5.126,56.556,15.668,96.4,67.647,97.061,126.362.178,15.772.027,31.548.027,47.42l-57.43-10.071c-.053-1.129-.179-2.6-.181-4.072-.019-10.34.089-20.679-.034-31.017-.457-38.866-26.854-69.3-65.275-75.35C104.762,52.18,64.878,80.9,59.36,120.44c-1.8,12.91-.96,26.19-1.292,39.3-.077,3.052-.012,6.108-.012,9.117L.8,178.868c-.009-.012-.281-.229-.277-.438C1,155.146-2.115,131.622,2.9,108.634,15.01,53.064,49.147,18.125,104,3.474,110.428,1.759,117.142,1.132,123.722,0Z" transform="matrix(0.985, -0.174, 0.174, 0.985, -507.238, 1219.818)" fill="#37d888"/>
    <path id="Subtraction_4" data-name="Subtraction 4" d="M43.216,287.189h0L.945,47.456c7.944-2.578,15.9-4.98,23.636-7.139,15.3-4.268,30.83-7.86,46.154-10.678,15.544-2.858,31.329-5,46.915-6.371,17.025-1.5,34.232-2.255,51.142-2.255,11.762,0,23.66.367,35.366,1.091,11.765.727,23.666,1.836,35.374,3.294a4.992,4.992,0,0,1,3.115,1.26,5.916,5.916,0,0,1,1.376,3.278c11.343,64.9,22.643,128.972,33.588,190.442.562,3.161-.155,4.63-2.952,6.048-17.238,8.742-35.036,16.7-52.9,23.643-17.882,6.953-36.344,13.1-54.873,18.259-15.178,4.229-30.569,7.79-45.745,10.584-15.416,2.838-31.06,4.968-46.5,6.331-10.465.922-21.038,1.576-31.425,1.946ZM96.59,197.47h0l2.965,15.254,17.086-3.321-3.143-16.17a36.148,36.148,0,0,0,9.526-6.067,26.806,26.806,0,0,0,6.155-8.142,29.5,29.5,0,0,0,2.8-9.746,36.432,36.432,0,0,0-.551-10.876,26.621,26.621,0,0,0-2.354-7.023,20.93,20.93,0,0,0-4.039-5.508,31.53,31.53,0,0,0-10.615-6.961,152.228,152.228,0,0,0-14.589-4.605,73.875,73.875,0,0,1-11.212-3.52c-2.471-1.1-3.924-2.677-4.318-4.7-.571-2.936-.2-5.164,1.088-6.623s3.692-2.538,7.133-3.208a18.611,18.611,0,0,1,8.2.228,35.057,35.057,0,0,1,9.091,4.011l10.061-17.471a46.775,46.775,0,0,0-11.853-6.273,37.269,37.269,0,0,0-12.243-2.091c-.474,0-.955.009-1.431.028l-3.024-15.56L74.232,82.446l3.083,15.865a34.852,34.852,0,0,0-9.171,5.661,27.4,27.4,0,0,0-6.187,7.773A27.009,27.009,0,0,0,59,121.265a35.308,35.308,0,0,0,.517,10.9,22.349,22.349,0,0,0,6.122,11.95,31.878,31.878,0,0,0,10.372,6.929c3.758,1.525,8.6,3.166,14.4,4.878a76.293,76.293,0,0,1,11.88,4.1c2.552,1.237,4.055,2.942,4.468,5.068.571,2.936.148,5.282-1.256,6.973s-4.016,2.917-7.762,3.646a25.621,25.621,0,0,1-4.87.461,29.919,29.919,0,0,1-5.431-.516,50.364,50.364,0,0,1-12.411-4.4l-7.849,19.891a41.747,41.747,0,0,0,14.174,5.318,63.323,63.323,0,0,0,11.6,1.114c1.214,0,2.435-.039,3.629-.117Z" transform="translate(-418.732 1339.901)" fill="#37d888" stroke="rgba(0,0,0,0)" stroke-miterlimit="10" stroke-width="1"/>
    <path id="Path_6475" data-name="Path 6475" d="M3.957,19.613C.771,20.581-.012,22.137,0,25.489.127,57.5.075,89.5.076,121.513q0,48.456-.036,96.912c0,2.629.313,4.161,3.215,5.062a565.841,565.841,0,0,0,89.6,19.946V0a584.521,584.521,0,0,0-88.9,19.613" transform="matrix(0.985, -0.174, 0.174, 0.985, -509.233, 1403.483)" fill="#19b165"/>
    <rect id="Rectangle_2426" data-name="Rectangle 2426" width="335.293" height="429.353" transform="matrix(0.985, -0.174, 0.174, 0.985, -540.582, 1225.698)" fill="none"/>
  </g>
</svg>
