<svg xmlns="http://www.w3.org/2000/svg" width="14.947" height="17.937" viewBox="0 0 14.947 17.937"><path d="M9.473,11.21a.747.747,0,0,1-.747-.747V4.484a.747.747,0,0,1,1.495,0v5.979A.747.747,0,0,1,9.473,11.21Zm.593,6.547c1.614-.649,6.881-3.2,6.881-8.757V5.136a3.731,3.731,0,0,0-2.56-3.547L9.709.038a.736.736,0,0,0-.471,0L4.56,1.589A3.731,3.731,0,0,0,2,5.136V9c0,4.9,5.235,7.9,6.84,8.707a3.459,3.459,0,0,0,.633.229,3.363,3.363,0,0,0,.593-.179Zm3.85-14.75a2.242,2.242,0,0,1,1.537,2.128V9c0,4.621-4.549,6.809-5.944,7.37C8.1,15.664,3.495,13.048,3.495,9V5.136A2.242,2.242,0,0,1,5.031,3.007L9.473,1.535ZM9.473,12.7a.747.747,0,1,0,.747.747A.747.747,0,0,0,9.473,12.7Z" transform="translate(-2 0.001)" fill="red"/></svg>