<svg version="1.1" id="Layer_1" xmlns="http://www.w3.org/2000/svg" x="0" y="0" viewBox="0 0 13.5 11.4" xml:space="preserve"><style></style><g id="Group_4373" transform="translate(-24.434 -196.574)"><g id="Group_4190" transform="translate(-2306.219 -621.927)"><path id="Path_4262" d="M2344.1 824.3l-2.8-2.8-2.8 2.8h2.1c0 .8-.2 1.5-.6 2.2 0 0 0 .1-.1.1s-.1.1-.1.1c-.8 1.1-2.1 1.7-3.4 1.7-.5 0-.9-.1-1.3-.2-.1 0-.1 0-.2-.1-.1 0-.1-.1-.2-.1-2.1-1-3-3.5-2.1-5.6.7-1.5 2.2-2.5 3.8-2.5v-1.5c-3.2 0-5.7 2.6-5.7 5.7 0 3.2 2.6 5.7 5.7 5.7s5.7-2.5 5.7-5.7l2 .2z"/><g id="Group_4189"><path id="Path_4263" d="M2337.1 825h-3.2v-1h2.2v-2.5h1v3.5z"/></g></g></g></svg>