<svg xmlns="http://www.w3.org/2000/svg" width="28.49" height="21.345"><g opacity=".412" fill="#292929"><path d="M24.933 0H9.516a1.347 1.347 0 00-.949.356l-8.3 9.487a1.247 1.247 0 000 1.542l8.3 9.487a1.079 1.079 0 00.949.474h15.417a3.494 3.494 0 003.558-3.558V3.558A3.494 3.494 0 0024.933 0zm1.186 17.788a1.12 1.12 0 01-1.186 1.186H10.109l-7.234-8.3 7.234-8.3h14.824a1.12 1.12 0 011.186 1.186z"/><path d="M22.617 5.59a1.328 1.328 0 00-1.923 0l-3.159 3.159-3.159-3.159a1.36 1.36 0 00-1.923 1.923l3.159 3.159-3.159 3.159a1.328 1.328 0 000 1.923 1.484 1.484 0 00.961.412 1.484 1.484 0 00.961-.412l3.159-3.159 3.159 3.159a1.328 1.328 0 001.923 0 1.328 1.328 0 000-1.923l-3.159-3.159 3.159-3.159a1.328 1.328 0 000-1.923z"/></g></svg>