<svg xmlns="http://www.w3.org/2000/svg" width="20" height="20" viewBox="0 0 20 20"><g transform="translate(-23 -198)"><g transform="translate(0 -58)"><g transform="translate(23 256)" fill="#fff" stroke="#000" stroke-width="1.5"><rect width="20" height="20" rx="4" stroke="none"/><rect x="0.75" y="0.75" width="18.5" height="18.5" rx="3.25" fill="none"/></g><g transform="translate(-2306.219 -621.927)"><path d="M2346.708,887.961l-2.839-2.768-2.839,2.766h2.108a4.158,4.158,0,0,1-.646,2.191c-.028.045-.047.095-.077.139s-.078.088-.113.136a4.193,4.193,0,0,1-3.4,1.684,4.272,4.272,0,0,1-1.338-.218c-.06-.02-.123-.033-.181-.056-.073-.028-.143-.064-.214-.1a4.2,4.2,0,0,1,1.763-8.023v-1.5a5.711,5.711,0,1,0,5.71,5.745Z"/><path d="M2339.676,888.722h-3.222v-1h2.222v-2.48h1Z"/></g></g></g></svg>