<svg id="Page-1" xmlns="http://www.w3.org/2000/svg" width="182.379" height="70.229" viewBox="0 0 182.379 70.229">
  <g id="Artboard-Copy-18" transform="translate(0)">
    <g id="Group-13" transform="translate(0)">
      <g id="Group" transform="translate(0)">
        <path id="Path" d="M27.706,7.723,25.558,15.4,8.432,10.722V2.455Z" transform="translate(7.573 2.205)" fill="#132055"/>
        <path id="Path-2" data-name="Path" d="M41.552,25.851s.027,3.14,0,4.186c-.036,1.376-.176,2.708-.314,3.993C38.211,62.139,19.855,69.241,4.23,70.019L0,70.229V0L8.057,2.2V61.677c15.679-2.127,23.826-11.75,25.3-29.8l-17.35-4.742V18.868L40.63,25.6Z" transform="translate(0)" fill="#132055"/>
      </g>
      <path id="BiLira" d="M40.758,41.945V11.575H51.879a11.984,11.984,0,0,1,5.361,1.06A7.308,7.308,0,0,1,60.413,15.5a7.932,7.932,0,0,1,1.045,4.056,5.9,5.9,0,0,1-1.513,4.36,7.7,7.7,0,0,1-3.6,2.046v.3a6.133,6.133,0,0,1,2.958.971A7.076,7.076,0,0,1,61.7,29.77a7.894,7.894,0,0,1,.949,4,8.055,8.055,0,0,1-1.09,4.174A7.466,7.466,0,0,1,58.2,40.87a13.568,13.568,0,0,1-5.8,1.075Zm4.582-3.93h6.614q3.307,0,4.723-1.275a4.112,4.112,0,0,0,1.416-3.188,4.976,4.976,0,0,0-1.609-3.715,6.031,6.031,0,0,0-4.367-1.55H45.34Zm0-13.3h6.139a5.938,5.938,0,0,0,3.9-1.3,4.3,4.3,0,0,0,1.587-3.5,4.209,4.209,0,0,0-1.32-3.166A5.655,5.655,0,0,0,51.6,15.475H45.34ZM67.716,41.945V19.168H72.15V41.945Zm2.239-26.291a2.778,2.778,0,0,1-1.98-.779,2.532,2.532,0,0,1,0-3.737,2.9,2.9,0,0,1,3.952,0,2.517,2.517,0,0,1,0,3.737A2.786,2.786,0,0,1,69.956,15.653Zm8.512,26.291V11.575h4.582V38H96.811v3.944Zm23.207,0V19.168h4.434V41.945Zm2.239-26.291a2.778,2.778,0,0,1-1.98-.779,2.532,2.532,0,0,1,0-3.737,2.9,2.9,0,0,1,3.952,0,2.517,2.517,0,0,1,0,3.737A2.786,2.786,0,0,1,103.914,15.653Zm8.156,26.291V19.168h4.286v3.618h.237a5.53,5.53,0,0,1,2.2-2.9,6.277,6.277,0,0,1,3.581-1.06q.43,0,.994.03t.89.074v4.241a8.62,8.62,0,0,0-.942-.171,9.688,9.688,0,0,0-1.372-.1,5.477,5.477,0,0,0-3.9,1.446,4.83,4.83,0,0,0-1.542,3.685V41.945Zm22.466.5a9.25,9.25,0,0,1-3.907-.8,6.484,6.484,0,0,1-2.766-2.35,6.725,6.725,0,0,1-1.023-3.789,6.113,6.113,0,0,1,.749-3.188,5.548,5.548,0,0,1,2-1.972,10.174,10.174,0,0,1,2.81-1.09,29.142,29.142,0,0,1,3.173-.556q2.046-.237,3.314-.393a4.865,4.865,0,0,0,1.854-.512,1.249,1.249,0,0,0,.586-1.157v-.1a4.022,4.022,0,0,0-1.09-3.01A4.453,4.453,0,0,0,137,22.46a5.678,5.678,0,0,0-3.522.979,5.272,5.272,0,0,0-1.772,2.195l-4.167-.949a7.689,7.689,0,0,1,3.715-4.463,12.169,12.169,0,0,1,5.687-1.349,14.172,14.172,0,0,1,2.892.319,8.741,8.741,0,0,1,2.884,1.171,6.406,6.406,0,0,1,2.209,2.41,8.4,8.4,0,0,1,.853,4.048V41.945h-4.33V38.831h-.178A7.012,7.012,0,0,1,139,41.277,7.522,7.522,0,0,1,134.535,42.449Zm.964-3.559a6.4,6.4,0,0,0,3.159-.727,5.149,5.149,0,0,0,1.994-1.905,4.924,4.924,0,0,0,.69-2.528V30.793a3.02,3.02,0,0,1-1.364.549q-1.053.237-2.224.4t-1.9.267a9.186,9.186,0,0,0-3.3,1.016,2.678,2.678,0,0,0-1.372,2.543,2.82,2.82,0,0,0,1.216,2.484A5.344,5.344,0,0,0,135.5,38.89Z" transform="translate(36.604 9.304)" fill="#132055"/>
    </g>
  </g>
</svg>
