<svg xmlns="http://www.w3.org/2000/svg" width="20" height="20" viewBox="0 0 20 20">
  <g id="Group_3696" data-name="Group 3696" transform="translate(-134 -736)">
    <g id="Group_3695" data-name="Group 3695">
      <g id="Group_3694" data-name="Group 3694">
        <g id="Group_3693" data-name="Group 3693">
          <g id="Group_3689" data-name="Group 3689">
            <g id="Group_3256" data-name="Group 3256" transform="translate(-83 -2)">
              <circle id="Ellipse_367" data-name="Ellipse 367" cx="10" cy="10" r="10" transform="translate(217 738)"/>
            </g>
            <path id="icons8-star_1_" data-name="icons8-star (1)" d="M2.458,12.6a.346.346,0,0,1-.146-.049.271.271,0,0,1-.1-.268l1.072-4L.07,5.679a.231.231,0,0,1-.1-.268A.234.234,0,0,1,.192,5.24l4.143-.219L5.821,1.146A.323.323,0,0,1,6.065,1a.247.247,0,0,1,.219.146L7.771,5.021l4.143.219a.234.234,0,0,1,.219.171.275.275,0,0,1-.073.268L8.843,8.287l1.072,4a.243.243,0,0,1-.1.268.219.219,0,0,1-.268,0L6.065,10.309,2.58,12.551A.134.134,0,0,1,2.458,12.6Z" transform="translate(138.036 739)" fill="#fff"/>
          </g>
        </g>
      </g>
    </g>
  </g>
</svg>
