<svg xmlns="http://www.w3.org/2000/svg" width="14.527" height="6.179"><g data-name="Group 3710"><g data-name="Group 3691"><g data-name="Group 3688"><path data-name="Path 3847" d="M3.094 6.179A3.093 3.093 0 01.005 3.09 3.093 3.093 0 013.094-.001a3.074 3.074 0 012.149.87.576.576 0 01.013.815.577.577 0 01-.815.013 1.926 1.926 0 00-1.347-.544A1.939 1.939 0 001.158 3.09a1.938 1.938 0 001.936 1.936 1.925 1.925 0 001.362-.56.576.576 0 01.815 0 .576.576 0 010 .815 3.071 3.071 0 01-2.177.898z"/></g><g data-name="Group 3689"><path data-name="Path 3848" d="M11.437 6.179a3.074 3.074 0 01-2.149-.87.576.576 0 01.8-.828 1.937 1.937 0 10-.015-2.768.577.577 0 01-.811-.82 3.089 3.089 0 112.172 5.286z"/></g><g data-name="Group 3690"><path data-name="Path 3849" d="M11.58 3.666H3.09a.576.576 0 01-.576-.576.576.576 0 01.576-.576h8.49a.576.576 0 01.576.576.576.576 0 01-.576.576z"/></g></g></g></svg>