<svg xmlns="http://www.w3.org/2000/svg" width="14.527" height="6.179" viewBox="0 0 14.527 6.179">
  <g id="Group_3710" data-name="Group 3710" transform="translate(-341.733 -538.734)">
    <g id="Group_3691" data-name="Group 3691" transform="translate(375.827 388.533)">
      <g id="Group_3688" data-name="Group 3688" transform="translate(-34.094 150.201)">
        <path id="Path_3847" data-name="Path 3847" d="M-31,156.38a3.093,3.093,0,0,1-3.089-3.089A3.093,3.093,0,0,1-31,150.2a3.074,3.074,0,0,1,2.149.87.576.576,0,0,1,.013.815.577.577,0,0,1-.815.013A1.926,1.926,0,0,0-31,151.354a1.939,1.939,0,0,0-1.936,1.937A1.938,1.938,0,0,0-31,155.227a1.925,1.925,0,0,0,1.362-.56.576.576,0,0,1,.815,0,.576.576,0,0,1,0,.815A3.071,3.071,0,0,1-31,156.38Z" transform="translate(34.094 -150.201)"/>
      </g>
      <g id="Group_3689" data-name="Group 3689" transform="translate(-25 150.201)">
        <path id="Path_3848" data-name="Path 3848" d="M7.694,156.38a3.074,3.074,0,0,1-2.149-.87.576.576,0,0,1,.8-.828,1.937,1.937,0,1,0-.015-2.768.576.576,0,0,1-.811-.82,3.089,3.089,0,1,1,2.172,5.286Z" transform="translate(-5.351 -150.201)"/>
      </g>
      <g id="Group_3690" data-name="Group 3690" transform="translate(-31.581 152.714)">
        <path id="Path_3849" data-name="Path 3849" d="M-14.128,162.254h-8.49a.576.576,0,0,1-.576-.576.576.576,0,0,1,.576-.576h8.49a.576.576,0,0,1,.576.576A.576.576,0,0,1-14.128,162.254Z" transform="translate(23.195 -161.101)"/>
      </g>
    </g>
  </g>
</svg>
