<svg xmlns="http://www.w3.org/2000/svg" width="7.191" height="14.545"><path data-name="Path 5481" d="M3.358 14.545h.835v-1.376a3.122 3.122 0 003-3.079c0-1.851-1.1-2.588-2.85-3.391a.582.582 0 01-.147-.066V2.702a2.936 2.936 0 011.746 1.164l1.032-.852a4.08 4.08 0 00-2.781-1.638V0h-.835v1.36a3.107 3.107 0 00-2.932 3c0 1.884 1.343 2.67 2.932 3.407v4.111a2.939 2.939 0 01-2.216-1.772l-1.147.7a3.939 3.939 0 003.363 2.38zm2.424-4.453a1.8 1.8 0 01-1.589 1.751V8.157c.934.459 1.589.95 1.589 1.935zm-3.98-5.735a1.724 1.724 0 011.556-1.671V6.24c-.983-.507-1.556-.982-1.556-1.883z"/></svg>