<svg xmlns="http://www.w3.org/2000/svg" width="7.191" height="14.545" viewBox="0 0 7.191 14.545">
  <path id="Path_5481" data-name="Path 5481" d="M-.584.253H.251V-1.123a3.122,3.122,0,0,0,3-3.079c0-1.851-1.1-2.588-2.85-3.391a.582.582,0,0,1-.147-.066v-3.931A2.936,2.936,0,0,1,2-10.426l1.032-.852A4.08,4.08,0,0,0,.251-12.916v-1.376H-.584v1.36a3.107,3.107,0,0,0-2.932,3c0,1.884,1.343,2.67,2.932,3.407v4.111A2.939,2.939,0,0,1-2.8-4.186l-1.147.7A3.939,3.939,0,0,0-.584-1.106ZM1.84-4.2A1.8,1.8,0,0,1,.251-2.449V-6.135C1.185-5.676,1.84-5.185,1.84-4.2ZM-2.14-9.935A1.724,1.724,0,0,1-.584-11.606v3.554C-1.567-8.559-2.14-9.034-2.14-9.935Z" transform="translate(3.942 14.292)"/>
</svg>
