<svg xmlns="http://www.w3.org/2000/svg" width="20.29" height="21.889" viewBox="0 0 20.29 21.889"><g transform="translate(-2156 -1017.72)"><g transform="translate(2156 1017.72)"><path d="M10.588,8h15.6a1.288,1.288,0,0,1,1.285,1.212l1.056,17.951a2.575,2.575,0,0,1-2.42,2.722q-.076,0-.151,0H10.817a2.575,2.575,0,0,1-2.575-2.575q0-.076,0-.151L9.3,9.212A1.288,1.288,0,0,1,10.588,8Z" transform="translate(-8.242 -8)" fill="#0045ff" fill-rule="evenodd"/><path d="M14,14h2.575A3.863,3.863,0,1,0,24.3,14h2.575A6.438,6.438,0,1,1,14,14Z" transform="translate(-10.293 -10.137)" fill="#fff" fill-rule="evenodd"/></g></g></svg>