<svg width="24" height="24" viewBox="0 0 24 24" fill="none" xmlns="http://www.w3.org/2000/svg">
<path d="M15.104 23.5884C8.70386 25.3026 2.12965 21.5061 0.409109 15.1049C0.00116253 13.5832 -0.103019 11.9961 0.102518 10.4342C0.308055 8.87227 0.819279 7.36616 1.60699 6.00191C2.39469 4.63766 3.44345 3.44201 4.69332 2.48327C5.94319 1.52453 7.36969 0.82149 8.89131 0.414324C15.2915 -1.30649 21.8657 2.49002 23.5862 8.89119C25.3068 15.2924 21.5042 21.8743 15.104 23.5884Z" fill="white"/>
<path d="M11.6464 17.3536C11.8417 17.5488 12.1583 17.5488 12.3536 17.3536L15.5355 14.1716C15.7308 13.9763 15.7308 13.6597 15.5355 13.4645C15.3403 13.2692 15.0237 13.2692 14.8284 13.4645L12 16.2929L9.17157 13.4645C8.97631 13.2692 8.65973 13.2692 8.46447 13.4645C8.2692 13.6597 8.2692 13.9763 8.46447 14.1716L11.6464 17.3536ZM12.5 6C12.5 5.72386 12.2761 5.5 12 5.5C11.7239 5.5 11.5 5.72386 11.5 6L12.5 6ZM12.5 17L12.5 6L11.5 6L11.5 17L12.5 17Z" fill="#2AD17E"/>
</svg>
