<svg width="22" height="10" viewBox="0 0 22 10" fill="none" xmlns="http://www.w3.org/2000/svg">
<path d="M7.5 3.5C7.22386 3.5 7 3.72386 7 4C7 4.27614 7.22386 4.5 7.5 4.5V3.5ZM21.3536 4.35355C21.5488 4.15829 21.5488 3.84171 21.3536 3.64645L18.1716 0.464466C17.9763 0.269204 17.6597 0.269204 17.4645 0.464466C17.2692 0.659728 17.2692 0.976311 17.4645 1.17157L20.2929 4L17.4645 6.82843C17.2692 7.02369 17.2692 7.34027 17.4645 7.53553C17.6597 7.7308 17.9763 7.7308 18.1716 7.53553L21.3536 4.35355ZM7.5 4.5H21V3.5H7.5V4.5Z" fill="black"/>
<path d="M14.5 6.5C14.7761 6.5 15 6.27614 15 6C15 5.72386 14.7761 5.5 14.5 5.5L14.5 6.5ZM0.646446 5.64645C0.451184 5.84171 0.451184 6.15829 0.646446 6.35355L3.82843 9.53553C4.02369 9.7308 4.34027 9.7308 4.53553 9.53553C4.7308 9.34027 4.7308 9.02369 4.53553 8.82843L1.70711 6L4.53553 3.17157C4.7308 2.97631 4.7308 2.65973 4.53553 2.46447C4.34027 2.2692 4.02369 2.2692 3.82843 2.46447L0.646446 5.64645ZM14.5 5.5L1 5.5L1 6.5L14.5 6.5L14.5 5.5Z" fill="black"/>
</svg>
