<svg version="1.1" id="Layer_1" xmlns="http://www.w3.org/2000/svg" x="0" y="0" viewBox="0 0 12.3 11.8" xml:space="preserve"><style></style><path d="M1.9 11.8c-.3 0-.5-.2-.7-.4s-.1-.5.1-.8l.3-.4c.2-.2.3-.5.4-.7-1.2-1-2-2.4-2-4C0 2.4 2.8 0 6.1 0c3.4 0 6.1 2.4 6.1 5.4 0 3-2.8 5.4-6.1 5.4-.4 0-.7 0-1.1-.1-.7.6-1.7 1-2.6 1h-.5zM6.1 1.5c-2.6 0-4.6 1.8-4.6 3.9 0 1.2.7 2.4 1.8 3.1.2.2.3.5.3.8 0 .3-.1.6-.2.8l.9-.6c.2-.2.4-.3.7-.3.4.1.8.1 1.2.1 2.6 0 4.6-1.8 4.6-3.9 0-2.1-2.1-3.9-4.7-3.9z" id="icons8-speech-bubble"/></svg>