<?xml version="1.0" encoding="utf-8"?>
<!-- Generator: Adobe Illustrator 25.2.1, SVG Export Plug-In . SVG Version: 6.00 Build 0)  -->
<svg version="1.1" id="Layer_1" xmlns="http://www.w3.org/2000/svg" xmlns:xlink="http://www.w3.org/1999/xlink" x="0px" y="0px"
	 viewBox="0 0 12.3 11.8" style="enable-background:new 0 0 12.3 11.8;" xml:space="preserve">
<style type="text/css">
	.st0{fill:#1C1F21;}
	.st1{fill:none;}
</style>
<g id="icons8-speech-bubble">
	<path d="M1.9,11.8c-0.3,0-0.5-0.2-0.7-0.4s-0.1-0.5,0.1-0.8l0.3-0.4C1.8,10,1.9,9.7,2,9.5c-1.2-1-2-2.4-2-4C0,2.4,2.8,0,6.1,0
		c3.4,0,6.1,2.4,6.1,5.4c0,3-2.8,5.4-6.1,5.4c-0.4,0-0.7,0-1.1-0.1c-0.7,0.6-1.7,1-2.6,1H1.9z M6.1,1.5c-2.6,0-4.6,1.8-4.6,3.9
		c0,1.2,0.7,2.4,1.8,3.1C3.5,8.7,3.6,9,3.6,9.3c0,0.3-0.1,0.6-0.2,0.8C3.7,9.9,4,9.7,4.3,9.5C4.5,9.3,4.7,9.2,5,9.2
		c0.4,0.1,0.8,0.1,1.2,0.1c0,0,0,0,0,0c2.6,0,4.6-1.8,4.6-3.9C10.8,3.3,8.7,1.5,6.1,1.5z"/>
</g>
</svg>
