<svg width="12" height="11" viewBox="0 0 12 11" fill="none" xmlns="http://www.w3.org/2000/svg"><rect x="0.25" y="0.25" width="11.5" height="10.5" rx="1.75" stroke="black" stroke-width="0.5"/><path d="M6.17678 2.82322C6.07915 2.72559 5.92085 2.72559 5.82322 2.82322L4.23223 4.41421C4.1346 4.51184 4.1346 4.67014 4.23223 4.76777C4.32986 4.8654 4.48816 4.8654 4.58579 4.76777L6 3.35355L7.41421 4.76777C7.51184 4.8654 7.67014 4.8654 7.76777 4.76777C7.8654 4.67014 7.8654 4.51184 7.76777 4.41421L6.17678 2.82322ZM5.75 8C5.75 8.13807 5.86193 8.25 6 8.25C6.13807 8.25 6.25 8.13807 6.25 8H5.75ZM5.75 3V8H6.25V3H5.75Z" fill="black"/></svg>