<svg xmlns="http://www.w3.org/2000/svg" width="37.966" height="44.277" viewBox="0 0 37.966 44.277">
  <g id="Group_2013" data-name="Group 2013" transform="translate(-175.411 -327.477)">
    <rect id="Rectangle_1724" data-name="Rectangle 1724" width="30" height="37" transform="translate(177.387 331.615)" fill="#a5a5a5"/>
    <path id="icons8-address-book-2" d="M11.272,4A3.169,3.169,0,0,0,8.109,7.163v5.271H7.055a1.054,1.054,0,1,0,0,2.108h4.217a1.056,1.056,0,0,0,.91-.5,1.019,1.019,0,0,1,.144.5A1.056,1.056,0,0,1,11.272,15.6H8.109v3.163H7.055a1.054,1.054,0,1,0,0,2.108h4.217a1.056,1.056,0,0,0,.91-.5,1.019,1.019,0,0,1,.144.5,1.056,1.056,0,0,1-1.054,1.054H8.109v3.163H7.055a1.054,1.054,0,1,0,0,2.108h4.217a1.056,1.056,0,0,0,.91-.5,1.019,1.019,0,0,1,.144.5,1.054,1.054,0,0,1-1.054,1.054H8.109V31.41H7.055a1.054,1.054,0,1,0,0,2.108h4.217a1.056,1.056,0,0,0,.91-.5,1.019,1.019,0,0,1,.144.5,1.054,1.054,0,0,1-1.054,1.054H8.109v3.163H7.055a1.054,1.054,0,1,0,0,2.108h4.217a1.056,1.056,0,0,0,.91-.5,1.019,1.019,0,0,1,.144.5A1.054,1.054,0,0,1,11.272,40.9H8.109v4.217a3.169,3.169,0,0,0,3.163,3.163H40.79a3.169,3.169,0,0,0,3.163-3.163V7.163A3.169,3.169,0,0,0,40.79,4Zm16.34,11.6.527,1.054c3.447,0,3.6,4.489,2.685,5.6.247.07.482.445.408,1.046-.14,1.116-.618,1.4-.922,1.425a7.062,7.062,0,0,1-1.116,2.471v2.129c.9,2.38,7.1,1.713,7.38,6.3H16.543c.28-4.592,6.482-3.925,7.38-6.3,0-.988.049-2.129.049-2.129h-.049a4.087,4.087,0,0,1-1.116-2.471c-.3-.025-.782-.309-.922-1.425a1.033,1.033,0,0,1,.408-1.046C20.859,19.2,22.662,15.6,27.612,15.6Z" transform="translate(169.425 323.477)" fill="#e4e4e4"/>
  </g>
</svg>
