<svg xmlns="http://www.w3.org/2000/svg" xmlns:xlink="http://www.w3.org/1999/xlink" width="67.723" height="67.723" viewBox="0 0 67.723 67.723">
  <defs>
    <linearGradient id="linear-gradient" x1="0.5" x2="0.5" y2="1" gradientUnits="objectBoundingBox">
      <stop offset="0" stop-color="#b1fdc0"/>
      <stop offset="1" stop-color="#fefd86"/>
    </linearGradient>
  </defs>
  <g id="Group_3220" data-name="Group 3220" transform="translate(-156.899 -310.139)">
    <g id="Group_3219" data-name="Group 3219">
      <g id="Group_3218" data-name="Group 3218">
        <g id="Group_3213" data-name="Group 3213" transform="translate(156.899 310.139)">
          <path id="Path_3353" data-name="Path 3353" d="M733.1,820.487a33.73,33.73,0,0,0-23.9,9.958l-6.573-6.572V840.8h16.931l-5.574-5.574a27.038,27.038,0,0,1,46.207,19.118h6.772A33.912,33.912,0,0,0,733.1,820.487Z" transform="translate(-699.24 -820.487)" fill="url(#linear-gradient)"/>
          <path id="Path_3354" data-name="Path 3354" d="M687.626,970.487a33.912,33.912,0,0,0,33.861,33.861,34.728,34.728,0,0,0,13.223-2.709,32.841,32.841,0,0,0,10.68-7.246l6.573,6.569V984.032H735.032l5.574,5.574A27.038,27.038,0,0,1,694.4,970.487Z" transform="translate(-687.626 -936.626)" fill="url(#linear-gradient)"/>
        </g>
      </g>
    </g>
    <g id="Group_3212" data-name="Group 3212" transform="translate(176.936 329.002)">
      <rect id="Rectangle_1724" data-name="Rectangle 1724" width="20.324" height="25.066" transform="translate(1.339 2.804)" fill="#a5a5a5"/>
      <path id="icons8-address-book-2" d="M9.567,4A2.147,2.147,0,0,0,7.424,6.143V9.714H6.71a.714.714,0,1,0,0,1.428H9.567a.716.716,0,0,0,.617-.338.691.691,0,0,1,.1.338.716.716,0,0,1-.714.714H7.424V14H6.71a.714.714,0,1,0,0,1.428H9.567a.716.716,0,0,0,.617-.338.691.691,0,0,1,.1.338.716.716,0,0,1-.714.714H7.424v2.143H6.71a.714.714,0,1,0,0,1.428H9.567a.716.716,0,0,0,.617-.338.691.691,0,0,1,.1.338.714.714,0,0,1-.714.714H7.424v2.143H6.71A.714.714,0,1,0,6.71,24H9.567a.716.716,0,0,0,.617-.338.691.691,0,0,1,.1.338.714.714,0,0,1-.714.714H7.424v2.143H6.71a.714.714,0,1,0,0,1.428H9.567a.716.716,0,0,0,.617-.338.691.691,0,0,1,.1.338A.714.714,0,0,1,9.567,29H7.424v2.857A2.147,2.147,0,0,0,9.567,34h20a2.147,2.147,0,0,0,2.143-2.143V6.143A2.147,2.147,0,0,0,29.565,4Zm11.07,7.856.357.714c2.335,0,2.438,3.041,1.819,3.794.167.047.326.3.276.709-.095.756-.418.949-.625.965a4.785,4.785,0,0,1-.756,1.674v1.442c.611,1.613,4.81,1.161,5,4.271H13.138c.19-3.111,4.391-2.659,5-4.271,0-.67.033-1.442.033-1.442h-.033a2.769,2.769,0,0,1-.756-1.674c-.206-.017-.53-.209-.625-.965a.7.7,0,0,1,.276-.709C16.062,14.295,17.284,11.856,20.637,11.856Z" transform="translate(-5.986 -4)" fill="#e4e4e4"/>
    </g>
  </g>
</svg>
