<svg xmlns="http://www.w3.org/2000/svg" width="67.723" height="67.723" viewBox="0 0 67.723 67.723"><g transform="translate(-154.899 -310.139)"><g transform="translate(0.167 2.62)"><rect width="18.841" height="23.237" transform="translate(176.652 330.076)" fill="#fff"/><path d="M9.306,4A1.99,1.99,0,0,0,7.32,5.986V9.3H6.657a.662.662,0,1,0,0,1.324H9.306a.663.663,0,0,0,.572-.313.64.64,0,0,1,.091.313.663.663,0,0,1-.662.662H7.32v1.986H6.657a.662.662,0,1,0,0,1.324H9.306a.663.663,0,0,0,.572-.313.64.64,0,0,1,.091.313.663.663,0,0,1-.662.662H7.32v1.986H6.657a.662.662,0,1,0,0,1.324H9.306a.663.663,0,0,0,.572-.313.64.64,0,0,1,.091.313.662.662,0,0,1-.662.662H7.32v1.986H6.657a.662.662,0,1,0,0,1.324H9.306a.663.663,0,0,0,.572-.313.64.64,0,0,1,.091.313.662.662,0,0,1-.662.662H7.32v1.986H6.657a.662.662,0,1,0,0,1.324H9.306a.663.663,0,0,0,.572-.313.64.64,0,0,1,.091.313.662.662,0,0,1-.662.662H7.32v2.648a1.99,1.99,0,0,0,1.986,1.986H27.844a1.99,1.99,0,0,0,1.986-1.986V5.986A1.99,1.99,0,0,0,27.844,4Zm10.262,7.283.331.662c2.165,0,2.26,2.819,1.686,3.517.155.044.3.279.256.657-.088.7-.388.879-.579.895a4.435,4.435,0,0,1-.7,1.552V19.9c.566,1.495,4.459,1.076,4.635,3.96H12.616c.176-2.884,4.071-2.465,4.635-3.96,0-.621.031-1.337.031-1.337h-.031a2.567,2.567,0,0,1-.7-1.552c-.191-.016-.491-.194-.579-.895a.649.649,0,0,1,.256-.657C15.326,13.543,16.459,11.283,19.568,11.283Z" transform="translate(169.425 323.477)"/></g><g transform="translate(154.899 310.139)"><path d="M733.1,820.487a33.73,33.73,0,0,0-23.9,9.958l-6.573-6.572V840.8h16.931l-5.574-5.574a27.038,27.038,0,0,1,46.207,19.118h6.772A33.912,33.912,0,0,0,733.1,820.487Z" transform="translate(-699.24 -820.487)" fill="#38d989"/><path d="M687.626,970.487a33.912,33.912,0,0,0,33.861,33.861,34.728,34.728,0,0,0,13.223-2.709,32.841,32.841,0,0,0,10.68-7.246l6.573,6.569V984.032H735.032l5.574,5.574A27.038,27.038,0,0,1,694.4,970.487Z" transform="translate(-687.626 -936.626)" fill="#38d989"/></g></g></svg>