<svg xmlns="http://www.w3.org/2000/svg" xmlns:xlink="http://www.w3.org/1999/xlink" width="248.327" height="194.594"><defs><linearGradient id="a" x1=".5" y1="1" x2=".5" gradientUnits="objectBoundingBox"><stop offset="0" stop-color="gray" stop-opacity=".251"/><stop offset=".54" stop-color="gray" stop-opacity=".122"/><stop offset="1" stop-color="gray" stop-opacity=".102"/></linearGradient><linearGradient id="b" x1=".5" y1="1" x2=".5" y2="0" xlink:href="#a"/><linearGradient id="c" x1=".501" y1="1" x2=".501" y2=".003" xlink:href="#a"/><linearGradient id="d" x1=".5" y1="1" x2=".5" y2="0" xlink:href="#a"/><style>.b{fill:none;stroke:#535461;stroke-miterlimit:10;stroke-width:2px}.c{fill:#00afff}.d{fill:#00c3ae}.f{fill:#333}.g{fill:#fdb797}.h{fill:#252a62}.i{opacity:.1}.o{fill:#ffc533}.p{fill:#9f6a9d}</style></defs><g><path d="M52.787 23.903c-3.289 1.712-6.583 3.867-8.257 7.175-1.231 2.434-1.455 5.225-1.658 7.94l-2.434 32.416c-.541 7.224-1.133 14.647-4.287 21.171-5.433 11.237-16.263 17.649-25.144 26.417-14.553 14.369-13.8 38.59-2.871 55.877a36.278 36.278 0 0020.908 15.451c5.068 1.379 10.363 1.623 15.61 1.858 43.948 1.906 85.341 2.67 129.348 2.293 5.225-.046 10.593-.135 15.415-2.12 6.661-2.74 11.448-8.771 14.745-15.175s5.409-13.357 8.527-19.848c6.383-13.252 11.352-24.053 20.4-35.637 4.99-6.383 9.66-13.146 12.462-20.746 4.454-12.078 3.675-26.285-3.286-37.116-3.007-4.681-7.1-8.735-9.149-13.909-2.859-7.234-1.263-15.337-.581-23.085s-.065-16.595-6.028-21.59c-3.291-2.756-7.651-3.843-11.9-4.465-20.34-2.975-40.77 2.913-60.94 6.883-17.8 3.516-35.842 5.528-53.9 7.132-16.022 1.427-32.357 1.465-46.98 9.078z" fill="#eee"/><path class="b" d="M48.898 175.038s-7.873-26.728 1.477-46.4a42.2 42.2 0 003.413-26.485 71 71 0 00-3.748-12.441"/><path class="c" d="M55.855 77.289c0 3.275-5.931 12.773-5.931 12.773s-5.931-9.5-5.931-12.773a5.931 5.931 0 0111.862 0zM65.657 95.422c-1.78 2.75-11.921 7.5-11.921 7.5s.184-11.2 1.963-13.947a5.931 5.931 0 119.958 6.447zM65.23 126.437c-2.924 1.474-14.063.457-14.063.457s5.793-9.566 8.722-11.048a5.931 5.931 0 115.341 10.591zM59.625 149.823c-2.634 1.947-13.793 2.829-13.793 2.829s4.111-10.418 6.742-12.365a5.931 5.931 0 117.053 9.536zM41.274 103.566c2.35 2.283 13.3 4.646 13.3 4.646s-2.68-10.872-5.03-13.155a5.931 5.931 0 00-8.265 8.508zM35.073 131c2.924 1.474 14.063.457 14.063.457s-5.812-9.574-8.735-11.048A5.931 5.931 0 1035.06 131zM32.696 158.494c2.634 1.947 13.793 2.829 13.793 2.829s-4.111-10.418-6.742-12.365a5.931 5.931 0 10-7.053 9.536z"/><path class="d" d="M55.855 77.289c0 3.275-5.931 12.773-5.931 12.773s-5.931-9.5-5.931-12.773a5.931 5.931 0 0111.862 0zM65.657 95.422c-1.78 2.75-11.921 7.5-11.921 7.5s.184-11.2 1.963-13.947a5.931 5.931 0 119.958 6.447zM65.23 126.437c-2.924 1.474-14.063.457-14.063.457s5.793-9.566 8.722-11.048a5.931 5.931 0 115.341 10.591zM59.625 149.823c-2.634 1.947-13.793 2.829-13.793 2.829s4.111-10.418 6.742-12.365a5.931 5.931 0 117.053 9.536zM41.274 103.566c2.35 2.283 13.3 4.646 13.3 4.646s-2.68-10.872-5.03-13.155a5.931 5.931 0 00-8.265 8.508zM35.073 131c2.924 1.474 14.063.457 14.063.457s-5.812-9.574-8.735-11.048A5.931 5.931 0 1035.06 131zM32.696 158.494c2.634 1.947 13.793 2.829 13.793 2.829s-4.111-10.418-6.742-12.365a5.931 5.931 0 10-7.053 9.536z"/><path class="b" d="M199.906 160.662s-7.873-26.725 1.469-46.4a42.2 42.2 0 003.413-26.485 70.988 70.988 0 00-3.749-12.44"/><path class="c" d="M206.866 62.918c0 3.275-5.931 12.773-5.931 12.773s-5.931-9.5-5.931-12.773a5.931 5.931 0 0111.862 0zM216.67 81.061c-1.78 2.75-11.921 7.5-11.921 7.5s.184-11.2 1.963-13.947a5.932 5.932 0 019.958 6.448zM216.253 112.066c-2.923 1.474-14.063.457-14.063.457s5.812-9.574 8.735-11.048a5.931 5.931 0 115.328 10.591zM210.636 135.449c-2.634 1.947-13.793 2.829-13.793 2.829s4.111-10.418 6.742-12.365a5.93 5.93 0 117.051 9.537zM192.294 89.204c2.35 2.283 13.3 4.646 13.3 4.646s-2.68-10.867-5.022-13.163a5.937 5.937 0 10-8.273 8.516zM186.085 116.628c2.924 1.474 14.063.457 14.063.457s-5.8-9.574-8.722-11.048a5.931 5.931 0 10-5.341 10.591zM183.708 144.122c2.634 1.947 13.793 2.829 13.793 2.829s-4.111-10.418-6.742-12.365a5.931 5.931 0 10-7.053 9.536z"/><path class="d" d="M206.866 62.918c0 3.275-5.931 12.773-5.931 12.773s-5.931-9.5-5.931-12.773a5.931 5.931 0 0111.862 0zM216.67 81.061c-1.78 2.75-11.921 7.5-11.921 7.5s.184-11.2 1.963-13.947a5.932 5.932 0 019.958 6.448zM216.253 112.066c-2.923 1.474-14.063.457-14.063.457s5.812-9.574 8.735-11.048a5.931 5.931 0 115.328 10.591zM210.636 135.449c-2.634 1.947-13.793 2.829-13.793 2.829s4.111-10.418 6.742-12.365a5.93 5.93 0 117.051 9.537zM192.294 89.204c2.35 2.283 13.3 4.646 13.3 4.646s-2.68-10.867-5.022-13.163a5.937 5.937 0 10-8.273 8.516zM186.085 116.628c2.924 1.474 14.063.457 14.063.457s-5.8-9.574-8.722-11.048a5.931 5.931 0 10-5.341 10.591zM183.708 144.122c2.634 1.947 13.793 2.829 13.793 2.829s-4.111-10.418-6.742-12.365a5.931 5.931 0 10-7.053 9.536z"/><path d="M688.131 331.98a.2.2 0 01.019-.1c.019-.035 0-.019 0-.027a1.264 1.264 0 000-.2s-.362-.7-.784-1.65a13.019 13.019 0 01-1.26-4.3s-6.32-22.117-10.593-24.532c0 0-3.516-6.261-3.478-9.785a19.925 19.925 0 00-.27-3.362c-.625-3.886-1.666-11.326-.714-12.687 1.209-1.728 3.224-9.247-1.588-14.923l.844-.13s-.046-.057-.122-.168l.122-.019s-1.861-2.234-1.861-7.17a30.3 30.3 0 012.6-11.232q.384-.93.7-1.842a9.258 9.258 0 002.434-1.752l.086-.089.1-.095a15.791 15.791 0 003.6-6.558 31.226 31.226 0 001.312-6.8 64.279 64.279 0 000-7.537c-.122-2.932-.27-5.95-1.444-8.625a20.824 20.824 0 01-1.366-3.145 18.4 18.4 0 01-.327-2.307 12.331 12.331 0 00-4.184-7.932 9.728 9.728 0 00-8.606-2 14.03 14.03 0 00-4.6 2.5 15.546 15.546 0 00-1.7 1.485c-1.7 1.663-2.975 3.843-1.747 6.134q.135.249.289.487a8.362 8.362 0 003.94 12.189l.219.384h.024a13.9 13.9 0 011.523 3.786 11.649 11.649 0 00-2.164 2 39.066 39.066 0 00-4.04 5.536 19.747 19.747 0 01-2.145 3.015c-.993 1.174-2.164 3.464-2.164 7.727v.971c-5.239 5.7-25.668 1.523-25.668 1.523-2.461-.957-5.325.2-6.667.876a.811.811 0 00-.27 1.241c2.164 2.607 7.486 1.044 7.486 1.044s19.142 3.345 20.63 4.46c1.011.76 2.8.141 3.838-.333l-.214.241.27-.133-1.471 13.233h.022l-.022.187s.341-.03.884-.068l.454 1.176h-.038l.471 1.114.387.917c-1.155 4.176-5.809 21.365-5.32 25.289 0 0-2.975 7.061-1.858 10.967 0 0-4.089 29.365-6.691 30.852l.365.165c-2.778 1.588-8.827 4.573-13 3.18 0 0-2.6.744 1.487 3.345 0 0 16.727 4.46 18.958 2.975l-.37-6.429.189.068c.027-.362.27-3.021 1.3-4.232 0 0 6.691-18.215 6.32-27.507l6.245-15.091a17.349 17.349 0 002.118 4.127l2.6 6.691 4.276 5.577s13.382 21.187 12.441 27.507l.314.078c-1.252 2.229-4.368 6.8-8.865 6.8 0 0-3.9 4.089 3.345 3.532 0 0 9.106-.557 15.8-4.276z" transform="translate(-492.897 -158.755)" fill="url(#a)"/><path class="f" d="M147.809 171.507s-8.6 5.736-13.979 3.943c0 0-2.51.717 1.433 3.227 0 0 16.132 4.3 18.282 2.867l-.541-9.32zM188.317 171.507s-3.405 7.708-9.141 7.708c0 0-3.765 3.943 3.226 3.4 0 0 8.781-.541 15.234-4.122l-3.086-8.043z"/><path class="g" d="M157.667 103.127l1.352 3.5 8.776-.627-.9-5.915z"/><path class="h" d="M159.638 106.625s-5.912 20.98-5.376 25.273c0 0-2.867 6.81-1.793 10.574 0 0-3.943 28.318-6.453 29.749 0 0 7.3 3.3 7.527 3.226 2.51-.9-.179 0-.179 0s.179-2.867 1.255-4.122c0 0 6.453-17.566 6.093-26.525l8.6-20.792z"/><path class="i" d="M159.638 106.625s-5.912 20.98-5.376 25.273c0 0-2.867 6.81-1.793 10.574 0 0-3.943 28.318-6.453 29.749 0 0 7.3 3.3 7.527 3.226 2.51-.9-.179 0-.179 0s.179-2.867 1.255-4.122c0 0 6.453-17.566 6.093-26.525l8.6-20.792z"/><path class="h" d="M158.564 105.548l3.943 9.32s3.048 15.234 6.274 19.356l2.51 6.453 4.124 5.379s12.906 20.432 12.008 26.525c0 0 8.065 2.164 7.886-.541 0 0-1.972-3.764-1.972-5.736 0 0-6.093-21.327-10.218-23.659 0 0-3.386-6.039-3.354-9.436a19.212 19.212 0 00-.271-3.245c-.6-3.748-1.606-10.921-.687-12.232 1.255-1.793 3.4-10.036-2.688-15.594z"/><path class="i" d="M195.305 172.045s-1.972-3.765-1.972-5.736c0 0-6.093-21.327-10.218-23.659 0 0-3.386-6.039-3.354-9.436a19.224 19.224 0 00-.27-3.245c-.6-3.748-1.606-10.921-.687-12.232 1.255-1.793 3.4-10.036-2.688-15.594l-1.039.2c5.825 5.552 3.713 13.62 2.475 15.391s1.082 14.518 1.082 14.518c-.9 3.048 3.226 10.4 3.226 10.4 4.122 2.331 10.217 23.659 10.217 23.659 0 1.971 1.972 5.736 1.972 5.736.059.887-.782 1.247-1.934 1.331 1.737.098 3.271-.145 3.19-1.333z"/><path class="g" d="M166.808 58.773s3.4 5.2 2.51 6.81l8.781-2.164s-2.331-2.51-1.793-8.6z"/><path class="i" d="M179.354 62.538s-7.348-1.623-12.008 3.943a37.746 37.746 0 00-3.9 5.339 19.04 19.04 0 01-2.066 2.907c-1.166 1.377-2.594 4.343-1.923 10.393l-2.161 19.352s6.274-.541 7.886 0 12.906-1.255 12.906-1.255-4.481-5.376.717-17.922a30.448 30.448 0 00.549-22.757z"/><path d="M179.354 62.355s-7.348-1.623-12.008 3.943a37.744 37.744 0 00-3.9 5.339 19.039 19.039 0 01-2.066 2.907c-1.166 1.377-2.594 4.343-1.923 10.393l-2.161 19.356s6.274-.541 7.886 0 12.906-1.255 12.906-1.255-4.481-5.376.717-17.922a30.448 30.448 0 00.549-22.761z" fill="#fa6c77"/><path class="i" d="M170.483 78.925s-6.991 10.044-10.212 11.837l-1.793.9s11.288-12.737 12.005-12.737z"/><path class="g" d="M163.941 73.825s4.6-1.809 6.569 4.189a1.438 1.438 0 01-.308 1.425L159.46 91.03s-3.048 1.793-4.481.717-19.894-4.3-19.894-4.3-5.125 1.506-7.218-1.006a.776.776 0 01.252-1.2c1-.506 2.669-.214 4.638-.457a16.323 16.323 0 014.543.095c6.147.963 20.63 2.553 22.877-3.351 2.866-7.522 3.764-7.703 3.764-7.703z"/><path class="i" d="M163.852 73.914s5.555-.9 6.81 4.66v-.36s-1.612-6.09-6.81-4.3zM176.498 55.186l-9.512 3.943s.43.654.941 1.571a9.5 9.5 0 003.27.133 6.885 6.885 0 005.2-1.972 16.966 16.966 0 01.101-3.675z"/><circle class="g" cx="8.065" cy="8.065" r="8.065" transform="translate(162.686 44.79)"/><path class="i" d="M170.764 51.764c.176.622-.341 1.2-.714 1.725-1.306 1.847-1.066 4.362-.468 6.542a4.361 4.361 0 001.685 2.764 9.8 9.8 0 002.556.652 5.826 5.826 0 013.516 3.026 11.265 11.265 0 011.082 4.614 23.341 23.341 0 01-3.178 13.146 7.752 7.752 0 006.585-2.4 15.187 15.187 0 003.472-6.323 30.114 30.114 0 001.266-6.553 62.094 62.094 0 000-7.27c-.116-2.826-.251-5.728-1.393-8.316a20.308 20.308 0 01-1.317-3.034 17.744 17.744 0 01-.316-2.223 11.9 11.9 0 00-4.035-7.651 9.407 9.407 0 00-8.3-1.928 13.477 13.477 0 00-4.425 2.407c-2.18 1.658-4.681 4.327-3.143 7.167a7.124 7.124 0 007.127 3.655z"/><path d="M170.943 51.586c.176.622-.341 1.2-.714 1.725-1.306 1.847-1.066 4.362-.468 6.542a4.36 4.36 0 001.685 2.764 9.8 9.8 0 002.556.652 5.827 5.827 0 013.516 3.026 11.265 11.265 0 011.082 4.614 23.341 23.341 0 01-3.183 13.154 7.752 7.752 0 006.585-2.4 15.187 15.187 0 003.472-6.323 30.114 30.114 0 001.266-6.553 62.094 62.094 0 000-7.27c-.116-2.826-.251-5.728-1.393-8.316a20.3 20.3 0 01-1.317-3.034 17.721 17.721 0 01-.316-2.223 11.9 11.9 0 00-4.035-7.651 9.407 9.407 0 00-8.3-1.928 13.476 13.476 0 00-4.424 2.407c-2.18 1.658-4.682 4.327-3.143 7.167a7.143 7.143 0 007.131 3.647z" fill="#72351c"/><path class="i" d="M171.738 91.656s3.405 0 4.66-1.623M171.738 92.913s3.405 0 4.66-1.623M174.965 72.302s-.541 4.3-2.51 6.274"/><path d="M514.825 731.5v-.043l-.065.022z" transform="translate(-417.568 -551.804)" fill="url(#b)"/><path d="M511.25 730.478a.312.312 0 00.122-.022c-.417-.146-2.523-.838-.122.022z" transform="translate(-414.182 -550.779)" fill="url(#c)"/><path d="M415.4 250.29c-1.368-.668-4.289-1.809-6.8-.865 0 0-24.07 4.771-27.1-2.937q-.214-.541-.414-1.041a11.2 11.2 0 00.078-1.523 10.712 10.712 0 00-.133-1.869 6.536 6.536 0 00-1.02-2.526 16.4 16.4 0 01-1.458-3.167 11.989 11.989 0 00-6.877-7.032 11.435 11.435 0 011.6-4.176h.024l.224-.379a8.265 8.265 0 005.322-7.651 8.029 8.029 0 00-1.376-4.494c2.544-.409 1.674-2.573.1-4.428a12.1 12.1 0 00-.976-1.022 11.4 11.4 0 00-5.579-3.018 10.398 10.398 0 00-.76-.13 10.547 10.547 0 00-9.174 1.122 4.727 4.727 0 00-4.509-3.154 4.6 4.6 0 100 9.2h.27a9.631 9.631 0 00-.27 2.21 9.979 9.979 0 007.716 9.606l.078.073a1.655 1.655 0 01-.024.23l.019.016a10.688 10.688 0 01-1.266 3.878l-.168-.041c-3.5 2.434-4.763 6.126-4.733 9.971a23.125 23.125 0 002.164 9.466 8.654 8.654 0 01.681 3.516c-.068 4.165-1.985 9.163-3.289 12.089-.517 1.16-8.005 19.269-8.005 19.269l.17-.043-.17.411a9.362 9.362 0 014.89.154 8 8 0 006.128-.865 8 8 0 001.02 2.456c.971 1.352-.089 8.687-.727 12.524a19.057 19.057 0 00-.27 3.321c.035 3.481-3.546 9.663-3.546 9.663-4.36 2.385-10.8 24.221-10.8 24.221a12.552 12.552 0 01-1.285 4.243c-.427.944-.811 1.623-.811 1.623a1.2 1.2 0 000 .2v.027a1.023 1.023 0 00.019.1l-2.488 6.277c6.823 3.67 16.111 4.222 16.111 4.222 7.391.541 3.413-3.486 3.413-3.486-4.6 0-7.762-4.511-9.041-6.71l.322-.078c-.947-6.239 12.711-27.158 12.711-27.158l4.36-5.506 2.653-6.634a17.009 17.009 0 002.164-4.073l6.366 14.891c-.379 9.176 6.445 27.158 6.445 27.158 1.057 1.2 1.3 3.821 1.323 4.178l.192-.065-.379 6.347c2.274 1.469 19.334-2.937 19.334-2.937 4.17-2.569 1.517-3.3 1.517-3.3-4.257 1.374-10.428-1.574-13.252-3.14l.37-.162c-2.653-1.469-6.823-30.46-6.823-30.46 1.139-3.854-1.893-10.818-1.893-10.818.346-2.677-1.834-11.67-3.592-18.3a36.239 36.239 0 006.721-.687c-.141-.089-.27-.184-.414-.27.27-.051.414-.084.414-.084-5.858-3.746-9.2-16.4-10.637-23.564a7.572 7.572 0 001.16.811l1.893.917-.216-.235c1.057.468 2.88 1.082 3.913.327 1.517-1.1 21.038-4.4 21.038-4.4s5.409 1.544 7.635-1.03a.787.787 0 00-.279-1.247z" transform="translate(-291.435 -165.534)" fill="url(#d)"/><circle class="o" cx="9.679" cy="9.679" r="9.679" transform="translate(66.348 40.038)"/><path class="g" d="M83.286 59.308s-3.4 5.2-2.51 6.81l-8.781-2.164s2.331-2.51 1.793-8.6z"/><path class="i" d="M73.606 55.724l9.5 3.943s-.43.655-.941 1.571a9.5 9.5 0 01-3.27.132 6.885 6.885 0 01-5.2-1.972 18.163 18.163 0 00-.089-3.674z"/><circle class="g" cx="8.065" cy="8.065" r="8.065" transform="translate(71.278 45.328)"/><circle class="o" cx="4.481" cy="4.481" r="4.481" transform="translate(61.866 38.604)"/><path class="i" d="M85.071 49.068c-2.018-.035-4.311-.441-5.823.892-1.082.957-1.374 2.5-1.742 3.905-.541 2.1-1.779 4.416-3.932 4.73a4.319 4.319 0 01-3.57-1.409 12.038 12.038 0 01-2.107-3.356 8.222 8.222 0 01-1.082-3.757 7.9 7.9 0 011.909-4.233 17.629 17.629 0 011.88-2.218 10.547 10.547 0 0115.591 1.052c1.68 2.038 2.516 4.456-1.124 4.394z"/><path class="o" d="M84.892 48.89c-2.018-.035-4.311-.441-5.823.892-1.082.957-1.374 2.5-1.742 3.905-.541 2.1-1.78 4.416-3.932 4.73a4.319 4.319 0 01-3.57-1.409 12.038 12.038 0 01-2.107-3.356 8.223 8.223 0 01-1.082-3.757 7.9 7.9 0 011.909-4.232 17.627 17.627 0 011.88-2.218 10.547 10.547 0 0115.591 1.052c1.678 2.037 2.516 4.455-1.124 4.393z"/><path class="f" d="M102.284 172.046s8.6 5.736 13.979 3.943c0 0 2.51.717-1.433 3.226 0 0-16.132 4.3-18.282 2.867l.541-9.32zM61.778 172.045s3.4 7.708 9.141 7.708c0 0 3.765 3.943-3.226 3.4 0 0-8.781-.541-15.234-4.122l3.086-8.043z"/><path class="p" d="M90.456 107.163s5.915 20.97 5.377 25.271c0 0 2.867 6.81 1.793 10.574 0 0 3.943 28.318 6.453 29.749 0 0-7.3 3.3-7.526 3.227-2.51-.9.178 0 .178 0s-.178-2.867-1.255-4.122c0 0-6.453-17.565-6.093-26.525l-8.6-20.792z"/><path class="i" d="M90.456 107.163s5.915 20.97 5.377 25.271c0 0 2.867 6.81 1.793 10.574 0 0 3.943 28.318 6.453 29.749 0 0-7.3 3.3-7.526 3.227-2.51-.9.178 0 .178 0s-.178-2.867-1.255-4.122c0 0-6.453-17.565-6.093-26.525l-8.6-20.792z"/><path class="p" d="M91.527 106.086l-3.943 9.32s-3.048 15.234-6.274 19.356l-2.51 6.453-4.122 5.376s-12.906 20.432-12.008 26.525c0 0-8.065 2.164-7.886-.541 0 0 1.972-3.765 1.972-5.736 0 0 6.093-21.327 10.217-23.659 0 0 3.386-6.039 3.354-9.436a19.217 19.217 0 01.27-3.245c.6-3.748 1.606-10.921.687-12.232-1.255-1.793-3.4-10.036 2.688-15.594z"/><path class="i" d="M54.797 172.581s1.972-3.765 1.972-5.736c0 0 6.093-21.327 10.217-23.659 0 0 3.386-6.039 3.354-9.436a19.218 19.218 0 01.27-3.245c.6-3.748 1.606-10.921.687-12.232-1.255-1.793-3.4-10.036 2.688-15.594l1.039.2c-5.844 5.555-3.729 13.636-2.491 15.394s-1.082 14.518-1.082 14.518c.9 3.048-3.226 10.4-3.226 10.4-4.118 2.329-10.218 23.658-10.218 23.658 0 1.971-1.972 5.736-1.972 5.736-.06.887.782 1.247 1.934 1.331-1.728.099-3.262-.145-3.172-1.335z"/><path class="i" d="M72.359 63.51l6.661 1.639a11.526 11.526 0 018.113 7.383 16.269 16.269 0 001.377 3.094 6.5 6.5 0 01.963 2.469 11.953 11.953 0 01-1.59 7.821s3.032 22.763 10.9 27.961c0 0-7.683 1.769-14.418-.419a14.922 14.922 0 00-13.333 1.92l-.168.122a7.394 7.394 0 01-6.337 1.22 8.6 8.6 0 00-4.625-.149s7.083-17.684 7.573-18.82c1.65-3.838 4.354-11.324 2.461-15.58-2.628-5.926-3.589-14.707 2.423-18.661z"/><path d="M72.359 63.161L79.02 64.8a11.526 11.526 0 018.113 7.383 16.267 16.267 0 001.377 3.094 6.5 6.5 0 01.963 2.469 11.953 11.953 0 01-1.59 7.821s3.032 22.763 10.9 27.961c0 0-7.683 1.769-14.418-.419a14.922 14.922 0 00-13.333 1.92l-.168.122a7.394 7.394 0 01-6.337 1.212 8.6 8.6 0 00-4.625-.149s7.083-17.685 7.573-18.82c1.65-3.84 4.354-11.326 2.461-15.594-2.628-5.914-3.589-14.336 2.423-18.639z" fill="#535461"/><path class="i" d="M79.613 79.466s6.991 10.036 10.217 11.829l1.793.9S80.33 79.466 79.613 79.466z"/><path class="g" d="M86.152 74.363s-4.6-1.809-6.569 4.189a1.439 1.439 0 00.308 1.425l10.742 11.594s3.048 1.793 4.481.717 19.894-4.3 19.894-4.3 5.09 1.5 7.2-.982a.8.8 0 00-.23-1.222c-1.112-.56-3.145-.541-5.333-.727a8.653 8.653 0 00-2.266.1c-4.679.83-21.987 3.41-24.459-3.086-2.87-7.529-3.768-7.708-3.768-7.708z"/><path class="i" d="M86.244 74.452s-5.555-.9-6.81 4.66v-.36s1.612-6.093 6.81-4.3z"/><path class="b" d="M122.122 170.877s-4.262-14.469.811-25.119a22.855 22.855 0 001.847-14.334 38.447 38.447 0 00-2.031-6.729"/><path class="c" d="M125.889 117.959c0 1.774-3.21 6.915-3.21 6.915s-3.21-5.138-3.21-6.915a3.212 3.212 0 016.423 0zM131.195 127.782c-.963 1.487-6.453 4.057-6.453 4.057s.1-6.061 1.063-7.551a3.211 3.211 0 015.39 3.491zM130.963 144.568c-1.582.811-7.621.246-7.621.246s3.145-5.182 4.73-5.982a3.211 3.211 0 112.891 5.733zM127.929 157.23c-1.425 1.055-7.47 1.531-7.47 1.531s2.226-5.639 3.651-6.694a3.211 3.211 0 113.819 5.163zM118 132.187c1.271 1.236 7.2 2.515 7.2 2.515s-1.452-5.888-2.723-7.121a3.21 3.21 0 10-4.476 4.6zM114.639 147.037c1.582.811 7.621.246 7.621.246s-3.148-5.182-4.719-5.98a3.211 3.211 0 10-2.891 5.734zM113.353 161.922c1.425 1.055 7.47 1.531 7.47 1.531s-2.226-5.639-3.651-6.694a3.211 3.211 0 00-3.819 5.163z"/><path class="d" d="M125.889 117.959c0 1.774-3.21 6.915-3.21 6.915s-3.21-5.138-3.21-6.915a3.212 3.212 0 016.423 0zM131.195 127.782c-.963 1.487-6.453 4.057-6.453 4.057s.1-6.061 1.063-7.551a3.211 3.211 0 015.39 3.491zM130.963 144.568c-1.582.811-7.621.246-7.621.246s3.145-5.182 4.73-5.982a3.211 3.211 0 112.891 5.733zM127.929 157.23c-1.425 1.055-7.47 1.531-7.47 1.531s2.226-5.639 3.651-6.694a3.211 3.211 0 113.819 5.163zM118 132.187c1.271 1.236 7.2 2.515 7.2 2.515s-1.452-5.888-2.723-7.121a3.21 3.21 0 10-4.476 4.6zM114.639 147.037c1.582.811 7.621.246 7.621.246s-3.148-5.182-4.719-5.98a3.211 3.211 0 10-2.891 5.734zM113.353 161.922c1.425 1.055 7.47 1.531 7.47 1.531s-2.226-5.639-3.651-6.694a3.211 3.211 0 00-3.819 5.163z"/><path d="M143.362 69.734a20 20 0 01-23.449 15.817 20 20 0 01-15.816-23.45 20 20 0 0123.449-15.816 20 20 0 0115.816 23.45" fill="#0c263d"/><path d="M130.464 65.996l-4.826-.938-3.426 2.312 7.694 1.495a6.553 6.553 0 01-7.228 3.77 6.549 6.549 0 01-5.173-7.67 6.549 6.549 0 017.67-5.172 6.5 6.5 0 014.174 2.768l1.234-.834 4.749-3.203-4.056-.788-1.512 1.021a9.417 9.417 0 00-4.025-1.831 9.474 9.474 0 00-11.103 7.482 9.42 9.42 0 00.194 4.418l-4.42 2.98 4.06.788 1.61-1.09a9.435 9.435 0 006.035 4 9.474 9.474 0 0011.1-7.485 9.509 9.509 0 00.167-1.456z" fill="#fff"/><path d="M100.28 81.734l39.266 7.632 7.632-39.265-39.265-7.632z" fill="none"/></g></svg>