<svg xmlns="http://www.w3.org/2000/svg" width="45" height="45" viewBox="0 0 45 45"><g transform="translate(-19 -94)"><g transform="translate(19 94)" fill="#fff" stroke="#000" stroke-width="2"><rect width="45" height="45" rx="9" stroke="none"/><rect x="1" y="1" width="43" height="43" rx="8" fill="none"/></g><path d="M3.63,21A2.625,2.625,0,0,0,1,23.63V36.114A2.3,2.3,0,0,0,3.286,38.4H23.863a2.625,2.625,0,0,0,2.63-2.63V23.286A2.3,2.3,0,0,0,24.207,21Zm0,1.214H24.207a1.08,1.08,0,0,1,1.073,1.073V35.77a1.408,1.408,0,0,1-1.416,1.416H3.286a1.08,1.08,0,0,1-1.073-1.073V23.63A1.408,1.408,0,0,1,3.63,22.214Zm14.093,1.417c-.077,0-.155.009-.233.019a2.448,2.448,0,0,0-2.1,2.124,2.422,2.422,0,0,0,2.408,2.711,2.394,2.394,0,0,0,1.355-.425.643.643,0,0,1,.708,0,2.4,2.4,0,0,0,1.356.425,2.422,2.422,0,0,0,2.408-2.711,2.411,2.411,0,0,0-3.764-1.72.609.609,0,0,1-.688,0A2.376,2.376,0,0,0,17.723,23.631ZM4.905,33.342a.607.607,0,0,0,0,1.214h8.5a.607.607,0,1,0,0-1.214Zm12.544,0a.607.607,0,0,0,0,1.214h2.023a.607.607,0,1,0,0-1.214Z" transform="translate(27 87)"/></g></svg>