<svg xmlns="http://www.w3.org/2000/svg" width="517.612" height="107.427" viewBox="0 0 517.612 107.427">
  <path id="Path_3512" data-name="Path 3512" d="M-98.109,48.69c22.984,0,38.4-11.456,43.158-31.99H-68.064c-3.747,12.681-14.7,20.03-29.973,20.03-20.534,0-33.575-16.283-33.575-41.789,0-25.29,13.185-41.717,33.5-41.717,14.842,0,26.731,8.934,30.045,22.552h13.113c-3.314-20.751-20.534-34.512-43.158-34.512-28.46,0-46.833,21.039-46.833,53.678C-144.942,27.867-126.785,48.69-98.109,48.69ZM23.1-30.71H10.567v45.1c0,13.329-7.709,22.119-20.462,22.119-12.177,0-18.157-6.845-18.157-19.6V-30.71H-40.588V19.077c0,17.652,9.871,28.6,26.875,28.6C-1.826,47.681,6.172,43.07,11,34.136h.288V46.961H23.1Zm18.037,77.67H53.678V-1.1c0-10.952,6.629-18.3,16.716-18.3a26.13,26.13,0,0,1,6.845.721V-31a28.324,28.324,0,0,0-5.188-.432c-9.078,0-16.5,5.188-18.805,13.329h-.288V-30.71H41.141ZM112.855,36.8c-9.8,0-16.067-4.683-16.067-11.888,0-7.493,6.052-11.744,17.724-12.465l20.318-1.3V17.42C134.831,28.588,125.536,36.8,112.855,36.8Zm-2.666,10.88c10.88,0,20.606-5.548,25-14.194h.288V46.961h11.888V-6.357c0-15.275-11.816-25.074-30.189-25.074-16.283,0-29.036,10.015-29.4,23.128H99.814c1.513-7.349,8.214-11.96,17.22-11.96,11.456,0,17.8,5.332,17.8,14.987V1.209l-21.759,1.3C94.194,3.658,83.963,11.512,83.963,24.841,83.963,38.6,94.41,47.681,110.189,47.681Zm56.44-104.689V46.961h35.665c30.91,0,49.066-19.237,49.066-52.02,0-32.711-18.229-51.948-49.066-51.948ZM179.6-45.336H201.43c23.633,0,36.674,14.41,36.674,40.42,0,25.794-13.113,40.2-36.674,40.2H179.6Zm153.564,92.3h13.618L308.449-57.008H295.624L257.293,46.961H270.91L281.358,17.2h41.357ZM301.82-41.229h.432L318.9,6.18h-33.72Zm70.85,88.19V-57.008H359.7V46.961Z" transform="translate(144.942 58.737)" fill="#fff"/>
</svg>
