<svg xmlns="http://www.w3.org/2000/svg" width="20" height="20" viewBox="0 0 20 20">
  <g id="Group_3256" data-name="Group 3256" transform="translate(-217 -738)">
    <circle id="Ellipse_367" data-name="Ellipse 367" cx="10" cy="10" r="10" transform="translate(217 738)" fill="#c4c4c4"/>
    <path id="Path_3381" data-name="Path 3381" d="M681.8,375.236h-1.242A4.652,4.652,0,0,0,676.133,372H671.5v3.236h-1.02v1.214h1.02v1.214h-1.02v1.214h1.02v2.832h4.634a4.652,4.652,0,0,0,4.281-2.832H681.8v-1.214H680.74a4.688,4.688,0,0,0,.044-.607v-.4c0-.068-.008-.135-.01-.2H681.8Zm-9.093-2.023h3.421a3.441,3.441,0,0,1,3.13,2.023h-6.551Zm3.421,7.281h-3.421v-1.618h6.332A3.435,3.435,0,0,1,676.133,380.495Zm3.438-3.843v.4a3.444,3.444,0,0,1-.057.607h-6.8V376.45h6.849C679.565,376.517,679.571,376.584,679.571,376.652Z" transform="translate(-448.479 371.17)" fill="#fff"/>
  </g>
</svg>
