<svg xmlns="http://www.w3.org/2000/svg" width="29.842" height="20.368" viewBox="0 0 29.842 20.368">
  <path id="icons8-debit-card" d="M4.079,21A3.073,3.073,0,0,0,1,24.079V38.692a2.689,2.689,0,0,0,2.676,2.676H27.763a3.073,3.073,0,0,0,3.079-3.079V23.676A2.689,2.689,0,0,0,28.165,21Zm0,1.421H28.165a1.264,1.264,0,0,1,1.255,1.255V38.289a1.648,1.648,0,0,1-1.658,1.658H3.676a1.264,1.264,0,0,1-1.255-1.255V24.079A1.648,1.648,0,0,1,4.079,22.421Zm16.5,1.659c-.09,0-.181.01-.273.022a2.865,2.865,0,0,0-2.463,2.487,2.835,2.835,0,0,0,2.818,3.174,2.8,2.8,0,0,0,1.587-.5.753.753,0,0,1,.829,0,2.8,2.8,0,0,0,1.587.5,2.835,2.835,0,0,0,2.818-3.174,2.823,2.823,0,0,0-4.406-2.013.713.713,0,0,1-.8,0A2.782,2.782,0,0,0,20.575,24.08Zm-15,11.367a.711.711,0,1,0,0,1.421h9.947a.711.711,0,1,0,0-1.421Zm14.684,0a.711.711,0,0,0,0,1.421h2.368a.711.711,0,1,0,0-1.421Z" transform="translate(-1 -21)" fill="#fff"/>
</svg>
