<svg xmlns="http://www.w3.org/2000/svg" width="25.815" height="25.815" viewBox="0 0 25.815 25.815"><g transform="translate(-243.065 -118.185)"><path d="M10.539,0A10.539,10.539,0,1,1,0,10.539,10.539,10.539,0,0,1,10.539,0Z" transform="matrix(-0.966, 0.259, -0.259, -0.966, 268.88, 138.545)" fill="#fff"/><g transform="translate(251.821 123.43)" style="isolation:isolate"><path d="M3.2-5.113a3.658,3.658,0,0,1-.7,2.264A3.465,3.465,0,0,1,.43-1.6V.286H-1.559V-1.49a6.981,6.981,0,0,1-1.687-.444A4.75,4.75,0,0,1-4.72-2.839L-3.406-4.9a5.727,5.727,0,0,0,1.3.764A3.134,3.134,0,0,0-.955-3.9,1.5,1.5,0,0,0,0-4.145.919.919,0,0,0,.288-4.9.832.832,0,0,0-.1-5.565a8.676,8.676,0,0,0-1.243-.719q-.923-.479-1.51-.861a3.626,3.626,0,0,1-1.012-1,2.542,2.542,0,0,1-.426-1.474,3.44,3.44,0,0,1,.719-2.238,3.443,3.443,0,0,1,2.016-1.172V-14.88H.43v1.811a4.622,4.622,0,0,1,2.682,1.492L1.6-9.836a3.988,3.988,0,0,0-.932-.648,2.127,2.127,0,0,0-.915-.2,1.448,1.448,0,0,0-.87.2.855.855,0,0,0-.266.719A.758.758,0,0,0-1-9.144,8.4,8.4,0,0,0,.181-8.5a17.343,17.343,0,0,1,1.536.835A3.587,3.587,0,0,1,2.757-6.658,2.641,2.641,0,0,1,3.2-5.113Z" transform="translate(4.72 14.88)" fill="#1bc872" style="mix-blend-mode:soft-light;isolation:isolate"/></g></g></svg>