<svg width="45" height="66" viewBox="0 0 45 66" fill="none" xmlns="http://www.w3.org/2000/svg">
<path d="M35.8382 2.26569C35.5173 1.81623 35.6214 1.19169 36.0709 0.870752C36.5204 0.549809 37.1449 0.653992 37.4658 1.10345L35.8382 2.26569ZM0.240152 58.1283C-0.11889 57.7087 -0.0697546 57.0774 0.349897 56.7184L7.18852 50.8675C7.60818 50.5084 8.23943 50.5576 8.59847 50.9772C8.95751 51.3969 8.90838 52.0281 8.48873 52.3872L2.40995 57.588L7.61076 63.6668C7.9698 64.0864 7.92067 64.7177 7.50101 65.0767C7.08136 65.4358 6.45011 65.3866 6.09107 64.967L0.240152 58.1283ZM37.4658 1.10345C43.8252 10.0094 46.4442 25.2043 41.6079 37.759C39.1777 44.0675 34.8584 49.7248 28.1799 53.5646C21.5075 57.4009 12.5555 59.3807 0.922397 58.4752L1.0776 56.4813C12.409 57.3633 20.9375 55.4217 27.183 51.8308C33.4223 48.2435 37.4581 42.9676 39.7416 37.04C44.3325 25.1224 41.813 10.6331 35.8382 2.26569L37.4658 1.10345Z" fill="url(#paint0_linear_860_3459)"/>
<defs>
<linearGradient id="paint0_linear_860_3459" x1="24.4055" y1="21.7475" x2="29.8268" y2="83.4978" gradientUnits="userSpaceOnUse">
<stop stop-color="#1DCC75"/>
<stop offset="1" stop-color="#0D874A"/>
</linearGradient>
</defs>
</svg>
