<svg xmlns="http://www.w3.org/2000/svg" width="372.326" height="265.918" viewBox="0 0 372.326 265.918"><g transform="translate(-1.337 -213.532)"><g transform="translate(1.337 180.5)"><rect width="10.097" height="10.097" transform="matrix(0.574, -0.819, 0.819, 0.574, 31.106, 107.607)" fill="#37d888"/><rect width="10.884" height="10.884" transform="translate(56.726 123.096) rotate(-63)" fill="#37d888"/><rect width="8.655" height="8.655" transform="matrix(0.438, -0.899, 0.899, 0.438, 28.85, 160.041)" fill="#37d888"/><rect width="10.097" height="10.097" transform="translate(174.695 67.881) rotate(-6)" fill="#37d888"/><rect width="13.989" height="13.989" transform="matrix(0.438, -0.899, 0.899, 0.438, 271.845, 79.399)" fill="#37d888"/><rect width="11.54" height="11.54" transform="matrix(-0.017, -1, 1, -0.017, 165.194, 112.152)" fill="#37d888"/><rect width="8.655" height="8.655" transform="matrix(0.574, -0.819, 0.819, 0.574, 314.148, 96.818)" fill="#37d888"/><rect width="8.655" height="8.655" transform="translate(84.623 209.933) rotate(-63)" fill="#37d888"/><rect width="8.655" height="8.655" transform="matrix(0.259, -0.966, 0.966, 0.259, 240.372, 267.235)" fill="#37d888"/><ellipse cx="5.77" cy="5.77" rx="5.77" ry="5.77" transform="translate(95.655 54.027)" fill="#37d888"/><ellipse cx="5.77" cy="5.77" rx="5.77" ry="5.77" transform="translate(345.202 146.344)" fill="#37d888"/><ellipse cx="5.77" cy="5.77" rx="5.77" ry="5.77" transform="translate(291.831 152.114)" fill="#37d888"/><ellipse cx="4.327" cy="4.327" rx="4.327" ry="4.327" transform="translate(150.469 75.664)" fill="#37d888"/><rect width="8.655" height="8.655" transform="matrix(0.438, -0.899, 0.899, 0.438, 0, 85.702)" fill="#37d888"/><path d="M7.212,0l7.212,12.982H0Z" transform="translate(73.593 83.71) rotate(-150)" fill="#37d888"/><path d="M6.5,0,13,11.7H0Z" transform="matrix(-0.966, -0.259, 0.259, -0.966, 133.124, 122.313)" fill="#37d888"/><path d="M4.327,0,8.655,7.212H0Z" transform="matrix(0.07, 0.998, -0.998, 0.07, 84.839, 158.113)" fill="#37d888"/><path d="M5.77,0l5.77,11.54H0Z" transform="matrix(-0.391, 0.921, -0.921, -0.391, 133.564, 169.543)" fill="#37d888"/><path d="M5.316,0l5.316,9.568H0Z" transform="translate(216.336 97.29) rotate(-164)" fill="#37d888"/><path d="M5.465,0l5.465,9.836H0Z" transform="matrix(-0.485, -0.875, 0.875, -0.485, 356.27, 81.154)" fill="#37d888"/><path d="M5.01,0l5.01,9.018H0Z" transform="matrix(-0.966, -0.259, 0.259, -0.966, 324.479, 185.336)" fill="#37d888"/><path d="M6.5,0,13,11.7H0Z" transform="matrix(-0.966, -0.259, 0.259, -0.966, 369.298, 128.037)" fill="#37d888"/><rect width="8.655" height="8.655" transform="matrix(-0.259, -0.966, 0.966, -0.259, 135.92, 170.335)" fill="#37d888"/><rect width="8.655" height="8.655" transform="translate(206.724 124.108) rotate(-63)" fill="#37d888"/><rect width="8.655" height="8.655" transform="translate(260.205 193.048) rotate(-63)" fill="#37d888"/><ellipse cx="16.723" cy="43.754" rx="16.723" ry="43.754" transform="translate(125.998 204.291) rotate(-45)" fill="#19b165"/><path d="M2899.523,2660.29l46.3-105.935s-4.136,3.974,0,14.908c2.441,6.457,11.287,18.983,17.224,25.073,6.948,7.129,15.074,14.609,23.912,18.341a50.886,50.886,0,0,0,19.286,3.669Z" transform="translate(-2807.441 -2361.34)" fill="#37d888"/><path d="M2944.664,2511.04l22.82-5.645a153.132,153.132,0,0,1,1.962,44.336c-2.55,24.031-30.211,49.436-30.211,49.436s19.241-26.815,16.086-49.436A149.4,149.4,0,0,0,2944.664,2511.04Z" transform="translate(-2789.869 -2383.002)" fill="#37d888"/><path d="M3062.4,2574.832l-4.711,31s-18.441-14.713-43.158-17.656-55.714,5.885-55.714,5.885,27.464-17.558,53.36-22.364S3062.4,2574.832,3062.4,2574.832Z" transform="translate(-2781.203 -2354.351)" fill="#37d888"/><rect width="11.54" height="11.54" transform="translate(207.805 197.909) rotate(-56)" fill="#37d888"/><rect width="9.405" height="9.405" transform="matrix(0.602, -0.799, 0.799, 0.602, 257.896, 116.113)" fill="#37d888"/><rect width="10.578" height="11.341" transform="translate(223.008 55.385) rotate(-106)" fill="#37d888"/><path d="M5.01,0l5.01,9.018H0Z" transform="matrix(-0.966, -0.259, 0.259, -0.966, 186.411, 44.336)" fill="#37d888"/></g></g></svg>