<svg xmlns="http://www.w3.org/2000/svg" xmlns:xlink="http://www.w3.org/1999/xlink" width="349" height="65" viewBox="0 0 349 65"><defs><clipPath id="a"><rect width="349" height="65" rx="8" transform="translate(13 251)" fill="#f5f5f5"/></clipPath></defs><g transform="translate(-13 -251)" clip-path="url(#a)"><circle cx="21" cy="21" r="21" transform="translate(258 246)" fill="#fff"/><g transform="translate(-680.03 -273.45)"><path d="M983.036,533.874A23.964,23.964,0,1,0,966.6,563.515,24.034,24.034,0,0,0,983.036,533.874Zm-17.532,25.8a19.97,19.97,0,1,1,13.692-24.7A19.969,19.969,0,0,1,965.5,559.676Z"/><path d="M966.615,539.618a14.194,14.194,0,0,0-6.4-1.288,9.658,9.658,0,0,1-2.748-.876A2.431,2.431,0,0,1,956.4,535.9a3.371,3.371,0,0,1,.025-2.088,2.1,2.1,0,0,1,1.7-1.32,3.541,3.541,0,0,1,2.143.217c.687.219,1.1.933,1.43,2.082l5.376-1.542a7.3,7.3,0,0,0-3.106-4.3,7.429,7.429,0,0,0-5.459-.926l-.992-3.461-2.308.677.992,3.461a8.83,8.83,0,0,0-4.392,3.548,6.2,6.2,0,0,0-.6,5.16,6.47,6.47,0,0,0,3.05,4.108,21.751,21.751,0,0,0,6.4,1.287,6.231,6.231,0,0,1,2.688.686,2.976,2.976,0,0,1,1.128,1.757,2.443,2.443,0,0,1-.08,1.9,2.655,2.655,0,0,1-1.758,1.128,3.386,3.386,0,0,1-2.714-.054,3.949,3.949,0,0,1-1.731-2.41l-5.364,1.539.055.192a6.911,6.911,0,0,0,3.655,4.766,10.063,10.063,0,0,0,5.983.573l.929,3.242,2.5-.717-.88-3.071a8.19,8.19,0,0,0,4.438-3.354,6.473,6.473,0,0,0,.409-5.1A6.744,6.744,0,0,0,966.615,539.618Z" fill="#38d989"/></g><g transform="translate(22.985 -52.543)"><circle cx="17.789" cy="17.789" r="17.789" transform="translate(268.581 343.508)" fill="#38d989"/><g transform="matrix(0.848, 0.53, -0.53, 0.848, 279.577, 333.89)"><path d="M39.013,14.4A19.889,19.889,0,1,0,25.376,39,19.947,19.947,0,0,0,39.013,14.4ZM24.462,35.812a16.574,16.574,0,1,1,11.364-20.5A16.574,16.574,0,0,1,24.462,35.812Z"/><path d="M13.04,12.5a11.778,11.778,0,0,0-5.307-1.069,8.016,8.016,0,0,1-2.281-.727,2.018,2.018,0,0,1-.889-1.294,2.8,2.8,0,0,1,.021-1.733A1.742,1.742,0,0,1,6,6.583a2.938,2.938,0,0,1,1.778.18c.57.182.913.774,1.187,1.728l4.462-1.28a6.06,6.06,0,0,0-2.578-3.57,6.166,6.166,0,0,0-4.531-.768L5.492,0,3.576.562,4.4,3.434A7.327,7.327,0,0,0,.754,6.379a5.144,5.144,0,0,0-.5,4.282,5.369,5.369,0,0,0,2.531,3.409,18.056,18.056,0,0,0,5.308,1.068,5.172,5.172,0,0,1,2.231.569,2.471,2.471,0,0,1,.936,1.458,2.028,2.028,0,0,1-.067,1.574,2.2,2.2,0,0,1-1.459.936,2.81,2.81,0,0,1-2.252-.045,3.276,3.276,0,0,1-1.437-2L1.595,18.909l.046.159a5.736,5.736,0,0,0,3.034,3.956A8.353,8.353,0,0,0,9.64,23.5l.771,2.691,2.074-.6-.73-2.549a6.8,6.8,0,0,0,3.683-2.784,5.372,5.372,0,0,0,.339-4.236A5.6,5.6,0,0,0,13.04,12.5Z" transform="translate(12.344 6.664)" fill="#fff"/></g></g><circle cx="13" cy="13" r="13" transform="translate(316 258)" fill="#fff"/><g transform="matrix(0.819, 0.574, -0.574, 0.819, -145.262, -708.998)"><path d="M963.951,526.831a14.235,14.235,0,1,0-9.76,17.607A14.276,14.276,0,0,0,963.951,526.831Zm-10.414,15.326a11.862,11.862,0,1,1,8.133-14.672A11.862,11.862,0,0,1,953.537,542.157Z" fill="#38d989"/><path d="M960.236,533.5a8.431,8.431,0,0,0-3.8-.765,5.738,5.738,0,0,1-1.632-.52,1.444,1.444,0,0,1-.636-.926,2,2,0,0,1,.015-1.24,1.247,1.247,0,0,1,1.011-.784,2.1,2.1,0,0,1,1.273.129c.408.13.653.554.849,1.237l3.193-.916a4.337,4.337,0,0,0-1.845-2.555,4.413,4.413,0,0,0-3.243-.55l-.589-2.056-1.371.4.589,2.056a5.245,5.245,0,0,0-2.609,2.108,3.682,3.682,0,0,0-.357,3.065,3.843,3.843,0,0,0,1.812,2.44,12.918,12.918,0,0,0,3.8.765,3.7,3.7,0,0,1,1.6.407,1.767,1.767,0,0,1,.67,1.044,1.451,1.451,0,0,1-.047,1.126,1.577,1.577,0,0,1-1.044.67,2.011,2.011,0,0,1-1.612-.032,2.346,2.346,0,0,1-1.028-1.432l-3.186.914.033.114a4.105,4.105,0,0,0,2.171,2.831,5.978,5.978,0,0,0,3.554.34l.552,1.926,1.484-.426-.523-1.824a4.865,4.865,0,0,0,2.636-1.992,3.845,3.845,0,0,0,.243-3.032A4.006,4.006,0,0,0,960.236,533.5Z" transform="translate(-6.039 -3.26)"/></g></g></svg>