<svg xmlns="http://www.w3.org/2000/svg" xmlns:xlink="http://www.w3.org/1999/xlink" width="11.812" height="8.906" viewBox="0 0 11.812 8.906"><defs><clipPath id="a"><path d="M0,4.453a.669.669,0,0,0,.669.669H9.413L6.828,7.707a.668.668,0,0,0,0,.946l.057.057a.668.668,0,0,0,.946,0l3.784-3.784a.668.668,0,0,0,0-.946L7.832.2a.668.668,0,0,0-.946,0L6.828.254a.668.668,0,0,0,0,.946L9.413,3.784H.669A.669.669,0,0,0,0,4.453Z" fill="#23b16a"/></clipPath><clipPath id="b"><path d="M0,2531.492H1324.618V0H0Z" fill="#23b16a"/></clipPath></defs><g transform="translate(-323.67 -453.094)"><g transform="translate(313.67 419.094)"><g transform="translate(10 34)" clip-path="url(#a)"><g transform="translate(-449.567 -1140.758)" clip-path="url(#b)"><path d="M0,15.6V0H18.5V15.6Z" transform="translate(446.222 1137.413)" fill="#23b16a"/></g></g></g></g></svg>