<svg xmlns="http://www.w3.org/2000/svg" width="19.225" height="28.444"><g data-name="Group 5273"><path d="M.012 15.353a.716.716 0 0 0-.012.08v.029a.76.76 0 0 0 .015.1.654.654 0 0 0 .028.116.678.678 0 0 0 .037.078.69.69 0 0 0 .072.116c.007.01.011.021.019.031s.033.03.049.045.035.035.055.05a.743.743 0 0 0 .145.089c.005 0 .01.006.014.008l8.776 3.714a.72.72 0 0 0 .279.056c.018 0 .035-.006.051-.007a.75.75 0 0 0 .1.014.72.72 0 0 0 .284-.058l8.867-3.821a.714.714 0 0 0 .165-1.215L10.323.515A.7.7 0 0 0 9.256.122a.671.671 0 0 0-.059.035C9.181.17 9.168.186 9.152.2a.716.716 0 0 0-.161.206L.105 15.061a.622.622 0 0 0-.033.082.681.681 0 0 0-.042.1.742.742 0 0 0-.018.11Zm10.344-4.228V3.341l6.325 10.451Zm-1.581 6.941-6.212-2.63 6.212-2.6Zm1.581-5.317 6.284 2.608-6.284 2.707ZM8.9 3.315v7.853l-6.418 2.731Z" data-name="Path 5479"/><path d="m18.213 14.946-8.587 3.87-8.615-3.87a.716.716 0 0 0-.871 1.078l8.927 12.128a.716.716 0 0 0 .8.256c.015-.005.028-.016.042-.022a.711.711 0 0 0 .372-.26l8.8-12.105a.717.717 0 0 0-.874-1.075Zm-9.285 10.6-6.017-8.174 6.017 2.7Zm1.492-.044v-5.471l5.919-2.668Z" data-name="Path 5480"/></g></svg>