<svg xmlns="http://www.w3.org/2000/svg" width="43.424" height="40.584" viewBox="0 0 43.424 40.584"><g transform="translate(-7.018 11.876) rotate(-30)"><g transform="translate(3.358 8.218)"><path d="M37.814,126.911l-5.976-6.762a.685.685,0,0,0-.514-.232H10.019a.685.685,0,0,0-.514.232L3.53,126.911a.685.685,0,0,0,.065.972l0,0,16.56,18.669a.685.685,0,0,0,1.025,0l16.56-18.669,0,0a.685.685,0,0,0,.065-.972Zm-7.7-5.623-3.046,4.91-4.881-4.91Zm-4.5,5.391H15.734l4.938-4.967Zm-6.449-5.391L14.28,126.2l-3.046-4.91Zm-9.248.47,3.053,4.921h-7.4ZM5.575,128.05h8.1l5.595,15.437ZM22.1,143.459,26.01,132.88a.685.685,0,1,0-1.286-.475l-4.046,10.95-5.546-15.3H35.769Zm6.278-16.779,3.053-4.921,4.349,4.921Z" transform="translate(-3.358 -119.918)" fill="#fff"/></g><g transform="translate(19.987)"><path d="M246.685,0A.685.685,0,0,0,246,.685v3.53a.685.685,0,0,0,1.371,0V.685A.685.685,0,0,0,246.685,0Z" transform="translate(-246)" fill="#fff"/></g><g transform="translate(23.247 2.508)"><path d="M297.231,36.8a.685.685,0,0,0-.969,0l-2.5,2.5a.685.685,0,0,0,.969.969l2.5-2.5A.685.685,0,0,0,297.231,36.8Z" transform="translate(-293.564 -36.595)" fill="#fff"/></g><g transform="translate(14.097 2.508)"><path d="M163.727,39.292l-2.5-2.5a.685.685,0,0,0-.969.969l2.5,2.5a.685.685,0,1,0,.969-.969Z" transform="translate(-160.061 -36.595)" fill="#fff"/></g><g transform="translate(25.568 17.706)"><circle cx="0.685" cy="0.685" r="0.685" fill="#fff"/></g></g></svg>