<svg xmlns="http://www.w3.org/2000/svg" width="74.054" height="13.134" viewBox="0 0 74.054 13.134">
  <path id="Path_3466" data-name="Path 3466" d="M14.495-72.486a4.8,4.8,0,0,1-.545,2.337A3.77,3.77,0,0,1,12.358-68.6a5.3,5.3,0,0,1-2.5.551H6.9V-76.9H9.858a5.348,5.348,0,0,1,2.5.545,3.742,3.742,0,0,1,1.592,1.535A4.759,4.759,0,0,1,14.495-72.486Zm-4.75,3.146a3.367,3.367,0,0,0,2.444-.827,3.081,3.081,0,0,0,.852-2.318,3.081,3.081,0,0,0-.852-2.318,3.367,3.367,0,0,0-2.444-.827H8.329v6.291Zm5.99-7.62a.794.794,0,0,1,.251-.6.925.925,0,0,1,.664-.238.947.947,0,0,1,.67.238.785.785,0,0,1,.257.6.747.747,0,0,1-.257.589.979.979,0,0,1-.67.226.955.955,0,0,1-.664-.226A.755.755,0,0,1,15.735-76.96Zm1.629,2.005v6.905H15.936v-6.905Zm4.5-.088a2.732,2.732,0,0,1,1.6.464,2.5,2.5,0,0,1,.94,1.228v-1.6h1.429v6.981a3.6,3.6,0,0,1-.395,1.711,2.888,2.888,0,0,1-1.134,1.172,3.455,3.455,0,0,1-1.755.426,3.749,3.749,0,0,1-2.35-.689,2.973,2.973,0,0,1-1.122-1.867H20.5a1.686,1.686,0,0,0,.677.959,2.208,2.208,0,0,0,1.278.345,1.951,1.951,0,0,0,1.4-.526,2.015,2.015,0,0,0,.551-1.529v-1.679a2.5,2.5,0,0,1-.94,1.228,2.732,2.732,0,0,1-1.6.464,3.062,3.062,0,0,1-1.61-.426,2.912,2.912,0,0,1-1.109-1.228,4.184,4.184,0,0,1-.4-1.892,4.155,4.155,0,0,1,.4-1.88,2.912,2.912,0,0,1,1.109-1.228A3.062,3.062,0,0,1,21.864-75.043ZM22.3-73.79a1.989,1.989,0,0,0-1.523.608,2.348,2.348,0,0,0-.57,1.673,2.348,2.348,0,0,0,.57,1.673,1.989,1.989,0,0,0,1.523.608,2.075,2.075,0,0,0,1.078-.282,2,2,0,0,0,.752-.8,2.508,2.508,0,0,0,.276-1.2,2.517,2.517,0,0,0-.276-1.2,1.993,1.993,0,0,0-.752-.8A2.075,2.075,0,0,0,22.3-73.79Zm5.051-3.171a.794.794,0,0,1,.251-.6.925.925,0,0,1,.664-.238.947.947,0,0,1,.67.238.785.785,0,0,1,.257.6.747.747,0,0,1-.257.589.979.979,0,0,1-.67.226.955.955,0,0,1-.664-.226A.755.755,0,0,1,27.353-76.96Zm1.629,2.005v6.905H27.553v-6.905Zm5.2,5.665v1.241h-.877a2.367,2.367,0,0,1-1.673-.533,2.341,2.341,0,0,1-.57-1.773V-73.74h-.99v-1.216h.99v-1.717H32.5v1.717h1.667v1.216H32.5v3.409a1.167,1.167,0,0,0,.219.815,1.055,1.055,0,0,0,.771.226Zm4.111-5.752a2.732,2.732,0,0,1,1.6.464,2.5,2.5,0,0,1,.94,1.228v-1.6h1.429v6.905H40.838v-1.6a2.5,2.5,0,0,1-.94,1.228,2.732,2.732,0,0,1-1.6.464,3.062,3.062,0,0,1-1.61-.426,2.912,2.912,0,0,1-1.109-1.228,4.184,4.184,0,0,1-.4-1.892,4.155,4.155,0,0,1,.4-1.88,2.912,2.912,0,0,1,1.109-1.228A3.062,3.062,0,0,1,38.294-75.043Zm.439,1.253a1.989,1.989,0,0,0-1.523.608,2.348,2.348,0,0,0-.57,1.673,2.348,2.348,0,0,0,.57,1.673,1.989,1.989,0,0,0,1.523.608,2.075,2.075,0,0,0,1.078-.282,2,2,0,0,0,.752-.8,2.508,2.508,0,0,0,.276-1.2,2.517,2.517,0,0,0-.276-1.2,1.993,1.993,0,0,0-.752-.8A2.075,2.075,0,0,0,38.732-73.79Zm6.68-3.534v9.274H43.983v-9.274Zm9.312,9.274-2.206-3.534H51.5v3.534H50.074V-76.9h3.121a3.231,3.231,0,0,1,2.3.739,2.563,2.563,0,0,1,.783,1.955,2.49,2.49,0,0,1-.583,1.7,2.775,2.775,0,0,1-1.686.852l2.318,3.6ZM51.5-72.6h1.579q1.729,0,1.729-1.529a1.507,1.507,0,0,0-.42-1.134,1.822,1.822,0,0,0-1.31-.407H51.5Zm8.835-2.444a2.732,2.732,0,0,1,1.6.464,2.5,2.5,0,0,1,.94,1.228v-1.6h1.429v6.905H62.882v-1.6a2.5,2.5,0,0,1-.94,1.228,2.732,2.732,0,0,1-1.6.464,3.062,3.062,0,0,1-1.61-.426,2.912,2.912,0,0,1-1.109-1.228,4.184,4.184,0,0,1-.4-1.892,4.155,4.155,0,0,1,.4-1.88,2.912,2.912,0,0,1,1.109-1.228A3.062,3.062,0,0,1,60.338-75.043Zm.439,1.253a1.989,1.989,0,0,0-1.523.608,2.348,2.348,0,0,0-.57,1.673,2.348,2.348,0,0,0,.57,1.673,1.989,1.989,0,0,0,1.523.608,2.075,2.075,0,0,0,1.078-.282,2,2,0,0,0,.752-.8,2.508,2.508,0,0,0,.276-1.2,2.517,2.517,0,0,0-.276-1.2,1.993,1.993,0,0,0-.752-.8A2.075,2.075,0,0,0,60.777-73.79Zm9.111-1.278a2.518,2.518,0,0,1,1.93.777,3.126,3.126,0,0,1,.727,2.218v4.023H71.116v-3.873a2.017,2.017,0,0,0-.476-1.435,1.7,1.7,0,0,0-1.3-.508,1.789,1.789,0,0,0-1.366.545,2.247,2.247,0,0,0-.514,1.6v3.672H66.028v-6.905h1.429v1.516a2.317,2.317,0,0,1,.927-1.2A2.686,2.686,0,0,1,69.888-75.068Zm7.093.025a2.732,2.732,0,0,1,1.6.464,2.425,2.425,0,0,1,.927,1.228v-3.973h1.441v9.274H79.513v-1.6a2.425,2.425,0,0,1-.927,1.228,2.732,2.732,0,0,1-1.6.464,3.062,3.062,0,0,1-1.61-.426,2.912,2.912,0,0,1-1.109-1.228,4.184,4.184,0,0,1-.4-1.892,4.154,4.154,0,0,1,.4-1.88,2.912,2.912,0,0,1,1.109-1.228A3.062,3.062,0,0,1,76.981-75.043Zm.439,1.253a1.989,1.989,0,0,0-1.523.608,2.348,2.348,0,0,0-.57,1.673,2.348,2.348,0,0,0,.57,1.673,1.989,1.989,0,0,0,1.523.608A2.075,2.075,0,0,0,78.5-69.51a2,2,0,0,0,.752-.8,2.508,2.508,0,0,0,.276-1.2,2.517,2.517,0,0,0-.276-1.2,1.993,1.993,0,0,0-.752-.8A2.075,2.075,0,0,0,77.42-73.79Z" transform="translate(-6.9 77.8)" fill="#fff"/>
</svg>
