<svg xmlns="http://www.w3.org/2000/svg" width="74.054" height="13.592" viewBox="0 0 74.054 13.592">
  <g id="Group_3739" data-name="Group 3739" transform="translate(-288.389 -22)">
    <path id="Path_3419" data-name="Path 3419" d="M14.759-72.3a4.962,4.962,0,0,1-.564,2.419,3.9,3.9,0,0,1-1.647,1.6,5.482,5.482,0,0,1-2.587.571H6.9v-9.156H9.961a5.534,5.534,0,0,1,2.587.564A3.872,3.872,0,0,1,14.2-74.713,4.924,4.924,0,0,1,14.759-72.3ZM9.844-69.046a3.485,3.485,0,0,0,2.529-.856,3.189,3.189,0,0,0,.882-2.4,3.189,3.189,0,0,0-.882-2.4,3.485,3.485,0,0,0-2.529-.856H8.378v6.511Zm6.2-7.885a.822.822,0,0,1,.259-.623.957.957,0,0,1,.687-.246.98.98,0,0,1,.694.246.812.812,0,0,1,.266.623.773.773,0,0,1-.266.61,1.013,1.013,0,0,1-.694.233.989.989,0,0,1-.687-.233A.781.781,0,0,1,16.043-76.931Zm1.686,2.075v7.146H16.251v-7.146Zm4.656-.091a2.827,2.827,0,0,1,1.66.48,2.583,2.583,0,0,1,.973,1.271v-1.66H26.5v7.224a3.727,3.727,0,0,1-.409,1.77,2.989,2.989,0,0,1-1.174,1.213,3.575,3.575,0,0,1-1.816.441,3.88,3.88,0,0,1-2.432-.713,3.077,3.077,0,0,1-1.161-1.932h1.466a1.744,1.744,0,0,0,.7.992,2.285,2.285,0,0,0,1.323.357,2.018,2.018,0,0,0,1.453-.545,2.085,2.085,0,0,0,.571-1.582V-69.37a2.583,2.583,0,0,1-.973,1.271,2.827,2.827,0,0,1-1.66.48,3.169,3.169,0,0,1-1.667-.441,3.014,3.014,0,0,1-1.148-1.271,4.33,4.33,0,0,1-.415-1.958,4.3,4.3,0,0,1,.415-1.945,3.014,3.014,0,0,1,1.148-1.271A3.169,3.169,0,0,1,22.385-74.947Zm.454,1.3a2.058,2.058,0,0,0-1.576.629,2.43,2.43,0,0,0-.59,1.731,2.43,2.43,0,0,0,.59,1.731,2.058,2.058,0,0,0,1.576.629,2.147,2.147,0,0,0,1.115-.292,2.073,2.073,0,0,0,.778-.824,2.6,2.6,0,0,0,.285-1.245,2.6,2.6,0,0,0-.285-1.239,2.063,2.063,0,0,0-.778-.83A2.147,2.147,0,0,0,22.839-73.65Zm5.227-3.281a.822.822,0,0,1,.259-.623.957.957,0,0,1,.687-.246.98.98,0,0,1,.694.246.812.812,0,0,1,.266.623.773.773,0,0,1-.266.61,1.013,1.013,0,0,1-.694.233.989.989,0,0,1-.687-.233A.781.781,0,0,1,28.066-76.931Zm1.686,2.075v7.146H28.273v-7.146Zm5.382,5.862v1.284h-.908a2.449,2.449,0,0,1-1.731-.551A2.423,2.423,0,0,1,31.9-70.1v-3.5H30.88v-1.258H31.9v-1.777H33.4v1.777h1.725V-73.6H33.4v3.528a1.208,1.208,0,0,0,.227.843,1.092,1.092,0,0,0,.8.233Zm4.254-5.953a2.827,2.827,0,0,1,1.66.48,2.583,2.583,0,0,1,.973,1.271v-1.66H43.5v7.146H42.021v-1.66a2.583,2.583,0,0,1-.973,1.271,2.827,2.827,0,0,1-1.66.48,3.169,3.169,0,0,1-1.667-.441,3.014,3.014,0,0,1-1.148-1.271,4.33,4.33,0,0,1-.415-1.958,4.3,4.3,0,0,1,.415-1.945,3.014,3.014,0,0,1,1.148-1.271A3.169,3.169,0,0,1,39.388-74.947Zm.454,1.3a2.058,2.058,0,0,0-1.576.629,2.43,2.43,0,0,0-.59,1.731,2.43,2.43,0,0,0,.59,1.731,2.058,2.058,0,0,0,1.576.629,2.147,2.147,0,0,0,1.115-.292,2.073,2.073,0,0,0,.778-.824,2.6,2.6,0,0,0,.285-1.245,2.6,2.6,0,0,0-.285-1.239,2.063,2.063,0,0,0-.778-.83A2.147,2.147,0,0,0,39.842-73.65Zm6.913-3.657v9.6H45.276v-9.6Zm6.3,3.852a2.756,2.756,0,0,1,1.038-1.109,2.944,2.944,0,0,1,1.556-.409v1.608H55.21a2.424,2.424,0,0,0-1.563.473,1.889,1.889,0,0,0-.59,1.563v3.618H51.579v-7.146h1.478Zm6.562-1.491a2.827,2.827,0,0,1,1.66.48,2.582,2.582,0,0,1,.973,1.271v-1.66h1.478v7.146H62.253v-1.66A2.583,2.583,0,0,1,61.28-68.1a2.827,2.827,0,0,1-1.66.48,3.169,3.169,0,0,1-1.667-.441,3.014,3.014,0,0,1-1.148-1.271,4.33,4.33,0,0,1-.415-1.958,4.3,4.3,0,0,1,.415-1.945,3.014,3.014,0,0,1,1.148-1.271A3.169,3.169,0,0,1,59.62-74.947Zm.454,1.3a2.058,2.058,0,0,0-1.576.629,2.43,2.43,0,0,0-.59,1.731,2.43,2.43,0,0,0,.59,1.731,2.058,2.058,0,0,0,1.576.629,2.147,2.147,0,0,0,1.115-.292,2.073,2.073,0,0,0,.778-.824,2.6,2.6,0,0,0,.285-1.245,2.6,2.6,0,0,0-.285-1.239,2.063,2.063,0,0,0-.778-.83A2.147,2.147,0,0,0,60.074-73.65ZM69.5-74.973a2.606,2.606,0,0,1,2,.8,3.235,3.235,0,0,1,.752,2.3v4.163H70.773v-4.007A2.087,2.087,0,0,0,70.28-73.2a1.76,1.76,0,0,0-1.349-.525,1.851,1.851,0,0,0-1.414.564,2.325,2.325,0,0,0-.532,1.654v3.8H65.508v-7.146h1.478v1.569a2.4,2.4,0,0,1,.96-1.245A2.779,2.779,0,0,1,69.5-74.973Zm7.341.026a2.827,2.827,0,0,1,1.66.48,2.51,2.51,0,0,1,.96,1.271v-4.111h1.491v9.6H79.463v-1.66A2.51,2.51,0,0,1,78.5-68.1a2.827,2.827,0,0,1-1.66.48,3.169,3.169,0,0,1-1.667-.441,3.014,3.014,0,0,1-1.148-1.271,4.33,4.33,0,0,1-.415-1.958,4.3,4.3,0,0,1,.415-1.945,3.014,3.014,0,0,1,1.148-1.271A3.169,3.169,0,0,1,76.843-74.947Zm.454,1.3a2.058,2.058,0,0,0-1.576.629,2.43,2.43,0,0,0-.59,1.731,2.43,2.43,0,0,0,.59,1.731,2.058,2.058,0,0,0,1.576.629,2.147,2.147,0,0,0,1.115-.292,2.073,2.073,0,0,0,.778-.824,2.6,2.6,0,0,0,.285-1.245,2.6,2.6,0,0,0-.285-1.239,2.063,2.063,0,0,0-.778-.83A2.147,2.147,0,0,0,77.3-73.65Z" transform="translate(281.489 99.8)" fill="#fff"/>
  </g>
</svg>
