<svg xmlns="http://www.w3.org/2000/svg" width="14.671" height="14.671" viewBox="0 0 14.671 14.671">
  <g id="Group_3719" data-name="Group 3719" transform="translate(-328 -242.914)">
    <g id="Group_3717" data-name="Group 3717" transform="translate(324 238.914)">
      <path id="Path_3857" data-name="Path 3857" d="M17.623,26.135h-3.5a.7.7,0,0,0-.5,1.186.7.7,0,0,0,.506.212h1.729A5.936,5.936,0,0,1,5.4,23.694a.7.7,0,0,0-.694-.708H4.687a.7.7,0,0,0-.687.7,7.344,7.344,0,0,0,7.336,7.336,7.265,7.265,0,0,0,5.24-2.2v1.151a.7.7,0,0,0,.689.708h.01a.7.7,0,0,0,.487-.2.7.7,0,0,0,.212-.506V26.484A.349.349,0,0,0,17.623,26.135Z" transform="translate(0 -12.354)" fill="gray"/>
      <path id="Path_3858" data-name="Path 3858" d="M12.637,4A7.265,7.265,0,0,0,7.4,6.2V5.052a.694.694,0,0,0-.2-.5.707.707,0,0,0-.512-.212.7.7,0,0,0-.687.7V8.541a.349.349,0,0,0,.349.349h3.5a.7.7,0,1,0-.005-1.4H8.113a5.936,5.936,0,0,1,10.462,3.838.7.7,0,0,0,.689.708h.01a.7.7,0,0,0,.487-.2.7.7,0,0,0,.212-.506A7.344,7.344,0,0,0,12.637,4Z" transform="translate(-1.301)" fill="gray"/>
    </g>
  </g>
</svg>
