<svg id="E-SOL" xmlns="http://www.w3.org/2000/svg" width="65.918" height="33.5" viewBox="0 0 65.918 33.5">
  <g id="E-SOL-2" data-name="E-SOL">
    <path id="Trazado_322" data-name="Trazado 322" d="M19.362,182.06H2.433A2.227,2.227,0,0,0,.2,184.278v1.549h0a2.227,2.227,0,0,0,2.233,2.219H19.362a2.243,2.243,0,0,0,1.581-.654,2.21,2.21,0,0,0,.651-1.57v-1.545A2.227,2.227,0,0,0,19.362,182.06Z" transform="translate(-0.2 -154.832)" fill="#05f"/>
    <path id="Trazado_323" data-name="Trazado 323" d="M2.433,6.137H19.362a2.225,2.225,0,0,0,2.231-2.219h0V2.379h0A2.221,2.221,0,0,0,19.37.16H2.431A2.221,2.221,0,0,0,.2,2.37V3.918h0A2.227,2.227,0,0,0,2.433,6.137Z" transform="translate(-0.2 -0.136)" fill="#05f"/>
    <path id="Trazado_324" data-name="Trazado 324" d="M41.984,13.856a3.042,3.042,0,0,0-.494-.057,9.369,9.369,0,0,0-1.211-.052H37.1a4.5,4.5,0,0,1-2.862-.76,2.905,2.905,0,0,1-.939-2.393V9.721a2.955,2.955,0,0,1,1.267-2.8,7.222,7.222,0,0,1,3.739-.95h3.812c.879,0,1.977.025,3.227.025a1.874,1.874,0,0,0,1.386-.482A1.8,1.8,0,0,0,47.3,4.2l.076-2A2,2,0,0,0,46.168.449,6.078,6.078,0,0,0,43.787.085C42.114,0,40.905,0,39.16,0H37.546C30.576,0,27.078,3.41,27.078,9.422l-.028.583a5.266,5.266,0,0,1-1.37,2.677,7.879,7.879,0,0,1-2.916,1.134H2.521A2.324,2.324,0,0,0,.2,16.138V17.7a2.323,2.323,0,0,0,2.333,2.308H39.36a3.8,3.8,0,0,1,2.515.652,2.791,2.791,0,0,1,.851,2.189v1.161a2.635,2.635,0,0,1-1.355,2.542,8.946,8.946,0,0,1-4.038.716c-3.027,0-7.926-.021-7.926-.021a2.255,2.255,0,0,0-1.3.48,1.6,1.6,0,0,0-.586,1.325L27.5,31.276a1.81,1.81,0,0,0,1.482,1.775l1.615.2h0a33.151,33.151,0,0,0,4.131.244c.449,0,.9-.028,1.346-.028l1.614-.064a19.8,19.8,0,0,0,6.084-1.161,6.879,6.879,0,0,0,3.808-2.774,10.038,10.038,0,0,0,1.358-5.658V21.984a8.326,8.326,0,0,0-2.224-5.966A7.751,7.751,0,0,0,41.984,13.856Z" transform="translate(-0.2 0)" fill="#05f"/>
    <path id="Trazado_325" data-name="Trazado 325" d="M348.477,31.12,355.754,4a2.8,2.8,0,0,1,3.44-1.985l.957.256a2.807,2.807,0,0,1,1.983,3.44h0L354.863,32.83a2.807,2.807,0,0,1-3.44,1.983l-.957-.256a2.806,2.806,0,0,1-1.985-3.44Z" transform="translate(-296.313 -1.635)" fill="#05f"/>
  </g>
</svg>
