<svg id="Capa_2" data-name="Capa 2" xmlns="http://www.w3.org/2000/svg" width="35.729" height="18.158" viewBox="0 0 35.729 18.158">
  <g id="E-SOL" transform="translate(0 0)">
    <g id="E-SOL-2" data-name="E-SOL" transform="translate(0)">
      <path id="Trazado_322" data-name="Trazado 322" d="M10.386,0H1.21A1.207,1.207,0,0,0,0,1.2v.84H0a1.207,1.207,0,0,0,1.21,1.2h9.176a1.216,1.216,0,0,0,.857-.354,1.2,1.2,0,0,0,.353-.851V1.2A1.207,1.207,0,0,0,10.386,0Z" transform="translate(0 14.758)" fill="#fff"/>
      <path id="Trazado_323" data-name="Trazado 323" d="M1.21,3.24h9.176a1.206,1.206,0,0,0,1.209-1.2h0V1.2h0A1.2,1.2,0,0,0,10.39,0H1.209A1.2,1.2,0,0,0,0,1.2v.839H0A1.207,1.207,0,0,0,1.21,3.24Z" transform="translate(0 0.013)" fill="#fff"/>
      <path id="Trazado_324" data-name="Trazado 324" d="M22.648,7.51a1.649,1.649,0,0,0-.267-.031,5.078,5.078,0,0,0-.657-.028H20a2.441,2.441,0,0,1-1.552-.412,1.575,1.575,0,0,1-.509-1.3V5.269a1.6,1.6,0,0,1,.687-1.517,3.914,3.914,0,0,1,2.027-.515h2.066c.477,0,1.072.014,1.749.014a1.016,1.016,0,0,0,.751-.261.973.973,0,0,0,.313-.713l.041-1.085a1.086,1.086,0,0,0-.657-.948,3.3,3.3,0,0,0-1.29-.2C22.718,0,22.063,0,21.117,0h-.875c-3.778,0-5.674,1.848-5.674,5.107l-.015.316a2.854,2.854,0,0,1-.743,1.451,2.323,2.323,0,0,1-1.581.614H1.258A1.26,1.26,0,0,0,0,8.747v.845a1.259,1.259,0,0,0,1.265,1.251H21.226a2.058,2.058,0,0,1,1.363.353,1.513,1.513,0,0,1,.461,1.187v.629a1.428,1.428,0,0,1-.734,1.378,4.849,4.849,0,0,1-2.189.388c-1.641,0-4.3-.011-4.3-.011a1.222,1.222,0,0,0-.706.26.865.865,0,0,0-.318.718L14.8,16.952a.981.981,0,0,0,.8.962l.875.111h0a17.968,17.968,0,0,0,2.239.132c.243,0,.486-.015.73-.015l.875-.035a10.733,10.733,0,0,0,3.3-.629,3.729,3.729,0,0,0,2.064-1.5,5.441,5.441,0,0,0,.736-3.067v-.992a4.513,4.513,0,0,0-1.205-3.234A4.2,4.2,0,0,0,22.648,7.51Z" transform="translate(0 0)" fill="#fff"/>
      <path id="Trazado_325" data-name="Trazado 325" d="M.05,15.825l3.944-14.7A1.52,1.52,0,0,1,5.859.052l.519.139A1.522,1.522,0,0,1,7.452,2.055h0l-3.941,14.7a1.522,1.522,0,0,1-1.864,1.075l-.519-.139A1.521,1.521,0,0,1,.052,15.824Z" transform="translate(28.224 0.156)" fill="#fff"/>
    </g>
  </g>
</svg>
