<svg xmlns="http://www.w3.org/2000/svg" width="19" height="19" viewBox="0 0 19 19"><g transform="translate(-252 -739)"><g transform="translate(252 739)"><path d="M 9.5 18.5 C 6.12401008605957 18.5 3.103830099105835 16.62018966674805 1.42101001739502 13.47152042388916 C 0.8438100218772888 12.40587043762207 0.5 10.92210960388184 0.5 9.5 C 0.5 4.537380218505859 4.537380218505859 0.5 9.5 0.5 C 14.46261978149414 0.5 18.5 4.537380218505859 18.5 9.5 C 18.5 14.46261978149414 14.46261978149414 18.5 9.5 18.5 Z" stroke="none"/><path d="M 9.5 1 C 4.813079833984375 1 1 4.813079833984375 1 9.5 C 1 10.84276962280273 1.321250915527344 12.23750019073486 1.859340667724609 13.23093032836914 L 1.861980438232422 13.23583984375 C 3.456339836120605 16.21900939941406 6.311679840087891 18 9.5 18 C 14.18692016601562 18 18 14.18692016601562 18 9.5 C 18 4.813079833984375 14.18692016601562 1 9.5 1 M 9.5 0 C 14.74670028686523 0 19 4.253299713134766 19 9.5 C 19 14.74670028686523 14.74670028686523 19 9.5 19 C 5.874529838562012 19 2.723390579223633 16.96912956237793 0.9800395965576172 13.707200050354 C 0.4061107635498047 12.64760971069336 0 11.12123012542725 0 9.5 C 0 4.253299713134766 4.253299713134766 0 9.5 0 Z" stroke="none" fill="#000"/></g><text transform="translate(257 753)" fill="#fff" font-size="14" font-family="Helvetica-Light, Helvetica" font-weight="300"><tspan x="0" y="0">$</tspan></text></g></svg>