<svg xmlns="http://www.w3.org/2000/svg" width="21" height="21" viewBox="0 0 21 21"><g transform="translate(-130 233)"><rect width="21" height="21" transform="translate(130 -233)" fill="none"/><g transform="translate(-134.059 0.37)"><g transform="translate(265.059 -232.37)" fill="none" stroke="#000" stroke-width="1"><circle cx="9.5" cy="9.5" r="9.5" stroke="none"/><circle cx="9.5" cy="9.5" r="9" fill="none"/></g><path d="M3.57-9.114a2.115,2.115,0,0,0-.735.126,1.856,1.856,0,0,0-.6.357,1.651,1.651,0,0,0-.406.553,1.7,1.7,0,0,0-.147.714,1.784,1.784,0,0,0,.147.77,1.411,1.411,0,0,0,.406.511,2.194,2.194,0,0,0,.6.329q.343.126.735.238ZM4.228-.49a2.185,2.185,0,0,0,.819-.154,2.245,2.245,0,0,0,.679-.42A1.912,1.912,0,0,0,6.188-1.7a1.962,1.962,0,0,0,.168-.819,1.952,1.952,0,0,0-.168-.861,1.536,1.536,0,0,0-.455-.56,2.28,2.28,0,0,0-.672-.343,8.569,8.569,0,0,0-.833-.224Zm0,1.82H3.584V.266A3.525,3.525,0,0,1,1.617-.392,2.866,2.866,0,0,1,.588-2.156Q.56-2.338.546-2.506L.518-2.842h.91a2.524,2.524,0,0,0,.154.889,2.222,2.222,0,0,0,.441.728A2.3,2.3,0,0,0,2.7-.714,2.21,2.21,0,0,0,3.57-.49V-4.648a9.866,9.866,0,0,1-1.085-.329,3.192,3.192,0,0,1-.889-.49A2.131,2.131,0,0,1,1-6.216,2.526,2.526,0,0,1,.784-7.322a2.468,2.468,0,0,1,.224-1.064A2.447,2.447,0,0,1,1.617-9.2a2.668,2.668,0,0,1,.889-.511A3.035,3.035,0,0,1,3.584-9.87v-.854h.644v.854a3.39,3.39,0,0,1,1.064.161,2.464,2.464,0,0,1,.854.476,2.235,2.235,0,0,1,.574.777,2.844,2.844,0,0,1,.238,1.05h-.91A1.618,1.618,0,0,0,5.9-8.1a1.689,1.689,0,0,0-.392-.539,1.789,1.789,0,0,0-.574-.35,1.96,1.96,0,0,0-.707-.126V-5.39q.686.168,1.246.364a3.094,3.094,0,0,1,.952.518,2.136,2.136,0,0,1,.609.833,3.376,3.376,0,0,1,.217,1.309,2.24,2.24,0,0,1-.266,1.1,2.669,2.669,0,0,1-.693.819A3.19,3.19,0,0,1,5.32.07a3.742,3.742,0,0,1-1.092.2Z" transform="translate(270.582 -218.37)"/><path d="M3.57-9.114a2.115,2.115,0,0,0-.735.126,1.856,1.856,0,0,0-.6.357,1.651,1.651,0,0,0-.406.553,1.7,1.7,0,0,0-.147.714,1.784,1.784,0,0,0,.147.77,1.411,1.411,0,0,0,.406.511,2.194,2.194,0,0,0,.6.329q.343.126.735.238ZM4.228-.49a2.185,2.185,0,0,0,.819-.154,2.245,2.245,0,0,0,.679-.42A1.912,1.912,0,0,0,6.188-1.7a1.962,1.962,0,0,0,.168-.819,1.952,1.952,0,0,0-.168-.861,1.536,1.536,0,0,0-.455-.56,2.28,2.28,0,0,0-.672-.343,8.569,8.569,0,0,0-.833-.224Zm0,1.82H3.584V.266A3.525,3.525,0,0,1,1.617-.392,2.866,2.866,0,0,1,.588-2.156Q.56-2.338.546-2.506L.518-2.842h.91a2.524,2.524,0,0,0,.154.889,2.222,2.222,0,0,0,.441.728A2.3,2.3,0,0,0,2.7-.714,2.21,2.21,0,0,0,3.57-.49V-4.648a9.866,9.866,0,0,1-1.085-.329,3.192,3.192,0,0,1-.889-.49A2.131,2.131,0,0,1,1-6.216,2.526,2.526,0,0,1,.784-7.322a2.468,2.468,0,0,1,.224-1.064A2.447,2.447,0,0,1,1.617-9.2a2.668,2.668,0,0,1,.889-.511A3.035,3.035,0,0,1,3.584-9.87v-.854h.644v.854a3.39,3.39,0,0,1,1.064.161,2.464,2.464,0,0,1,.854.476,2.235,2.235,0,0,1,.574.777,2.844,2.844,0,0,1,.238,1.05h-.91A1.618,1.618,0,0,0,5.9-8.1a1.689,1.689,0,0,0-.392-.539,1.789,1.789,0,0,0-.574-.35,1.96,1.96,0,0,0-.707-.126V-5.39q.686.168,1.246.364a3.094,3.094,0,0,1,.952.518,2.136,2.136,0,0,1,.609.833,3.376,3.376,0,0,1,.217,1.309,2.24,2.24,0,0,1-.266,1.1,2.669,2.669,0,0,1-.693.819A3.19,3.19,0,0,1,5.32.07a3.742,3.742,0,0,1-1.092.2Z" transform="translate(270.582 -218.37)"/></g></g></svg>