<svg xmlns="http://www.w3.org/2000/svg" width="20" height="20" viewBox="0 0 20 20"><g transform="translate(-249 -736)"><rect width="20" height="20" rx="4" transform="translate(249 736)" fill="#38d989"/><path d="M56.508,47.213l-1.624-.393a1.064,1.064,0,0,1-.812-1.048,1.107,1.107,0,0,1,1.1-1.1h.786a1,1,0,0,1,1,1,.786.786,0,1,0,1.572,0A2.551,2.551,0,0,0,56.3,43.126v-.341a.786.786,0,1,0-1.572,0v.367a2.664,2.664,0,0,0-.21,5.213l1.624.393a1.064,1.064,0,0,1,.812,1.048,1.107,1.107,0,0,1-1.1,1.1h-.786a1,1,0,0,1-1-1,.786.786,0,0,0-1.572,0,2.551,2.551,0,0,0,2.226,2.541v.341a.786.786,0,0,0,1.572,0v-.367a2.671,2.671,0,0,0,2.226-2.619A2.644,2.644,0,0,0,56.508,47.213Z" transform="translate(203.488 698.354)" fill="#fff"/></g></svg>