<svg xmlns="http://www.w3.org/2000/svg" width="289.508" height="39.793" viewBox="0 0 289.508 39.793"><g transform="translate(351.48 -9246.334)"><g transform="translate(2057.3 9903.692)"><g transform="translate(-2387.318 -656.354)"><path d="M-2371.648-656.1l4.756,4.2-.107,6.238-4.756-4.2Z" transform="translate(2371.755 656.103)"/></g><g transform="translate(-2387.552 -642.489)"><path d="M-2372.059-631.939l4.756,4.2-.1,6.095-4.756-4.2Z" transform="translate(2372.163 631.939)"/></g><g transform="translate(-2408.272 -650.116)"><path d="M-2389.288-641.036h12.734l-4.756-4.2h-12.734l-.13,7.627,4.756,4.2Z" transform="translate(2402.263 645.232)"/><path d="M-2394.449-621.318l-.126,7.386,4.756,4.2.126-7.386h12.734l-4.756-4.2Z" transform="translate(2402.435 635.04)"/><path d="M-2408.272-597.574l4.756,4.2h20.487l-4.756-4.2Z" transform="translate(2408.272 624.921)"/></g><g transform="translate(-2387.785 -629.008)"><path d="M-2372.462-608.446l4.756,4.2-.107,6.238-4.756-4.2Z" transform="translate(2372.569 608.446)"/></g><g transform="translate(-2379.928 -645.898)"><path d="M-2335.689-635.062a6.372,6.372,0,0,1,.5.616q.061.084.119.171a6.54,6.54,0,0,1,.424.71l4.756,4.2a6.587,6.587,0,0,0-.424-.71c-.039-.058-.079-.115-.119-.171a6.551,6.551,0,0,0-.5-.616c-.006-.006-.01-.013-.015-.019l0,0c-.137-.146-.282-.286-.434-.421l-.019-.019-4.756-4.2q.238.21.453.44Z" transform="translate(2349.196 636.876)"/><path d="M-2352.425-621.438c0,.028,0,.057,0,.085.008.1.021.187.032.281.008.06.013.122.021.182.027.188.059.372.1.55,0,.007,0,.015.006.022.039.172.085.339.138.5.017.055.038.108.057.162.04.114.082.228.128.338.025.06.052.118.079.177.048.1.1.2.15.3.03.056.06.113.092.168.059.1.123.2.189.3.031.045.06.092.092.138.1.14.205.278.32.409.041.048.083.095.126.14.111.119.226.23.345.336h0l4.756,4.2a5.084,5.084,0,0,1-.472-.476c-.114-.131-.219-.269-.32-.409-.032-.045-.061-.092-.092-.138-.065-.1-.129-.2-.188-.3-.033-.056-.063-.112-.094-.169q-.078-.148-.149-.3c-.027-.059-.054-.118-.079-.179-.046-.109-.088-.221-.127-.335-.019-.055-.04-.108-.057-.164-.052-.162-.1-.329-.137-.5,0-.008,0-.016-.006-.023-.04-.178-.072-.363-.1-.55-.009-.06-.014-.122-.021-.182-.014-.12-.026-.242-.034-.365-.018-.253-.029-.511-.024-.778q.006-.337.035-.658c.019-.2.044-.392.076-.582.01-.06.024-.117.035-.176.022-.119.047-.236.075-.352a6.443,6.443,0,0,1,.213-.7c.016-.044.036-.085.053-.129.067-.169.141-.335.222-.495.031-.063.065-.123.1-.184.086-.156.18-.308.28-.454.032-.046.062-.1.095-.141a5.837,5.837,0,0,1,.4-.488c.093-.1.192-.193.29-.286.06-.057.122-.114.184-.168s.151-.123.228-.181.129-.1.2-.144.164-.106.247-.155c.068-.041.135-.083.2-.12.087-.047.177-.088.267-.129.071-.033.14-.067.213-.1.094-.038.192-.07.289-.1.073-.024.145-.052.219-.073.1-.03.213-.053.32-.076.072-.016.142-.036.216-.049.123-.022.25-.037.376-.051.063-.007.124-.019.187-.024.193-.017.389-.026.592-.026a6.546,6.546,0,0,1,1.515.166,4.561,4.561,0,0,1,2,1.014h0l-4.756-4.2a5.124,5.124,0,0,0-3.517-1.18q-.3,0-.592.025c-.064.006-.125.017-.187.024-.127.015-.254.029-.376.052-.073.013-.143.032-.215.048-.108.024-.217.047-.321.077-.074.021-.145.048-.218.072-.1.033-.2.065-.291.1-.072.029-.142.064-.212.1-.09.041-.18.083-.267.129-.07.037-.137.08-.205.121s-.166.1-.247.155-.131.1-.2.144-.154.118-.228.182-.124.111-.184.167c-.043.04-.088.076-.129.118s-.107.11-.16.167a5.7,5.7,0,0,0-.4.488c-.01.014-.022.026-.032.04-.023.032-.04.069-.062.1-.1.146-.193.3-.28.453-.018.033-.041.063-.059.1s-.025.06-.04.089c-.081.159-.155.325-.222.494-.013.034-.032.066-.045.1,0,.009-.006.019-.009.028a6.547,6.547,0,0,0-.213.7c-.005.021-.014.041-.019.063-.022.094-.038.192-.057.289-.011.059-.025.116-.034.176-.032.189-.057.381-.075.578v0q-.029.321-.035.658C-2352.454-621.948-2352.443-621.691-2352.425-621.438Z" transform="translate(2356.138 633.78)"/><path d="M-2336.994-637.88l-.4,23.128h-3.526l-3.7-3.26a6.555,6.555,0,0,1-.511.757c-.029.038-.058.076-.088.112a6.869,6.869,0,0,1-.591.642c-.038.037-.078.072-.117.108a7.472,7.472,0,0,1-.711.58c-.034.024-.07.047-.1.071a8.749,8.749,0,0,1-.867.535,9.108,9.108,0,0,1-4.4,1.082,10.007,10.007,0,0,1-6.876-2.368l4.756,4.2a10.008,10.008,0,0,0,6.877,2.368,9.109,9.109,0,0,0,4.4-1.081,8.807,8.807,0,0,0,.867-.535c.034-.023.07-.046.1-.071.14-.1.274-.2.4-.312l1.558,1.374h7.277l.4-23.128Z" transform="translate(2358.877 637.88)"/></g><path d="M-2290.07-634.014l-4.756-4.2-.116,6.812a20.1,20.1,0,0,0-2.2-.143c-.24,0-.473.011-.7.029-.074.006-.144.017-.217.025-.113.012-.229.022-.338.039l.041-2.376-4.756-4.2-.083,4.849,2.759,2.434-.006,0c-.1.06-.2.125-.291.192-.062.043-.125.085-.184.131-.1.077-.193.16-.286.245-.049.044-.1.085-.147.131-.01.01-.021.018-.03.028-.027.027-.048.061-.074.088a5.084,5.084,0,0,0-.389.46c-.022.03-.049.053-.071.084s-.046.079-.072.116c-.091.134-.177.275-.259.421-.027.048-.06.09-.085.139-.013.023-.022.052-.034.076a6.919,6.919,0,0,0-.328.736h0c-.075.2-.141.41-.2.627-.019.065-.036.133-.053.2-.023.089-.05.176-.071.267-.012.055-.021.117-.033.173-.031.14-.057.283-.083.429-.022.128-.044.258-.063.39-.021.151-.04.306-.057.464-.009.086-.023.166-.031.253,0,.042,0,.09-.007.133-.03.365-.052.74-.059,1.134l-.153,8.925h-7.323l4.756,4.2h7.323l.153-8.924c.007-.395.029-.769.059-1.134.011-.131.024-.258.038-.386.017-.157.036-.313.057-.464.019-.133.041-.262.063-.39.026-.146.053-.289.083-.429s.067-.3.1-.441c.018-.067.034-.134.053-.2.062-.216.129-.427.2-.628a7.009,7.009,0,0,1,.328-.735c.038-.074.079-.143.119-.215.082-.146.168-.287.26-.421.046-.068.094-.135.142-.2a5.2,5.2,0,0,1,.388-.46c.036-.038.069-.08.105-.116s.1-.087.146-.131c.093-.085.187-.168.286-.245.06-.046.122-.088.184-.131.095-.067.191-.132.292-.192.068-.041.138-.078.208-.116.1-.054.2-.106.311-.153.074-.033.15-.065.228-.1.109-.043.222-.082.336-.119.079-.026.159-.052.241-.074.122-.033.247-.061.374-.088.081-.017.16-.036.243-.05.143-.025.292-.042.441-.058.073-.008.143-.019.217-.025.227-.018.459-.028.7-.028.3,0,.639.011,1.005.035s.765.06,1.2.108h0Z" transform="translate(-41.527 -7.877)"/><g transform="translate(-2332.829 -645.898)"><path d="M-2264.441-623.714c.012-.107.024-.214.039-.317s.031-.188.047-.279.036-.2.057-.294c.014-.067.032-.13.048-.195a6.013,6.013,0,0,1,.181-.6c.011-.031.02-.065.031-.1a5.132,5.132,0,0,1,.232-.52c.023-.044.049-.084.073-.127.063-.112.128-.22.2-.323.032-.047.066-.092.1-.137a3.782,3.782,0,0,1,.26-.308c.037-.039.072-.08.111-.118s.086-.077.129-.115c.061-.054.124-.107.189-.157.047-.036.1-.069.145-.1.066-.045.134-.089.2-.13.052-.031.1-.06.159-.088.072-.037.147-.073.222-.106.056-.025.113-.049.171-.071.08-.031.162-.058.244-.084.06-.019.118-.038.18-.055.089-.024.182-.043.274-.063.06-.012.118-.026.18-.036.105-.018.215-.03.325-.041.054-.006.105-.014.16-.018.167-.013.338-.021.516-.021a4.423,4.423,0,0,1,2.141.465,2.833,2.833,0,0,1,.515.36h0l-4.755-4.2a3.679,3.679,0,0,0-2.283-.8l.023-1.395-4.756-4.2-.058,3.363,2.768,2.442c-.078.025-.155.051-.229.079-.059.022-.115.047-.172.072-.076.033-.15.068-.222.106-.054.028-.107.057-.16.088q-.1.062-.2.13c-.049.033-.1.067-.145.1-.065.049-.127.1-.188.156-.043.038-.088.076-.129.116-.015.015-.032.027-.046.042s-.042.052-.064.075a3.649,3.649,0,0,0-.26.309c-.02.025-.042.046-.061.072s-.026.044-.04.064c-.071.1-.137.212-.2.324-.019.033-.041.062-.06.1-.005.01-.009.021-.014.031a5.025,5.025,0,0,0-.232.52c0,.008-.007.016-.01.024s-.013.049-.021.071a6.1,6.1,0,0,0-.181.6c-.009.033-.021.061-.029.095s-.012.067-.019.1c-.021.1-.04.195-.057.294s-.033.185-.047.28-.027.21-.039.317c-.008.067-.018.13-.024.2,0,.028,0,.058,0,.086-.021.251-.036.51-.041.782l-.207,12.092h-7.323l4.756,4.2h7.323l.207-12.092c0-.272.02-.53.041-.782C-2264.461-623.527-2264.451-623.62-2264.441-623.714Z" transform="translate(2276.796 637.88)"/><path d="M-2236.825-625.121c0-.1-.01-.2-.017-.3s-.009-.228-.018-.337c-.014-.173-.036-.336-.056-.5-.01-.084-.016-.172-.028-.255q-.068-.508-.169-.978c-.015-.068-.033-.131-.049-.2q-.088-.372-.2-.72c-.028-.088-.056-.175-.086-.26-.08-.229-.168-.449-.262-.661-.024-.053-.044-.108-.069-.16a7.043,7.043,0,0,0-.4-.728c-.036-.058-.076-.112-.114-.168-.116-.174-.238-.341-.367-.5-.05-.062-.1-.124-.153-.184-.038-.043-.073-.091-.112-.133q-.205-.22-.43-.419l-4.756-4.2a6.164,6.164,0,0,1,.542.552c.052.06.1.122.153.183.129.159.251.326.367.5.037.057.077.111.114.169a7.23,7.23,0,0,1,.4.728c.024.051.045.107.069.16q.142.318.262.661c.03.085.059.173.086.26q.11.348.2.719c.016.067.035.13.05.2q.1.47.169.978c.011.083.018.17.028.255.031.273.057.552.074.84.006.1.012.2.017.3.016.371.025.749.018,1.145l-.245,14.3h-7.369l4.756,4.2h7.369l.244-14.3C-2236.8-624.371-2236.809-624.75-2236.825-625.121Z" transform="translate(2265.025 637.003)"/></g><g transform="translate(-2291.761 -655.395)"><path d="M-2193.673-631.235a6.246,6.246,0,0,1,.3-.57c.063-.111.13-.22.2-.324s.154-.219.235-.324.182-.226.28-.331a4.709,4.709,0,0,1,.333-.335c.04-.036.078-.073.119-.107a4.772,4.772,0,0,1,.552-.4c.038-.024.08-.044.12-.067a5.051,5.051,0,0,1,.519-.26c.056-.023.11-.048.167-.07a5.659,5.659,0,0,1,.688-.222c.031-.008.065-.013.1-.02.215-.05.44-.088.671-.118.069-.009.139-.017.21-.024.268-.026.542-.045.83-.045a4.57,4.57,0,0,1,3.137,1.074l-4.756-4.2a4.571,4.571,0,0,0-3.138-1.074c-.1,0-.2.007-.3.011l.1-5.606h15.751l.1-6-4.756-4.2-.1,6h-15.751l-.119,6.956,3.414,3.012-.048.01c-.032.007-.066.012-.1.02a5.816,5.816,0,0,0-.688.221c-.056.022-.111.047-.167.071a5.034,5.034,0,0,0-.519.26c-.04.023-.082.043-.121.067a4.678,4.678,0,0,0-.552.4c-.041.034-.079.072-.119.107-.071.063-.145.123-.212.19-.044.044-.079.1-.121.143-.1.106-.19.216-.28.332-.042.055-.092.1-.134.158s-.066.112-.1.165c-.069.1-.135.213-.2.324-.037.065-.081.121-.116.188q-.1.184-.186.382h-6.8l4.756,4.2Z" transform="translate(2205.225 654.432)"/><path d="M-2188.379-607.827c-.04-.072-.082-.143-.116-.219a3.721,3.721,0,0,1-.153-.415c-.022-.069-.049-.134-.068-.2a4.428,4.428,0,0,1-.121-.685h0l-4.756-4.2a4.393,4.393,0,0,0,.12.686c.019.071.046.136.068.2a3.584,3.584,0,0,0,.153.415c.034.076.077.146.116.219a3.278,3.278,0,0,0,.207.336c.05.071.1.138.16.2.042.05.076.105.121.153q.117.125.248.24l4.756,4.2a3.505,3.505,0,0,1-.368-.394c-.056-.067-.11-.134-.16-.2A3.316,3.316,0,0,1-2188.379-607.827Z" transform="translate(2200.268 637.007)"/><path d="M-2174.433-618.062c.01-.088.024-.174.033-.263,0-.03.009-.059.011-.089q.052-.561.061-1.146c.006-.36,0-.71-.022-1.055,0-.074-.008-.148-.012-.221s-.006-.129-.011-.192c-.017-.21-.046-.412-.072-.616-.011-.088-.018-.18-.031-.267q-.077-.507-.191-.989c-.018-.073-.042-.143-.06-.216-.064-.246-.133-.488-.213-.724-.036-.108-.078-.212-.118-.318-.073-.2-.152-.39-.236-.579-.049-.109-.1-.217-.153-.324q-.134-.273-.286-.535c-.057-.1-.114-.2-.174-.3-.118-.188-.244-.37-.375-.55-.054-.075-.1-.153-.162-.227-.187-.243-.385-.481-.6-.709l-.023-.025q-.3-.324-.632-.613l-4.756-4.2q.327.289.631.613c.222.235.428.481.623.734.057.074.108.152.162.227.13.18.256.361.374.549.061.1.117.2.174.3.1.176.2.353.286.536.053.107.1.214.153.323.085.189.162.383.237.58.039.106.081.21.117.317.08.236.149.479.213.724.019.073.042.143.06.216.077.321.14.651.191.989.013.087.019.179.031.266.035.265.064.532.083.807,0,.073.008.147.012.221.018.345.028.694.022,1.055-.007.421-.033.832-.072,1.235-.009.09-.023.176-.033.264q-.052.443-.128.872-.032.174-.068.345c-.069.326-.145.648-.237.961-.006.02-.01.041-.016.061-.1.343-.224.674-.356,1-.027.068-.055.136-.083.2-.134.315-.28.624-.441.924-.027.051-.057.1-.086.149q-.222.4-.477.778c-.041.061-.08.122-.122.182-.208.3-.429.591-.668.873-.014.017-.031.033-.046.051-.248.287-.508.568-.787.837a12.918,12.918,0,0,1-9.371,3.408,13.341,13.341,0,0,1-8.715-2.665c-.1-.082-.2-.165-.293-.25h0l4.756,4.2c.1.084.193.168.293.249a13.341,13.341,0,0,0,8.715,2.665,12.918,12.918,0,0,0,9.371-3.408q.094-.09.185-.182c.212-.213.411-.433.6-.656.015-.017.031-.032.045-.049q.313-.368.592-.757c.027-.037.051-.078.077-.115.042-.06.08-.121.121-.181.17-.254.33-.513.478-.78.028-.049.058-.1.085-.147.013-.024.028-.046.04-.071.146-.278.277-.564.4-.854.029-.067.056-.134.083-.2.034-.086.073-.17.106-.256q.137-.366.25-.744c.006-.02.01-.04.016-.059.065-.22.127-.443.179-.67.023-.1.038-.2.058-.293.024-.114.047-.229.068-.345Q-2174.484-617.619-2174.433-618.062Z" transform="translate(2203.46 644.962)"/></g><g transform="translate(-2261.708 -654.581)"><path d="M-2148.625-642.961c.01.088.025.174.04.26a3.917,3.917,0,0,0,.1.422c.023.079.046.159.074.235a3.505,3.505,0,0,0,.183.4c.032.061.059.125.094.184a3.435,3.435,0,0,0,.381.523l.047.051a2.89,2.89,0,0,0,.208.2l4.756,4.2a3.264,3.264,0,0,1-.255-.254,3.51,3.51,0,0,1-.38-.523c-.036-.06-.062-.124-.095-.185a3.488,3.488,0,0,1-.182-.4c-.028-.077-.051-.157-.075-.236a3.9,3.9,0,0,1-.1-.421c-.016-.086-.03-.172-.04-.261a4.945,4.945,0,0,1-.038-.658,4.939,4.939,0,0,1,.058-.621c.012-.087.024-.174.041-.259a4.037,4.037,0,0,1,.154-.576c.005-.015.008-.031.014-.045a3.7,3.7,0,0,1,.271-.565c.029-.05.06-.1.091-.147a3.683,3.683,0,0,1,.373-.5c.045-.05.094-.094.142-.14a3.108,3.108,0,0,1,.459-.372c.023-.016.048-.029.071-.044a3.207,3.207,0,0,1,.541-.271l.067-.022a3.7,3.7,0,0,1,.632-.168l.048-.006a4.677,4.677,0,0,1,.739-.059,3.475,3.475,0,0,1,2.386.8l-4.756-4.2a3.476,3.476,0,0,0-2.387-.8,4.678,4.678,0,0,0-.738.058l-.048.006a3.763,3.763,0,0,0-.632.168l-.066.023a3.234,3.234,0,0,0-.541.271l-.071.044a3.155,3.155,0,0,0-.459.372c-.012.012-.027.019-.039.032-.035.035-.069.071-.1.108a3.729,3.729,0,0,0-.275.34c-.036.051-.064.106-.1.158s-.062.1-.091.147-.051.077-.073.118a3.737,3.737,0,0,0-.195.435l0,.011c-.006.015-.009.031-.014.046a3.8,3.8,0,0,0-.132.437c-.011.044-.013.094-.022.139-.017.084-.029.172-.042.259s-.03.151-.037.232c-.011.127-.019.257-.021.39q0,.259.015.5C-2148.645-643.061-2148.631-643.013-2148.625-642.961Z" transform="translate(2151.067 650.625)"/><path d="M-2123.858-653.012l-10.029,14.188c.006-.014.01-.028.016-.042.018-.046.044-.091.062-.138s.029-.1.047-.156c.071-.2.133-.409.187-.617.017-.063.041-.122.056-.185.01-.042.016-.087.025-.129.014-.066.027-.133.04-.2q.052-.275.088-.56c.007-.061.017-.121.023-.182,0-.03.008-.058.011-.087.021-.226.032-.456.037-.689,0-.295-.005-.584-.028-.867,0-.01,0-.021,0-.03-.02-.24-.051-.475-.09-.706-.01-.062-.026-.122-.038-.183-.034-.18-.073-.358-.12-.532-.022-.083-.048-.164-.073-.246-.046-.151-.1-.3-.152-.449-.031-.083-.063-.165-.1-.247-.062-.148-.13-.294-.2-.438-.036-.073-.07-.146-.108-.217-.1-.18-.2-.357-.314-.53-.02-.03-.037-.063-.057-.093-.135-.2-.282-.4-.438-.593-.046-.056-.1-.111-.145-.167-.085-.1-.167-.2-.257-.3-.058-.062-.117-.124-.178-.185-.124-.125-.251-.246-.382-.361l-4.756-4.2q.2.173.382.361c.155.156.3.318.435.481.048.056.1.11.145.167.156.193.3.39.438.593.021.03.038.063.057.094.113.173.218.349.314.529.039.071.072.145.108.217.071.145.139.29.2.438.034.081.067.164.1.247.055.147.1.3.151.45.025.082.051.162.073.246.047.174.086.352.12.532.012.061.028.122.038.184q.061.361.09.736c.022.284.032.573.027.868,0,.264-.022.522-.048.776-.006.061-.015.121-.023.182q-.035.284-.088.56c-.013.067-.025.133-.04.2-.023.107-.054.21-.082.315-.054.209-.116.415-.187.617q-.052.148-.109.294c-.077.193-.163.382-.255.569-.047.094-.09.191-.14.284-.028.049-.057.1-.085.148-.1.172-.206.342-.319.508-.025.036-.046.072-.072.107-.146.207-.3.41-.469.607-.021.024-.044.047-.065.071-.162.186-.33.369-.512.546a8.778,8.778,0,0,1-6.408,2.373,10.255,10.255,0,0,1-3.295-.5,7.535,7.535,0,0,1-2.6-1.494h0l4.756,4.2a8.586,8.586,0,0,0,5.9,1.992,8.835,8.835,0,0,0,6.2-2.2l-11.068,15.658-3.605-2.112,4.756,4.2,3.6,2.112,23.2-32.82Z" transform="translate(2152.851 653.012)"/><path d="M-2110.455-608.244c-.028-.077-.051-.157-.075-.236a4.035,4.035,0,0,1-.1-.423c-.015-.086-.029-.172-.04-.26a4.954,4.954,0,0,1-.039-.661,4.93,4.93,0,0,1,.058-.621c.012-.087.024-.173.041-.257a4.03,4.03,0,0,1,.156-.581c0-.013.007-.026.011-.038a3.662,3.662,0,0,1,.272-.563c.029-.05.06-.1.091-.147a3.764,3.764,0,0,1,.373-.5c.048-.052.1-.1.149-.148a3.147,3.147,0,0,1,.456-.369l.074-.045a3.163,3.163,0,0,1,.536-.267c.022-.009.047-.016.07-.024a3.674,3.674,0,0,1,.627-.165l.05-.006a4.788,4.788,0,0,1,.736-.057,3.455,3.455,0,0,1,2.376.792l-4.756-4.2a3.453,3.453,0,0,0-2.375-.793,4.792,4.792,0,0,0-.736.057l-.05.006a3.674,3.674,0,0,0-.627.165c-.023.008-.047.015-.07.023a3.189,3.189,0,0,0-.537.267c-.024.016-.049.029-.073.045a3.1,3.1,0,0,0-.456.369c-.012.012-.026.02-.038.031q-.057.057-.111.117a3.936,3.936,0,0,0-.277.343c-.035.05-.062.1-.1.156s-.062.1-.09.147-.053.079-.075.12a3.554,3.554,0,0,0-.195.433l0,.01c0,.012-.007.025-.011.037a3.966,3.966,0,0,0-.134.444c-.01.044-.013.093-.022.138-.017.084-.029.17-.041.257s-.031.151-.037.232c-.012.127-.018.256-.021.389,0,.174,0,.343.015.507,0,.053.018.1.023.154.01.088.024.174.04.26a3.989,3.989,0,0,0,.1.422c.024.08.047.16.075.236a3.5,3.5,0,0,0,.183.4c.032.061.059.126.095.185a3.466,3.466,0,0,0,.38.523l.048.052a2.841,2.841,0,0,0,.207.2v0l4.756,4.2a2.978,2.978,0,0,1-.256-.255,3.349,3.349,0,0,1-.38-.523c-.036-.059-.063-.123-.095-.185A3.419,3.419,0,0,1-2110.455-608.244Z" transform="translate(2136.917 638.008)"/><path d="M-2100.171-610.609c.008-.061.017-.121.022-.182,0-.029.009-.057.011-.087q.031-.34.037-.691c.005-.295,0-.584-.027-.868,0-.01,0-.02,0-.03-.02-.239-.05-.474-.089-.7-.01-.062-.026-.123-.038-.185-.034-.18-.073-.357-.12-.531-.022-.082-.048-.163-.072-.245q-.069-.228-.151-.45-.047-.124-.1-.246c-.062-.149-.13-.3-.2-.441-.035-.071-.068-.143-.106-.213-.1-.188-.21-.371-.327-.551-.015-.023-.027-.048-.043-.07-.135-.2-.282-.4-.438-.591-.048-.058-.1-.115-.149-.172-.082-.1-.16-.192-.246-.285-.061-.065-.124-.13-.187-.193q-.186-.188-.382-.361l-4.756-4.2c.131.115.258.235.382.36.154.156.295.317.434.48.049.057.1.113.148.171.156.193.3.39.438.592.015.022.028.046.042.068q.177.271.328.553c.038.07.071.142.106.213.072.145.141.292.2.441.034.082.065.164.1.246q.083.222.152.45c.025.081.051.162.072.244.046.174.085.352.12.531.012.062.027.122.038.184q.061.362.09.736c.022.284.032.573.027.868,0,.265-.022.523-.048.778-.006.061-.015.121-.022.182q-.036.284-.088.561c-.013.067-.025.134-.04.2-.023.107-.054.211-.081.316-.054.209-.116.415-.187.617-.034.1-.07.2-.109.295-.076.193-.163.382-.255.569-.046.094-.088.191-.139.283-.027.049-.056.1-.084.148q-.149.258-.318.508c-.025.036-.047.072-.072.107-.146.207-.3.409-.468.6-.023.028-.05.053-.073.08-.159.183-.325.364-.5.539a8.8,8.8,0,0,1-6.408,2.373,10.231,10.231,0,0,1-3.3-.5,7.787,7.787,0,0,1-1.39-.625q-.325-.188-.63-.406t-.587-.468h0l4.756,4.2a8.6,8.6,0,0,0,5.906,2,8.8,8.8,0,0,0,6.408-2.373l.1-.1c.142-.142.273-.289.4-.437.023-.026.049-.052.072-.078.154-.182.3-.367.437-.558.011-.016.021-.032.031-.048.025-.035.047-.071.071-.107q.17-.25.319-.509c.029-.049.057-.1.084-.147.019-.034.04-.067.058-.1.031-.059.052-.123.082-.183.092-.186.178-.375.255-.568.019-.047.044-.091.062-.138s.03-.106.048-.158c.071-.2.133-.407.187-.616.016-.063.041-.122.056-.186.01-.043.016-.088.026-.131.014-.066.026-.133.039-.2C-2100.224-610.232-2100.194-610.419-2100.171-610.609Z" transform="translate(2138.706 639.753)"/></g><g transform="translate(-2214.874 -656.354)"><path d="M-2042.435-637.105l-4.756-4.2-4.469,14.921,4.756,4.2Z" transform="translate(2062.89 649.795)"/><path d="M-2051.51-656.1l10.82,33.584h-4.645l-4.619-4.075h-11.875l-1.22,4.075h-8.182l4.756,4.2h8.183l1.22-4.075h8.332l4.619,4.075h8.188l-10.82-33.584Z" transform="translate(2071.231 656.103)"/><path d="M-1992.569-640.875h5.319a5.273,5.273,0,0,1,2.278.479,4.767,4.767,0,0,1,1.127.744h0l-4.756-4.2a4.966,4.966,0,0,0-3.406-1.223h-5.318l-.2,11.615,4.756,4.2Z" transform="translate(2039.818 651.401)"/><path d="M-1980.2-636.195c.01-.087.024-.172.032-.259,0-.028.008-.054.01-.082q.052-.563.061-1.148c.007-.4-.005-.79-.028-1.174,0-.06-.006-.12-.01-.18,0-.044,0-.09-.007-.134q-.042-.524-.123-1.028c0-.023-.01-.045-.014-.068-.057-.347-.129-.687-.213-1.02-.029-.115-.065-.227-.1-.341-.068-.238-.141-.474-.223-.7-.044-.125-.092-.248-.141-.371q-.129-.325-.278-.64c-.055-.117-.11-.234-.169-.349-.115-.223-.241-.441-.372-.656-.055-.09-.1-.182-.162-.271-.193-.3-.4-.59-.623-.872-.033-.041-.071-.08-.1-.121-.166-.2-.336-.407-.519-.6-.056-.06-.112-.119-.169-.178q-.318-.325-.652-.621l-4.756-4.2q.334.3.652.621c.246.252.472.515.689.782.033.041.07.079.1.119.223.282.429.574.623.872.057.089.107.181.162.271.131.215.256.433.372.656.059.115.114.232.169.349q.149.315.278.639c.049.123.1.246.141.371.082.23.154.465.222.7.033.114.069.226.1.341.084.333.156.672.213,1.019,0,.024.01.045.014.069.06.378.1.766.13,1.161,0,.059.006.12.01.18.022.384.035.774.028,1.174-.007.419-.033.828-.072,1.23-.009.088-.022.172-.032.259-.034.294-.076.584-.127.868-.021.118-.045.235-.069.351-.064.3-.134.6-.219.9-.011.041-.021.084-.033.125-.1.337-.218.665-.345.988q-.042.105-.086.209c-.134.319-.278.633-.439.937-.013.024-.027.046-.04.07-.153.283-.321.558-.5.829-.046.071-.093.142-.141.212-.156.227-.325.448-.5.666-.06.075-.115.153-.177.227-.242.289-.5.571-.772.843a11.808,11.808,0,0,1-8.671,3.429h-6.515l-.159,9.309h-7.753l4.756,4.2h7.753l.159-9.308h6.516a11.807,11.807,0,0,0,8.67-3.43l.06-.059c.252-.253.488-.515.713-.784.063-.075.118-.153.178-.228.127-.159.258-.316.376-.481.043-.06.08-.123.122-.184s.095-.141.141-.212c.177-.27.344-.545.5-.828.013-.023.027-.046.04-.071l.013-.022c.157-.3.3-.6.426-.914.029-.069.059-.139.087-.21s.059-.137.085-.208c.1-.255.181-.515.26-.779.012-.041.022-.084.033-.125.056-.193.11-.386.157-.584.024-.1.04-.209.062-.313s.048-.233.069-.351Q-1980.251-635.753-1980.2-636.195Z" transform="translate(2045.775 654.017)"/></g><g transform="translate(-2150.683 -653.544)"><path d="M-1940.423-640.875h5.313a5.484,5.484,0,0,1,1.867.307,4.744,4.744,0,0,1,1.544.916h0l-4.756-4.2a4.972,4.972,0,0,0-3.411-1.223h-5.313l-.2,11.615,4.756,4.2Z" transform="translate(1953.402 648.591)"/><path d="M-1951.446-613.8l-.159,9.308h-7.758l4.756,4.2h7.758l.159-9.308h4.071l-4.756-4.2Z" transform="translate(1959.363 635.263)"/><path d="M-1915.422-635.757c.026-.176.047-.354.067-.533.01-.092.026-.182.034-.276,0-.031,0-.063.005-.094.029-.336.049-.675.055-1.022.007-.4-.006-.79-.029-1.174,0-.06-.006-.12-.01-.18,0-.044,0-.089-.008-.134-.028-.349-.069-.691-.123-1.028,0-.024-.01-.045-.014-.069q-.086-.52-.214-1.019c-.029-.115-.065-.227-.1-.341-.068-.238-.14-.473-.222-.7-.045-.125-.093-.248-.142-.371q-.128-.324-.277-.639c-.055-.117-.109-.235-.169-.35-.115-.223-.241-.441-.371-.656-.054-.089-.1-.182-.162-.27-.193-.3-.4-.59-.623-.873-.032-.04-.069-.078-.1-.118-.167-.205-.337-.409-.521-.605-.056-.06-.112-.119-.169-.178q-.317-.324-.651-.619l-4.756-4.2q.334.294.65.619c.246.253.472.515.69.783.033.04.07.078.1.119.224.282.43.574.623.872.057.089.107.181.162.271.13.215.256.433.371.656.059.115.114.233.169.35q.148.314.277.639c.049.123.1.246.142.371.081.23.154.465.222.7.032.114.068.226.1.341.084.333.156.672.213,1.019,0,.023.01.045.014.069.06.378.1.766.131,1.161,0,.059.006.12.01.18.023.384.036.774.029,1.174-.006.347-.026.686-.055,1.021-.01.125-.026.247-.04.371-.02.179-.041.358-.067.533-.02.129-.043.255-.066.383-.03.169-.062.337-.1.5-.031.14-.064.278-.1.415-.032.122-.063.245-.1.365-.041.143-.087.284-.133.425-.039.118-.077.236-.119.352-.052.145-.11.287-.167.43-.042.1-.083.209-.129.312-.064.146-.134.29-.2.434-.047.1-.091.192-.14.287-.118.226-.24.449-.372.668-.155.256-.318.5-.488.742-.057.08-.118.156-.177.235-.115.153-.23.306-.351.452-.072.087-.147.169-.221.253-.115.131-.232.26-.353.384-.08.083-.162.162-.244.242-.126.122-.255.241-.386.356-.086.076-.173.15-.26.223-.138.113-.279.221-.422.328-.089.066-.176.133-.266.2-.159.111-.324.215-.489.318-.08.05-.158.1-.24.151-.25.147-.507.286-.772.416l5.709,10.652h-8.812l4.756,4.2h8.811l-5.709-10.652c.266-.13.522-.269.772-.416.082-.048.16-.1.24-.151.166-.1.33-.207.489-.318.091-.063.179-.13.267-.2.142-.106.283-.214.421-.327q.133-.109.262-.223.2-.173.385-.356c.048-.047.1-.089.148-.137s.064-.072.1-.106c.12-.125.237-.254.352-.384.074-.084.149-.166.22-.253.122-.146.238-.3.353-.453.048-.064.1-.123.146-.188.01-.014.019-.03.029-.045.17-.239.333-.485.488-.742q.179-.3.341-.6c.011-.021.02-.044.031-.065.049-.1.094-.192.141-.289.07-.143.139-.287.2-.433.045-.1.086-.208.129-.313s.084-.2.122-.3c.016-.044.029-.089.045-.133.042-.117.08-.235.119-.352.046-.141.091-.282.133-.425.035-.12.067-.243.1-.365.021-.083.047-.165.067-.249.013-.055.021-.111.033-.166.037-.166.069-.335.1-.5C-1915.465-635.5-1915.442-635.628-1915.422-635.757Z" transform="translate(1946.669 651.206)"/></g><g transform="translate(-2408.272 -656.693)"><g transform="translate(0 0.338)"><path d="M-2387.211-656.1l-.106,6.238h-12.734l-.13,7.627h12.734l-.1,6.095h-12.734l-.126,7.386h12.734l-.107,6.238h-20.487l.574-33.584Z" transform="translate(2408.272 656.103)" fill="#fff" stroke="#000" stroke-miterlimit="10" stroke-width="1"/></g><g transform="translate(24.558 10.175)"><path d="M-2347.083-638.341h7.277l-.4,23.128h-7.277l.056-3.26a7.3,7.3,0,0,1-2.988,2.8,9.108,9.108,0,0,1-4.4,1.082A9.743,9.743,0,0,1-2362.7-618a12.843,12.843,0,0,1-2.77-8.78,13,13,0,0,1,3.167-8.729,10.2,10.2,0,0,1,8.006-3.455,8.748,8.748,0,0,1,4.339,1.056,6.735,6.735,0,0,1,2.82,2.876Zm-1.418,15.931a6.694,6.694,0,0,0,1.511-4.367,6.432,6.432,0,0,0-1.363-4.316,4.906,4.906,0,0,0-4.041-1.727,5.2,5.2,0,0,0-4.028,1.681,6.384,6.384,0,0,0-1.578,4.362,6.3,6.3,0,0,0,1.428,4.393,5.009,5.009,0,0,0,3.97,1.7,5.082,5.082,0,0,0,4.1-1.727" transform="translate(2365.474 638.961)" fill="#fff" stroke="#000" stroke-miterlimit="10" stroke-width="1"/></g><g transform="translate(55.912 10.416)"><path d="M-2296.741-638.541a8,8,0,0,1,1.914.19l-.116,6.812a20.074,20.074,0,0,0-2.2-.143q-6.082,0-6.212,7.725l-.153,8.924h-7.323l.4-23.128h7.323l-.083,4.849a6.648,6.648,0,0,1,2.439-3.865A6.517,6.517,0,0,1-2296.741-638.541Z" transform="translate(2310.833 638.541)" fill="#fff" stroke="#000" stroke-miterlimit="10" stroke-width="1"/></g><g transform="translate(75.443 10.175)"><path d="M-2261.6-638.961q8.423,0,8.261,9.452l-.245,14.3h-7.369l.2-11.9a7.649,7.649,0,0,0-.862-4.321,3.493,3.493,0,0,0-3.112-1.343q-4.449,0-4.548,5.47l-.207,12.092h-7.323l.395-23.128h7.324l-.058,3.363Q-2267-638.961-2261.6-638.961Z" transform="translate(2276.796 638.961)" fill="#fff" stroke="#000" stroke-miterlimit="10" stroke-width="1"/></g><g transform="translate(115.668 1.297)"><path d="M-2182.835-654.432l-.1,6h-15.751l-.119,6.956q2.438-2.591,6.984-2.588a9.946,9.946,0,0,1,7.609,3,10.685,10.685,0,0,1,2.74,7.842,11.9,11.9,0,0,1-3.621,8.735,12.918,12.918,0,0,1-9.371,3.408,13.341,13.341,0,0,1-8.715-2.665,9.59,9.59,0,0,1-3.512-7.223h7.518a3.566,3.566,0,0,0,1.483,2.691,5.529,5.529,0,0,0,3.333.959,5.162,5.162,0,0,0,3.98-1.558,6.117,6.117,0,0,0,1.483-4.2,5.89,5.89,0,0,0-1.25-4.034,4.433,4.433,0,0,0-3.585-1.533,5.314,5.314,0,0,0-5.322,3.214h-6.8l.325-19Z" transform="translate(2206.694 654.432)" fill="#fff" stroke="#000" stroke-miterlimit="10" stroke-width="1"/></g><g transform="translate(143.892 0.959)"><path d="M-2142.528-641.08a8.778,8.778,0,0,1-6.408,2.373,8.416,8.416,0,0,1-6.3-2.373,7.746,7.746,0,0,1-2.269-5.782,8.014,8.014,0,0,1,2.467-5.782,8.7,8.7,0,0,1,6.382-2.378,8.5,8.5,0,0,1,6.326,2.378,7.707,7.707,0,0,1,2.295,5.782A7.976,7.976,0,0,1-2142.528-641.08Zm-8.994-3.1a3.387,3.387,0,0,0,2.662,1.056,3.506,3.506,0,0,0,2.7-1.056,3.924,3.924,0,0,0,1-2.686,3.893,3.893,0,0,0-.91-2.711,3.355,3.355,0,0,0-2.667-1.082,3.465,3.465,0,0,0-2.7,1.082,3.991,3.991,0,0,0-1,2.711,3.782,3.782,0,0,0,.911,2.686" transform="translate(2157.507 655.022)" fill="#fff" stroke="#000" stroke-miterlimit="10" stroke-width="1"/></g><g transform="translate(148.751)"><path d="M-2125.788-656.693l3.554,2.112-23.2,32.821-3.605-2.112Z" transform="translate(2149.04 656.693)" fill="#fff" stroke="#000" stroke-miterlimit="10" stroke-width="1"/></g><g transform="translate(162.938 17.946)"><path d="M-2109.134-623.04a7.691,7.691,0,0,1,2.295,5.777,7.982,7.982,0,0,1-2.492,5.787,8.8,8.8,0,0,1-6.408,2.373,8.439,8.439,0,0,1-6.3-2.373,7.756,7.756,0,0,1-2.274-5.787,8,8,0,0,1,2.472-5.777,8.7,8.7,0,0,1,6.382-2.378A8.5,8.5,0,0,1-2109.134-623.04Zm-3.832,8.468a3.9,3.9,0,0,0,1-2.691,3.857,3.857,0,0,0-.91-2.707,3.328,3.328,0,0,0-2.661-1.082,3.442,3.442,0,0,0-2.7,1.082,3.98,3.98,0,0,0-1,2.707,3.785,3.785,0,0,0,.911,2.691,3.381,3.381,0,0,0,2.662,1.056,3.5,3.5,0,0,0,2.7-1.056" transform="translate(2124.315 625.418)" fill="#fff" stroke="#000" stroke-miterlimit="10" stroke-width="1"/></g><g transform="translate(193.398 0.338)"><path d="M-2051.51-656.1l10.82,33.585h-8.188l-1.076-4.075h-11.875l-1.22,4.075h-8.182l11.916-33.585ZM-2060-632.688h8.428l-3.959-14.921L-2060-632.688" transform="translate(2071.231 656.103)" fill="#fff" stroke="#000" stroke-miterlimit="10" stroke-width="1"/></g><g transform="translate(227.673 0.338)"><path d="M-1988.1-652.674a11.672,11.672,0,0,1,3.252,8.709,12.058,12.058,0,0,1-3.55,8.709,11.808,11.808,0,0,1-8.671,3.429h-6.515l-.159,9.309h-7.753l.574-33.585h14.268A11.419,11.419,0,0,1-1988.1-652.674Zm-6.178,12.882a5.988,5.988,0,0,0,1.58-4.173,5.8,5.8,0,0,0-1.437-4.172,4.938,4.938,0,0,0-3.823-1.635h-5.319l-.2,11.615h5.318a5.1,5.1,0,0,0,3.879-1.635" transform="translate(2011.5 656.103)" fill="#fff" stroke="#000" stroke-miterlimit="10" stroke-width="1"/></g><g transform="translate(257.589 0.338)"><path d="M-1934.5-637.466a10.994,10.994,0,0,1-4.671,4.3l5.709,10.652h-8.812l-5.1-9.309h-4.071l-.159,9.309h-7.758l.574-33.585h14.269a11.43,11.43,0,0,1,8.558,3.429,11.675,11.675,0,0,1,3.252,8.709A12.783,12.783,0,0,1-1934.5-637.466Zm-7.641-2.327a6,6,0,0,0,1.574-4.173,5.815,5.815,0,0,0-1.432-4.172,4.941,4.941,0,0,0-3.828-1.635h-5.313l-.2,11.615h5.313a5.1,5.1,0,0,0,3.884-1.635" transform="translate(1959.363 656.103)" fill="#fff" stroke="#000" stroke-miterlimit="10" stroke-width="1"/></g></g></g></g></svg>