<svg xmlns="http://www.w3.org/2000/svg" xmlns:xlink="http://www.w3.org/1999/xlink" width="220.549" height="144.019" viewBox="0 0 220.549 144.019"><defs><clipPath id="a"><path d="M-655.806,588.362l72.966-43.409-.072-87.258h-156.6L-707.3,547.02Z" transform="translate(813)" fill="none"/></clipPath></defs><g transform="translate(-61 -455.511)"><g transform="translate(61 468.063)"><path d="M24.636.389A32.229,32.229,0,0,1,34.649,2.24a39.887,39.887,0,0,1,9.369,4.753,39.4,39.4,0,0,1,7.793,6.984,31.111,31.111,0,0,1,5.25,8.592,20.766,20.766,0,0,1,1.574,8.714A14.149,14.149,0,0,1,50.527,43.6a20.794,20.794,0,0,1-8.889,1.988A31.5,31.5,0,0,1,31.23,43.9a39.765,39.765,0,0,1-9.866-4.931,39.233,39.233,0,0,1-8.12-7.388,30.325,30.325,0,0,1-5.212-9A19.813,19.813,0,0,1,6.853,13.7a14.179,14.179,0,0,1,2.8-7.092,14.94,14.94,0,0,1,6.13-4.643A21.773,21.773,0,0,1,24.636.389Z" transform="translate(3.356 3.669)" fill="#fff"/><path d="M61.4,18.877a43.179,43.179,0,0,0-8.417-8.814,46.694,46.694,0,0,0-10.326-6.2A40.422,40.422,0,0,0,31.575.762,28.583,28.583,0,0,0,20.9,1.332a18.652,18.652,0,0,0-8.249,4.438A15.7,15.7,0,0,0,8.291,13.19a20.091,20.091,0,0,0-.058,9.463,30.829,30.829,0,0,0,4.642,10.472A42.564,42.564,0,0,0,21.6,42.538a46.5,46.5,0,0,0,10.954,6.545A39.577,39.577,0,0,0,44.221,52.1a27.13,27.13,0,0,0,10.886-1.062,17.79,17.79,0,0,0,7.933-5.02,15.892,15.892,0,0,0,3.732-7.756,21.208,21.208,0,0,0-.523-9.385A32.047,32.047,0,0,0,61.4,18.877ZM52.178,46.786a22.693,22.693,0,0,1-9.056.85,33.03,33.03,0,0,1-9.683-2.523,38.753,38.753,0,0,1-9.082-5.43,35.5,35.5,0,0,1-7.246-7.8A25.793,25.793,0,0,1,13.249,23.2a16.851,16.851,0,0,1,.013-7.874,13.123,13.123,0,0,1,3.577-6.206,15.486,15.486,0,0,1,6.832-3.751,23.6,23.6,0,0,1,8.913-.524,33.523,33.523,0,0,1,9.279,2.577,38.794,38.794,0,0,1,8.649,5.2,35.8,35.8,0,0,1,7.027,7.4,26.615,26.615,0,0,1,4.028,8.367,17.586,17.586,0,0,1,.4,7.826,13.219,13.219,0,0,1-3.153,6.44A14.875,14.875,0,0,1,52.178,46.786Z" transform="translate(0 0)"/><path d="M24.35,16.149q-1.01-.37-2.022-.644t-2.012-.449q-1-.175-1.984-.251a18.445,18.445,0,0,0-1.937-.048q-.441-.063-.887-.153t-.893-.21q-.447-.119-.9-.265t-.894-.32a4.726,4.726,0,0,1-1.083-.724,4.4,4.4,0,0,1-.443-.455,3.881,3.881,0,0,1-.357-.5,5.026,5.026,0,0,1-.347-.557,4.331,4.331,0,0,1-.252-.566,3.634,3.634,0,0,1-.155-.563,3.045,3.045,0,0,1-.053-.551,1.478,1.478,0,0,1,.126-.529,1.349,1.349,0,0,1,.3-.422,1.535,1.535,0,0,1,.453-.3A2.02,2.02,0,0,1,11.6,8.5a3.941,3.941,0,0,1,.606-.072,4.643,4.643,0,0,1,.641.018,5.359,5.359,0,0,1,.663.107,6.021,6.021,0,0,1,.675.194,2.58,2.58,0,0,1,.646.276,3.757,3.757,0,0,1,.62.467,6.483,6.483,0,0,1,.612.652c.2.248.412.525.624.832l5.591-1.606a12.063,12.063,0,0,0-1.052-1.358,13.406,13.406,0,0,0-1.26-1.234A14.214,14.214,0,0,0,16.96,4.793a13.5,13.5,0,0,0-1.727-.671,12.036,12.036,0,0,0-1.722-.4A10.242,10.242,0,0,0,11.839,3.6a8.386,8.386,0,0,0-1.575.161L7.74.1,5.316.776,7.841,4.447a7.036,7.036,0,0,0-1.287.631,6.128,6.128,0,0,0-1.068.845,5.7,5.7,0,0,0-.829,1.042,5.761,5.761,0,0,0-.569,1.22,4.6,4.6,0,0,0-.194,1.3,5.724,5.724,0,0,0,.166,1.392,7.3,7.3,0,0,0,.515,1.433,9.075,9.075,0,0,0,.853,1.422,10.521,10.521,0,0,0,1.011,1.349A11.874,11.874,0,0,0,7.68,16.3a12.58,12.58,0,0,0,1.43,1.047,12.464,12.464,0,0,0,1.575.841q1.023.3,2.043.543t2.027.413q1.008.174,2,.282t1.968.149q.414.009.839.06t.855.144q.43.093.863.226t.862.306a5.768,5.768,0,0,1,1.162.837,5.394,5.394,0,0,1,.48.508,4.88,4.88,0,0,1,.4.553,3.842,3.842,0,0,1,.34.512,3.2,3.2,0,0,1,.232.524,2.589,2.589,0,0,1,.119.521,2.092,2.092,0,0,1,0,.5,1.753,1.753,0,0,1-.232.451,1.771,1.771,0,0,1-.349.364,2.015,2.015,0,0,1-.455.266,2.472,2.472,0,0,1-.548.159,3.089,3.089,0,0,1-.7.223,3.88,3.88,0,0,1-.786.068,4.8,4.8,0,0,1-.842-.088,5.672,5.672,0,0,1-.872-.243,7.667,7.667,0,0,1-1.72-1.125,7.3,7.3,0,0,1-.716-.711,6.555,6.555,0,0,1-.59-.785l-5.715,1.714.144.211a11.282,11.282,0,0,0,1.184,1.626,12.819,12.819,0,0,0,1.485,1.447,13.476,13.476,0,0,0,1.724,1.215,13.094,13.094,0,0,0,1.9.931,16.775,16.775,0,0,0,1.916.519,14.9,14.9,0,0,0,1.876.269,12.875,12.875,0,0,0,1.8.016,10.9,10.9,0,0,0,1.7-.238l2.45,3.564,2.622-.826-2.319-3.365a6.667,6.667,0,0,0,1.31-.6,5.749,5.749,0,0,0,1.075-.833,5.34,5.34,0,0,0,.82-1.04,5.448,5.448,0,0,0,.545-1.225,5.3,5.3,0,0,0,.059-1.331,6.6,6.6,0,0,0-.267-1.393,8.239,8.239,0,0,0-.578-1.411,9.942,9.942,0,0,0-.875-1.385,11.377,11.377,0,0,0-1.094-1.4A12.634,12.634,0,0,0,27.5,18.058a13.166,13.166,0,0,0-1.5-1.065A12.854,12.854,0,0,0,24.35,16.149Z" transform="translate(20.737 8.75)" fill="#38d989"/></g><path d="M860.962,60.241a35.594,35.594,0,0,1-11.6-2.049,45.417,45.417,0,0,1-11.553-6.011,46.152,46.152,0,0,1-9.492-9.012,36.939,36.939,0,0,1-6.06-10.974A24.817,24.817,0,0,1,820.934,21.4a17.537,17.537,0,0,1,3.327-8.6,16.843,16.843,0,0,1,2.4-2.6,18.23,18.23,0,0,0-1.731,5.984,24.817,24.817,0,0,0,1.323,10.791,36.943,36.943,0,0,0,6.06,10.974,46.153,46.153,0,0,0,9.492,9.012,45.391,45.391,0,0,0,11.553,6.011,35.6,35.6,0,0,0,11.6,2.049c.2,0,.394,0,.589-.006a23.409,23.409,0,0,0,10.391-2.447,18.009,18.009,0,0,0,3.586-2.432,16.9,16.9,0,0,1-.822,1.477,17.081,17.081,0,0,1-6.764,6.163,23.408,23.408,0,0,1-10.391,2.447C861.356,60.239,861.158,60.241,860.962,60.241Z" transform="translate(-757.167 466.511)" fill="#38d989"/><path d="M864.633,87.379l-.3,0a20.092,20.092,0,0,1-8.712-2l-.035-.016-.034-.017-11.79-6.139-2.054-1.069-2.052-1.069-14.954-7.793-2.055-1.07L820.6,67.139l-4.921-2.563a11.511,11.511,0,0,1-4.012-3.307,8.191,8.191,0,0,1-.259-9.539,11.747,11.747,0,0,1,3.87-3.582l39.038-23.371.035-.021.027-.015c.892-.512,27.951-16.621,42.154-25.078l.031-.019.032-.018A20.767,20.767,0,0,1,906.694-3l.346,0,.291,0a20.112,20.112,0,0,1,8.717,2l.035.017.034.018L955.99,19.8A11.512,11.512,0,0,1,960,23.111a8.194,8.194,0,0,1,.261,9.542,11.744,11.744,0,0,1-3.871,3.582L951.1,39.4l-1.985,1.188-1.986,1.19-15.089,9.034L930.059,52l-1.989,1.191-10.711,6.414-.034.02-.034.019c-.538.3-6.242,3.613-8.416,4.875l-1.97,1.18-1.986,1.19-15.089,9.034-1.982,1.188L885.861,78.3l-10.712,6.414-.033.02-.035.019a20.743,20.743,0,0,1-10.1,2.626C864.867,87.382,864.75,87.382,864.633,87.379Z" transform="translate(-705.405 512.148)"/><path d="M839.185,38.884h0l-.247,0a15.921,15.921,0,0,1-2.032-.164,14.135,14.135,0,0,0,4.033-1.241,14.448,14.448,0,0,0,5.051-4.067,16.842,16.842,0,0,0,3.058-6.144,20.37,20.37,0,0,0,.531-7.6,23.17,23.17,0,0,0-6.7-13.832,20.1,20.1,0,0,0-6.022-4.13A17.057,17.057,0,0,0,832.463.431a15.032,15.032,0,0,1,2-.164l.24,0A16.505,16.505,0,0,1,841.369,1.7a20.1,20.1,0,0,1,6.022,4.13A23.17,23.17,0,0,1,854.1,19.665a20.371,20.371,0,0,1-.531,7.6,16.831,16.831,0,0,1-3.058,6.144,14.248,14.248,0,0,1-11.321,5.475Z" transform="translate(-573.088 461.028)"/><path d="M45.423,106.37a38.18,38.18,0,0,1-16.063-3.487A39.232,39.232,0,0,1,21.8,98.3a42.1,42.1,0,0,1-6.479-6.228,45.842,45.842,0,0,1-5.24-7.731,50.1,50.1,0,0,1-3.753-8.976,56.541,56.541,0,0,1-2.274-20.9A61.415,61.415,0,0,1,9.408,33.432a58.583,58.583,0,0,1,11.6-16.968,53.114,53.114,0,0,1,7.535-6.354,48.093,48.093,0,0,1,8.4-4.67,41.935,41.935,0,0,1,16.6-3.486c.575,0,1.157.013,1.731.037.976.042,1.96.121,2.923.235A42.836,42.836,0,0,0,46.272,5.441a48.094,48.094,0,0,0-8.4,4.67,53.114,53.114,0,0,0-7.535,6.354,58.568,58.568,0,0,0-11.6,16.968,61.415,61.415,0,0,0-5.358,21.026,56.541,56.541,0,0,0,2.274,20.9,50.087,50.087,0,0,0,3.753,8.976,45.858,45.858,0,0,0,5.24,7.731A42.072,42.072,0,0,0,31.125,98.3a39.243,39.243,0,0,0,7.564,4.585,38.044,38.044,0,0,0,11.43,3.215c-1.1.127-2.2.21-3.282.247C46.367,106.361,45.892,106.37,45.423,106.37Z" transform="translate(129.303 487.297)" fill="#fff"/><g transform="translate(14.596 7.304)" clip-path="url(#a)"><g transform="translate(117.803 466.481)"><path d="M42.109,17.14A41.359,41.359,0,0,1,59.855,13.2,37.552,37.552,0,0,1,76.18,17.074,39.506,39.506,0,0,1,89.344,27.66a46.235,46.235,0,0,1,8.4,16.275,54.622,54.622,0,0,1,2,19.134,59.588,59.588,0,0,1-4.37,18.525A57.873,57.873,0,0,1,85.457,97.65,50.513,50.513,0,0,1,70.71,109.3a42.216,42.216,0,0,1-17.187,4.785,37.75,37.75,0,0,1-16.487-2.817,38.9,38.9,0,0,1-13.926-9.883,45.312,45.312,0,0,1-9.357-16.35,54.1,54.1,0,0,1-2.559-19.975,59.531,59.531,0,0,1,4.535-19.591A57.629,57.629,0,0,1,26.4,28.7,49.72,49.72,0,0,1,42.109,17.14Z" transform="translate(4.248 0.823)" fill="#38d989"/><g transform="translate(8.683 8.47)"><path d="M108.009,56.96a58.565,58.565,0,0,0-4.444-20.69A49.509,49.509,0,0,0,92.73,20.127a43.174,43.174,0,0,0-15.877-10,42.59,42.59,0,0,0-19.5-2.056,48.793,48.793,0,0,0-19.576,7.043A58.722,58.722,0,0,0,21.932,29.7,65.926,65.926,0,0,0,8.772,72.766,57.579,57.579,0,0,0,14.1,94.3a48.247,48.247,0,0,0,12,15.95,42.527,42.527,0,0,0,16.68,8.922,43.035,43.035,0,0,0,19.456.64A49.946,49.946,0,0,0,80.9,111.955,59.544,59.544,0,0,0,95.571,97.585a65.959,65.959,0,0,0,9.469-18.926,65.452,65.452,0,0,0,2.969-21.7ZM61.843,110.708a35.189,35.189,0,0,1-30.061-8.134,40.265,40.265,0,0,1-9.918-13.307,48.039,48.039,0,0,1-4.369-17.888A55.109,55.109,0,0,1,28.45,35.7a49.148,49.148,0,0,1,13.1-12.142A40.881,40.881,0,0,1,57.772,17.6a35.413,35.413,0,0,1,16.263,1.577,35.811,35.811,0,0,1,13.3,8.252,41.06,41.06,0,0,1,9.1,13.455,48.641,48.641,0,0,1,3.732,17.324A55,55,0,0,1,89.751,92.222a49.558,49.558,0,0,1-12.3,11.993,41.527,41.527,0,0,1-15.608,6.493Z" transform="translate(-8.683 -7.731)"/><path d="M38.4,40.451a25.07,25.07,0,0,0-2.765-1.885,24.561,24.561,0,0,0-9.408-3.2q-.695-.252-1.365-.566t-1.317-.684q-.644-.372-1.261-.8t-1.2-.914a4.947,4.947,0,0,1-.633-.838,5.42,5.42,0,0,1-.458-.97,5.919,5.919,0,0,1-.272-1.071,6.366,6.366,0,0,1-.075-1.141,9,9,0,0,1,0-1.257,9.359,9.359,0,0,1,1.035-3.634,5.5,5.5,0,0,1,.8-1.069,4.963,4.963,0,0,1,.985-.8,4.386,4.386,0,0,1,1.113-.488,3.924,3.924,0,0,1,1.182-.144,6.385,6.385,0,0,1,1.134.025,6.222,6.222,0,0,1,2.131.636,6.379,6.379,0,0,1,.959.6,2.652,2.652,0,0,1,.822.761,4.3,4.3,0,0,1,.561,1.15,8.937,8.937,0,0,1,.344,1.533,18.932,18.932,0,0,1,.166,1.908l11.436-1.744A18.853,18.853,0,0,0,42,22.732a17.6,17.6,0,0,0-.81-2.935,16.217,16.217,0,0,0-1.283-2.674,14.885,14.885,0,0,0-1.73-2.34A13.868,13.868,0,0,0,35.92,12.87a13.171,13.171,0,0,0-2.553-1.349,12.97,12.97,0,0,0-2.777-.752,13.285,13.285,0,0,0-2.935-.124l-.353-8.5-5.011.722.373,8.521a17.688,17.688,0,0,0-2.948.953,19.082,19.082,0,0,0-2.8,1.47,20.583,20.583,0,0,0-2.593,1.952,22.037,22.037,0,0,0-2.331,2.4,16.539,16.539,0,0,0-1.761,2.673,17.249,17.249,0,0,0-1.878,6.1,16.626,16.626,0,0,0-.054,3.2,16.736,16.736,0,0,0,.3,3.089,15.5,15.5,0,0,0,.844,2.87A14.156,14.156,0,0,0,10.8,38.671a12.913,12.913,0,0,0,1.822,2.173q1.444.911,2.949,1.686t3.052,1.409q1.551.635,3.148,1.13t3.227.848A10.823,10.823,0,0,1,28.918,47.5a11.144,11.144,0,0,1,1.147.86,6.028,6.028,0,0,1,.627.952,6.574,6.574,0,0,1,.452,1.072,7.153,7.153,0,0,1,.269,1.165,7.687,7.687,0,0,1,.077,1.231,6.374,6.374,0,0,1,.025,1.132,6.692,6.692,0,0,1-.173,1.126,6.818,6.818,0,0,1-.362,1.087,6.735,6.735,0,0,1-.542,1.017,6.594,6.594,0,0,1-.884.85,6.038,6.038,0,0,1-.99.642,5.483,5.483,0,0,1-1.065.417,5.011,5.011,0,0,1-1.108.175,6.456,6.456,0,0,1-1.44.262,6.032,6.032,0,0,1-1.416-.074,5.856,5.856,0,0,1-1.346-.4,5.952,5.952,0,0,1-1.231-.725,7.717,7.717,0,0,1-1-1.269,8.47,8.47,0,0,1-.738-1.477,9.29,9.29,0,0,1-.463-1.643,10.056,10.056,0,0,1-.168-1.761L6.909,54.069l.022.47a17.639,17.639,0,0,0,.3,3.627A16.1,16.1,0,0,0,8.241,61.5,14.5,14.5,0,0,0,9.9,64.415,13.148,13.148,0,0,0,12.166,66.8a17.743,17.743,0,0,0,2.721,1.551,17.538,17.538,0,0,0,5.969,1.54A18.238,18.238,0,0,0,24,69.855l.342,7.755,5.325-.965-.313-7.324a16.274,16.274,0,0,0,2.873-.863,17.663,17.663,0,0,0,2.723-1.385,19.156,19.156,0,0,0,2.517-1.87,20.594,20.594,0,0,0,2.254-2.318,17.657,17.657,0,0,0,1.548-2.665,18.049,18.049,0,0,0,1.065-2.882,17.837,17.837,0,0,0,.559-3.008,17.062,17.062,0,0,0,.026-3.052,17.035,17.035,0,0,0-.333-3.143,15.644,15.644,0,0,0-.886-2.91,14.2,14.2,0,0,0-1.409-2.591A12.913,12.913,0,0,0,38.4,40.451Z" transform="translate(26.378 16.597)" fill="#fff"/></g></g></g><g transform="translate(239.397 455.511)"><path d="M14.453.191a14.154,14.154,0,0,1,5.868,1.225,17.19,17.19,0,0,1,5.112,3.5A19.54,19.54,0,0,1,31.12,16.593a17.193,17.193,0,0,1-.45,6.419,14.3,14.3,0,0,1-2.595,5.2,12.174,12.174,0,0,1-9.841,4.654,14.3,14.3,0,0,1-5.791-1.346,17.307,17.307,0,0,1-4.978-3.509A19.55,19.55,0,0,1,1.927,16.581a17.281,17.281,0,0,1,.374-6.3A14.428,14.428,0,0,1,4.761,5.1,12.434,12.434,0,0,1,8.937,1.551,12.243,12.243,0,0,1,14.453.191Z" transform="translate(4.708 9.088)" fill="#fff"/><g transform="translate(0 0)"><path d="M36.185,31.179a20.455,20.455,0,0,0,.01-7.189,22.533,22.533,0,0,0-2.34-6.776,21.348,21.348,0,0,0-4.282-5.582,17.711,17.711,0,0,0-5.793-3.625,14.03,14.03,0,0,0-6.243-.869,12.521,12.521,0,0,0-5.5,1.879,13.564,13.564,0,0,0-4.191,4.22,16.708,16.708,0,0,0-2.324,6.171,20.471,20.471,0,0,0,.045,7.037,22.474,22.474,0,0,0,2.285,6.606,21.347,21.347,0,0,0,4.148,5.483,17.815,17.815,0,0,0,5.652,3.651,14.2,14.2,0,0,0,6.175,1.025,12.543,12.543,0,0,0,5.557-1.7,13.425,13.425,0,0,0,4.331-4.12A16.514,16.514,0,0,0,36.185,31.179Zm-18.035,8.2a14.832,14.832,0,0,1-4.72-3.04,17.783,17.783,0,0,1-3.466-4.576,18.727,18.727,0,0,1-1.908-5.517,17.053,17.053,0,0,1-.033-5.875,13.93,13.93,0,0,1,1.955-5.134,11.322,11.322,0,0,1,3.5-3.5,10.465,10.465,0,0,1,4.586-1.557,11.724,11.724,0,0,1,5.193.722,14.71,14.71,0,0,1,4.826,3.015,17.739,17.739,0,0,1,3.563,4.645A18.722,18.722,0,0,1,33.593,24.2a16.987,16.987,0,0,1-.015,5.983,13.775,13.775,0,0,1-2.052,5.17,11.2,11.2,0,0,1-3.6,3.441A10.45,10.45,0,0,1,23.3,40.222,11.818,11.818,0,0,1,18.15,39.379Z" fill="#38d989"/><path d="M13.959,16.163q-.333-.54-.713-1.037t-.8-.947a11.834,11.834,0,0,0-.876-.847,11.169,11.169,0,0,0-.944-.738q-.191-.19-.37-.395t-.346-.421q-.167-.217-.321-.446T9.3,10.864a2.284,2.284,0,0,1-.131-.352,2.234,2.234,0,0,1-.07-.363,2.109,2.109,0,0,1-.008-.362,1.932,1.932,0,0,1,.055-.351,2.564,2.564,0,0,1,.087-.373,2.345,2.345,0,0,1,.138-.342,2.142,2.142,0,0,1,.185-.306,1.971,1.971,0,0,1,.23-.264,1.107,1.107,0,0,1,.657-.268,1.209,1.209,0,0,1,.365.034,1.4,1.4,0,0,1,.363.148,2.548,2.548,0,0,1,.338.191,2.776,2.776,0,0,1,.313.244,2.989,2.989,0,0,1,.283.292,3.163,3.163,0,0,1,.248.335,1.291,1.291,0,0,1,.195.361,1.791,1.791,0,0,1,.091.436,3.115,3.115,0,0,1,0,.516,5.947,5.947,0,0,1-.08.6l3.6,1.374a5.905,5.905,0,0,0,.118-1,6.4,6.4,0,0,0-.048-1.022,6.733,6.733,0,0,0-.211-1.019,6.1,6.1,0,0,0-.929-1.933,6.484,6.484,0,0,0-.685-.818,5.974,5.974,0,0,0-.791-.672,5.39,5.39,0,0,0-.875-.506L13.2,2.85l-1.552-.571-.465,2.591a5.313,5.313,0,0,0-.943-.184,4.92,4.92,0,0,0-.929-.007,4.678,4.678,0,0,0-.9.168,4.6,4.6,0,0,0-.847.341,3.347,3.347,0,0,0-.695.511,3.663,3.663,0,0,0-.557.679,4.129,4.129,0,0,0-.4.82,4.677,4.677,0,0,0-.231.935,5.219,5.219,0,0,0-.12.958,5.689,5.689,0,0,0,.053.982,5.991,5.991,0,0,0,.222.975,6.07,6.07,0,0,0,.386.938q.361.505.751.982t.8.922q.415.446.855.859t.9.792a5.063,5.063,0,0,1,.387.337q.186.18.357.379t.323.418q.152.218.286.453a2.778,2.778,0,0,1,.124.393,2.7,2.7,0,0,1,.063.4,2.542,2.542,0,0,1,0,.4,2.341,2.341,0,0,1-.061.383,1.865,1.865,0,0,1-.07.345,1.661,1.661,0,0,1-.129.309,1.481,1.481,0,0,1-.183.265,1.348,1.348,0,0,1-.233.212,1.377,1.377,0,0,1-.323.1,1.439,1.439,0,0,1-.341.022A1.575,1.575,0,0,1,9.4,19.9a1.768,1.768,0,0,1-.343-.138,2.225,2.225,0,0,1-.447-.168,2.516,2.516,0,0,1-.416-.264,2.8,2.8,0,0,1-.372-.35,3.029,3.029,0,0,1-.316-.426A3.7,3.7,0,0,1,7.294,18a3.629,3.629,0,0,1-.118-.564,3.439,3.439,0,0,1-.025-.566,3.16,3.16,0,0,1,.07-.551L3.676,14.955l-.025.142a5.47,5.47,0,0,0-.157,1.119,6.047,6.047,0,0,0,.068,1.151,6.412,6.412,0,0,0,.286,1.14,6.481,6.481,0,0,0,.5,1.086,8.988,8.988,0,0,0,.69.923,8.506,8.506,0,0,0,.785.806A7.913,7.913,0,0,0,6.684,22a7.268,7.268,0,0,0,.933.534L7.19,24.913l1.653.648L9.249,23.3a5.1,5.1,0,0,0,.921.243,4.658,4.658,0,0,0,.916.06,4.363,4.363,0,0,0,.891-.122,4.242,4.242,0,0,0,.845-.305,3.5,3.5,0,0,0,.656-.536A3.836,3.836,0,0,0,14,21.956a4.307,4.307,0,0,0,.378-.816,4.853,4.853,0,0,0,.217-.921,5.421,5.421,0,0,0,.114-1.012,5.924,5.924,0,0,0-.072-1.035,6.248,6.248,0,0,0-.253-1.026A6.329,6.329,0,0,0,13.959,16.163Z" transform="translate(10.833 11.404)"/></g></g></g></svg>