<svg xmlns="http://www.w3.org/2000/svg" width="68" height="18" viewBox="0 0 68 18">
  <g id="Group_3753" data-name="Group 3753" transform="translate(-290 -44)">
    <g id="Group_3741" data-name="Group 3741" transform="translate(-18.169 21)">
      <g id="Group_3740" data-name="Group 3740" transform="translate(308 23)">
        <rect id="Rectangle_1878" data-name="Rectangle 1878" width="68" height="18" rx="9" transform="translate(0.169)" fill="#b2eaac"/>
        <text id="Ethereum" transform="translate(16.169 4)" fill="#606060" font-size="11" font-family="Europa-Regular"><tspan x="0" y="9">Ethereum</tspan></text>
      </g>
    </g>
    <g id="Group_3711" data-name="Group 3711" transform="translate(229.377 -398.372)">
      <g id="Group_3708" data-name="Group 3708" transform="translate(67.309 446.582)">
        <path id="Path_3854" data-name="Path 3854" d="M1233.88,269.072l.014.02h0a.34.34,0,0,0,.086.081l2.559,1.642.049.029h.021l.037.008h.007a.33.33,0,0,0,.238-.046l2.542-1.631a.324.324,0,0,0,.051-.026l.03-.019.041-.058a.325.325,0,0,0,.039-.088l.007-.03v-.015a.339.339,0,0,0,0-.067l0-.033a.312.312,0,0,0-.011-.043v-.018L1237,264.216a.32.32,0,0,0-.28-.162.332.332,0,0,0-.294.163l-2.558,4.515-.023.048v.013a.343.343,0,0,0-.011.043l0,.039a.317.317,0,0,0,0,.065v.023l.007.025A.334.334,0,0,0,1233.88,269.072Zm.957-.137,1.55-.746v1.74Zm1.774-1.6-1.637.79,1.744-3.079,1.75,3.086-1.6-.772-.022-.009a.337.337,0,0,0-.1-.016Zm.438,2.591v-1.74l1.55.749Z" transform="translate(-1233.828 -264.053)" fill="#606060"/>
        <path id="Path_3855" data-name="Path 3855" d="M1239.326,312.079a.331.331,0,0,0-.262.042l-2.38,1.527-2.381-1.528a.331.331,0,0,0-.452.467l2.558,3.749.021.025a.346.346,0,0,0,.052.049l.018.013a.326.326,0,0,0,.067.035l.037.012h.012a.32.32,0,0,0,.063.006.327.327,0,0,0,.152-.038.341.341,0,0,0,.066-.046.333.333,0,0,0,.052-.06l2.566-3.745a.331.331,0,0,0-.19-.507Zm-1.274,1.478-1.037,1.518v-.854Zm-2.735,0,1.036.666v.854Z" transform="translate(-1233.795 -306.287)" fill="#606060"/>
      </g>
    </g>
  </g>
</svg>
