<svg xmlns="http://www.w3.org/2000/svg" width="45" height="45" viewBox="0 0 45 45"><g transform="translate(-19 -350)"><g transform="translate(19 350)" fill="#fff" stroke="#000" stroke-width="2"><rect width="45" height="45" rx="9" stroke="none"/><rect x="1" y="1" width="43" height="43" rx="8" fill="none"/></g><ellipse cx="13.206" cy="13.205" rx="13.206" ry="13.205" transform="translate(28.294 359.295)" fill="#fff" stroke="#000" stroke-width="2"/><g transform="translate(35.722 363.971)"><path d="M1279.621,357.194a.426.426,0,0,0-.007.047c0,.006,0,.011,0,.017a.432.432,0,0,0,.009.058.384.384,0,0,0,.016.068.582.582,0,0,0,.064.114c0,.006.007.013.011.018s.019.017.029.026.021.021.032.03a.433.433,0,0,0,.086.053l.008,0,5.164,2.186a.424.424,0,0,0,.164.033c.011,0,.02,0,.03,0a.441.441,0,0,0,.057.008.424.424,0,0,0,.167-.034l5.218-2.248a.42.42,0,0,0,.1-.715l-5.08-8.394a.412.412,0,0,0-.628-.231c-.012.007-.024.013-.035.021s-.017.017-.026.025a.42.42,0,0,0-.095.121l-5.229,8.624a.35.35,0,0,0-.02.048.4.4,0,0,0-.025.061A.452.452,0,0,0,1279.621,357.194Zm6.087-2.488v-4.583l3.722,6.15Zm-.93,4.085-3.656-1.548,3.656-1.533Zm.93-3.129,3.7,1.535-3.7,1.593Zm-.857-5.552v4.621l-3.777,1.607Z" transform="translate(-1279.614 -348.159)" stroke="#000" stroke-width="0.3"/><path d="M1290.332,383.257l-5.054,2.277-5.07-2.277a.422.422,0,0,0-.512.635l5.254,7.137a.422.422,0,0,0,.471.151c.009,0,.016-.009.025-.013a.418.418,0,0,0,.219-.153l5.182-7.124a.422.422,0,0,0-.515-.633Zm-5.464,6.237-3.541-4.81,3.541,1.591Zm.878-.026v-3.22l3.483-1.57Z" transform="translate(-1279.614 -374.461)" stroke="#000" stroke-width="0.3"/></g></g></svg>