<svg xmlns="http://www.w3.org/2000/svg" width="20" height="20" viewBox="0 0 20 20">
  <g id="Group_3723" data-name="Group 3723" transform="translate(-57 -443)">
    <g id="Group_3711" data-name="Group 3711">
      <g id="Group_3710" data-name="Group 3710" transform="translate(-37 81)">
        <circle id="Ellipse_369" data-name="Ellipse 369" cx="10" cy="10" r="10" transform="translate(94 362)" fill="#f0f0f0"/>
      </g>
      <g id="Group_3708" data-name="Group 3708" transform="translate(-1170.079 182.449)">
        <path id="Path_3854" data-name="Path 3854" d="M1233.9,271.419l.021.03h0a.5.5,0,0,0,.126.119l3.755,2.409.072.042h.031l.054.012h.01a.484.484,0,0,0,.35-.068l3.73-2.394a.468.468,0,0,0,.075-.039l.044-.028.061-.085a.48.48,0,0,0,.057-.129l.01-.044v-.022a.487.487,0,0,0,0-.1l0-.048a.473.473,0,0,0-.016-.063v-.027l-3.791-6.7a.47.47,0,0,0-.411-.238.488.488,0,0,0-.431.239l-3.755,6.627-.034.07v.019a.5.5,0,0,0-.016.063l0,.058a.473.473,0,0,0,0,.095v.034l.011.036A.487.487,0,0,0,1233.9,271.419Zm1.405-.2,2.274-1.095v2.554Zm2.6-2.342-2.4,1.159,2.56-4.518,2.569,4.529-2.349-1.132-.032-.013a.491.491,0,0,0-.144-.024Zm.642,3.8v-2.554l2.274,1.1Z" transform="translate(-0.856 -1.456)" fill="#848484"/>
        <path id="Path_3855" data-name="Path 3855" d="M1241.913,312.085a.487.487,0,0,0-.384.061l-3.493,2.24-3.494-2.242a.487.487,0,0,0-.744.466.494.494,0,0,0,.081.218l3.755,5.5.03.037a.512.512,0,0,0,.076.072l.026.019a.472.472,0,0,0,.1.051l.054.017h.018a.471.471,0,0,0,.093.009.48.48,0,0,0,.224-.056.5.5,0,0,0,.1-.067.488.488,0,0,0,.077-.088l3.766-5.5a.486.486,0,0,0-.279-.744Zm-1.87,2.169-1.521,2.228v-1.253Zm-4.014,0,1.521.977v1.253Z" transform="translate(-0.825 -40.986)" fill="#848484"/>
      </g>
    </g>
  </g>
</svg>
