<svg xmlns="http://www.w3.org/2000/svg" width="21.864" height="21.834" viewBox="0 0 21.864 21.834">
  <g id="Group_3768" data-name="Group 3768" transform="translate(-59.752 -621.69)">
    <g id="Group_708" data-name="Group 708" transform="translate(60.016 621.953)">
      <path id="Path_711" data-name="Path 711" d="M141.97,133.2c0-.484-.011-.978,0-1.462.011-.36-.045-.72-.484-.742-.506-.022-.528.382-.528.753-.011.877,0,1.754,0,2.642a2.033,2.033,0,0,1-2.2,2.2c-.708.011-1.417,0-2.136,0-.349,0-.708.011-.72.495s.326.506.7.506c.81-.011,1.608.011,2.418,0a3.02,3.02,0,0,0,2.969-2.98C141.97,134.13,141.97,133.669,141.97,133.2Z" transform="translate(-120.63 -116.274)" fill="#fff" stroke="#000" stroke-width="0.5"/>
      <path id="Path_712" data-name="Path 712" d="M1.044,133.185v-1.462c0-.371-.067-.708-.506-.731-.472-.023-.517.349-.517.708,0,.956-.022,1.912,0,2.867a3.036,3.036,0,0,0,3.115,3.013c.787,0,1.574-.011,2.361,0,.349.011.607-.09.63-.472.011-.416-.259-.54-.63-.528-.787,0-1.574.022-2.361-.011a2.037,2.037,0,0,1-2.091-2.159C1.044,134.006,1.044,133.6,1.044,133.185Z" transform="translate(-0.024 -116.273)" fill="#fff" stroke="#000" stroke-width="0.5"/>
      <path id="Path_713" data-name="Path 713" d="M4.311-.011H3.131A2.906,2.906,0,0,0,.2,2.429a24.571,24.571,0,0,0-.1,3.025c-.011.337.112.607.495.618.427.011.528-.27.528-.63V3.137A2.045,2.045,0,0,1,3.277.989H5.469c.36,0,.72-.022.72-.495s-.326-.517-.7-.506C5.1,0,4.7-.011,4.311-.011Z" transform="translate(-0.097 0)" fill="#fff" stroke="#000" stroke-width="0.5"/>
      <path id="Path_714" data-name="Path 714" d="M141.972,4.194V3.013a2.988,2.988,0,0,0-2.935-3c-.843-.022-1.687,0-2.53-.011-.337,0-.607.079-.607.484,0,.382.214.517.573.517h2.249a2.03,2.03,0,0,1,2.226,2.226V5.42c0,.349.1.652.517.652s.506-.292.495-.663C141.961,5.015,141.972,4.6,141.972,4.194Z" transform="translate(-120.633 -0.011)" fill="#fff" stroke="#000" stroke-width="0.5"/>
      <path id="Path_715" data-name="Path 715" d="M66.976,133.062a5.405,5.405,0,0,0,3.137-.922c.315-.214.6-.495.337-.877-.27-.416-.6-.191-.911.034a4.615,4.615,0,0,1-5.071-.011c-.292-.214-.607-.416-.877-.056-.292.371-.034.652.281.888A5.4,5.4,0,0,0,66.976,133.062Z" transform="translate(-56.341 -116.308)" fill="#fff" stroke="#000" stroke-width="0.5"/>
      <path id="Path_716" data-name="Path 716" d="M84.3,65.865c0-.675-.011-1.349,0-2.024,0-.382-.146-.63-.54-.641s-.472.3-.495.63c-.011.146,0,.3,0,.45,0,1.1-.011,2.2,0,3.317a.6.6,0,0,1-.663.708c-.135,0-.292-.045-.382.011-.169.1-.416.27-.416.4a.686.686,0,0,0,.337.54A1.651,1.651,0,0,0,84.3,67.72C84.307,67.1,84.3,66.483,84.3,65.865Z" transform="translate(-72.616 -56.105)" fill="#fff" stroke="#000" stroke-width="0.5"/>
      <path id="Path_717" data-name="Path 717" d="M132.045,64.737a2.567,2.567,0,0,0-.022-.832.67.67,0,0,0-.484-.4.661.661,0,0,0-.472.4,8.232,8.232,0,0,0,0,1.664.644.644,0,0,0,.484.394.653.653,0,0,0,.472-.4A2.489,2.489,0,0,0,132.045,64.737Z" transform="translate(-116.306 -56.371)" fill="#fff" stroke="#000" stroke-width="0.5"/>
      <path id="Path_718" data-name="Path 718" d="M49.846,64.635a2.927,2.927,0,0,0,.022.832.622.622,0,0,0,.416.4c.157.011.484-.18.495-.3a11.635,11.635,0,0,0-.011-1.878c-.011-.124-.337-.326-.495-.3s-.36.247-.4.416A3.406,3.406,0,0,0,49.846,64.635Z" transform="translate(-44.238 -56.269)" fill="#fff" stroke="#000" stroke-width="0.5"/>
      <path id="Path_719" data-name="Path 719" d="M141.883,133.113v1.406a3.02,3.02,0,0,1-2.969,2.98c-.81.011-1.608,0-2.418,0-.371,0-.7-.022-.7-.506s.36-.495.72-.495c.708,0,1.417.011,2.136,0a2.033,2.033,0,0,0,2.2-2.2v-2.642c0-.371.034-.765.528-.753.45.022.495.371.484.742C141.872,132.146,141.883,132.63,141.883,133.113Z" transform="translate(-120.544 -116.191)" stroke="#000" stroke-width="0.5"/>
      <path id="Path_720" data-name="Path 720" d="M1.021,133.279v1.237a2.037,2.037,0,0,0,2.091,2.159c.787.022,1.574.011,2.361.011.371,0,.641.124.63.528-.011.382-.27.472-.63.472-.787-.011-1.574,0-2.361,0A3.036,3.036,0,0,1,0,134.674c-.022-.956-.011-1.912,0-2.867,0-.36.045-.72.517-.708.439.022.506.36.506.731Q1.021,132.554,1.021,133.279Z" transform="translate(0 -116.368)" stroke="#000" stroke-width="0.5"/>
      <path id="Path_721" data-name="Path 721" d="M4.311-.01C4.7-.01,5.1,0,5.492-.01c.371-.011.708.045.7.506s-.36.495-.72.495H3.277A2.045,2.045,0,0,0,1.118,3.139c-.011.765-.011,1.54,0,2.305,0,.36-.1.652-.528.63C.207,6.062.083,5.792.095,5.455A24.571,24.571,0,0,1,.2,2.43,2.906,2.906,0,0,1,3.131-.01Z" transform="translate(-0.097 -0.001)" stroke="#000" stroke-width="0.5"/>
      <path id="Path_722" data-name="Path 722" d="M142.061,4.372c0,.416-.011.821,0,1.237.011.36-.079.663-.495.663s-.517-.3-.517-.652V3.427A2.02,2.02,0,0,0,138.822,1.2c-.753,0-1.5-.011-2.249,0-.36,0-.573-.135-.573-.517,0-.4.259-.484.607-.484.843.011,1.687-.011,2.53.011a2.988,2.988,0,0,1,2.935,3C142.061,3.585,142.061,3.978,142.061,4.372Z" transform="translate(-120.721 -0.189)" stroke="#000" stroke-width="0.5"/>
      <path id="Path_723" data-name="Path 723" d="M66.976,132.974a5.325,5.325,0,0,1-3.1-.956c-.315-.225-.573-.506-.281-.888.281-.36.585-.146.877.056a4.637,4.637,0,0,0,5.071.011c.315-.225.63-.45.911-.034.247.382-.022.663-.337.877A5.334,5.334,0,0,1,66.976,132.974Z" transform="translate(-56.341 -116.22)" stroke="#000" stroke-width="0.5"/>
      <path id="Path_724" data-name="Path 724" d="M84.3,65.865c0,.618.011,1.237,0,1.855a1.644,1.644,0,0,1-2.159,1.54.7.7,0,0,1-.337-.54c0-.135.247-.3.416-.4.1-.056.259-.011.382-.011a.6.6,0,0,0,.663-.708c-.011-1.1,0-2.2,0-3.317v-.45c.022-.315.1-.63.495-.63s.54.259.54.641Z" transform="translate(-72.616 -56.105)" stroke="#000" stroke-width="0.5"/>
      <path id="Path_725" data-name="Path 725" d="M132.011,64.826a2.926,2.926,0,0,1-.023.832.653.653,0,0,1-.472.4.644.644,0,0,1-.484-.394,7.487,7.487,0,0,1,0-1.664.622.622,0,0,1,.472-.4.669.669,0,0,1,.484.4A2.489,2.489,0,0,1,132.011,64.826Z" transform="translate(-116.272 -56.46)" stroke="#000" stroke-width="0.5"/>
      <path id="Path_726" data-name="Path 726" d="M49.846,64.644a2.927,2.927,0,0,1,.022-.832c.045-.169.247-.4.4-.416s.484.18.495.3a10.475,10.475,0,0,1,.011,1.878c-.011.124-.337.315-.495.3a.622.622,0,0,1-.416-.4A3.406,3.406,0,0,1,49.846,64.644Z" transform="translate(-44.238 -56.279)" stroke="#000" stroke-width="0.5"/>
    </g>
  </g>
</svg>
