<svg id="exclamation-mark" xmlns="http://www.w3.org/2000/svg" width="17.054" height="17.054" viewBox="0 0 17.054 17.054">
  <path id="Path_702" data-name="Path 702" d="M8.527,0a8.527,8.527,0,1,0,8.527,8.527A8.527,8.527,0,0,0,8.527,0Zm0,15.455a6.928,6.928,0,1,1,6.928-6.928A6.928,6.928,0,0,1,8.527,15.455Zm0-11.716c-.611,0-1.073.319-1.073.834V9.295c0,.515.462.833,1.073.833S9.6,9.8,9.6,9.295V4.573C9.6,4.071,9.123,3.74,8.528,3.74Zm0,7.452a1.064,1.064,0,1,0,1.064,1.065A1.066,1.066,0,0,0,8.528,11.192Z" fill="#e2574c"/>
</svg>
