<svg xmlns="http://www.w3.org/2000/svg" width="13.797" height="13.797" viewBox="0 0 13.797 13.797">
  <g id="Group_3708" data-name="Group 3708" transform="translate(-343 -373.203)">
    <path id="icons8-box-important_2_" data-name="icons8-box-important (2)" d="M8.9,2a6.9,6.9,0,1,0,6.9,6.9A6.9,6.9,0,0,0,8.9,2Zm.345,10.348h-.69A.345.345,0,0,1,8.209,12v-.69a.345.345,0,0,1,.345-.345h.69a.345.345,0,0,1,.345.345V12A.345.345,0,0,1,9.243,12.348ZM8.9,9.588h0a.69.69,0,0,1-.69-.69V6.139a.69.69,0,0,1,.69-.69h0a.69.69,0,0,1,.69.69V8.9A.69.69,0,0,1,8.9,9.588Z" transform="translate(341 371.203)" fill="#ff635c"/>
  </g>
</svg>
