<svg xmlns="http://www.w3.org/2000/svg" width="28" height="28" viewBox="0 0 28 28"><g transform="translate(-147 -130.5)"><g transform="translate(-3156.09 2069.34)"><path d="M3330.09-1924.84a13,13,0,0,1-13,13,13,13,0,0,1-13-13,13,13,0,0,1,13-13A13,13,0,0,1,3330.09-1924.84Z" fill="#fff" stroke="red" stroke-width="2"/><path d="M3319.212-1924.834l3.84-3.819a1.5,1.5,0,0,0,.006-2.121,1.5,1.5,0,0,0-2.121-.006l-3.84,3.819-3.821-3.841a1.5,1.5,0,0,0-2.121-.006,1.5,1.5,0,0,0-.005,2.121l3.82,3.841-3.842,3.821a1.5,1.5,0,0,0-.006,2.121,1.493,1.493,0,0,0,1.064.442,1.493,1.493,0,0,0,1.057-.436l3.842-3.821,3.819,3.841a1.5,1.5,0,0,0,1.064.443,1.494,1.494,0,0,0,1.057-.437,1.5,1.5,0,0,0,.006-2.121Z"/></g></g></svg>