<svg xmlns="http://www.w3.org/2000/svg" width="75.404" height="10.282" viewBox="0 0 75.404 10.282">
  <path id="Path_3616" data-name="Path 3616" d="M3.977-7.958H2.356v-10H8v1.382H3.977v3.126H7.747v1.389H3.977ZM13.928-16.7a2.7,2.7,0,0,0-2.217,1,4.269,4.269,0,0,0-.807,2.757,4.3,4.3,0,0,0,.776,2.784,2.743,2.743,0,0,0,2.247.944,5.9,5.9,0,0,0,1.231-.127q.6-.127,1.238-.325v1.4a7.507,7.507,0,0,1-2.668.445,4.264,4.264,0,0,1-3.373-1.331A5.566,5.566,0,0,1,9.18-12.959a6.152,6.152,0,0,1,.571-2.73A4.077,4.077,0,0,1,11.4-17.48a5,5,0,0,1,2.538-.623,6.3,6.3,0,0,1,2.832.643L16.185-16.1a8.784,8.784,0,0,0-1.071-.421A3.857,3.857,0,0,0,13.928-16.7ZM29.546-7.958H27.651l-3.14-4.529-.965.787v3.742H21.912v-10h1.635v4.775q.67-.821,1.334-1.58l2.7-3.195h1.861q-2.62,3.078-3.756,4.385Zm9.513,0h-2l-4.919-7.97h-.055l.034.445q.1,1.272.1,2.326v5.2H30.727v-10h1.984l4.905,7.929h.041q-.014-.157-.055-1.146t-.041-1.543v-5.24h1.5Zm10.34-10v6.472a3.838,3.838,0,0,1-.475,1.939,3.168,3.168,0,0,1-1.375,1.279,4.779,4.779,0,0,1-2.152.448A4.025,4.025,0,0,1,42.5-8.806a3.565,3.565,0,0,1-1.033-2.709v-6.444h1.642v6.328A2.528,2.528,0,0,0,43.687-9.8a2.369,2.369,0,0,0,1.765.588q2.312,0,2.312-2.429v-6.314Zm10.553,4.905a4.984,4.984,0,0,1-1.375,3.787,5.523,5.523,0,0,1-3.961,1.31h-2.8v-10H54.91a5.116,5.116,0,0,1,3.715,1.286A4.806,4.806,0,0,1,59.952-13.054ZM58.228-13q0-3.592-3.359-3.592H53.453v7.258h1.163Q58.228-9.333,58.228-13Zm11.866-.055a4.984,4.984,0,0,1-1.375,3.787,5.523,5.523,0,0,1-3.961,1.31h-2.8v-10h3.092a5.116,5.116,0,0,1,3.715,1.286A4.806,4.806,0,0,1,70.094-13.054ZM68.37-13q0-3.592-3.359-3.592H63.6v7.258h1.163Q68.37-9.333,68.37-13Zm9.39,5.042H72.1v-10H77.76v1.382H73.737v2.723h3.769v1.368H73.737v3.14H77.76Z" transform="translate(-2.356 18.103)"/>
</svg>
