<svg xmlns="http://www.w3.org/2000/svg" width="18.587" height="20.499" viewBox="0 0 18.587 20.499">
  <g id="Group_3770" data-name="Group 3770" transform="translate(-64.709 -621.853)">
    <g id="Group_614" data-name="Group 614" transform="translate(-3.67 -26)">
      <g id="fingerprint_1_" data-name="fingerprint (1)" transform="translate(68.67 648.103)">
        <g id="Group_613" data-name="Group 613">
          <g id="Group_612" data-name="Group 612">
            <path id="Path_656" data-name="Path 656" d="M94.387,164.231a7.92,7.92,0,0,1-.925-3.855,4.673,4.673,0,0,1,9.33,0,.5.5,0,0,0,1,0,5.672,5.672,0,0,0-11.33,0,8.9,8.9,0,0,0,1.055,4.345,10.478,10.478,0,0,0,2.01,2.635.5.5,0,0,0,.355.15.448.448,0,0,0,.345-.15.493.493,0,0,0,.005-.7A9.476,9.476,0,0,1,94.387,164.231Z" transform="translate(-89.125 -147.721)" stroke="#000" stroke-width="0.5"/>
            <path id="Path_657" data-name="Path 657" d="M79.644,2.41a11.688,11.688,0,0,1,11.14.005.536.536,0,0,0,.23.055h0a.5.5,0,0,0,.23-.945,12.7,12.7,0,0,0-12.08.005.5.5,0,1,0,.48.88Z" transform="translate(-76.202 0)" stroke="#000" stroke-width="0.5"/>
            <path id="Path_658" data-name="Path 658" d="M45.938,103.04a8.305,8.305,0,0,0-7.51,4.595,7.4,7.4,0,0,0-.685,3.235,11.134,11.134,0,0,0,.73,3.955.5.5,0,1,0,.94-.35,9.976,9.976,0,0,1-.665-3.6,6.423,6.423,0,0,1,.585-2.8,7.3,7.3,0,0,1,6.61-4.03,7.056,7.056,0,0,1,7.245,6.835,2.085,2.085,0,0,1-4.16,0,3.083,3.083,0,0,0-6.16,0,7.321,7.321,0,0,0,2.165,5.22,7.637,7.637,0,0,0,3.715,2.1.373.373,0,0,0,.13.02.5.5,0,0,0,.13-.98,6.746,6.746,0,0,1-3.275-1.845,6.326,6.326,0,0,1-1.87-4.51,2.085,2.085,0,0,1,4.16,0,3.083,3.083,0,0,0,6.16,0A8.058,8.058,0,0,0,45.938,103.04Z" transform="translate(-36.971 -98.21)" stroke="#000" stroke-width="0.5"/>
            <path id="Path_659" data-name="Path 659" d="M39.188,56.475a10.461,10.461,0,0,0-3.75-3.25,11.538,11.538,0,0,0-10.315.01,10.414,10.414,0,0,0-3.755,3.275.5.5,0,0,0,.12.695.521.521,0,0,0,.29.09.509.509,0,0,0,.41-.2,9.39,9.39,0,0,1,3.395-2.965,10.521,10.521,0,0,1,9.4-.01,9.387,9.387,0,0,1,3.39,2.94.5.5,0,0,0,.7.115A.5.5,0,0,0,39.188,56.475Z" transform="translate(-21.277 -49.576)" stroke="#000" stroke-width="0.5"/>
            <path id="Path_660" data-name="Path 660" d="M207.995,264.093a6.565,6.565,0,0,1-1.045.1,4.326,4.326,0,0,1-4.475-4.275.5.5,0,1,0-1,0,5.332,5.332,0,0,0,2.375,4.39,5.431,5.431,0,0,0,3.1.885,7.161,7.161,0,0,0,1.22-.11.5.5,0,1,0-.175-.985Z" transform="translate(-193.029 -247.254)" stroke="#000" stroke-width="0.5"/>
          </g>
        </g>
      </g>
    </g>
  </g>
</svg>
