<svg xmlns="http://www.w3.org/2000/svg" width="96" height="22" viewBox="0 0 96 22"><g transform="translate(-19 -45)"><g transform="translate(-55.909 -384)"><text transform="translate(117.909 446)" fill="#37d888" font-size="22" font-family="Helvetica"><tspan x="0" y="0">.cash</tspan></text><path d="M605.087-225.143a1.418,1.418,0,0,0-1.473,1.36v1.376h3.158v2.316h-3.158v8.736h-2.842v-8.736h-1.895v-2.316h1.895v-1.581a3.8,3.8,0,0,1,4-3.682,3.9,3.9,0,0,1,2.631.947l-1.053,2a2.67,2.67,0,0,0-1.263-.421" transform="translate(-523.968 657.74)" fill="#37d888"/><path d="M654.068-202.35V-191.3h-2.21l-.421-1.263h-.314a3.94,3.94,0,0,1-3.263,1.368c-2.947,0-4.421-2.105-4.421-5.158v-6h3.054v5.263c0,1.368.1,3.263,2,3.263.947,0,2.526-.526,2.526-3.368v-5.158Z" transform="translate(-559.265 637.684)" fill="#37d888"/><path d="M707.2-200.14c-.948,0-1.368.421-1.368.948,0,.737.948.947,1.684,1.158,2,.421,4,1.053,4,3.368s-1.895,3.579-4.21,3.579c-2.526,0-4.526-1.579-4.631-3.895h2.736A1.776,1.776,0,0,0,707.3-193.4c1.158,0,1.368-.631,1.368-1.052,0-.842-.737-1.053-1.579-1.263-1.263-.315-4.105-.842-4.105-3.368,0-2.21,2.106-3.263,4.211-3.263,2.526,0,4.105,1.474,4.21,3.368h-2.736c0-.526-.314-1.158-1.474-1.158" transform="translate(-606.182 637.684)" fill="#37d888"/><path d="M753.707-199.05h4.947a2.237,2.237,0,0,0-2.316-1.789,2.587,2.587,0,0,0-2.631,1.789m7.894,2.21h-8.1a2.8,2.8,0,0,0,2.947,2.316,2.542,2.542,0,0,0,2.105-.948h2.842A5.311,5.311,0,0,1,756.339-192a5.6,5.6,0,0,1-5.582-5.613c0-.059,0-.117,0-.176a5.393,5.393,0,0,1,5.2-5.576c.09,0,.18,0,.27,0,2.842,0,5.789,2,5.368,6.526" transform="translate(-644.273 638.489)" fill="#37d888"/></g></g></svg>