<svg xmlns="http://www.w3.org/2000/svg" width="411.155" height="69.737" viewBox="0 0 411.155 69.737">
  <g id="Group_4364" data-name="Group 4364" transform="translate(-2527.559 -1649.578)">
    <path id="Path_4260" data-name="Path 4260" d="M1251.221,880.49a13.359,13.359,0,0,1-6.183-1.388l-22.519-11.834-4.823,2.914c-2.933,1.77-2.881,4.484.114,6.057l28.47,14.958a10.865,10.865,0,0,0,4.942,1.082,11.5,11.5,0,0,0,5.792-1.44l27.871-16.831c2.932-1.77,2.881-4.482-.115-6.056l-4.617-2.427-21.76,13.141A14.068,14.068,0,0,1,1251.221,880.49Z" transform="translate(1312.03 827.035)" fill="#fff"/>
    <path id="Path_4261" data-name="Path 4261" d="M1284.77,852l-4.506-2.368-10.134,6.12-1.333.805-1.335.806-8.639,5.217a14.866,14.866,0,0,1-7.6,1.955,14.219,14.219,0,0,1-6.581-1.5l-9.411-4.945-1.379-.725-1.378-.724-10.044-5.278-4.737,2.861c-2.933,1.77-2.881,4.483.114,6.056l4.62,2.427,1.379.724,1.379.725,21.092,11.083a10.835,10.835,0,0,0,4.941,1.083,11.514,11.514,0,0,0,5.793-1.44l20.38-12.306,1.335-.806,1.333-.806,4.823-2.912C1287.817,856.289,1287.766,853.577,1284.77,852Z" transform="translate(1312.029 828.529)" fill="#fff"/>
    <path id="Path_4262" data-name="Path 4262" d="M1257.1,842.512q.223,1.678-2.112,3.087a9.153,9.153,0,0,1-2.867,1.125,12.054,12.054,0,0,1-3.131.243,14.815,14.815,0,0,1-3.056-.484,13.834,13.834,0,0,1-1.728-.581l-1.514.915a1.566,1.566,0,0,1-.736.211,1.491,1.491,0,0,1-.769-.159.506.506,0,0,1-.325-.415.525.525,0,0,1,.309-.436l1.482-.894a9.694,9.694,0,0,1-1.927-1.455,4.194,4.194,0,0,1-1.215-2,2.307,2.307,0,0,1,.4-1.932,1.392,1.392,0,0,1,.937-.555,2.642,2.642,0,0,1,1.363.106,1.638,1.638,0,0,1,.273.111.869.869,0,0,1,.4.394.682.682,0,0,1-.073.71,1.506,1.506,0,0,0,.268,1.764,5.922,5.922,0,0,0,1.763,1.529l6.555-3.958a6.723,6.723,0,0,1-1.9-1.943,2.594,2.594,0,0,1-.309-2.225,3.836,3.836,0,0,1,1.787-1.924,8.338,8.338,0,0,1,3.5-1.131,13.368,13.368,0,0,1,4.016.208,14.345,14.345,0,0,1,2.971.936l1.163-.7a1.612,1.612,0,0,1,1.5-.049c.228.12.347.258.35.413s-.112.3-.334.435l-1.154.7a6.167,6.167,0,0,1,1.5,1.213,2.888,2.888,0,0,1,.763,1.661,3.524,3.524,0,0,1-.333,1.723,1.4,1.4,0,0,1-.7.73,2.223,2.223,0,0,1-1.177.183,1.844,1.844,0,0,1-.753-.186,1.039,1.039,0,0,1-.284-.212.659.659,0,0,1-.152-.769,2.056,2.056,0,0,0,.151-1.754,2.934,2.934,0,0,0-1.179-1.283L1254.8,839.5a4.768,4.768,0,0,1,2.3,3.01m-6.869,2.553a5.2,5.2,0,0,0,2.233-.714,2.233,2.233,0,0,0,1.278-1.836,2.4,2.4,0,0,0-1.053-1.736l-6.269,3.786a8.929,8.929,0,0,0,1.306.363,8.53,8.53,0,0,0,2.505.138m3.265-6.491,5.837-3.525a8.8,8.8,0,0,0-2.719-.686,5.178,5.178,0,0,0-3.228.677,2.917,2.917,0,0,0-1.054,1.007,1.367,1.367,0,0,0,.1,1.37,4.192,4.192,0,0,0,1.065,1.157" transform="translate(1309.782 830.135)" fill="#fff"/>
    <path id="Path_4263" data-name="Path 4263" d="M1283.5,833.329l-26.782-14.071a11.573,11.573,0,0,0-5.28-1.175,12.067,12.067,0,0,0-6.152,1.55l-26.219,15.832a4.8,4.8,0,0,0-2.692,4.148,4.7,4.7,0,0,0,2.87,3.917l3.306,1.737,1.379.725,1.381.725,10.044,5.277,1.377.724,1.38.724,7.916,4.159a11.573,11.573,0,0,0,5.281,1.174h0a12.052,12.052,0,0,0,6.152-1.55l7.194-4.344,1.335-.806,1.332-.806,10.134-6.119,1.335-.806,1.334-.805,3.554-2.145a4.791,4.791,0,0,0,2.692-4.147A4.7,4.7,0,0,0,1283.5,833.329ZM1282.231,839l-5,3.018-1.334.806-1.334.805-10.135,6.12-1.333.8-1.336.808-5.749,3.471a9.4,9.4,0,0,1-4.712,1.15,8.752,8.752,0,0,1-3.977-.856l-6.421-3.373-1.38-.725-1.378-.724-10.044-5.278-1.38-.724-1.379-.725-4.8-2.522c-.849-.445-1.363-1.016-1.378-1.528-.015-.531.488-1.155,1.345-1.672l26.218-15.833a9.417,9.417,0,0,1,4.71-1.15,8.779,8.779,0,0,1,3.979.856L1282.2,835.8c.846.444,1.361,1.017,1.376,1.529C1283.591,837.859,1283.088,838.485,1282.231,839Z" transform="translate(1311.951 831.495)" fill="#fff"/>
    <g id="Group_4362" data-name="Group 4362" transform="translate(2610.407 1655.867)">
      <path id="Path_4399" data-name="Path 4399" d="M11.952-244.741c-3.763,0-13.758,0-13.758,14.84v3.782H-9.178v8.5h7.372v29.1h9.9v-29.1h9.467v-8.5H8.091v-4.711c0-4.948,2.328-4.948,5.024-4.948a13.579,13.579,0,0,1,3.542.518l.9.238v-8.518l-.4-.2A12.471,12.471,0,0,0,11.952-244.741Z" transform="translate(9.178 244.741)" fill="#fff"/>
      <path id="Path_4400" data-name="Path 4400" d="M39.764-211.1c0,6.4-2.98,10.227-7.973,10.227-4.857,0-7.121-3.25-7.121-10.227v-19.421h-9.9V-208.3c0,5.377.664,8.387,2.451,11.108,2.27,3.408,6.235,5.211,11.461,5.211,4.7,0,8.555-1.57,11.079-4.465v3.532h9.894v-37.6H39.764Z" transform="translate(16.585 249.14)" fill="#fff"/>
      <path id="Path_4401" data-name="Path 4401" d="M67.257-214.429l-.423.606.259-.672h0c-1.362-.528-2.586-.965-3.671-1.352-4.311-1.538-5.8-2.165-5.8-4.029,0-2.392,2.416-3.239,4.482-3.239,3.433,0,5.1,1.592,5.1,4.868v.719h9.664v-.719c0-7.4-6.248-12.98-14.533-12.98-8.553,0-14.3,4.5-14.3,11.194,0,6.74,3.934,8.786,9.073,10.761,1.771.685,3.329,1.227,4.678,1.693,4.647,1.612,6.117,2.218,6.117,4.234,0,.859,0,3.469-5.181,3.469-4.217,0-6.266-1.872-6.266-5.721v-.719H46.79v.719c0,9.506,8.017,13.836,15.465,13.836,9.347,0,15.153-4.5,15.153-11.741C77.408-210.521,72.248-212.51,67.257-214.429Z" transform="translate(26.486 248.92)" fill="#fff"/>
      <path id="Path_4402" data-name="Path 4402" d="M109.6-208.815a30.1,30.1,0,0,0,.4-5.4c0-9.542-7.679-17.016-17.484-17.016-11.278,0-18.566,7.747-18.566,19.734,0,9.821,5.813,19.732,18.8,19.732,10.088,0,15.77-6.219,16.926-12.384l.16-.851H99.954l-.185.439c-.948,2.231-2.455,4.3-7.024,4.3-6.689,0-8.477-4.165-8.721-7.952h25.47Zm-25.5-6.737c.335-5.274,4.383-7.175,8.181-7.175,4.719,0,7.738,2.729,8.03,7.175Z" transform="translate(34.884 248.92)" fill="#fff"/>
      <path id="Path_4403" data-name="Path 4403" d="M112.3-212.08a6.973,6.973,0,0,0-6.926,7,6.935,6.935,0,0,0,6.926,6.93,6.976,6.976,0,0,0,7.006-6.93A7.013,7.013,0,0,0,112.3-212.08Z" transform="translate(44.602 254.841)" fill="#fff"/>
      <path id="Path_4404" data-name="Path 4404" d="M145.455-206.032c-.949,3.183-2.569,5.3-7.384,5.3-8.6,0-9.523-7.528-9.523-10.765,0-4.969,2.353-10.769,8.981-10.769,4.857,0,7.342,1.893,7.821,5.96l.073.635H155.3l-.062-.775c-.552-7.147-5.539-14.785-17.867-14.785-12.291,0-18.722,9.928-18.722,19.734,0,9.5,5.884,19.732,18.8,19.732,9.832,0,16.508-5.216,17.862-13.957l.13-.829h-9.835Z" transform="translate(48.708 248.92)" fill="#fff"/>
      <path id="Path_4405" data-name="Path 4405" d="M179.914-226.787a14.845,14.845,0,0,0-10.456-4.44c-10.983,0-19.266,8.484-19.266,19.734s8.282,19.732,19.266,19.732a14.836,14.836,0,0,0,10.456-4.442v3.51h9.9v-37.6h-9.9Zm-9.99,26.059c-5.61,0-9.838-4.628-9.838-10.765s4.228-10.769,9.838-10.769c5.79,0,9.99,4.529,9.99,10.769S175.714-200.728,169.925-200.728Z" transform="translate(58.463 248.92)" fill="#fff"/>
      <path id="Path_4406" data-name="Path 4406" d="M206.287-214.429l-.422.606.262-.672h0c-1.364-.53-2.588-.965-3.675-1.352-4.307-1.54-5.8-2.165-5.8-4.029,0-2.392,2.416-3.239,4.482-3.239,3.434,0,5.1,1.592,5.1,4.868v.719H215.9v-.719c0-7.4-6.248-12.98-14.533-12.98-8.552,0-14.3,4.5-14.3,11.194,0,6.737,3.933,8.784,9.072,10.761,1.771.685,3.329,1.227,4.678,1.693,4.647,1.612,6.117,2.218,6.117,4.234,0,.859,0,3.469-5.179,3.469-4.214,0-6.265-1.872-6.265-5.721v-.719h-9.664v.719c0,9.506,8.017,13.836,15.465,13.836,9.347,0,15.153-4.5,15.153-11.741C216.443-210.521,211.279-212.51,206.287-214.429Z" transform="translate(69.482 248.92)" fill="#fff"/>
      <path id="Path_4407" data-name="Path 4407" d="M247.374-221.946l0,0c-2.268-3.407-6.232-5.208-11.46-5.208-4.705,0-8.556,1.567-11.079,4.459v-21.686h-9.9v55.761h9.9v-19.423c0-6.4,2.981-10.225,7.973-10.225,4.857,0,7.12,3.25,7.12,10.225v19.423h9.9v-22.214C249.822-216.219,249.158-219.229,247.374-221.946Z" transform="translate(78.485 244.851)" fill="#fff"/>
    </g>
  </g>
</svg>
