<svg xmlns="http://www.w3.org/2000/svg" width="20" height="20" viewBox="0 0 20 20">
  <g id="Group_3722" data-name="Group 3722" transform="translate(-57 -360)">
    <g id="Group_3721" data-name="Group 3721" transform="translate(-37 -2)">
      <circle id="Ellipse_369" data-name="Ellipse 369" cx="10" cy="10" r="10" transform="translate(94 362)" fill="#f0f0f0"/>
    </g>
    <path id="Path_3853" data-name="Path 3853" d="M1191.2,799.253a1.064,1.064,0,0,0-.629-.981l-1.164-.531,1.165-.526a1.076,1.076,0,0,0,0-1.96l-3.389-1.545a4.588,4.588,0,0,0-3.793-.006L1180,795.239a1.076,1.076,0,0,0,0,1.959l1.163.53-1.165.527a1.076,1.076,0,0,0,0,1.959l1.163.53-1.165.526a1.076,1.076,0,0,0,0,1.959l3.389,1.545a4.588,4.588,0,0,0,3.793.006l3.393-1.534a1.076,1.076,0,0,0,0-1.96l-1.163-.53,1.165-.527a1.064,1.064,0,0,0,.633-.979m-8.725,2.094.9.412a4.59,4.59,0,0,0,3.8.006l.528-.238-1.349-.615-.045.014a3.5,3.5,0,0,1-2.475-.161l-3.354-1.53,2-.9.905.413a4.588,4.588,0,0,0,3.793.006l.527-.239-1.349-.615-.046.014a3.5,3.5,0,0,1-2.472-.161l-3.355-1.53,3.36-1.519a3.5,3.5,0,0,1,2.89,0l3.355,1.53-3.322,1.5,3.317,1.514-3.321,1.5,3.316,1.515-3.36,1.519a3.5,3.5,0,0,1-2.891,0l-3.355-1.53Z" transform="translate(-1118.357 -429.298)" fill="#888"/>
  </g>
</svg>
