<svg xmlns="http://www.w3.org/2000/svg" width="65.348" height="65.036" viewBox="0 0 65.348 65.036">
  <g id="Group_3771" data-name="Group 3771" transform="translate(-155 -84.002)">
    <path id="Path_1828" data-name="Path 1828" d="M65.348,33.645a5.577,5.577,0,0,0-3.33-5.411L55.775,25.32l6.243-2.914A5.577,5.577,0,0,0,65.348,17a5.577,5.577,0,0,0-3.33-5.411L43.288,3.26a25.868,25.868,0,0,0-20.811,0L3.746,11.585A6.153,6.153,0,0,0,0,17a5.577,5.577,0,0,0,3.33,5.411L9.573,25.32,3.33,28.234A6.5,6.5,0,0,0,0,33.645a5.577,5.577,0,0,0,3.33,5.411L9.573,41.97,3.33,44.883A6.5,6.5,0,0,0,0,50.294a5.577,5.577,0,0,0,3.33,5.411L22.06,64.03a22.218,22.218,0,0,0,10.406,2.081A28.982,28.982,0,0,0,42.872,64.03L61.6,55.705a5.577,5.577,0,0,0,3.33-5.411,5.577,5.577,0,0,0-3.33-5.411L55.359,41.97,61.6,39.056a5.373,5.373,0,0,0,3.746-5.411M17.065,45.3l4.995,2.081a22.218,22.218,0,0,0,10.406,2.081,28.981,28.981,0,0,0,10.406-2.081l2.914-1.249L38.293,42.8h-.416c-4.162,1.665-8.741,1.249-13.319-.416L6.243,34.061l11.238-4.995,4.995,2.081a26.79,26.79,0,0,0,9.99,2.081,28.982,28.982,0,0,0,10.406-2.081L46.2,29.9l-7.492-3.746h-.416c-4.579,1.665-9.157,1.249-13.736-.416L6.243,17.412,24.558,9.087a17.632,17.632,0,0,1,15.817,0l18.314,8.325L40.374,25.737l18.314,8.325L40.374,42.386,58.688,50.71,40.374,59.035a17.632,17.632,0,0,1-15.817,0L6.243,50.71Z" transform="translate(155 82.927)" fill="#656565"/>
  </g>
</svg>
