<svg xmlns="http://www.w3.org/2000/svg" width="78.122" height="22.249" viewBox="0 0 78.122 22.249">
  <g id="Group_3783" data-name="Group 3783" transform="translate(-143.535 -62.317)">
    <g id="Group_3768" data-name="Group 3768">
      <path id="Path_1824" data-name="Path 1824" d="M26.16,3.2A1.8,1.8,0,0,0,24.3,4.929V6.661h4V9.592h-4V20.65H20.7V9.592H18.3V6.661h2.4v-2A4.812,4.812,0,0,1,25.761,0a4.934,4.934,0,0,1,3.331,1.2L27.759,3.73a3.378,3.378,0,0,0-1.6-.533" transform="translate(149.616 62.317)" fill="#656565"/>
      <path id="Path_1825" data-name="Path 1825" d="M40.556,5V18.989h-2.8l-.533-1.6h-.4a4.986,4.986,0,0,1-4.13,1.732c-3.73,0-5.6-2.665-5.6-6.528V5h3.864v6.661c0,1.732.133,4.13,2.531,4.13,1.2,0,3.2-.666,3.2-4.263V5Z" transform="translate(152.539 63.978)" fill="#656565"/>
      <path id="Path_1826" data-name="Path 1826" d="M44.529,7.8c-1.2,0-1.732.533-1.732,1.2,0,.933,1.2,1.2,2.132,1.466,2.531.533,5.063,1.332,5.063,4.263s-2.4,4.53-5.329,4.53c-3.2,0-5.729-2-5.862-4.929h3.464a2.248,2.248,0,0,0,2.4,2c1.466,0,1.732-.8,1.732-1.332,0-1.066-.933-1.332-2-1.6-1.6-.4-5.2-1.066-5.2-4.263,0-2.8,2.665-4.13,5.329-4.13,3.2,0,5.2,1.865,5.329,4.263H46.394c0-.666-.4-1.466-1.865-1.466" transform="translate(156.427 63.978)" fill="#656565"/>
      <path id="Path_1827" data-name="Path 1827" d="M52.03,10.262h6.262A2.832,2.832,0,0,0,55.361,8a3.274,3.274,0,0,0-3.331,2.265m9.992,2.8H51.764a3.549,3.549,0,0,0,3.73,2.931,3.217,3.217,0,0,0,2.665-1.2h3.6a6.723,6.723,0,0,1-6.395,4.4A7.085,7.085,0,0,1,48.3,11.861,6.826,6.826,0,0,1,55.228,4.8c3.6,0,7.328,2.531,6.795,8.26" transform="translate(159.583 63.912)" fill="#656565"/>
      <path id="Path_1828" data-name="Path 1828" d="M20.917,11.5a1.785,1.785,0,0,0-1.066-1.732l-2-.933,2-.933a1.785,1.785,0,0,0,1.066-1.732,1.785,1.785,0,0,0-1.066-1.732l-6-2.665a8.28,8.28,0,0,0-6.661,0l-6,2.665A1.969,1.969,0,0,0,0,6.171,1.785,1.785,0,0,0,1.066,7.9l2,.933-2,.933A2.079,2.079,0,0,0,0,11.5a1.785,1.785,0,0,0,1.066,1.732l2,.933-2,.933A2.079,2.079,0,0,0,0,16.829a1.785,1.785,0,0,0,1.066,1.732l6,2.665a7.112,7.112,0,0,0,3.331.666,9.276,9.276,0,0,0,3.331-.666l6-2.665a1.785,1.785,0,0,0,1.066-1.732A1.785,1.785,0,0,0,19.718,15.1l-2-.933,2-.933a1.72,1.72,0,0,0,1.2-1.732M5.462,15.23l1.6.666a7.112,7.112,0,0,0,3.331.666,9.276,9.276,0,0,0,3.331-.666l.933-.4-2.4-1.066h-.133A5.909,5.909,0,0,1,7.86,14.3L2,11.633l3.6-1.6,1.6.666a8.575,8.575,0,0,0,3.2.666,9.276,9.276,0,0,0,3.331-.666l1.066-.4-2.4-1.2h-.133a6.253,6.253,0,0,1-4.4-.133L2,6.3,7.86,3.64a5.644,5.644,0,0,1,5.063,0L18.785,6.3,12.923,8.969l5.862,2.665L12.923,14.3l5.862,2.665-5.862,2.665a5.644,5.644,0,0,1-5.063,0L2,16.962Z" transform="translate(143.535 62.674)" fill="#656565"/>
    </g>
  </g>
</svg>
