<svg xmlns="http://www.w3.org/2000/svg" width="328.307" height="57.159" viewBox="0 0 328.307 57.159">
  <g id="Group_4362" data-name="Group 4362" transform="translate(0 0)">
    <path id="Path_4399" data-name="Path 4399" d="M11.952-244.741c-3.763,0-13.758,0-13.758,14.84v3.782H-9.178v8.5h7.372v29.1h9.9v-29.1h9.467v-8.5H8.091v-4.711c0-4.948,2.328-4.948,5.024-4.948a13.579,13.579,0,0,1,3.542.518l.9.238v-8.518l-.4-.2A12.471,12.471,0,0,0,11.952-244.741Z" transform="translate(9.178 244.741)" fill="#38d989"/>
    <path id="Path_4400" data-name="Path 4400" d="M39.764-211.1c0,6.4-2.98,10.227-7.973,10.227-4.857,0-7.121-3.25-7.121-10.227v-19.421h-9.9V-208.3c0,5.377.664,8.387,2.451,11.108,2.27,3.408,6.235,5.211,11.461,5.211,4.7,0,8.555-1.57,11.079-4.465v3.532h9.894v-37.6H39.764Z" transform="translate(16.585 249.14)" fill="#38d989"/>
    <path id="Path_4401" data-name="Path 4401" d="M67.257-214.429l-.423.606.259-.672h0c-1.362-.528-2.586-.965-3.671-1.352-4.311-1.538-5.8-2.165-5.8-4.029,0-2.392,2.416-3.239,4.482-3.239,3.433,0,5.1,1.592,5.1,4.868v.719h9.664v-.719c0-7.4-6.248-12.98-14.533-12.98-8.553,0-14.3,4.5-14.3,11.194,0,6.74,3.934,8.786,9.073,10.761,1.771.685,3.329,1.227,4.678,1.693,4.647,1.612,6.117,2.218,6.117,4.234,0,.859,0,3.469-5.181,3.469-4.217,0-6.266-1.872-6.266-5.721v-.719H46.79v.719c0,9.506,8.017,13.836,15.465,13.836,9.347,0,15.153-4.5,15.153-11.741C77.408-210.521,72.248-212.51,67.257-214.429Z" transform="translate(26.486 248.92)" fill="#38d989"/>
    <path id="Path_4402" data-name="Path 4402" d="M109.6-208.815a30.1,30.1,0,0,0,.4-5.4c0-9.542-7.679-17.016-17.484-17.016-11.278,0-18.566,7.747-18.566,19.734,0,9.821,5.813,19.732,18.8,19.732,10.088,0,15.77-6.219,16.926-12.384l.16-.851H99.954l-.185.439c-.948,2.231-2.455,4.3-7.024,4.3-6.689,0-8.477-4.165-8.721-7.952h25.47Zm-25.5-6.737c.335-5.274,4.383-7.175,8.181-7.175,4.719,0,7.738,2.729,8.03,7.175Z" transform="translate(34.884 248.92)" fill="#38d989"/>
    <path id="Path_4403" data-name="Path 4403" d="M112.3-212.08a6.973,6.973,0,0,0-6.926,7,6.935,6.935,0,0,0,6.926,6.93,6.976,6.976,0,0,0,7.006-6.93A7.013,7.013,0,0,0,112.3-212.08Z" transform="translate(44.602 254.841)" fill="#38d989"/>
    <path id="Path_4404" data-name="Path 4404" d="M145.455-206.032c-.949,3.183-2.569,5.3-7.384,5.3-8.6,0-9.523-7.528-9.523-10.765,0-4.969,2.353-10.769,8.981-10.769,4.857,0,7.342,1.893,7.821,5.96l.073.635H155.3l-.062-.775c-.552-7.147-5.539-14.785-17.867-14.785-12.291,0-18.722,9.928-18.722,19.734,0,9.5,5.884,19.732,18.8,19.732,9.832,0,16.508-5.216,17.862-13.957l.13-.829h-9.835Z" transform="translate(48.708 248.92)" fill="#38d989"/>
    <path id="Path_4405" data-name="Path 4405" d="M179.914-226.787a14.845,14.845,0,0,0-10.456-4.44c-10.983,0-19.266,8.484-19.266,19.734s8.282,19.732,19.266,19.732a14.836,14.836,0,0,0,10.456-4.442v3.51h9.9v-37.6h-9.9Zm-9.99,26.059c-5.61,0-9.838-4.628-9.838-10.765s4.228-10.769,9.838-10.769c5.79,0,9.99,4.529,9.99,10.769S175.714-200.728,169.925-200.728Z" transform="translate(58.463 248.92)" fill="#38d989"/>
    <path id="Path_4406" data-name="Path 4406" d="M206.287-214.429l-.422.606.262-.672h0c-1.364-.53-2.588-.965-3.675-1.352-4.307-1.54-5.8-2.165-5.8-4.029,0-2.392,2.416-3.239,4.482-3.239,3.434,0,5.1,1.592,5.1,4.868v.719H215.9v-.719c0-7.4-6.248-12.98-14.533-12.98-8.552,0-14.3,4.5-14.3,11.194,0,6.737,3.933,8.784,9.072,10.761,1.771.685,3.329,1.227,4.678,1.693,4.647,1.612,6.117,2.218,6.117,4.234,0,.859,0,3.469-5.179,3.469-4.214,0-6.265-1.872-6.265-5.721v-.719h-9.664v.719c0,9.506,8.017,13.836,15.465,13.836,9.347,0,15.153-4.5,15.153-11.741C216.443-210.521,211.279-212.51,206.287-214.429Z" transform="translate(69.482 248.92)" fill="#38d989"/>
    <path id="Path_4407" data-name="Path 4407" d="M247.374-221.946l0,0c-2.268-3.407-6.232-5.208-11.46-5.208-4.705,0-8.556,1.567-11.079,4.459v-21.686h-9.9v55.761h9.9v-19.423c0-6.4,2.981-10.225,7.973-10.225,4.857,0,7.12,3.25,7.12,10.225v19.423h9.9v-22.214C249.822-216.219,249.158-219.229,247.374-221.946Z" transform="translate(78.485 244.851)" fill="#38d989"/>
  </g>
</svg>
