<svg xmlns="http://www.w3.org/2000/svg" width="20" height="20" viewBox="0 0 20 20">
  <g id="Group_3795" data-name="Group 3795" transform="translate(-216 -736)">
    <g id="Group_3742" data-name="Group 3742" transform="translate(122 374.108)">
      <circle id="Ellipse_369" data-name="Ellipse 369" cx="10" cy="10" r="10" transform="translate(94 361.892)"/>
      <path id="Path_3853" data-name="Path 3853" d="M1191.125,799.216a1.057,1.057,0,0,0-.625-.975l-1.156-.527,1.157-.523a1.069,1.069,0,0,0,0-1.947l-3.367-1.535a4.559,4.559,0,0,0-3.769-.006L1180,795.227a1.069,1.069,0,0,0,0,1.947l1.156.527-1.158.523a1.069,1.069,0,0,0,0,1.947l1.155.527-1.157.523a1.069,1.069,0,0,0,0,1.947l3.367,1.535a4.56,4.56,0,0,0,3.769.006l3.372-1.524a1.069,1.069,0,0,0,0-1.947l-1.156-.527,1.158-.523a1.057,1.057,0,0,0,.629-.972m-8.669,2.08.9.409a4.56,4.56,0,0,0,3.771.006l.524-.237-1.341-.611-.045.014a3.476,3.476,0,0,1-2.459-.16l-3.333-1.52,1.99-.9.9.41a4.559,4.559,0,0,0,3.769.006l.524-.237-1.341-.611-.046.014a3.472,3.472,0,0,1-2.456-.16l-3.334-1.52,3.339-1.509a3.475,3.475,0,0,1,2.872,0l3.334,1.52-3.3,1.492,3.3,1.5-3.3,1.492,3.3,1.505-3.339,1.509a3.475,3.475,0,0,1-2.873,0l-3.334-1.52Z" transform="translate(-1081.382 -427.304)" fill="#fff"/>
    </g>
  </g>
</svg>
