<svg xmlns="http://www.w3.org/2000/svg" width="70.197" height="42" viewBox="0 0 70.197 42"><g transform="translate(-153 -111)"><g transform="translate(2.223)"><g transform="translate(-81 -403)"><g transform="translate(262.873 516.02)"><ellipse cx="18.676" cy="18.675" rx="18.676" ry="18.675" fill="#fff" stroke="#000" stroke-width="3.5"/><g transform="translate(10.505 6.614)"><path d="M1279.624,360.936a.624.624,0,0,0-.01.066c0,.008,0,.016,0,.024a.576.576,0,0,0,.012.083.541.541,0,0,0,.023.1.564.564,0,0,0,.031.065.555.555,0,0,0,.06.1c.006.008.009.018.016.026s.027.025.041.037.029.029.045.042a.618.618,0,0,0,.121.074l.012.007,7.3,3.091a.6.6,0,0,0,.232.047c.015,0,.029-.005.042-.006a.627.627,0,0,0,.08.012.6.6,0,0,0,.236-.048l7.38-3.18a.595.595,0,0,0,.137-1.011l-7.185-11.871a.582.582,0,0,0-.888-.327c-.017.01-.034.018-.049.029s-.025.024-.037.036a.594.594,0,0,0-.134.172l-7.4,12.2a.526.526,0,0,0-.028.068.568.568,0,0,0-.035.086A.626.626,0,0,0,1279.624,360.936Zm8.609-3.518v-6.482l5.264,8.7Zm-1.316,5.777-5.17-2.189,5.17-2.168Zm1.316-4.425,5.23,2.171-5.23,2.253Zm-1.211-7.851v6.536l-5.341,2.273Z" transform="translate(-1279.614 -348.159)" stroke="#000" stroke-width="0.5"/><path d="M1294.772,383.272l-7.147,3.221-7.17-3.221a.6.6,0,0,0-.725.9l7.43,10.094a.6.6,0,0,0,.667.213c.013,0,.023-.013.035-.018a.592.592,0,0,0,.31-.217l7.328-10.075a.6.6,0,0,0-.728-.895Zm-7.728,8.821-5.008-6.8,5.008,2.25Zm1.242-.037V387.5l4.927-2.22Z" transform="translate(-1279.614 -370.834)" stroke="#000" stroke-width="0.5"/></g></g><path d="M298.525,19.737a21,21,0,1,1-20.747,21.208A20.989,20.989,0,0,1,298.525,19.737Zm17.6,21.028A17.365,17.365,0,1,0,298.749,58.1,17.4,17.4,0,0,0,316.125,40.764Z" transform="translate(-46.001 494.264)"/><path d="M1679.354-8134.281A17.381,17.381,0,0,1,1662-8151.717,17.382,17.382,0,0,1,1679.427-8169a17.407,17.407,0,0,1,17.3,17.388,17.383,17.383,0,0,1-17.366,17.332Zm-.234-5.367h2.368v-1.993h-2.368Zm-3.805,0h2.434v-1.991h-2.434Zm6.138-20.992v-3.27h-2.438v3.27Zm-3.787,0v-3.276h-2.432v3.276Z" transform="translate(-1426.605 8686.641)" fill="#fff" stroke="rgba(0,0,0,0)" stroke-miterlimit="10" stroke-width="1"/><path d="M-4.37-2.524a2.022,2.022,0,0,1,1.337.639A2.083,2.083,0,0,1-2.51-.406a2.3,2.3,0,0,1-.775,1.834A3.126,3.126,0,0,1-5.4,2.1H-9.265V-6.942h3.72a3.3,3.3,0,0,1,2.125.626,2.089,2.089,0,0,1,.781,1.724A2.013,2.013,0,0,1-3.1-3.2,2.191,2.191,0,0,1-4.37-2.524ZM-6.01-5.431H-7.173v2.2H-6.01a1.4,1.4,0,0,0,.936-.291,1,1,0,0,0,.342-.807,1.011,1.011,0,0,0-.336-.807A1.4,1.4,0,0,0-6.01-5.431ZM-5.868.511A1.283,1.283,0,0,0-4.951.194a1.14,1.14,0,0,0,.336-.872,1.026,1.026,0,0,0-.342-.807,1.322,1.322,0,0,0-.911-.3h-1.3v2.3ZM1.778,2.358A3.767,3.767,0,0,1-.831,1.512a3.02,3.02,0,0,1-.943-2.37H.319A1.6,1.6,0,0,0,.713.291,1.419,1.419,0,0,0,1.791.7a1.385,1.385,0,0,0,.9-.258A.9.9,0,0,0,3.005-.29a.927.927,0,0,0-.239-.665,2.465,2.465,0,0,0-.859-.5L.28-2.085A2.485,2.485,0,0,1-1.554-4.552,2.375,2.375,0,0,1-.682-6.477,3.557,3.557,0,0,1,1.662-7.2a3.545,3.545,0,0,1,2.4.781,2.619,2.619,0,0,1,.9,2.086H2.876A1.343,1.343,0,0,0,2.553-5.3a1.23,1.23,0,0,0-.93-.336A1.214,1.214,0,0,0,.829-5.4a.8.8,0,0,0-.291.652.842.842,0,0,0,.284.639,3.21,3.21,0,0,0,.956.536l1.5.594A2.559,2.559,0,0,1,5.1-.432,2.511,2.511,0,0,1,4.187,1.6,3.63,3.63,0,0,1,1.778,2.358Zm8.86,0A4.754,4.754,0,0,1,7.112,1.021a4.671,4.671,0,0,1-1.33-3.442,4.671,4.671,0,0,1,1.33-3.442A4.754,4.754,0,0,1,10.639-7.2a5.047,5.047,0,0,1,3.2.962A3.647,3.647,0,0,1,15.25-3.661H13.028a2.013,2.013,0,0,0-.8-1.221,2.633,2.633,0,0,0-1.576-.446,2.535,2.535,0,0,0-1.976.781,3.039,3.039,0,0,0-.71,2.125A3.039,3.039,0,0,0,8.675-.3a2.535,2.535,0,0,0,1.976.781A2.633,2.633,0,0,0,12.227.039a2.013,2.013,0,0,0,.8-1.221H15.25A3.647,3.647,0,0,1,13.835,1.4,5.047,5.047,0,0,1,10.639,2.358Z" transform="translate(249.784 537.116)"/></g></g></g></svg>