<svg xmlns="http://www.w3.org/2000/svg" width="20" height="20" viewBox="0 0 20 20">
  <g id="Group_3802" data-name="Group 3802" transform="translate(-216 -736)">
    <g id="Group_3801" data-name="Group 3801">
      <g id="Group_3798" data-name="Group 3798" transform="translate(65 592.799)">
        <circle id="Ellipse_389" data-name="Ellipse 389" cx="10" cy="10" r="10" transform="translate(151 143.201)"/>
        <path id="icons8-lightning-bolt" d="M14.558,13.944a.263.263,0,0,1-.121-.028.279.279,0,0,1-.144-.339L16.4,7.251H14.279a.28.28,0,0,1-.232-.124.276.276,0,0,1-.025-.261L16.811.172A.277.277,0,0,1,17.068,0h2.649a.279.279,0,0,1,.255.392L17.777,5.3h2.08a.28.28,0,0,1,.245.146.277.277,0,0,1-.012.285l-5.3,8.088A.277.277,0,0,1,14.558,13.944Z" transform="translate(144.062 146.334)" fill="#fff"/>
      </g>
    </g>
  </g>
</svg>
