<svg xmlns="http://www.w3.org/2000/svg" width="45" height="45" viewBox="0 0 45 45"><g transform="translate(-13 -414)"><rect width="45" height="45" rx="22.5" transform="translate(13 414)" fill="#38d989"/><path d="M17.165,3.031a4.824,4.824,0,0,0-1.205.2C14.671,3.572,7.112,5.663,7,5.7A5.746,5.746,0,0,0,4.723,7.022a3.266,3.266,0,0,1,1.848-.576h12V5.013C18.571,4.32,18.566,3.031,17.165,3.031ZM6.571,7.3A2.681,2.681,0,0,0,4,9.875v9.161a2.416,2.416,0,0,0,2.411,2.411H19.589A2.416,2.416,0,0,0,22,19.036V9.808a2.639,2.639,0,0,0-2.571-2.5Zm12.214,6a1.071,1.071,0,1,1-1.071,1.071A1.071,1.071,0,0,1,18.786,13.3Z" transform="translate(22.5 424.261)" fill="#fff"/></g></svg>