<svg xmlns="http://www.w3.org/2000/svg" xmlns:xlink="http://www.w3.org/1999/xlink" width="18" height="18" viewBox="0 0 18 18">
  <defs>
    <clipPath id="clip-path">
      <rect width="18" height="18" fill="none"/>
    </clipPath>
  </defs>
  <g id="Repeat_Grid_3" data-name="Repeat Grid 3" clip-path="url(#clip-path)">
    <g id="Group_2252" data-name="Group 2252" transform="translate(-21 -348)">
      <path id="icons8-geography" d="M11,2a9,9,0,1,0,9,9A9.006,9.006,0,0,0,11,2Zm-.391.828V6.3h-2.8a9.606,9.606,0,0,1,.5-1.208A3.852,3.852,0,0,1,10.609,2.828Zm.783,0a3.852,3.852,0,0,1,2.3,2.259,9.606,9.606,0,0,1,.5,1.208h-2.8ZM8.723,3.1A6.726,6.726,0,0,0,7.607,4.738,10.75,10.75,0,0,0,6.988,6.3H4.265A8.215,8.215,0,0,1,8.723,3.1Zm4.553,0A8.215,8.215,0,0,1,17.735,6.3H15.012a10.749,10.749,0,0,0-.618-1.558A6.726,6.726,0,0,0,13.277,3.1ZM3.766,7.1h3a16.2,16.2,0,0,0-.448,3.513H2.795A8.18,8.18,0,0,1,3.766,7.1Zm3.805,0h3.037v3.513H7.1A15.352,15.352,0,0,1,7.572,7.1Zm3.82,0h3.037a15.352,15.352,0,0,1,.472,3.513h-3.51Zm3.845,0h3a8.18,8.18,0,0,1,.971,3.513H15.684A16.2,16.2,0,0,0,15.236,7.1ZM2.8,11.391H6.314A16.145,16.145,0,0,0,6.764,14.9h-3A8.174,8.174,0,0,1,2.8,11.391Zm4.3,0h3.512V14.9H7.572A15.311,15.311,0,0,1,7.1,11.391Zm4.294,0H14.9a15.311,15.311,0,0,1-.475,3.513H11.391Zm4.294,0H19.2a8.174,8.174,0,0,1-.968,3.513h-3A16.145,16.145,0,0,0,15.686,11.391ZM4.268,15.7H6.988a10.749,10.749,0,0,0,.618,1.558A6.726,6.726,0,0,0,8.723,18.9,8.218,8.218,0,0,1,4.268,15.7Zm3.541,0h2.8v3.467a3.852,3.852,0,0,1-2.3-2.259A9.606,9.606,0,0,1,7.808,15.7Zm3.583,0h2.8a9.606,9.606,0,0,1-.5,1.208,3.852,3.852,0,0,1-2.3,2.259Zm3.62,0h2.721A8.218,8.218,0,0,1,13.277,18.9a6.726,6.726,0,0,0,1.117-1.634A10.749,10.749,0,0,0,15.012,15.7Z" transform="translate(19 346)"/>
    </g>
  </g>
</svg>
