<svg xmlns="http://www.w3.org/2000/svg" width="70.897" height="69.872" viewBox="0 0 70.897 69.872"><g transform="translate(-230.3 -222.119)"><g transform="matrix(0.966, 0.259, -0.259, 0.966, 121.787, -1807.875)"><rect width="53.373" height="35.457" rx="3.459" transform="translate(646.541 1943.684)" fill="#0d874a" stroke="#8de7bc" stroke-miterlimit="10" stroke-width="1.581"/><path d="M700.41,1935.632l-17.162-11.938a1.637,1.637,0,0,0-2.278.409l-2.177,3.129,4.746.8a1.637,1.637,0,0,1,1.339,1.888l-5.215,30.713a1.636,1.636,0,0,1-1.635,1.361l2.723,1.894a1.637,1.637,0,0,0,2.278-.409l17.79-25.574A1.637,1.637,0,0,0,700.41,1935.632Z" fill="#8de7bc"/><path d="M685.023,1945.688a3.721,3.721,0,0,1-2.283,1.544.756.756,0,0,1-.29-1.484l.023,0a2.3,2.3,0,0,0,1.3-.927c.378-.544.373-.981-.046-1.272-.355-.247-.761-.065-1.735.622-.844.59-2.011,1.421-3.16.622a2.293,2.293,0,0,1-.427-3.4,4.175,4.175,0,0,1,1.786-1.455.765.765,0,0,1,.565,1.417,2.992,2.992,0,0,0-1.1.911c-.393.564-.373.981.046,1.272.251.174.708-.127,1.424-.621.924-.66,2.177-1.525,3.472-.624A2.29,2.29,0,0,1,685.023,1945.688Z" fill="#0d874a"/><path d="M685.859,1946.58a.24.24,0,0,1-.33.08l-.024-.016-7.939-5.523a.254.254,0,1,1,.29-.418l7.94,5.523a.241.241,0,0,1,.08.331Z" fill="#0d874a"/><circle cx="6.815" cy="6.815" r="6.815" transform="translate(675.184 1936.978)" fill="none" stroke="#0d874a" stroke-miterlimit="10" stroke-width="0.79"/><path d="M679.663,1960.638l5.215-30.713a1.637,1.637,0,0,0-1.339-1.888l-4.746-.8-15.613,22.445a1.637,1.637,0,0,0,.409,2.278L678.028,1962A1.636,1.636,0,0,0,679.663,1960.638Z" fill="#0d874a" opacity="0.7"/><rect width="34.426" height="24.179" rx="1.637" transform="translate(654.902 1958.52) rotate(-80.363)" fill="#8de7bc"/><path d="M673.244,1944a3.719,3.719,0,0,1-1.408,2.368.756.756,0,1,1-.9-1.219l.02-.014a2.306,2.306,0,0,0,.778-1.39c.111-.653-.08-1.047-.583-1.132-.426-.072-.716.266-1.3,1.3-.513.894-1.215,2.143-2.6,1.909a2.294,2.294,0,0,1-1.833-2.893,4.167,4.167,0,0,1,1-2.076.764.764,0,0,1,1.114,1.041,3,3,0,0,0-.6,1.291c-.115.677.08,1.046.583,1.132.3.051.587-.417,1.024-1.169.556-.99,1.321-2.305,2.877-2.041A2.289,2.289,0,0,1,673.244,1944Z" fill="#0d874a"/><path d="M674.381,1944.453a.24.24,0,0,1-.265.213l-.028-.005-9.535-1.619a.255.255,0,1,1,.085-.5l9.535,1.62a.24.24,0,0,1,.213.265Z" fill="#0d874a"/><circle cx="6.815" cy="6.815" r="6.815" transform="translate(662.887 1936.759)" fill="none" stroke="#0d874a" stroke-miterlimit="10" stroke-width="0.79"/><rect width="55.987" height="37.193" rx="3.629" transform="translate(645.234 1947.854)" fill="#0d874a" stroke="#8de7bc" stroke-miterlimit="10" stroke-width="1.581"/><line x1="36.478" transform="translate(645.234 1954.698)" fill="#0d874a"/><rect width="36.478" height="1.581" rx="0.79" transform="translate(645.234 1953.908)" fill="#8de7bc"/><line x1="12.196" transform="translate(689.393 1954.698)" fill="#0d874a"/><rect width="12.196" height="1.581" rx="0.79" transform="translate(689.393 1953.908)" fill="#8de7bc"/><line x1="55.38" transform="translate(645.234 1977.346)" fill="#0d874a"/><rect width="55.38" height="1.581" transform="translate(645.234 1976.555)" fill="#8de7bc"/><path d="M6.539,0H19.311a.8.8,0,0,1,.8.8V12.276a.8.8,0,0,1-.8.8H6.539A6.539,6.539,0,0,1,0,6.539v0A6.539,6.539,0,0,1,6.539,0Z" transform="translate(683.638 1959.863)" fill="#0d874a" stroke="#8de7bc" stroke-miterlimit="10" stroke-width="1.581"/><circle cx="1.624" cy="1.624" r="1.624" transform="translate(688.307 1964.778)" fill="#8de7bc"/></g></g></svg>