<svg xmlns="http://www.w3.org/2000/svg" width="14.954" height="17.153" viewBox="0 0 14.954 17.153"><g transform="translate(-246.206 -121.847)"><g transform="translate(246.206 121.847)"><g transform="translate(0 0)"><path d="M33.818,5.956,35.5,5.344a2.036,2.036,0,1,1,2.644-3.1L39.3,3.275l.23-1.539a2.036,2.036,0,1,1,4.015.678l1.585-.577a1.507,1.507,0,0,1,1.93.9l.686,1.886a.5.5,0,0,1-.3.643L39.609,8.12h7.573a.5.5,0,0,1,.5.5v7.025a1.507,1.507,0,0,1-1.505,1.505H36.142a1.507,1.507,0,0,1-1.505-1.505V9.93l-.388.141a.5.5,0,0,1-.643-.3l-.687-1.886A1.507,1.507,0,0,1,33.818,5.956Zm8.847,10.193h3.513a.5.5,0,0,0,.5-.5V9.124H42.665Zm-2.007,0h1V9.124h-1ZM37.479,3a1.032,1.032,0,1,0-.331,1.744L38.78,4.15Zm4.678-1.8a1.032,1.032,0,0,0-1.63.68L40.27,3.608,41.9,3.014A1.037,1.037,0,0,0,42.157,1.2Zm-.236,5.007,4.715-1.716L46.121,3.08a.5.5,0,0,0-.643-.3L41.235,4.325ZM40.035,6.9l.943-.343-.686-1.886-.943.343Zm-4.395,8.75a.5.5,0,0,0,.5.5h3.512V9.124h-2.8l-1.211.441v6.082ZM33.862,7.542l.515,1.415L39.092,7.24l-.686-1.886L34.162,6.9A.5.5,0,0,0,33.862,7.542Z" transform="translate(-32.828 0.001)" fill="#37d888"/></g></g></g></svg>