<svg xmlns="http://www.w3.org/2000/svg" width="16.608" height="17.596" viewBox="0 0 16.608 17.596">
  <g id="gift-4-04-04" transform="translate(-0.2 -0.582)">
    <path id="Path_3368" data-name="Path 3368" d="M9.929,7.642c-.353-.177-.618-.353-.8-.442a2.727,2.727,0,0,0-.883.442c-.618.265-1.413.707-2.65,1.325v7.862l3.445,2.12,3.445-1.678v-8.3C11.342,8.348,10.547,8,9.929,7.642Z" transform="translate(-0.63 -0.772)" fill="#20201d"/>
    <path id="Path_3369" data-name="Path 3369" d="M16.808,5.192,14.07,3.6a3.926,3.926,0,0,0-.177-1.59A3.369,3.369,0,0,0,10.359.686,3.406,3.406,0,0,0,8.5,2.1,3.3,3.3,0,0,0,5.324.686C2.232,1.216,2.762,3.425,2.762,3.6L.2,4.662V7.135L.642,7.4.73,13.319l2.385,1.5V7.135l.442-.265s.707-.353,1.5-.8c.442-.177.8-.353,1.148-.53H6.3c-.353-.177-.8-.265-1.148-.442-.8-.353-1.678-.8-1.855-1.678V3.071C3.38,1.923,4.529,1.393,5.5,1.216A2.836,2.836,0,0,1,7,1.393a1.848,1.848,0,0,1,.53.353h0l.088.088a3.841,3.841,0,0,1,.353.618,3.581,3.581,0,0,1,.442.8c.088-.088.088-.177.177-.265a.308.308,0,0,0,.088-.177,3.74,3.74,0,0,1,.442-.618,1.9,1.9,0,0,1,1.06-.8c.088,0,.177-.088.265-.088a4.28,4.28,0,0,1,1.5,0,1.941,1.941,0,0,1,1.767,2.032v.088c-.265,1.06-1.413,1.5-2.3,1.855l-.8.265h.088l1.06.53a10.546,10.546,0,0,0,1.413.707l.353.353V15.7l2.739-1.325v-6.1l.53-.265Z" transform="translate(0 0)" fill="#20201d"/>
    <path id="Path_3370" data-name="Path 3370" d="M8.126,4.656s-.442-2.3-2.12-1.767c-.618.353-1.06.53-.353.883A22.993,22.993,0,0,0,8.126,4.656Z" transform="translate(-0.593 -0.26)" fill="#20201d"/>
    <path id="Path_3371" data-name="Path 3371" d="M10.8,4.656s.442-2.3,2.12-1.767c.618.353,1.06.53.353.883C12.478,4.126,10.8,4.656,10.8,4.656Z" transform="translate(-1.236 -0.26)" fill="#20201d"/>
  </g>
</svg>
