<svg xmlns="http://www.w3.org/2000/svg" width="16" height="16" viewBox="0 0 16 16">
  <g id="Group_4964" data-name="Group 4964" transform="translate(-23 -91)">
    <g id="Group_4963" data-name="Group 4963" transform="translate(-21 -44)">
      <g id="Path_5237" data-name="Path 5237" transform="translate(44 135)" fill="none">
        <path d="M3,0H13a3,3,0,0,1,3,3V13a3,3,0,0,1-3,3H3a3,3,0,0,1-3-3V3A3,3,0,0,1,3,0Z" stroke="none"/>
        <path d="M 3 1 C 1.897199630737305 1 1 1.897199630737305 1 3 L 1 13 C 1 14.1028003692627 1.897199630737305 15 3 15 L 13 15 C 14.1028003692627 15 15 14.1028003692627 15 13 L 15 3 C 15 1.897199630737305 14.1028003692627 1 13 1 L 3 1 M 3 0 L 13 0 C 14.65684986114502 0 16 1.34315013885498 16 3 L 16 13 C 16 14.65684986114502 14.65684986114502 16 13 16 L 3 16 C 1.34315013885498 16 0 14.65684986114502 0 13 L 0 3 C 0 1.34315013885498 1.34315013885498 0 3 0 Z" stroke="none" fill="#000"/>
      </g>
      <path id="icons8-google-play" d="M11.755,8.553,7.078,13.23A.824.824,0,0,1,7,12.872V4.233a.824.824,0,0,1,.078-.358Zm.534.534,1.564,1.564-5.553,3a.881.881,0,0,1-.647.076Zm0-1.068L7.655,3.385a.862.862,0,0,1,.645.073l5.553,3Zm4.481.534a.882.882,0,0,1-.463.776l-1.758.95L12.823,8.553l1.725-1.725,1.758.95A.882.882,0,0,1,16.77,8.553Z" transform="translate(40.508 134.564)"/>
    </g>
  </g>
</svg>
