<svg xmlns="http://www.w3.org/2000/svg" width="45" height="45" viewBox="0 0 45 45">
  <g id="Group_3744" data-name="Group 3744" transform="translate(-253 -90)">
    <g id="Group_3740" data-name="Group 3740">
      <g id="Group_3734" data-name="Group 3734" transform="translate(253 90)">
        <g id="Ellipse_367" data-name="Ellipse 367" transform="translate(0 0)">
          <circle id="Ellipse_378" data-name="Ellipse 378" cx="22.5" cy="22.5" r="22.5" transform="translate(0 0)" fill="#292929"/>
        </g>
        <g id="Path_3808" data-name="Path 3808" transform="translate(6.75 13.692)">
          <path id="Path_3856" data-name="Path 3856" d="M524.247,199.658a1.35,1.35,0,0,1-.958-2.3l8.246-8.323a1.35,1.35,0,0,1,1.85-.065l5.134,4.5c2.383-2.462,8.836-9.113,10.62-10.91a1.35,1.35,0,1,1,1.915,1.9c-2.2,2.212-11.486,11.806-11.488,11.806a1.348,1.348,0,0,1-1.861.077l-5.146-4.509-7.353,7.42A1.34,1.34,0,0,1,524.247,199.658Z" transform="translate(-522.898 -182.162)" fill="#292929"/>
        </g>
        <g id="Path_3809" data-name="Path 3809" transform="translate(27.853 11.503)">
          <path id="Path_3857" data-name="Path 3857" d="M540.723,190.275a1.348,1.348,0,0,1-1.339-1.213l-.524-5.132-5.189.171h-.043a1.349,1.349,0,0,1-.045-2.7l6.449-.214a1.369,1.369,0,0,1,1.386,1.215l.65,6.383a1.349,1.349,0,0,1-1.206,1.48C540.815,190.273,540.77,190.275,540.723,190.275Z" transform="translate(-532.278 -181.188)" fill="#292929"/>
        </g>
        <g id="Group_3739" data-name="Group 3739">
          <g id="Path_3808-2" data-name="Path 3808-2" transform="translate(6.75 13.692)">
            <path id="Path_3858" data-name="Path 3858" d="M524.247,199.658a1.35,1.35,0,0,1-.958-2.3l8.246-8.323a1.35,1.35,0,0,1,1.85-.065l5.134,4.5c2.383-2.462,8.836-9.113,10.62-10.91a1.35,1.35,0,1,1,1.915,1.9c-2.2,2.212-11.486,11.806-11.488,11.806a1.348,1.348,0,0,1-1.861.077l-5.146-4.509-7.353,7.42A1.34,1.34,0,0,1,524.247,199.658Z" transform="translate(-522.898 -182.162)" fill="#fff"/>
          </g>
        </g>
        <g id="Path_3809-2" data-name="Path 3809-2" transform="translate(27.853 11.503)">
          <path id="Path_3859" data-name="Path 3859" d="M540.723,190.275a1.348,1.348,0,0,1-1.339-1.213l-.524-5.132-5.189.171h-.043a1.349,1.349,0,0,1-.045-2.7l6.449-.214a1.369,1.369,0,0,1,1.386,1.215l.65,6.383a1.349,1.349,0,0,1-1.206,1.48C540.815,190.273,540.77,190.275,540.723,190.275Z" transform="translate(-532.278 -181.188)" fill="#fff"/>
        </g>
      </g>
    </g>
  </g>
</svg>
