<svg xmlns="http://www.w3.org/2000/svg" width="85.153" height="84.073" viewBox="0 0 85.153 84.073"><g transform="translate(397.001 -9205.904)"><g transform="matrix(0.966, -0.259, 0.259, 0.966, -548.182, 9007.289)"><path d="M19.864,60.686a23.524,23.524,0,0,1-8.718-2.359,25.164,25.164,0,0,1-8.4-6.738A29.361,29.361,0,0,1-2.593,41.481,34.013,34.013,0,0,1-3.932,29.039,36.183,36.183,0,0,1-.773,16.633,34.275,34.275,0,0,1,6.081,6.649,29.686,29.686,0,0,1,15.556.15,25.358,25.358,0,0,1,25.51-1.912c.351,0,.707.008,1.058.023A23.572,23.572,0,0,1,37.023,1.038c.345.19.69.392,1.027.6-.223-.016-.466-.031-.723-.042-.351-.015-.707-.023-1.058-.023a25.364,25.364,0,0,0-9.954,2.062,29.686,29.686,0,0,0-9.475,6.5,34.269,34.269,0,0,0-6.854,9.984A36.142,36.142,0,0,0,6.827,32.523,34.013,34.013,0,0,0,8.166,44.966,29.378,29.378,0,0,0,13.5,55.074a25.667,25.667,0,0,0,6.364,5.61Z" transform="translate(93.631 251.631)"/><g transform="translate(98.922 250.304)"><path d="M29.316,15.514A24.3,24.3,0,0,1,39.741,13.2a22.061,22.061,0,0,1,9.591,2.276,23.209,23.209,0,0,1,7.734,6.219A27.162,27.162,0,0,1,62,31.256,32.089,32.089,0,0,1,63.171,42.5,35.007,35.007,0,0,1,60.6,53.381a34,34,0,0,1-5.821,9.432,29.675,29.675,0,0,1-8.664,6.842,24.8,24.8,0,0,1-10.1,2.811,22.178,22.178,0,0,1-9.686-1.655A22.854,22.854,0,0,1,18.154,65a26.62,26.62,0,0,1-5.5-9.605,31.785,31.785,0,0,1-1.5-11.735,34.973,34.973,0,0,1,2.664-11.509,33.856,33.856,0,0,1,6.27-9.846,29.21,29.21,0,0,1,9.229-6.794Z" transform="translate(-7.183 -9.938)" fill="#38d989" stroke="#707070" stroke-width="1"/><g transform="translate(0 0)"><g transform="translate(-8.683 -7.731)"><path d="M 35.24166488647461 75.05728912353516 C 32.95260620117188 75.05728912353516 30.67063522338867 74.75777435302734 28.45913505554199 74.16706085205078 L 28.4563045501709 74.16630554199219 L 28.45347595214844 74.16553497314453 C 24.71310615539551 73.14291381835938 21.1889762878418 71.25796508789062 18.26209449768066 68.71445465087891 C 15.15828514099121 66.00677490234375 12.70231533050537 62.74295425415039 10.96097564697266 59.01241302490234 C 9.042705535888672 54.90069198608398 7.957905292510986 50.51825332641602 7.736615180969238 45.98666381835938 C 7.252995491027832 36.6924934387207 10.06944561004639 27.47534370422363 15.66730499267578 20.03632354736328 C 18.29866600036621 16.5208625793457 21.52187538146973 13.55504322052002 25.24584579467773 11.22329235076904 C 28.88387489318848 8.941342353820801 32.88818359375 7.500592708587646 37.14688491821289 6.941493034362793 C 38.24115371704102 6.801512718200684 39.35198593139648 6.730742931365967 40.4517936706543 6.730742931365967 C 43.39159393310547 6.730742931365967 46.28881454467773 7.224032878875732 49.0629768371582 8.19691276550293 L 49.06562423706055 8.197833061218262 L 49.06826400756836 8.198782920837402 C 52.68407440185547 9.489643096923828 56.03661346435547 11.60056304931641 58.76344680786133 14.30333232879639 C 61.60014724731445 17.1212329864502 63.8151741027832 20.42157363891602 65.34779357910156 24.11345291137695 C 67.00162506103516 28.09987258911133 67.90562438964844 32.30825424194336 68.03475189208984 36.62192153930664 C 68.17739868164062 41.05998229980469 67.57532501220703 45.46060180664062 66.24521636962891 49.69933319091797 C 64.9674072265625 53.78980255126953 63.04755401611328 57.62712097167969 60.53937530517578 61.10347366333008 C 58.10347366333008 64.49764251708984 55.12018585205078 67.41934967041016 51.67385482788086 69.78541564941406 C 48.2420654296875 72.14662933349609 44.42874526977539 73.75253295898438 40.34064483642578 74.55792236328125 C 38.66564559936523 74.88923645019531 36.94984436035156 75.05728912353516 35.24166488647461 75.05728912353516 Z M 40.34577560424805 14.33552265167236 C 39.44979476928711 14.33552265167236 38.54536437988281 14.39719295501709 37.65761566162109 14.51881313323975 C 34.38957595825195 14.97676277160645 31.31666564941406 16.10617256164551 28.52726554870605 17.87525367736816 C 25.63990592956543 19.70462226867676 23.14034461975098 22.02139282226562 21.09765625 24.76145362854004 C 16.7280158996582 30.58900260925293 14.51278495788574 37.80246353149414 14.85836505889893 45.07529449462891 C 15.0231351852417 48.59949111938477 15.85615539550781 52.00988388061523 17.33431625366211 55.21249389648438 C 18.6623649597168 58.08609390258789 20.53991508483887 60.60519409179688 22.91457557678223 62.69934463500977 C 26.51066589355469 65.87018585205078 31.13135528564453 67.61646270751953 35.92539596557617 67.61646270751953 C 37.19576644897461 67.61646270751953 38.47267532348633 67.49205017089844 39.72064590454102 67.24669647216797 C 42.89529418945312 66.63863372802734 45.85390472412109 65.40787506103516 48.51908493041992 63.58768463134766 C 51.23195648193359 61.73754119873047 53.57965469360352 59.44854354858398 55.49753570556641 56.78389358520508 C 57.52310562133789 53.98501205444336 59.06192398071289 50.89315414428711 60.07277679443359 47.59209442138672 C 61.08362579345703 44.29103469848633 61.53988647460938 40.86767196655273 61.42889404296875 37.41709136962891 C 61.33058547973633 34.02531433105469 60.61876678466797 30.7208423614502 59.31312561035156 27.5923023223877 C 58.11995697021484 24.73553276062012 56.3953742980957 22.1862621307373 54.18742370605469 20.01556205749512 C 52.09321594238281 17.96151924133301 49.52130889892578 16.36514854431152 46.75006866455078 15.3995885848999 C 44.68393325805664 14.693528175354 42.52923202514648 14.33552265167236 40.34577560424805 14.33552265167236 Z" stroke="none"/><path d="M 40.4517936706543 7.730743408203125 C 39.39311981201172 7.730743408203125 38.33283615112305 7.797927856445312 37.27705001831055 7.9329833984375 C 33.1906623840332 8.469459533691406 29.26800155639648 9.880821228027344 25.77655029296875 12.07085418701172 C 22.17158126831055 14.32807922363281 19.01510238647461 17.23249053955078 16.46634292602539 20.63760375976562 C 10.99971008300781 27.9022331237793 8.262985229492188 36.85846328735352 8.735427856445312 45.93789291381836 C 8.949317932128906 50.31822204589844 10.01296997070312 54.61515045166016 11.86711120605469 58.58944320678711 C 13.53853988647461 62.17020416259766 15.94024276733398 65.36189270019531 18.91802978515625 67.95964050292969 C 21.7495231628418 70.42024230957031 25.09875106811523 72.21163940429688 28.71718978881836 73.20092010498047 C 30.85205459594727 73.77116394042969 33.04601669311523 74.05728912353516 35.24169540405273 74.05728912353516 C 36.8836555480957 74.05728912353516 38.52630996704102 73.89741516113281 40.1473503112793 73.5767822265625 C 44.07762145996094 72.80248260498047 47.80773162841797 71.23162078857422 51.10786437988281 68.96099090576172 C 54.44871139526367 66.66735076904297 57.36562347412109 63.81066131591797 59.72841262817383 60.51836395263672 C 62.16896057128906 57.1357536315918 64.04736328125 53.38129425048828 65.29108428955078 49.39992141723633 C 66.58433532714844 45.27868270874023 67.17396545410156 40.968994140625 67.03520202636719 36.65183258056641 L 67.03520202636719 36.6518440246582 C 66.91017150878906 32.47525405883789 66.02539825439453 28.35636138916016 64.42420959472656 24.49686431884766 C 62.95021057128906 20.94619369506836 60.78694152832031 17.72296142578125 58.05947113037109 15.01356506347656 C 55.41843414306641 12.39582061767578 52.23411178588867 10.39081573486328 48.73204040527344 9.140556335449219 C 46.06399536132812 8.20489501953125 43.26397705078125 7.730743408203125 40.4517936706543 7.730743408203125 M 35.92538833618164 68.616455078125 C 30.93599700927734 68.616455078125 26.06309509277344 66.80876159667969 22.25315093994141 63.44936370849609 C 19.7890625 61.27634429931641 17.80465316772461 58.61385345458984 16.42634963989258 55.63156127929688 C 14.9011116027832 52.32692337036133 14.02947235107422 48.75844192504883 13.85949325561523 45.12275314331055 C 13.50205993652344 37.60047149658203 15.77813339233398 30.18889236450195 20.29593276977539 24.16377258300781 C 22.40398025512695 21.33602142333984 25.01229095458984 18.91844177246094 27.99169158935547 17.03076934814453 C 30.88249206542969 15.19736480712891 34.13183212280273 14.00311279296875 37.52186965942383 13.528076171875 C 38.46017456054688 13.39952087402344 39.40403747558594 13.33551788330078 40.34579467773438 13.33551788330078 C 42.62931823730469 13.33551788330078 44.90329742431641 13.71136474609375 47.07621002197266 14.45426940917969 C 50.00588989257812 15.47456359863281 52.67370223999023 17.13016510009766 54.88848114013672 19.30246353149414 C 57.17961883544922 21.5549430847168 58.99771118164062 24.24242401123047 60.23599243164062 27.20716094970703 C 61.5838508605957 30.43689346313477 62.32698059082031 33.88672256469727 62.42837142944336 37.38494110107422 C 62.65852355957031 44.53991317749023 60.50616073608398 51.56878280639648 56.30916213989258 57.36806488037109 C 54.32897186279297 60.11929321289062 51.88355255126953 62.50357055664062 49.08306121826172 64.41347503662109 C 46.32043075561523 66.30020141601562 43.19927215576172 67.59858703613281 39.9135627746582 68.22789001464844 C 38.58802032470703 68.48851013183594 37.25234603881836 68.616455078125 35.92538833618164 68.616455078125 M 40.45178985595703 5.730743408203125 C 43.50455093383789 5.730743408203125 46.51309967041016 6.24298095703125 49.39390182495117 7.253242492675781 L 49.39920043945312 7.255104064941406 L 49.40447998046875 7.256980895996094 C 53.15744018554688 8.596809387207031 56.63714218139648 10.78780364990234 59.46739959716797 13.59309387207031 C 62.39915084838867 16.50542449951172 64.68781280517578 19.91545104980469 66.27136993408203 23.73004150390625 C 67.97199249267578 27.82923126220703 68.90151977539062 32.15647125244141 69.0343017578125 36.59199142456055 C 69.18050384521484 41.14038467407227 68.56317138671875 45.65253448486328 67.19933319091797 49.99873352050781 C 65.89024353027344 54.18936920166016 63.92318725585938 58.12169647216797 61.353271484375 61.68448257446289 L 61.353271484375 61.68448257446289 C 58.84817123413086 65.17507171630859 55.7819709777832 68.177978515625 52.23985290527344 70.60980987548828 C 48.69575119018555 73.04830169677734 44.75675201416016 74.70713043212891 40.53394317626953 75.5390625 C 38.79595184326172 75.88283538818359 37.0148811340332 76.05729675292969 35.24169158935547 76.05729675292969 C 32.86555099487305 76.05729675292969 30.49674987792969 75.74637603759766 28.20107269287109 75.13318634033203 L 28.19540023803711 75.13166046142578 L 28.18975067138672 75.13011932373047 C 24.3054313659668 74.06815338134766 20.64568328857422 72.11066436767578 17.60615158081055 69.46926116943359 C 14.39517211914062 66.6680908203125 11.85551071166992 63.29305267333984 10.05482482910156 59.43538284301758 C 8.081985473632812 55.20667266845703 6.966110229492188 50.69960403442383 6.738006591796875 46.0394401550293 C 6.242523193359375 36.50923538208008 9.129470825195312 27.06204223632812 14.86717987060547 19.43648910522461 C 17.5738639831543 15.82106018066406 20.8871955871582 12.77259063720703 24.71516036987305 10.375732421875 C 28.47513198852539 8.017265319824219 32.61442184448242 6.5279541015625 37.0167121887207 5.950004577636719 L 37.02000045776367 5.949562072753906 L 37.02329254150391 5.949142456054688 C 38.15625 5.804222106933594 39.30976104736328 5.730743408203125 40.45178985595703 5.730743408203125 Z M 46.4239616394043 16.34494018554688 C 44.46307373046875 15.67517852783203 42.41801071166992 15.33552551269531 40.34579086303711 15.33552551269531 C 39.49613189697266 15.33552551269531 38.63851547241211 15.39392852783203 37.79661560058594 15.50911712646484 C 34.66870498657227 15.94783020019531 31.73021697998047 17.02803802490234 29.06287002563477 18.71973419189453 C 26.27867126464844 20.48372268676758 23.86878967285156 22.71738433837891 21.8994026184082 25.35913467407227 L 21.89773178100586 25.36137390136719 L 21.89606094360352 25.36359405517578 C 17.66730117797852 31.00324249267578 15.52267074584961 37.98680114746094 15.85724258422852 45.02782440185547 C 16.0159912109375 48.42333221435547 16.81840133666992 51.70844268798828 18.24225997924805 54.79343414306641 C 19.51148986816406 57.53972244262695 21.30615997314453 59.94762420654297 23.57599258422852 61.94933319091797 C 26.98921966552734 64.95893096923828 31.37503051757812 66.616455078125 35.92539215087891 66.616455078125 C 37.13117218017578 66.616455078125 38.34317016601562 66.49835968017578 39.5277214050293 66.26546478271484 L 39.53253173828125 66.2645263671875 L 39.5373420715332 66.26359558105469 C 42.57167053222656 65.68243408203125 45.40381240844727 64.50429534912109 47.95511245727539 62.76188278198242 C 50.57205200195312 60.9771728515625 52.83624267578125 58.76959228515625 54.6859016418457 56.19972229003906 L 54.68742370605469 56.19761276245117 L 54.68894958496094 56.19549560546875 C 56.64836120605469 53.48805236816406 58.13803100585938 50.49493408203125 59.11660003662109 47.29929351806641 C 60.09516143798828 44.10365295410156 60.53684997558594 40.78962326049805 60.42940139770508 37.44924163818359 L 60.42930221557617 37.44606399536133 L 60.4292106628418 37.4428825378418 C 60.33456039428711 34.17717361450195 59.6485595703125 30.99253463745117 58.39027404785156 27.97743225097656 C 57.24880981445312 25.24450302124023 55.59882354736328 22.80547332763672 53.48635101318359 20.72865295410156 C 51.49824523925781 18.77868270874023 49.05577850341797 17.26238250732422 46.4239616394043 16.34494018554688 Z" stroke="none" fill="#38d989"/></g><path d="M25.409,24.65a14.729,14.729,0,0,0-1.624-1.108,14.43,14.43,0,0,0-5.527-1.88q-.408-.148-.8-.332t-.774-.4q-.379-.219-.741-.471t-.7-.537a2.906,2.906,0,0,1-.372-.492,3.184,3.184,0,0,1-.269-.57,3.477,3.477,0,0,1-.16-.629,3.739,3.739,0,0,1-.044-.67,5.288,5.288,0,0,1,0-.739A5.5,5.5,0,0,1,15,14.685a3.233,3.233,0,0,1,.47-.628,2.916,2.916,0,0,1,.579-.468A2.577,2.577,0,0,1,16.7,13.3a2.305,2.305,0,0,1,.694-.085,3.751,3.751,0,0,1,.666.014,3.655,3.655,0,0,1,1.252.374,3.748,3.748,0,0,1,.563.352,1.558,1.558,0,0,1,.483.447,2.529,2.529,0,0,1,.33.676,5.25,5.25,0,0,1,.2.9,11.122,11.122,0,0,1,.1,1.121l6.719-1.025a11.076,11.076,0,0,0-.183-1.836,10.34,10.34,0,0,0-.476-1.724,9.527,9.527,0,0,0-.754-1.571,8.744,8.744,0,0,0-1.017-1.374,8.147,8.147,0,0,0-1.326-1.124,7.738,7.738,0,0,0-1.5-.792,7.62,7.62,0,0,0-1.632-.442A7.8,7.8,0,0,0,19.1,7.14l-.208-4.992-2.944.424.219,5.006a10.391,10.391,0,0,0-1.732.56A11.21,11.21,0,0,0,12.788,9a12.092,12.092,0,0,0-1.523,1.147,12.946,12.946,0,0,0-1.37,1.41,9.717,9.717,0,0,0-1.034,1.57,10.134,10.134,0,0,0-1.1,3.586A9.768,9.768,0,0,0,7.726,18.6,9.832,9.832,0,0,0,7.9,20.412,9.108,9.108,0,0,0,8.4,22.1,8.317,8.317,0,0,0,9.192,23.6a7.586,7.586,0,0,0,1.07,1.277q.848.535,1.732.99t1.793.828q.911.373,1.85.664t1.9.5a6.359,6.359,0,0,1,2.305.93,6.547,6.547,0,0,1,.674.506,3.54,3.54,0,0,1,.368.559,3.862,3.862,0,0,1,.266.63,4.2,4.2,0,0,1,.158.684,4.516,4.516,0,0,1,.046.723,3.745,3.745,0,0,1,.014.665,3.931,3.931,0,0,1-.1.661,4.005,4.005,0,0,1-.212.639,3.957,3.957,0,0,1-.319.6,3.875,3.875,0,0,1-.519.5,3.548,3.548,0,0,1-.581.377,3.221,3.221,0,0,1-.626.245,2.944,2.944,0,0,1-.651.1,3.793,3.793,0,0,1-.846.154,3.543,3.543,0,0,1-.832-.043,3.44,3.44,0,0,1-.791-.237,3.5,3.5,0,0,1-.723-.426,4.534,4.534,0,0,1-.586-.746,4.976,4.976,0,0,1-.434-.868,5.458,5.458,0,0,1-.272-.966,5.908,5.908,0,0,1-.1-1.034L6.909,32.651l.013.276A10.363,10.363,0,0,0,7.1,35.058a9.459,9.459,0,0,0,.593,1.958,8.521,8.521,0,0,0,.977,1.713A7.724,7.724,0,0,0,10,40.127a10.424,10.424,0,0,0,1.6.911,10.3,10.3,0,0,0,3.507.9,10.714,10.714,0,0,0,1.846-.019l.2,4.556,3.128-.567-.184-4.3a9.56,9.56,0,0,0,1.688-.507,10.378,10.378,0,0,0,1.6-.814,11.254,11.254,0,0,0,1.479-1.1,12.1,12.1,0,0,0,1.324-1.362,10.373,10.373,0,0,0,.91-1.565,10.6,10.6,0,0,0,.626-1.693,10.478,10.478,0,0,0,.328-1.767,10.023,10.023,0,0,0,.015-1.793,10.008,10.008,0,0,0-.2-1.846,9.19,9.19,0,0,0-.521-1.71,8.345,8.345,0,0,0-.828-1.522A7.586,7.586,0,0,0,25.409,24.65Z" transform="translate(12.647 8.864)" fill="#fff"/></g></g></g></g></svg>