<svg xmlns="http://www.w3.org/2000/svg" width="20" height="20" viewBox="0 0 20 20"><path d="M10 0c5.523 0 10 4.477 10 10s-4.477 10-10 10S0 15.523 0 10 4.477 0 10 0zm2.757 14.172A4.977 4.977 0 0110 15a4.977 4.977 0 01-2.756-.828l-2.149 2.149A7.965 7.965 0 0010 18c1.848 0 3.55-.627 4.905-1.68zM2 10c0 1.848.627 3.55 1.68 4.905l2.148-2.148A4.977 4.977 0 015 10c0-1.02.305-1.967.828-2.757L3.68 5.095A7.965 7.965 0 002 10zm14.32-4.905l-2.148 2.149C14.695 8.034 15 8.98 15 10c0 1.02-.305 1.967-.828 2.757l2.149 2.148A7.965 7.965 0 0018 10c0-1.848-.627-3.55-1.68-4.905zM10 7a3 3 0 100 6 3 3 0 000-6zm0-5c-1.848 0-3.55.627-4.905 1.68l2.148 2.148A4.977 4.977 0 0110 5c1.02 0 1.967.305 2.757.828l2.148-2.149A7.965 7.965 0 0010 2z"/></svg>