<svg xmlns="http://www.w3.org/2000/svg" width="19.505" height="19.505" viewBox="0 0 19.505 19.505">
  <path id="Icon_material-help-outline" data-name="Icon material-help-outline" d="M11.777,18.6h1.95v-1.95h-1.95ZM12.752,3A9.752,9.752,0,1,0,22.5,12.752,9.756,9.756,0,0,0,12.752,3Zm0,17.554a7.8,7.8,0,1,1,7.8-7.8A7.812,7.812,0,0,1,12.752,20.554Zm0-13.653a3.9,3.9,0,0,0-3.9,3.9H10.8a1.95,1.95,0,1,1,3.9,0c0,1.95-2.926,1.707-2.926,4.876h1.95c0-2.194,2.926-2.438,2.926-4.876A3.9,3.9,0,0,0,12.752,6.9Z" transform="translate(-3 -3)"/>
</svg>
