<svg xmlns="http://www.w3.org/2000/svg" width="22.738" height="21.889" viewBox="0 0 22.738 21.889"><g transform="translate(-56 -815.72)"><path d="M7.209,13.336l9.5-5.806a1.263,1.263,0,0,1,1.317,0l9.5,5.806a2.526,2.526,0,0,1,1.209,2.156V26.707a2.526,2.526,0,0,1-2.526,2.526H8.526A2.526,2.526,0,0,1,6,26.707V15.491A2.526,2.526,0,0,1,7.209,13.336Zm7.634,5.792a1.263,1.263,0,0,0-1.263,1.263v3.79a1.263,1.263,0,0,0,1.263,1.263H19.9a1.263,1.263,0,0,0,1.263-1.263v-3.79A1.263,1.263,0,0,0,19.9,19.127Z" transform="translate(50 808.376)" fill="#c0c7cc" fill-rule="evenodd"/></g></svg>