<svg xmlns="http://www.w3.org/2000/svg" width="21" height="21" viewBox="0 0 21 21"><g transform="translate(-36 233)"><rect width="21" height="21" transform="translate(36 -233)" fill="none"/><path d="M18.988,8.263h0L11.236.512a1.749,1.749,0,0,0-2.474,0L1.016,8.258l-.008.008a1.748,1.748,0,0,0,1.164,2.98l.054,0h.309v5.7A2.05,2.05,0,0,0,4.582,19H7.614a.557.557,0,0,0,.557-.557V13.971a.935.935,0,0,1,.934-.934h1.788a.935.935,0,0,1,.934.934v4.472a.557.557,0,0,0,.557.557h3.032a2.049,2.049,0,0,0,2.047-2.047v-5.7h.286a1.749,1.749,0,0,0,1.238-2.985ZM18.2,9.949a.632.632,0,0,1-.45.186h-.843a.557.557,0,0,0-.557.557v6.26a.935.935,0,0,1-.934.934H12.94l1.844.216C14.785,16.973,11.128.8,10,.8L1.008,9.32c-1.129,0,6.05,3.523,6.05,4.651v3.915l.761-1.336c-.515,0-.2-2.523-.2-3.038L3.648,10.692a.557.557,0,0,0-.557-.557H2.236A.635.635,0,0,1,1.8,9.05h0L9.549,1.3A.631.631,0,0,1,10,1.113c.17,0,3.675,17.21,3.8,17.33l2.74-.34s.928-7.661.929-7.66c.247.248.983-.741.736-.493Zm0,0" transform="translate(36.372 -231.999)"/></g></svg>