<svg xmlns="http://www.w3.org/2000/svg" width="18.998" height="19" viewBox="0 0 18.998 19"><path d="M18.988,8.263h0L11.236.512a1.749,1.749,0,0,0-2.474,0L1.016,8.258l-.008.008a1.748,1.748,0,0,0,1.164,2.98l.054,0h.309v5.7A2.05,2.05,0,0,0,4.582,19H7.614a.557.557,0,0,0,.557-.557V13.971a.935.935,0,0,1,.934-.934h1.788a.935.935,0,0,1,.934.934v4.472a.557.557,0,0,0,.557.557h3.032a2.049,2.049,0,0,0,2.047-2.047v-5.7h.286a1.749,1.749,0,0,0,1.238-2.985ZM18.2,9.949a.632.632,0,0,1-.45.186h-.843a.557.557,0,0,0-.557.557v6.26a.935.935,0,0,1-.934.934H12.94V13.971a2.05,2.05,0,0,0-2.047-2.047H9.1a2.05,2.05,0,0,0-2.047,2.047v3.915H4.582a.935.935,0,0,1-.934-.934v-6.26a.557.557,0,0,0-.557-.557H2.236A.635.635,0,0,1,1.8,9.05h0L9.549,1.3a.636.636,0,0,1,.9,0L18.2,9.047l0,0a.637.637,0,0,1,0,.9Zm0,0" transform="translate(-0.5 0.001)"/></svg>