<svg id="icons8-box-important_2_" data-name="icons8-box-important (2)" xmlns="http://www.w3.org/2000/svg" width="35" height="35" viewBox="0 0 35 35">
  <path id="icons8-box-important_2_2" data-name="icons8-box-important (2)" d="M17.5,0A17.5,17.5,0,1,0,35,17.5,17.5,17.5,0,0,0,17.5,0Zm.875,26.25h-1.75a.875.875,0,0,1-.875-.875v-1.75a.875.875,0,0,1,.875-.875h1.75a.875.875,0,0,1,.875.875v1.75A.875.875,0,0,1,18.375,26.25Zm-.875-7h0a1.751,1.751,0,0,1-1.75-1.75v-7A1.751,1.751,0,0,1,17.5,8.75h0a1.751,1.751,0,0,1,1.75,1.75v7A1.751,1.751,0,0,1,17.5,19.25Z" transform="translate(35 35) rotate(180)" fill="#c4c4c4"/>
</svg>
