<svg id="icons8-box-important_2_" data-name="icons8-box-important (2)" xmlns="http://www.w3.org/2000/svg" width="9" height="9" viewBox="0 0 9 9">
  <path id="icons8-box-important_2_2" data-name="icons8-box-important (2)" d="M4.5,0A4.5,4.5,0,1,0,9,4.5,4.5,4.5,0,0,0,4.5,0Zm.225,6.75h-.45a.225.225,0,0,1-.225-.225v-.45a.225.225,0,0,1,.225-.225h.45a.225.225,0,0,1,.225.225v.45A.225.225,0,0,1,4.725,6.75ZM4.5,4.95h0a.45.45,0,0,1-.45-.45V2.7a.45.45,0,0,1,.45-.45h0a.45.45,0,0,1,.45.45V4.5A.45.45,0,0,1,4.5,4.95Z" transform="translate(9 9) rotate(180)" fill="#c4c4c4"/>
</svg>
