<svg xmlns="http://www.w3.org/2000/svg" width="19.13" height="18.857" viewBox="0 0 19.13 18.857"><path d="M14.6,11.081a3.521,3.521,0,0,0-2.9,1.529l-4.918-2.22a3.456,3.456,0,0,0,0-2.635L11.7,5.523a3.521,3.521,0,1,0-.625-2,3.5,3.5,0,0,0,.06.594L5.911,6.492A3.527,3.527,0,1,0,5.9,11.65l5.234,2.363a3.578,3.578,0,0,0-.06.593A3.526,3.526,0,1,0,14.6,11.081Zm0-9.57a2.015,2.015,0,1,1-2.014,2.015A2.015,2.015,0,0,1,14.6,1.511Zm-11.08,9.57A2.015,2.015,0,1,1,5.534,9.066a2.015,2.015,0,0,1-2.014,2.015Zm11.08,5.54a2.015,2.015,0,1,1,2.015-2.015A2.015,2.015,0,0,1,14.6,16.621Z" transform="translate(0.596 0.375)" stroke="#fff" stroke-width="0.7"/></svg>