<?xml version="1.0" encoding="utf-8"?>
<!-- Generator: Adobe Illustrator 25.2.1, SVG Export Plug-In . SVG Version: 6.00 Build 0)  -->
<svg version="1.1" id="Layer_1" xmlns="http://www.w3.org/2000/svg" xmlns:xlink="http://www.w3.org/1999/xlink" x="0px" y="0px"
	 viewBox="0 0 11.5 10.8" style="enable-background:new 0 0 11.5 10.8;" xml:space="preserve">
<style type="text/css">
	.st0{fill:#1C1F21;}
	.st1{fill:none;}
</style>
<g>
	<g id="Rectangle_2051">
		<path d="M9,10.8H2.5C1.1,10.8,0,9.6,0,8.3V2.5C0,1.1,1.1,0,2.5,0H9c1.4,0,2.5,1.1,2.5,2.5v5.7C11.5,9.6,10.4,10.8,9,10.8z
			 M2.5,0.7c-1,0-1.8,0.8-1.8,1.8v5.7c0,1,0.8,1.8,1.8,1.8H9c1,0,1.8-0.8,1.8-1.8V2.5c0-1-0.8-1.8-1.8-1.8H2.5z"/>
	</g>
	<g id="Path_5235">
		<path d="M3.2,7.7h0.9l0.5-1.2h2.2l0.5,1.2h0.9l-2-5.3H5.3L3.2,7.7z M5.7,3.6l0.8,2.1H5L5.7,3.6z"/>
	</g>
</g>
</svg>
