<svg xmlns="http://www.w3.org/2000/svg" xmlns:xlink="http://www.w3.org/1999/xlink" width="341.272" height="222.406" viewBox="0 0 341.272 222.406">
  <defs>
    <linearGradient id="linear-gradient" x1="0.042" y1="0.023" x2="0.99" y2="0.971" gradientUnits="objectBoundingBox">
      <stop offset="0" stop-color="#b1fdc0"/>
      <stop offset="1" stop-color="#fefd86"/>
    </linearGradient>
    <clipPath id="clip-path">
      <path id="Path_1783" data-name="Path 1783" d="M0,4.455a.67.67,0,0,0,.669.669H9.417L6.831,7.71a.669.669,0,0,0,0,.946l.058.058a.669.669,0,0,0,.946,0l3.786-3.786a.669.669,0,0,0,0-.946L7.835.2a.669.669,0,0,0-.946,0L6.831.254a.669.669,0,0,0,0,.946L9.417,3.786H.669A.67.67,0,0,0,0,4.455Z" fill="#585858"/>
    </clipPath>
    <clipPath id="clip-path-2">
      <path id="Path_1782" data-name="Path 1782" d="M0,2532.48H1325.135V0H0Z" fill="#585858"/>
    </clipPath>
    <linearGradient id="linear-gradient-2" x1="0.5" y1="0.095" x2="0.5" y2="0.99" gradientUnits="objectBoundingBox">
      <stop offset="0" stop-color="#fcea22"/>
      <stop offset="0.251" stop-color="#fbe325"/>
      <stop offset="0.402" stop-color="#fbdc29"/>
      <stop offset="0.716" stop-color="#f9b92e"/>
      <stop offset="1" stop-color="#f99e33"/>
    </linearGradient>
    <linearGradient id="linear-gradient-3" y1="0.5" x2="1" y2="0.5" gradientUnits="objectBoundingBox">
      <stop offset="0" stop-color="#7f897a" stop-opacity="0.302"/>
      <stop offset="0.69" stop-color="#7f897a" stop-opacity="0.89"/>
      <stop offset="1" stop-color="#7f897a"/>
    </linearGradient>
    <linearGradient id="linear-gradient-4" x1="-0.103" y1="0.5" x2="1" y2="0.5" gradientUnits="objectBoundingBox">
      <stop offset="0" stop-color="#7f897a"/>
      <stop offset="1" stop-color="#7f897a" stop-opacity="0.302"/>
    </linearGradient>
    <clipPath id="clip-path-3">
      <path id="Path_3895" data-name="Path 3895" d="M2578.421,1170.018l-3.172-4.506,5.488-.495Z" transform="translate(-2575.25 -1165.017)" fill="none"/>
    </clipPath>
    <linearGradient id="linear-gradient-5" x1="1.003" y1="0.5" x2="-0.533" y2="0.5" gradientUnits="objectBoundingBox">
      <stop offset="0" stop-color="#7f897a" stop-opacity="0.302"/>
      <stop offset="1" stop-color="#7f897a"/>
    </linearGradient>
  </defs>
  <g id="Group_3809" data-name="Group 3809" transform="translate(-857 -5016)">
    <path id="Path_3921" data-name="Path 3921" d="M17,0H324a17,17,0,0,1,17,17V205a17,17,0,0,1-17,17H17A17,17,0,0,1,0,205V17A17,17,0,0,1,17,0Z" transform="translate(857 5016)" fill="url(#linear-gradient)"/>
    <path id="Path_3922" data-name="Path 3922" d="M1.776,19h2.88V.856H1.776Zm10.56-2.112c-.888,0-2.064-.264-2.064-1.464,0-1.224,1.224-1.608,2.112-1.608a5.751,5.751,0,0,1,2.592.576v1.176A3.373,3.373,0,0,1,12.336,16.888Zm.336-9.552A11.521,11.521,0,0,0,8.184,8.368l.936,2.376a9.233,9.233,0,0,1,3.408-.84c1.008,0,2.448.48,2.448,1.968v.648a5.528,5.528,0,0,0-3.168-.816c-2.472,0-4.464,1.584-4.464,3.768a3.847,3.847,0,0,0,4.1,3.816,4.605,4.605,0,0,0,3.744-1.728V19h2.664V11.584C17.856,8.992,15.936,7.336,12.672,7.336Zm12.24,11.952a4.071,4.071,0,0,0,3.408-1.944V19h2.688V7.624h-2.88v7.584A2.8,2.8,0,0,1,25.872,16.6c-1.464,0-2.256-.72-2.256-2.4V7.624h-2.88v7.368A4.089,4.089,0,0,0,24.912,19.288ZM39.984,7.336A3.931,3.931,0,0,0,36.576,9.28V7.624H33.888V19h2.88V11.488a2.807,2.807,0,0,1,2.256-1.464,2.1,2.1,0,0,1,2.256,2.328V19h2.88V11.632A4.076,4.076,0,0,0,39.984,7.336ZM52.392,16.6A3.153,3.153,0,0,1,49.2,13.312a3.153,3.153,0,0,1,3.192-3.288,3.537,3.537,0,0,1,2.664,1.2l1.992-1.776a6.1,6.1,0,0,0-4.656-2.112,5.978,5.978,0,1,0,0,11.952,6.157,6.157,0,0,0,4.7-2.16l-1.9-1.92A3.359,3.359,0,0,1,52.392,16.6ZM65.4,7.336a3.861,3.861,0,0,0-3.216,1.656V.856H59.3V19h2.88V11.512a2.811,2.811,0,0,1,2.256-1.488A2.1,2.1,0,0,1,66.7,12.352V19h2.88V11.632A4.076,4.076,0,0,0,65.4,7.336ZM78.552,23.608a5.039,5.039,0,0,0,3.048,1.2c1.68,0,3.288-.768,4.272-3.264l5.52-13.92H88.3l-3,8.328-3.84-8.328H78.264l5.544,11.64-.456,1.176c-.552,1.392-.96,1.68-1.944,1.68a2.7,2.7,0,0,1-1.512-.744ZM97.944,7.336a5.977,5.977,0,1,0,6.072,5.976A5.968,5.968,0,0,0,97.944,7.336Zm0,9.264A3.114,3.114,0,0,1,94.8,13.312a3.147,3.147,0,1,1,6.288,0A3.114,3.114,0,0,1,97.944,16.6Zm12.36,2.688a4.071,4.071,0,0,0,3.408-1.944V19H116.4V7.624h-2.88v7.584a2.8,2.8,0,0,1-2.256,1.392c-1.464,0-2.256-.72-2.256-2.4V7.624h-2.88v7.368A4.089,4.089,0,0,0,110.3,19.288ZM125.112,7.336a3.7,3.7,0,0,0-3.1,1.944V7.624H119.28V19h2.88V11.56a3.008,3.008,0,0,1,2.544-1.536,3.308,3.308,0,0,1,1.368.264L127.08,7.7A6.191,6.191,0,0,0,125.112,7.336ZM6.792,45.6a3.289,3.289,0,0,1,0-6.576,3.537,3.537,0,0,1,2.664,1.2l1.992-1.776a6.1,6.1,0,0,0-4.656-2.112,5.978,5.978,0,1,0,0,11.952,6.157,6.157,0,0,0,4.7-2.16l-1.9-1.92A3.359,3.359,0,0,1,6.792,45.6Zm11.88-9.264a5.977,5.977,0,1,0,0,11.952,5.977,5.977,0,1,0,0-11.952Zm0,9.264a3.291,3.291,0,1,1,3.144-3.288A3.114,3.114,0,0,1,18.672,45.6Zm21.384-9.264a3.984,3.984,0,0,0-3.624,1.992A3.64,3.64,0,0,0,32.9,36.336a3.947,3.947,0,0,0-3.36,1.944V36.624H26.856V48h2.88V40.488a2.7,2.7,0,0,1,2.232-1.464c1.44,0,2.04.84,2.04,2.4V48h2.88V40.488a2.7,2.7,0,0,1,2.232-1.464c1.44,0,2.04.84,2.04,2.4V48h2.88V40.68C44.04,37.944,42.36,36.336,40.056,36.336Zm20.064,0A3.984,3.984,0,0,0,56.5,38.328a3.64,3.64,0,0,0-3.528-1.992,3.947,3.947,0,0,0-3.36,1.944V36.624H46.92V48H49.8V40.488a2.7,2.7,0,0,1,2.232-1.464c1.44,0,2.04.84,2.04,2.4V48h2.88V40.488a2.7,2.7,0,0,1,2.232-1.464c1.44,0,2.04.84,2.04,2.4V48H64.1V40.68C64.1,37.944,62.424,36.336,60.12,36.336ZM71.16,48.288a4.071,4.071,0,0,0,3.408-1.944V48h2.688V36.624h-2.88v7.584A2.8,2.8,0,0,1,72.12,45.6c-1.464,0-2.256-.72-2.256-2.4V36.624h-2.88v7.368A4.089,4.089,0,0,0,71.16,48.288ZM86.232,36.336a3.931,3.931,0,0,0-3.408,1.944V36.624H80.136V48h2.88V40.488a2.807,2.807,0,0,1,2.256-1.464,2.1,2.1,0,0,1,2.256,2.328V48h2.88V40.632A4.076,4.076,0,0,0,86.232,36.336ZM93.744,48h2.88V36.624h-2.88Zm-.456-15.048a1.9,1.9,0,1,0,1.9-1.9A1.885,1.885,0,0,0,93.288,32.952Zm5.76,6.264h2.232v5.04a3.808,3.808,0,0,0,3.888,4.032,5.181,5.181,0,0,0,2.736-.744l-1.056-2.352a2.28,2.28,0,0,1-1.2.408c-.768,0-1.488-.408-1.488-1.8V39.216h3.432V36.624H104.16V33.24h-2.88v3.384H99.048Zm9.936,13.392a5.039,5.039,0,0,0,3.048,1.2c1.68,0,3.288-.768,4.272-3.264l5.52-13.92h-3.1l-3,8.328-3.84-8.328H108.7l5.544,11.64-.456,1.176c-.552,1.392-.96,1.68-1.944,1.68a2.7,2.7,0,0,1-1.512-.744ZM6.744,65.336a5.977,5.977,0,1,0,0,11.952,5.977,5.977,0,1,0,0-11.952Zm0,9.264a3.291,3.291,0,0,1,0-6.576,3.291,3.291,0,0,1,0,6.576Zm14.28-9.264a3.931,3.931,0,0,0-3.408,1.944V65.624H14.928V77h2.88V69.488a2.807,2.807,0,0,1,2.256-1.464,2.1,2.1,0,0,1,2.256,2.328V77H25.2V69.632A4.076,4.076,0,0,0,21.024,65.336Zm17.328-2.4h7.08V60.2h-9.96V77h2.88V69.776h6.6V67.04h-6.6ZM51.96,77.288a4.071,4.071,0,0,0,3.408-1.944V77h2.688V65.624h-2.88v7.584A2.8,2.8,0,0,1,52.92,74.6c-1.464,0-2.256-.72-2.256-2.4V65.624h-2.88v7.368A4.089,4.089,0,0,0,51.96,77.288Zm8.256-2.064a7.1,7.1,0,0,0,5.136,2.064c2.9,0,4.968-1.56,4.968-3.5,0-2.352-1.608-3.1-3.864-3.576-1.92-.408-2.688-.576-2.688-1.272s.984-1.08,2.064-1.08a5.283,5.283,0,0,1,2.832.984l1.44-2.112a7.26,7.26,0,0,0-4.272-1.392c-3.12,0-4.9,1.776-4.9,3.552,0,2.16,1.968,3.12,4.224,3.6,1.728.36,2.256.5,2.256,1.248,0,.7-.984,1.032-2.16,1.032a5.349,5.349,0,0,1-3.432-1.632Zm17.256-9.888a5.743,5.743,0,0,0-5.712,5.976,5.979,5.979,0,0,0,6.12,5.976,7.286,7.286,0,0,0,4.56-1.632L81,73.5a4.578,4.578,0,0,1-3.12,1.152,3.247,3.247,0,0,1-3.192-2.3h8.5c.024-.432.024-.864.024-1.08A5.722,5.722,0,0,0,77.472,65.336Zm-2.784,4.92a2.878,2.878,0,0,1,5.64,0Z" transform="translate(880 5041)" fill="#585858"/>
    <path id="Path_3924" data-name="Path 3924" d="M-79.536-2.136a1.412,1.412,0,0,1-1.572,1.32,2.087,2.087,0,0,1-1.836-1.3l-.84.5A2.92,2.92,0,0,0-81.108.144a2.367,2.367,0,0,0,2.6-2.28c0-1.356-.8-1.9-2.088-2.484-1.152-.528-1.872-.864-1.872-1.716a1.307,1.307,0,0,1,1.416-1.248,2.116,2.116,0,0,1,1.632.876l.756-.612a2.989,2.989,0,0,0-2.388-1.224,2.3,2.3,0,0,0-2.424,2.208c0,1.428,1.08,1.992,2.3,2.556C-80.232-3.348-79.536-3.012-79.536-2.136Zm4.812-3.552A2.757,2.757,0,0,0-77.5-2.772,2.833,2.833,0,0,0-74.6.144,3.09,3.09,0,0,0-72.3-.948l-.636-.66A2.141,2.141,0,0,1-74.6-.792a1.87,1.87,0,0,1-1.908-1.62h4.476a3.148,3.148,0,0,0,.012-.324A2.707,2.707,0,0,0-74.724-5.688Zm-1.764,2.436a1.719,1.719,0,0,1,1.764-1.5,1.669,1.669,0,0,1,1.716,1.5Zm8-2.436a2.757,2.757,0,0,0-2.772,2.916A2.833,2.833,0,0,0-68.364.144a3.09,3.09,0,0,0,2.3-1.092l-.636-.66a2.141,2.141,0,0,1-1.668.816,1.87,1.87,0,0,1-1.908-1.62H-65.8a3.148,3.148,0,0,0,.012-.324A2.707,2.707,0,0,0-68.484-5.688Zm-1.764,2.436a1.719,1.719,0,0,1,1.764-1.5,1.669,1.669,0,0,1,1.716,1.5ZM-61.092,0h1.008V-5.544h-1.008Zm-.18-7.32a.692.692,0,0,0,.684.684A.692.692,0,0,0-59.9-7.32.692.692,0,0,0-60.588-8,.692.692,0,0,0-61.272-7.32Zm2.424,2.688h1.08V-1.6A1.621,1.621,0,0,0-56.1.144a2.284,2.284,0,0,0,1.152-.336l-.372-.828a1.316,1.316,0,0,1-.636.228.742.742,0,0,1-.8-.852V-4.632h1.728v-.912H-56.76V-7.236h-1.008v1.692h-1.08Zm10.824-1.056A2.839,2.839,0,0,0-50.88-2.772,2.839,2.839,0,0,0-48.024.144a2.839,2.839,0,0,0,2.856-2.916A2.839,2.839,0,0,0-48.024-5.688Zm0,4.9a1.859,1.859,0,0,1-1.848-1.98,1.859,1.859,0,0,1,1.848-1.98,1.859,1.859,0,0,1,1.848,1.98A1.859,1.859,0,0,1-48.024-.792Zm6.648-4.9a1.972,1.972,0,0,0-1.7.924v-.78h-.936V0h1.008V-3.816a1.746,1.746,0,0,1,1.38-.936A1.229,1.229,0,0,1-40.3-3.4V0h1.008V-3.564A2.018,2.018,0,0,0-41.376-5.688Zm9.288,0a2.786,2.786,0,0,0-2.688,2.916A2.786,2.786,0,0,0-32.088.144,2.158,2.158,0,0,0-30.216-.8V0h.924V-9.072H-30.3V-4.86A2.2,2.2,0,0,0-32.088-5.688ZM-30.3-1.752a1.969,1.969,0,0,1-1.632.96,1.843,1.843,0,0,1-1.836-1.98,1.857,1.857,0,0,1,1.836-1.98,1.969,1.969,0,0,1,1.632.96Zm5.148-3.936a2.757,2.757,0,0,0-2.772,2.916A2.833,2.833,0,0,0-25.032.144a3.09,3.09,0,0,0,2.3-1.092l-.636-.66a2.141,2.141,0,0,1-1.668.816,1.87,1.87,0,0,1-1.908-1.62h4.476a3.148,3.148,0,0,0,.012-.324A2.707,2.707,0,0,0-25.152-5.688Zm-1.764,2.436a1.719,1.719,0,0,1,1.764-1.5,1.669,1.669,0,0,1,1.716,1.5ZM-21.66-1.02A3.038,3.038,0,0,0-19.284.144c1.068,0,2.2-.552,2.2-1.62,0-1.128-.9-1.524-1.956-1.752-.912-.192-1.344-.42-1.344-.84,0-.36.348-.708,1.056-.708a2.036,2.036,0,0,1,1.392.612l.66-.684a2.882,2.882,0,0,0-2.052-.84,1.843,1.843,0,0,0-2.04,1.6c0,1.044.84,1.512,2.028,1.752.852.168,1.26.408,1.26.888,0,.444-.636.684-1.2.684a2.139,2.139,0,0,1-1.68-.9ZM-12.108,0h1.4l-2.808-2.928,2.592-2.616h-1.32l-2.376,2.46V-9.072h-1.008V0h1.008V-2.688Zm1.716-4.632h1.08V-1.6A1.621,1.621,0,0,0-7.644.144,2.284,2.284,0,0,0-6.492-.192l-.372-.828A1.316,1.316,0,0,1-7.5-.792a.742.742,0,0,1-.8-.852V-4.632h1.728v-.912H-8.3V-7.236H-9.312v1.692h-1.08Zm7.464-1.056A2.839,2.839,0,0,0-5.784-2.772,2.839,2.839,0,0,0-2.928.144,2.839,2.839,0,0,0-.072-2.772,2.839,2.839,0,0,0-2.928-5.688Zm0,4.9a1.859,1.859,0,0,1-1.848-1.98,1.859,1.859,0,0,1,1.848-1.98A1.859,1.859,0,0,1-1.08-2.772,1.859,1.859,0,0,1-2.928-.792ZM1.08-5.544v8.3H2.088V-.684A2.23,2.23,0,0,0,3.876.144,2.786,2.786,0,0,0,6.564-2.772,2.786,2.786,0,0,0,3.876-5.688,2.182,2.182,0,0,0,2-4.74v-.8ZM2.088-3.8A1.97,1.97,0,0,1,3.72-4.752a1.843,1.843,0,0,1,1.836,1.98A1.843,1.843,0,0,1,3.72-.792,1.97,1.97,0,0,1,2.088-1.74Zm8.58,2.916A3.547,3.547,0,0,0,13.236.144c1.452,0,2.484-.78,2.484-1.752,0-1.176-.8-1.548-1.932-1.788-.96-.2-1.344-.288-1.344-.636s.492-.54,1.032-.54a2.641,2.641,0,0,1,1.416.492l.72-1.056a3.63,3.63,0,0,0-2.136-.7c-1.56,0-2.448.888-2.448,1.776,0,1.08.984,1.56,2.112,1.8.864.18,1.128.252,1.128.624,0,.348-.492.516-1.08.516a2.675,2.675,0,0,1-1.716-.816Zm5.7-3.5h1.116v2.52A1.9,1.9,0,0,0,19.428.144,2.591,2.591,0,0,0,20.8-.228L20.268-1.4a1.14,1.14,0,0,1-.6.2c-.384,0-.744-.2-.744-.9V-4.392H20.64v-1.3H18.924V-7.38h-1.44v1.692H16.368ZM23.9.144a2.036,2.036,0,0,0,1.7-.972V0h1.344V-5.688h-1.44V-1.9a1.4,1.4,0,0,1-1.128.7c-.732,0-1.128-.36-1.128-1.2V-5.688h-1.44V-2A2.045,2.045,0,0,0,23.9.144Zm9.924-9.216h-1.44v3.984a2.029,2.029,0,0,0-1.608-.744,2.857,2.857,0,0,0-2.772,2.988A2.857,2.857,0,0,0,30.78.144,1.966,1.966,0,0,0,32.5-.744V0h1.332Zm-1.44,7.08a1.576,1.576,0,0,1-1.356.792,1.522,1.522,0,0,1-1.56-1.644,1.522,1.522,0,0,1,1.56-1.644,1.576,1.576,0,0,1,1.356.792ZM35.664,0H37.1V-5.688h-1.44Zm-.228-7.524a.942.942,0,0,0,.948.948.942.942,0,0,0,.948-.948.942.942,0,0,0-.948-.948A.942.942,0,0,0,35.436-7.524Zm5.988,1.692a2.984,2.984,0,0,0-3.036,2.988A2.991,2.991,0,0,0,41.424.144,2.991,2.991,0,0,0,44.46-2.844,2.984,2.984,0,0,0,41.424-5.832Zm0,4.632a1.557,1.557,0,0,1-1.572-1.644,1.557,1.557,0,0,1,1.572-1.644A1.557,1.557,0,0,1,43-2.844,1.557,1.557,0,0,1,41.424-1.2Zm4,.4a.942.942,0,0,0,.948.948A.942.942,0,0,0,47.316-.8a.942.942,0,0,0-.948-.948A.942.942,0,0,0,45.42-.8Zm2.712-3.588H49.26V0H50.7V-4.392h1.392v-1.3H50.7v-1.32c0-.708.468-.864.744-.864a1,1,0,0,1,.576.168l.54-1.212a2.493,2.493,0,0,0-1.26-.3A1.962,1.962,0,0,0,49.26-7.08v1.392H48.132ZM55.2.144a2.036,2.036,0,0,0,1.7-.972V0h1.344V-5.688h-1.44V-1.9a1.4,1.4,0,0,1-1.128.7c-.732,0-1.128-.36-1.128-1.2V-5.688h-1.44V-2A2.045,2.045,0,0,0,55.2.144ZM59.328-.888A3.547,3.547,0,0,0,61.9.144c1.452,0,2.484-.78,2.484-1.752,0-1.176-.8-1.548-1.932-1.788-.96-.2-1.344-.288-1.344-.636s.492-.54,1.032-.54a2.641,2.641,0,0,1,1.416.492l.72-1.056a3.63,3.63,0,0,0-2.136-.7c-1.56,0-2.448.888-2.448,1.776,0,1.08.984,1.56,2.112,1.8.864.18,1.128.252,1.128.624,0,.348-.492.516-1.08.516a2.675,2.675,0,0,1-1.716-.816Zm8.628-4.944A2.871,2.871,0,0,0,65.1-2.844,2.99,2.99,0,0,0,68.16.144a3.643,3.643,0,0,0,2.28-.816l-.72-1.08a2.289,2.289,0,0,1-1.56.576,1.624,1.624,0,0,1-1.6-1.152h4.248c.012-.216.012-.432.012-.54A2.861,2.861,0,0,0,67.956-5.832Zm-1.392,2.46a1.309,1.309,0,0,1,1.392-1.152,1.322,1.322,0,0,1,1.428,1.152ZM71.784-.8a.942.942,0,0,0,.948.948A.942.942,0,0,0,73.68-.8a.942.942,0,0,0-.948-.948A.942.942,0,0,0,71.784-.8Zm3.468.8h1.44V-5.688h-1.44Zm-.228-7.524a.942.942,0,0,0,.948.948.942.942,0,0,0,.948-.948.942.942,0,0,0-.948-.948A.942.942,0,0,0,75.024-7.524Zm5.988,1.692a2.984,2.984,0,0,0-3.036,2.988A2.991,2.991,0,0,0,81.012.144a2.991,2.991,0,0,0,3.036-2.988A2.984,2.984,0,0,0,81.012-5.832Zm0,4.632A1.557,1.557,0,0,1,79.44-2.844a1.557,1.557,0,0,1,1.572-1.644,1.557,1.557,0,0,1,1.572,1.644A1.557,1.557,0,0,1,81.012-1.2Z" transform="translate(961 5206)" fill="#585858"/>
    <path id="Path_3923" data-name="Path 3923" d="M6.045,7.44H8.67v2.775a4.838,4.838,0,0,1-2.88.765A4.032,4.032,0,0,1,1.92,6.75,3.992,3.992,0,0,1,8.73,3.69l.9-.885A4.82,4.82,0,0,0,5.79,1.32,5.217,5.217,0,0,0,.57,6.75a5.217,5.217,0,0,0,5.22,5.43A6.071,6.071,0,0,0,9.915,10.8V6.24H6.045Zm8.76-2.55a3.549,3.549,0,0,0-3.57,3.645,3.571,3.571,0,1,0,7.14,0A3.549,3.549,0,0,0,14.805,4.89Zm0,6.12a2.324,2.324,0,0,1-2.31-2.475,2.315,2.315,0,1,1,4.62,0A2.324,2.324,0,0,1,14.805,11.01Zm8.61-4.8h1.35v3.8A2.026,2.026,0,0,0,26.85,12.18a2.856,2.856,0,0,0,1.44-.42l-.465-1.035a1.645,1.645,0,0,1-.8.285.928.928,0,0,1-1.005-1.065V6.21h2.16V5.07h-2.16V2.955h-1.26V5.07h-1.35Zm9.33-1.32a3.549,3.549,0,0,0-3.57,3.645,3.571,3.571,0,1,0,7.14,0A3.549,3.549,0,0,0,32.745,4.89Zm0,6.12a2.324,2.324,0,0,1-2.31-2.475,2.316,2.316,0,1,1,4.62,0A2.324,2.324,0,0,1,32.745,11.01Zm8.55-4.8h1.44V12h1.26V6.21h1.8V5.07h-1.8V2.76a.994.994,0,0,1,1.05-1.11,1.791,1.791,0,0,1,.81.27L46.32.885A2.86,2.86,0,0,0,44.865.48a2.122,2.122,0,0,0-2.13,2.205V5.07h-1.44Zm8.415,5.97a2.456,2.456,0,0,0,2.13-1.245V12h1.17V5.07H51.75v4.8a2.086,2.086,0,0,1-1.725,1.14,1.537,1.537,0,0,1-1.665-1.7V5.07H47.1V9.525A2.522,2.522,0,0,0,49.71,12.18Zm4.77-1.455a3.8,3.8,0,0,0,2.97,1.455c1.335,0,2.745-.69,2.745-2.025,0-1.41-1.125-1.9-2.445-2.19-1.14-.24-1.68-.525-1.68-1.05,0-.45.435-.885,1.32-.885a2.545,2.545,0,0,1,1.74.765l.825-.855A3.6,3.6,0,0,0,57.39,4.89a2.3,2.3,0,0,0-2.55,2c0,1.3,1.05,1.89,2.535,2.19,1.065.21,1.575.51,1.575,1.11,0,.555-.795.855-1.5.855a2.673,2.673,0,0,1-2.1-1.125ZM64.74,4.89a3.446,3.446,0,0,0-3.465,3.645A3.541,3.541,0,0,0,64.89,12.18a3.863,3.863,0,0,0,2.88-1.365l-.795-.825a2.676,2.676,0,0,1-2.085,1.02A2.337,2.337,0,0,1,62.5,8.985h5.6a3.935,3.935,0,0,0,.015-.4A3.384,3.384,0,0,0,64.74,4.89Zm-2.2,3.045a2.149,2.149,0,0,1,2.2-1.875,2.086,2.086,0,0,1,2.145,1.875Zm10.77,2.79a3.8,3.8,0,0,0,2.97,1.455c1.335,0,2.745-.69,2.745-2.025,0-1.41-1.125-1.9-2.445-2.19-1.14-.24-1.68-.525-1.68-1.05,0-.45.435-.885,1.32-.885a2.545,2.545,0,0,1,1.74.765l.825-.855a3.6,3.6,0,0,0-2.565-1.05,2.3,2.3,0,0,0-2.55,2c0,1.3,1.05,1.89,2.535,2.19,1.065.21,1.575.51,1.575,1.11,0,.555-.8.855-1.5.855a2.673,2.673,0,0,1-2.1-1.125ZM79.98,6.21h1.35v3.8a2.026,2.026,0,0,0,2.085,2.175,2.856,2.856,0,0,0,1.44-.42l-.465-1.035a1.645,1.645,0,0,1-.795.285.928.928,0,0,1-1-1.065V6.21h2.16V5.07H82.59V2.955H81.33V5.07H79.98Zm8.85,5.97a2.455,2.455,0,0,0,2.13-1.245V12h1.17V5.07H90.87v4.8a2.086,2.086,0,0,1-1.725,1.14,1.537,1.537,0,0,1-1.665-1.7V5.07H86.22V9.525A2.522,2.522,0,0,0,88.83,12.18Zm8.1-7.29a3.482,3.482,0,0,0-3.36,3.645,3.482,3.482,0,0,0,3.36,3.645,2.7,2.7,0,0,0,2.34-1.185V12h1.155V.66h-1.26V5.925A2.753,2.753,0,0,0,96.93,4.89Zm2.235,4.92a2.461,2.461,0,0,1-2.04,1.2,2.3,2.3,0,0,1-2.3-2.475,2.321,2.321,0,0,1,2.3-2.475,2.461,2.461,0,0,1,2.04,1.2ZM102.84,12h1.26V5.07h-1.26Zm-.225-9.15a.855.855,0,1,0,.855-.855A.864.864,0,0,0,102.615,2.85Zm6.72,2.04a3.549,3.549,0,0,0-3.57,3.645,3.571,3.571,0,1,0,7.14,0A3.549,3.549,0,0,0,109.335,4.89Zm0,6.12a2.324,2.324,0,0,1-2.31-2.475,2.316,2.316,0,1,1,4.62,0A2.324,2.324,0,0,1,109.335,11.01ZM.36,24.21H1.71V28A2.026,2.026,0,0,0,3.795,30.18a2.856,2.856,0,0,0,1.44-.42L4.77,28.725a1.645,1.645,0,0,1-.8.285.928.928,0,0,1-1-1.065V24.21H5.13V23.07H2.97V20.955H1.71V23.07H.36Zm9.33-1.32a3.646,3.646,0,1,0,3.57,3.645A3.549,3.549,0,0,0,9.69,22.89Zm0,6.12a2.324,2.324,0,0,1-2.31-2.475,2.315,2.315,0,1,1,4.62,0A2.324,2.324,0,0,1,9.69,29.01Zm14.325-.99a2.543,2.543,0,0,1-2.025.99,2.324,2.324,0,0,1-2.31-2.475,2.324,2.324,0,0,1,2.31-2.475,2.561,2.561,0,0,1,1.9.84l.855-.765a3.714,3.714,0,0,0-2.76-1.245,3.646,3.646,0,0,0,0,7.29,3.737,3.737,0,0,0,2.835-1.335Zm5.145-5.13a2.319,2.319,0,0,0-1.935,1.245V23.07h-1.17V30h1.26V25.23a1.927,1.927,0,0,1,1.59-1.17,1.758,1.758,0,0,1,.8.15l.465-1.14A2.9,2.9,0,0,0,29.16,22.89Zm4.74,0a3.446,3.446,0,0,0-3.465,3.645A3.541,3.541,0,0,0,34.05,30.18a3.863,3.863,0,0,0,2.88-1.365l-.8-.825a2.676,2.676,0,0,1-2.085,1.02,2.337,2.337,0,0,1-2.385-2.025H37.26a3.934,3.934,0,0,0,.015-.405A3.384,3.384,0,0,0,33.9,22.89Zm-2.205,3.045A2.149,2.149,0,0,1,33.9,24.06a2.086,2.086,0,0,1,2.145,1.875ZM41.46,22.89a5.163,5.163,0,0,0-2.595.705l.525,1.05a4.8,4.8,0,0,1,2.07-.585,1.579,1.579,0,0,1,1.755,1.635v.375a3.879,3.879,0,0,0-2.085-.57,2.361,2.361,0,1,0-.165,4.68A2.929,2.929,0,0,0,43.32,29v1h1.155V25.44C44.475,24.15,43.5,22.89,41.46,22.89Zm-.225,6.18c-.78,0-1.59-.36-1.59-1.26,0-.72.675-1.26,1.755-1.26a3.32,3.32,0,0,1,1.815.5v.975A2.661,2.661,0,0,1,41.235,29.07Zm4.56-4.86h1.35V28A2.026,2.026,0,0,0,49.23,30.18a2.856,2.856,0,0,0,1.44-.42l-.465-1.035a1.645,1.645,0,0,1-.8.285.928.928,0,0,1-1-1.065V24.21h2.16V23.07h-2.16V20.955h-1.26V23.07H45.8Zm9.225-1.32a3.446,3.446,0,0,0-3.465,3.645A3.541,3.541,0,0,0,55.17,30.18a3.863,3.863,0,0,0,2.88-1.365l-.795-.825a2.676,2.676,0,0,1-2.085,1.02,2.337,2.337,0,0,1-2.385-2.025h5.6a3.935,3.935,0,0,0,.015-.405A3.384,3.384,0,0,0,55.02,22.89Zm-2.2,3.045a2.149,2.149,0,0,1,2.2-1.875,2.086,2.086,0,0,1,2.145,1.875Zm10.665,7.2a2.557,2.557,0,0,0,1.47.5,2.037,2.037,0,0,0,1.92-1.4c.165-.405,3.645-9.165,3.645-9.165H69.15l-2.07,5.475L64.65,23.07H63.225l3.24,6.96-.54,1.365c-.27.675-.525,1.065-1.08,1.065a1.613,1.613,0,0,1-.825-.36ZM74.505,22.89a3.646,3.646,0,1,0,3.57,3.645A3.549,3.549,0,0,0,74.505,22.89Zm0,6.12a2.324,2.324,0,0,1-2.31-2.475,2.316,2.316,0,1,1,4.62,0A2.324,2.324,0,0,1,74.505,29.01Zm7.62,1.17a2.455,2.455,0,0,0,2.13-1.245V30h1.17V23.07h-1.26v4.8a2.086,2.086,0,0,1-1.725,1.14,1.537,1.537,0,0,1-1.665-1.695V23.07h-1.26v4.455A2.522,2.522,0,0,0,82.125,30.18Zm8.325-7.29a2.319,2.319,0,0,0-1.935,1.245V23.07h-1.17V30h1.26V25.23a1.927,1.927,0,0,1,1.59-1.17,1.758,1.758,0,0,1,.8.15l.465-1.14A2.9,2.9,0,0,0,90.45,22.89Zm9.285,0a3.646,3.646,0,1,0,3.57,3.645A3.549,3.549,0,0,0,99.735,22.89Zm0,6.12a2.324,2.324,0,0,1-2.31-2.475,2.316,2.316,0,1,1,4.62,0A2.324,2.324,0,0,1,99.735,29.01Zm4.05-5.94,3.165,7.23,2.28-5.2,2.28,5.2,3.165-7.23h-1.29l-1.845,4.485-1.845-4.485h-.855l-1.83,4.485-1.86-4.485Zm15.27-.18a2.465,2.465,0,0,0-2.13,1.155V23.07h-1.17V30h1.26V25.23a2.182,2.182,0,0,1,1.725-1.17,1.537,1.537,0,0,1,1.665,1.7V30h1.26V25.545A2.522,2.522,0,0,0,119.055,22.89Zm6.285-3.39h-1.26v7.785h1.26Zm.21,9.825a.858.858,0,0,0-.84-.84.872.872,0,0,0-.855.84.885.885,0,0,0,.855.855A.872.872,0,0,0,125.55,29.325Z" transform="translate(879 5145)" fill="#585858"/>
    <g id="Group_3804" data-name="Group 3804" transform="translate(1009.805 5166.402)">
      <g id="Group_1951" data-name="Group 1951" clip-path="url(#clip-path)">
        <g id="Group_1950" data-name="Group 1950" transform="translate(-449.743 -1141.204)" clip-path="url(#clip-path-2)">
          <path id="Path_1781" data-name="Path 1781" d="M0,15.6V0H18.509V15.6Z" transform="translate(446.397 1137.857)" fill="#585858"/>
        </g>
      </g>
    </g>
    <g id="Group_3805" data-name="Group 3805" transform="translate(-1988.432 4947.849)">
      <path id="Path_3884" data-name="Path 3884" d="M3271.718,1106.239c.32,1.127,2.227,28.311-8.016,42.682a29.6,29.6,0,0,1-2.981-3.827c-1.239,4.844-3.653,11.084-7.3,14.869-3.588-3.847-5.935-10.117-7.136-14.961a27.3,27.3,0,0,1-3.037,3.772c-6.572-7.031-8.82-36.422-7.741-42.806.059.1.978,10.641,1.037,10.737a26.949,26.949,0,0,1,6.292-3.88,26.4,26.4,0,0,1,21.59.139,27.028,27.028,0,0,1,6.249,3.96C3270.795,1116.829,3271.658,1106.335,3271.718,1106.239Z" transform="translate(-146.639 -887.469)" fill="#1d1d1b" opacity="0.1"/>
      <path id="Path_3885" data-name="Path 3885" d="M3270.262,1026.728a24.637,24.637,0,0,1,.893,3.219,31.6,31.6,0,0,1,.343,4.871,30.1,30.1,0,0,1-8.291,20.786,29.586,29.586,0,0,1-2.981-3.827c-1.239,4.844-3.653,11.084-7.3,14.869-3.587-3.847-5.935-10.117-7.136-14.961a27.294,27.294,0,0,1-3.037,3.772,30.646,30.646,0,0,1-7.668-25.757,23.943,23.943,0,0,1,.964-3.143h0a26.945,26.945,0,0,1,6.291-3.88,26.4,26.4,0,0,1,21.59.139,27.024,27.024,0,0,1,6.249,3.961C3270.3,1026.679,3270.2,1026.823,3270.262,1026.728Z" transform="translate(-146.144 -811.798)" fill="url(#linear-gradient-2)"/>
      <path id="Path_3886" data-name="Path 3886" d="M3136.58,731.329c.063-.771.112-1.59.1-2.409a33.826,33.826,0,0,0-7.116-21.142,28.2,28.2,0,0,0-45.072-.29,33.82,33.82,0,0,0-7.346,21.049c0,.8.035,1.623.075,2.41a43.719,43.719,0,0,1-.725-48.737c6.874-10.351,18.09-17.06,30.748-16.979,12.628.081,23.8,6.933,30.561,17.372a43.784,43.784,0,0,1-1.226,48.725Z" transform="translate(0 -497.713)" fill="#41596b"/>
      <path id="Path_3887" data-name="Path 3887" d="M3192.3,682.607a90.712,90.712,0,0,1-8.241,25.173,28.2,28.2,0,0,0-45.072-.29,90.252,90.252,0,0,1-7.966-25.277c6.874-10.351,18.09-17.06,30.748-16.978C3174.367,665.315,3185.539,672.168,3192.3,682.607Z" transform="translate(-54.464 -497.716)" fill="#324856"/>
      <path id="Path_3888" data-name="Path 3888" d="M3186.981,214.977a27.063,27.063,0,0,0-10.854-5.565,25.8,25.8,0,0,0-12.392-.08,27,27,0,0,0-10.914,5.425c-16.632-27.92-16.361-64.246.767-91.869,2.8-4.513,11.166-20.511,16.925-20.474,5.62.036,13.946,16.141,16.7,20.69C3204.04,150.946,3203.917,187.273,3186.981,214.977Z" transform="translate(-62.885 0)" fill="#98b7b7"/>
      <path id="Path_3889" data-name="Path 3889" d="M3286.953,123.105l-33.627-.216c2.8-4.513,11.138-20.511,16.926-20.474C3276.084,102.453,3284.2,118.557,3286.953,123.105Z" transform="translate(-162.622 0)" fill="#334a5e"/>
      <path id="Path_3890" data-name="Path 3890" d="M3390.688,123.105c-2.755-4.549-11.082-20.654-16.7-20.69a5.77,5.77,0,0,0-3.357,1.418c5.19,4.031,11.2,15.539,13.462,19.272,16.189,26.788,16.678,61.431,1.606,88.691a27.968,27.968,0,0,1,4.756,3.181C3407.389,187.273,3407.513,150.946,3390.688,123.105Z" transform="translate(-266.358 0)" opacity="0.1"/>
      <path id="Path_3891" data-name="Path 3891" d="M3272.536,1025.613a27.056,27.056,0,0,0-6.258-3.965,27.22,27.22,0,0,0-10.8-2.416l-.068,0-.069,0a27.223,27.223,0,0,0-10.8,2.416,26.21,26.21,0,0,0-6.176,3.876,17.052,17.052,0,0,0-1.057,3.888,29.093,29.093,0,0,1,6.234-3.91,29.8,29.8,0,0,1,11.82-2.644h.093a29.8,29.8,0,0,1,11.82,2.644,29.1,29.1,0,0,1,6.235,3.91A15.484,15.484,0,0,0,3272.536,1025.613Z" transform="translate(-148.458 -810.766)" fill="#688786"/>
      <path id="Path_3892" data-name="Path 3892" d="M3365.425,822.473h0c-5.195,11.583-5.3,30.414-.229,42.031h0C3370.375,852.937,3370.493,834.122,3365.425,822.473Z" transform="translate(-258.249 -636.767)" fill="#41596b"/>
      <circle id="Ellipse_381" data-name="Ellipse 381" cx="16.301" cy="16.301" r="16.301" transform="translate(3090.895 139.882)" fill="#cae4e5"/>
      <circle id="Ellipse_382" data-name="Ellipse 382" cx="11.329" cy="11.329" r="11.329" transform="translate(3095.867 144.854)" fill="#4a687b"/>
    </g>
    <g id="Group_3808" data-name="Group 3808" transform="translate(-2587.48 4144.551)" opacity="0.601">
      <path id="Path_3893" data-name="Path 3893" d="M3733.971,1093.856a.374.374,0,0,1-.372-.338c0-.051-.12-1.276-.12-3.3l0-.718a.374.374,0,0,1,.374-.369h0a.374.374,0,0,1,.369.378l0,.708c0,1.99.115,3.222.116,3.235a.373.373,0,0,1-.336.406Zm.083-7.971h-.031a.374.374,0,0,1-.341-.4c.113-1.343.276-2.685.483-3.989a.378.378,0,0,1,.427-.31.372.372,0,0,1,.31.427c-.2,1.286-.364,2.61-.476,3.934A.373.373,0,0,1,3734.054,1085.885Zm1.263-7.869a.342.342,0,0,1-.088-.011.373.373,0,0,1-.274-.451c.323-1.327.7-2.624,1.126-3.859a.373.373,0,0,1,.706.243c-.417,1.212-.79,2.488-1.107,3.792A.375.375,0,0,1,3735.316,1078.016Zm2.606-7.521a.384.384,0,0,1-.158-.035.374.374,0,0,1-.18-.5,32.634,32.634,0,0,1,1.925-3.537.373.373,0,0,1,.632.4,32.047,32.047,0,0,0-1.88,3.458A.375.375,0,0,1,3737.923,1070.494Zm33.177-3.781a5.223,5.223,0,0,1-3.794-1.7.373.373,0,1,1,.537-.519,4.435,4.435,0,0,0,3.258,1.474Zm3.622-1.442a.373.373,0,0,1-.253-.647,2.49,2.49,0,0,0,.672-.921,6.73,6.73,0,0,0,.4-2.172c0-.1,0-.194-.007-.287a.372.372,0,0,1,.351-.394.363.363,0,0,1,.394.351c.006.109.009.221.008.334a7.47,7.47,0,0,1-.436,2.411,3.16,3.16,0,0,1-.871,1.224A.368.368,0,0,1,3774.721,1065.271Zm-32.554-1.491a.373.373,0,0,1-.286-.615,27.019,27.019,0,0,1,2.821-2.881.374.374,0,1,1,.492.562,26.208,26.208,0,0,0-2.742,2.8A.375.375,0,0,1,3742.167,1063.78Zm23.388-2.052a.372.372,0,0,1-.349-.241,21.889,21.889,0,0,1-1.038-3.909.373.373,0,0,1,.735-.13,21.134,21.134,0,0,0,1,3.775.374.374,0,0,1-.349.506Zm-17.423-3.169a.373.373,0,0,1-.2-.689,26.948,26.948,0,0,1,3.556-1.893.373.373,0,1,1,.3.683,26.3,26.3,0,0,0-3.458,1.84A.367.367,0,0,1,3748.133,1058.559Zm26.125-.479a.374.374,0,0,1-.265-.109,10.408,10.408,0,0,0-3.218-2.068.374.374,0,0,1,.3-.684,11.157,11.157,0,0,1,3.448,2.223.373.373,0,0,1-.265.638Zm-18.877-2.731a.374.374,0,0,1-.1-.732,33.851,33.851,0,0,1,3.924-.867.369.369,0,0,1,.428.309.374.374,0,0,1-.31.428,33.208,33.208,0,0,0-3.836.848A.365.365,0,0,1,3755.38,1055.349Zm11.753-.645a.4.4,0,0,1-.087-.01c-.964-.231-1.819-.387-2.384-.49a7.5,7.5,0,0,1-.821-.171q-.307.014-.607.032a.354.354,0,0,1-.395-.351.373.373,0,0,1,.35-.395l.479-.025c-.076-1.167-.115-2.415-.117-3.711a.373.373,0,0,1,.373-.374h0a.373.373,0,0,1,.374.373c0,1.339.043,2.623.125,3.819l.371.068c.574.1,1.441.262,2.425.5a.374.374,0,0,1-.087.737Zm-3-8.724a.4.4,0,0,1-.057,0,.373.373,0,0,1-.312-.427,26.3,26.3,0,0,1,.958-3.928.373.373,0,1,1,.71.229,25.777,25.777,0,0,0-.931,3.815A.373.373,0,0,1,3764.133,1045.979Zm2.407-7.578a.367.367,0,0,1-.159-.036.374.374,0,0,1-.18-.5,31.606,31.606,0,0,1,1.943-3.531.374.374,0,0,1,.63.4,30.661,30.661,0,0,0-1.9,3.448A.375.375,0,0,1,3766.541,1038.4Zm4.285-6.694a.373.373,0,0,1-.284-.616,27.218,27.218,0,0,1,2.833-2.872.373.373,0,0,1,.49.563,26.6,26.6,0,0,0-2.756,2.793A.373.373,0,0,1,3770.825,1031.708Zm5.986-5.207a.373.373,0,0,1-.2-.69,25.813,25.813,0,0,1,3.573-1.874.373.373,0,1,1,.294.687,25.141,25.141,0,0,0-3.47,1.819A.37.37,0,0,1,3776.812,1026.5Zm7.284-3.134a.374.374,0,0,1-.095-.735q.636-.167,1.3-.309a.37.37,0,0,1,.443.287.374.374,0,0,1-.288.444q-.646.139-1.266.3A.375.375,0,0,1,3784.1,1023.366Z" transform="translate(0 0)" fill="url(#linear-gradient-3)"/>
    </g>
    <g id="Group_3806" data-name="Group 3806" transform="translate(-1520.63 4008.385)" opacity="0.5">
      <g id="Group_3772" data-name="Group 3772" transform="translate(2578.601 1166.831)">
        <path id="Path_3894" data-name="Path 3894" d="M2646.061,1247.16a.276.276,0,0,1-.274-.245c-4.814-42.255-25.651-57.357-34.387-61.889a.276.276,0,1,1,.255-.49c8.814,4.572,29.837,19.8,34.68,62.317a.276.276,0,0,1-.243.306Z" transform="translate(-2611.251 -1184.504)" fill="url(#linear-gradient-4)"/>
      </g>
      <g id="Group_3776" data-name="Group 3776" transform="translate(2575.25 1165.017)">
        <g id="Group_3775" data-name="Group 3775" transform="translate(0)">
          <g id="Group_3774" data-name="Group 3774">
            <g id="Group_3773" data-name="Group 3773" clip-path="url(#clip-path-3)">
              <rect id="Rectangle_1886" data-name="Rectangle 1886" width="5.488" height="5.001" fill="#7f897a"/>
            </g>
          </g>
        </g>
      </g>
    </g>
    <g id="Group_3807" data-name="Group 3807" transform="translate(-1371.704 4231.632)">
      <g id="Group_3780" data-name="Group 3780" transform="translate(2407.646 949.273)">
        <path id="Path_3898" data-name="Path 3898" d="M2703.337,1051.243a.375.375,0,0,1-.373-.34c-.135-1.422-.32-2.862-.551-4.284a.375.375,0,0,1,.311-.429.382.382,0,0,1,.429.31c.233,1.437.421,2.895.556,4.333a.374.374,0,0,1-.338.408Zm-1.389-8.571a.375.375,0,0,1-.365-.291c-.323-1.4-.7-2.8-1.109-4.171a.375.375,0,0,1,.719-.217c.417,1.384.794,2.8,1.121,4.219a.375.375,0,0,1-.281.449A.369.369,0,0,1,2701.948,1042.672Zm-2.506-8.31a.376.376,0,0,1-.352-.243c-.5-1.342-1.057-2.685-1.649-3.99a.375.375,0,0,1,.684-.309c.6,1.32,1.159,2.677,1.668,4.035a.376.376,0,0,1-.22.483A.389.389,0,0,1,2699.442,1034.362Zm-3.578-7.907a.377.377,0,0,1-.331-.2c-.678-1.269-1.406-2.527-2.159-3.739a.375.375,0,0,1,.637-.4c.762,1.226,1.5,2.5,2.185,3.782a.375.375,0,0,1-.154.507A.38.38,0,0,1,2695.864,1026.455Zm-4.587-7.372a.376.376,0,0,1-.3-.156c-.833-1.162-1.718-2.314-2.631-3.426a.375.375,0,1,1,.58-.476c.924,1.124,1.819,2.29,2.66,3.464a.375.375,0,0,1-.086.523A.37.37,0,0,1,2691.277,1019.084Zm-5.51-6.711a.374.374,0,0,1-.273-.119c-.984-1.05-2.011-2.078-3.054-3.054a.375.375,0,1,1,.511-.548c1.055.988,2.094,2.027,3.089,3.089a.374.374,0,0,1-.273.631Zm-6.338-5.936a.374.374,0,0,1-.238-.085c-1.109-.911-2.262-1.8-3.426-2.63a.375.375,0,0,1,.438-.609c1.176.844,2.342,1.738,3.465,2.66a.375.375,0,0,1-.238.664Z" transform="translate(-2660.321 -994.876)" fill="url(#linear-gradient-5)"/>
      </g>
    </g>
  </g>
</svg>
