<svg xmlns="http://www.w3.org/2000/svg" xmlns:xlink="http://www.w3.org/1999/xlink" width="341.272" height="222.406" viewBox="0 0 341.272 222.406">
  <defs>
    <linearGradient id="linear-gradient" x1="0.042" y1="0.023" x2="0.99" y2="0.971" gradientUnits="objectBoundingBox">
      <stop offset="0" stop-color="#b1fdc0"/>
      <stop offset="1" stop-color="#fefd86"/>
    </linearGradient>
    <clipPath id="clip-path">
      <path id="Path_1783" data-name="Path 1783" d="M0,4.455a.67.67,0,0,0,.669.669H9.417L6.831,7.71a.669.669,0,0,0,0,.946l.058.058a.669.669,0,0,0,.946,0l3.786-3.786a.669.669,0,0,0,0-.946L7.835.2a.669.669,0,0,0-.946,0L6.831.254a.669.669,0,0,0,0,.946L9.417,3.786H.669A.67.67,0,0,0,0,4.455Z" fill="#585858"/>
    </clipPath>
    <clipPath id="clip-path-2">
      <path id="Path_1782" data-name="Path 1782" d="M0,2532.48H1325.135V0H0Z" fill="#585858"/>
    </clipPath>
    <linearGradient id="linear-gradient-2" x1="0.5" y1="0.095" x2="0.5" y2="0.99" gradientUnits="objectBoundingBox">
      <stop offset="0" stop-color="#fcea22"/>
      <stop offset="0.251" stop-color="#fbe325"/>
      <stop offset="0.402" stop-color="#fbdc29"/>
      <stop offset="0.716" stop-color="#f9b92e"/>
      <stop offset="1" stop-color="#f99e33"/>
    </linearGradient>
    <linearGradient id="linear-gradient-3" y1="0.5" x2="1" y2="0.5" gradientUnits="objectBoundingBox">
      <stop offset="0" stop-color="#7f897a" stop-opacity="0.302"/>
      <stop offset="0.69" stop-color="#7f897a" stop-opacity="0.89"/>
      <stop offset="1" stop-color="#7f897a"/>
    </linearGradient>
    <linearGradient id="linear-gradient-4" x1="-0.103" y1="0.5" x2="1" y2="0.5" gradientUnits="objectBoundingBox">
      <stop offset="0" stop-color="#7f897a"/>
      <stop offset="1" stop-color="#7f897a" stop-opacity="0.302"/>
    </linearGradient>
    <clipPath id="clip-path-3">
      <path id="Path_3895" data-name="Path 3895" d="M2578.421,1170.018l-3.172-4.506,5.488-.495Z" transform="translate(-2575.25 -1165.017)" fill="none"/>
    </clipPath>
    <linearGradient id="linear-gradient-5" x1="1.003" y1="0.5" x2="-0.533" y2="0.5" gradientUnits="objectBoundingBox">
      <stop offset="0" stop-color="#7f897a" stop-opacity="0.302"/>
      <stop offset="1" stop-color="#7f897a"/>
    </linearGradient>
  </defs>
  <g id="Group_3793" data-name="Group 3793" transform="translate(-17 -479)">
    <rect id="Rectangle_1879" data-name="Rectangle 1879" width="341" height="222" rx="17" transform="translate(17 479)" fill="url(#linear-gradient)"/>
    <path id="Path_3910" data-name="Path 3910" d="M4.969,18H1.629V.727h3.34Zm10.3-6.211a3.629,3.629,0,0,1-.639.322,5.341,5.341,0,0,1-.885.229L13,12.48a4.843,4.843,0,0,0-1.512.457,1.532,1.532,0,0,0-.773,1.418,1.493,1.493,0,0,0,.475,1.236,1.786,1.786,0,0,0,1.154.381,3.4,3.4,0,0,0,1.986-.633,2.7,2.7,0,0,0,.943-2.309ZM13.242,10.23a5.213,5.213,0,0,0,1.324-.293,1,1,0,0,0,.715-.949A1.126,1.126,0,0,0,14.736,7.9a3.4,3.4,0,0,0-1.6-.3,2.084,2.084,0,0,0-1.676.586,2.435,2.435,0,0,0-.469,1.172H7.77a4.9,4.9,0,0,1,.938-2.754q1.324-1.687,4.547-1.687a8.078,8.078,0,0,1,3.727.832,3.194,3.194,0,0,1,1.629,3.141v5.859q0,.609.023,1.477a1.857,1.857,0,0,0,.2.891,1.2,1.2,0,0,0,.492.387V18H15.691a3.72,3.72,0,0,1-.211-.727q-.059-.34-.094-.773a6.862,6.862,0,0,1-1.594,1.277,4.794,4.794,0,0,1-2.437.621,4.191,4.191,0,0,1-2.865-.99A3.532,3.532,0,0,1,7.359,14.6a3.643,3.643,0,0,1,1.816-3.41,8.065,8.065,0,0,1,2.93-.82Zm11.66-5v7.7a4.03,4.03,0,0,0,.258,1.641,1.784,1.784,0,0,0,1.793.973A2.344,2.344,0,0,0,29.3,14.156a5.006,5.006,0,0,0,.328-1.98V5.227h3.387V18H29.766V16.2q-.047.059-.234.352a2.353,2.353,0,0,1-.445.516,4.651,4.651,0,0,1-1.518.961,5.172,5.172,0,0,1-1.717.258q-2.836,0-3.82-2.039a7.8,7.8,0,0,1-.551-3.316v-7.7Zm18.41-.3a4.931,4.931,0,0,1,3.24,1.037A4.217,4.217,0,0,1,47.813,9.4V18H44.391V10.23a3.545,3.545,0,0,0-.27-1.547A1.9,1.9,0,0,0,42.246,7.7a2.325,2.325,0,0,0-2.332,1.441,4.951,4.951,0,0,0-.328,1.945V18H36.258V5.25H39.48V7.113A5.67,5.67,0,0,1,40.7,5.7,4.235,4.235,0,0,1,43.313,4.922ZM58.523,9.809a2.964,2.964,0,0,0-.48-1.289A2.014,2.014,0,0,0,56.3,7.746a2.3,2.3,0,0,0-2.309,1.676,7.006,7.006,0,0,0-.328,2.367,6.442,6.442,0,0,0,.328,2.262,2.229,2.229,0,0,0,2.25,1.594,1.984,1.984,0,0,0,1.664-.633,3.15,3.15,0,0,0,.6-1.641h3.41a5.587,5.587,0,0,1-1.1,2.883,5.355,5.355,0,0,1-4.652,2.191,5.442,5.442,0,0,1-4.535-1.828,7.4,7.4,0,0,1-1.453-4.746A7.506,7.506,0,0,1,51.773,6.75,5.588,5.588,0,0,1,56.2,4.922,6.67,6.67,0,0,1,60.135,6a5.014,5.014,0,0,1,1.811,3.809ZM71.285,4.9a5.453,5.453,0,0,1,2.15.41,3.76,3.76,0,0,1,1.588,1.254,3.332,3.332,0,0,1,.645,1.471,18.109,18.109,0,0,1,.117,2.467V18h-3.41V10.23a3.417,3.417,0,0,0-.352-1.664,1.765,1.765,0,0,0-1.734-.891,2.387,2.387,0,0,0-2.01.885,4.049,4.049,0,0,0-.686,2.525V18H64.266V.785h3.328V6.891a4.1,4.1,0,0,1,1.682-1.553A4.753,4.753,0,0,1,71.285,4.9ZM2.074,49.449l.422.023a5.263,5.263,0,0,0,.938-.035,1.683,1.683,0,0,0,.75-.27,1.8,1.8,0,0,0,.545-.832,1.759,1.759,0,0,0,.205-.773L.246,34.227H3.961L6.75,43.648l2.637-9.422h3.551L8.555,46.789a17.641,17.641,0,0,1-2,4.506q-.738.873-2.953.873-.445,0-.715-.006t-.809-.041Zm18.563-4.8a2.647,2.647,0,0,0,2.25-1.043,4.852,4.852,0,0,0,.785-2.965,4.825,4.825,0,0,0-.785-2.959,2.653,2.653,0,0,0-2.25-1.037,2.669,2.669,0,0,0-2.256,1.037,4.8,4.8,0,0,0-.791,2.959,4.826,4.826,0,0,0,.791,2.965A2.663,2.663,0,0,0,20.637,44.645Zm6.539-4.008a7.4,7.4,0,0,1-1.617,4.811,5.942,5.942,0,0,1-4.91,2,5.942,5.942,0,0,1-4.91-2,7.937,7.937,0,0,1,0-9.6,5.9,5.9,0,0,1,4.91-2.027,5.9,5.9,0,0,1,4.91,2.027A7.454,7.454,0,0,1,27.176,40.637Zm5.719-6.41v7.7a4.03,4.03,0,0,0,.258,1.641,1.784,1.784,0,0,0,1.793.973,2.344,2.344,0,0,0,2.344-1.383,5.006,5.006,0,0,0,.328-1.98V34.227H41V47H37.758V45.2q-.047.059-.234.352a2.353,2.353,0,0,1-.445.516,4.651,4.651,0,0,1-1.518.961,5.172,5.172,0,0,1-1.717.258q-2.836,0-3.82-2.039a7.8,7.8,0,0,1-.551-3.316v-7.7Zm18.27-.3q.094,0,.158.006t.287.018v3.422q-.316-.035-.562-.047t-.4-.012a2.77,2.77,0,0,0-2.707,1.313,5.106,5.106,0,0,0-.387,2.273V47H44.191V34.227h3.188v2.227a7.061,7.061,0,0,1,1.348-1.746A3.669,3.669,0,0,1,51.164,33.922ZM9.188,67.809a2.964,2.964,0,0,0-.48-1.289,2.014,2.014,0,0,0-1.746-.773,2.3,2.3,0,0,0-2.309,1.676,7.006,7.006,0,0,0-.328,2.367,6.442,6.442,0,0,0,.328,2.262A2.229,2.229,0,0,0,6.9,73.645a1.984,1.984,0,0,0,1.664-.633,3.15,3.15,0,0,0,.6-1.641h3.41a5.587,5.587,0,0,1-1.1,2.883A5.355,5.355,0,0,1,6.82,76.445a5.442,5.442,0,0,1-4.535-1.828A7.4,7.4,0,0,1,.832,69.871,7.506,7.506,0,0,1,2.438,64.75a5.588,5.588,0,0,1,4.43-1.828A6.67,6.67,0,0,1,10.8,64a5.014,5.014,0,0,1,1.811,3.809Zm11.449,5.836a2.647,2.647,0,0,0,2.25-1.043,5.979,5.979,0,0,0,0-5.924,2.653,2.653,0,0,0-2.25-1.037,2.669,2.669,0,0,0-2.256,1.037,5.941,5.941,0,0,0,0,5.924A2.663,2.663,0,0,0,20.637,73.645Zm6.539-4.008a7.4,7.4,0,0,1-1.617,4.811,5.942,5.942,0,0,1-4.91,2,5.942,5.942,0,0,1-4.91-2,7.937,7.937,0,0,1,0-9.6,5.9,5.9,0,0,1,4.91-2.027,5.9,5.9,0,0,1,4.91,2.027A7.454,7.454,0,0,1,27.176,69.637ZM43.84,62.945a4.446,4.446,0,0,1,1.664.328,3.713,3.713,0,0,1,1.488,1.148,3.669,3.669,0,0,1,.727,1.641,11.34,11.34,0,0,1,.117,1.887L47.813,76H44.391V67.867a2.669,2.669,0,0,0-.234-1.2,1.665,1.665,0,0,0-1.641-.891,1.92,1.92,0,0,0-1.91,1.148,3.606,3.606,0,0,0-.27,1.465V76H36.973V68.395a4.271,4.271,0,0,0-.234-1.652,1.636,1.636,0,0,0-1.652-.926,1.972,1.972,0,0,0-1.922.926,3.567,3.567,0,0,0-.27,1.57V76H29.508V63.25h3.246v1.863A5.375,5.375,0,0,1,33.926,63.7a4.01,4.01,0,0,1,2.52-.75,3.985,3.985,0,0,1,2.367.645,3.749,3.749,0,0,1,1.1,1.535,4.247,4.247,0,0,1,1.629-1.652A4.971,4.971,0,0,1,43.84,62.945Zm21.34,0a4.446,4.446,0,0,1,1.664.328,3.713,3.713,0,0,1,1.488,1.148,3.669,3.669,0,0,1,.727,1.641,11.34,11.34,0,0,1,.117,1.887L69.152,76H65.73V67.867a2.669,2.669,0,0,0-.234-1.2,1.665,1.665,0,0,0-1.641-.891,1.92,1.92,0,0,0-1.91,1.148,3.606,3.606,0,0,0-.27,1.465V76H58.313V68.395a4.271,4.271,0,0,0-.234-1.652,1.636,1.636,0,0,0-1.652-.926,1.972,1.972,0,0,0-1.922.926,3.567,3.567,0,0,0-.27,1.57V76H50.848V63.25h3.246v1.863A5.375,5.375,0,0,1,55.266,63.7a4.637,4.637,0,0,1,4.887-.105,3.749,3.749,0,0,1,1.1,1.535,4.247,4.247,0,0,1,1.629-1.652A4.971,4.971,0,0,1,65.18,62.945Zm10.395.281v7.7a4.03,4.03,0,0,0,.258,1.641,1.784,1.784,0,0,0,1.793.973,2.344,2.344,0,0,0,2.344-1.383,5.006,5.006,0,0,0,.328-1.98V63.227h3.387V76H80.438V74.2q-.047.059-.234.352a2.353,2.353,0,0,1-.445.516,4.651,4.651,0,0,1-1.518.961,5.172,5.172,0,0,1-1.717.258q-2.836,0-3.82-2.039a7.8,7.8,0,0,1-.551-3.316v-7.7Zm18.41-.3a4.931,4.931,0,0,1,3.24,1.037,4.217,4.217,0,0,1,1.26,3.439V76H95.063V68.23a3.545,3.545,0,0,0-.27-1.547,1.9,1.9,0,0,0-1.875-.984,2.325,2.325,0,0,0-2.332,1.441,4.951,4.951,0,0,0-.328,1.945V76H86.93V63.25h3.223v1.863A5.67,5.67,0,0,1,91.371,63.7,4.235,4.235,0,0,1,93.984,62.922ZM105,61.7h-3.387V58.621H105Zm-3.387,1.523H105V76h-3.387Zm5.309,2.5V63.344H108.7V59.781h3.3v3.563h2.074v2.379h-2.074v6.75a1.52,1.52,0,0,0,.2.979,2.194,2.194,0,0,0,1.219.193q.152,0,.322-.006t.334-.018v2.5l-1.582.059q-2.367.082-3.234-.82a2.442,2.442,0,0,1-.562-1.77V65.723Zm9.82,12.727.422.023a5.263,5.263,0,0,0,.938-.035,1.683,1.683,0,0,0,.75-.27,1.8,1.8,0,0,0,.545-.832,1.759,1.759,0,0,0,.205-.773l-4.687-13.336h3.715l2.789,9.422,2.637-9.422h3.551l-4.383,12.563a17.641,17.641,0,0,1-2,4.506q-.738.873-2.953.873-.445,0-.715-.006t-.809-.041Z" transform="translate(40 504)" fill="#585858"/>
    <path id="Path_3912" data-name="Path 3912" d="M-85.356-2.777a2.352,2.352,0,0,0,.346,1.189,2.291,2.291,0,0,0,2.045.855,3.62,3.62,0,0,0,1.2-.187,1.328,1.328,0,0,0,1.043-1.3,1.123,1.123,0,0,0-.439-1,4.437,4.437,0,0,0-1.395-.51L-83.728-4a5.28,5.28,0,0,1-1.617-.568,1.8,1.8,0,0,1-.82-1.611,2.481,2.481,0,0,1,.8-1.9,3.221,3.221,0,0,1,2.273-.744,3.949,3.949,0,0,1,2.3.653,2.358,2.358,0,0,1,.946,2.089h-1.1a2.157,2.157,0,0,0-.375-1.061,2.179,2.179,0,0,0-1.811-.674,2.094,2.094,0,0,0-1.482.434,1.357,1.357,0,0,0-.451,1.008.984.984,0,0,0,.527.926,7.739,7.739,0,0,0,1.564.469l1.207.275a3.7,3.7,0,0,1,1.348.545,2.04,2.04,0,0,1,.82,1.752,2.187,2.187,0,0,1-1.04,2.045,4.658,4.658,0,0,1-2.417.615,3.614,3.614,0,0,1-2.514-.82,2.768,2.768,0,0,1-.891-2.209Zm9.715-3.639a2.862,2.862,0,0,1,1.295.313,2.388,2.388,0,0,1,.955.812,2.8,2.8,0,0,1,.422,1.107A7.245,7.245,0,0,1-72.876-2.8h-4.6a2.684,2.684,0,0,0,.451,1.532,1.511,1.511,0,0,0,1.307.577A1.689,1.689,0,0,0-74.4-1.236a1.837,1.837,0,0,0,.4-.732h1.037a2.184,2.184,0,0,1-.272.771,2.74,2.74,0,0,1-.519.694,2.458,2.458,0,0,1-1.189.633,3.613,3.613,0,0,1-.861.094A2.643,2.643,0,0,1-77.792-.63a3.317,3.317,0,0,1-.814-2.388,3.607,3.607,0,0,1,.82-2.455A2.706,2.706,0,0,1-75.642-6.416Zm1.682,2.777a2.732,2.732,0,0,0-.3-1.1A1.532,1.532,0,0,0-75.706-5.5a1.6,1.6,0,0,0-1.219.524,1.981,1.981,0,0,0-.521,1.333Zm4.992-2.777a2.862,2.862,0,0,1,1.295.313,2.388,2.388,0,0,1,.955.812A2.8,2.8,0,0,1-66.3-4.184,7.245,7.245,0,0,1-66.2-2.8h-4.6a2.684,2.684,0,0,0,.451,1.532,1.511,1.511,0,0,0,1.307.577,1.689,1.689,0,0,0,1.318-.545,1.837,1.837,0,0,0,.4-.732h1.037a2.184,2.184,0,0,1-.272.771,2.74,2.74,0,0,1-.519.694,2.458,2.458,0,0,1-1.189.633,3.613,3.613,0,0,1-.861.094A2.643,2.643,0,0,1-71.118-.63a3.317,3.317,0,0,1-.814-2.388,3.607,3.607,0,0,1,.82-2.455A2.706,2.706,0,0,1-68.968-6.416Zm1.682,2.777a2.732,2.732,0,0,0-.3-1.1A1.532,1.532,0,0,0-69.032-5.5a1.6,1.6,0,0,0-1.219.524,1.981,1.981,0,0,0-.521,1.333Zm5.713-2.607H-60.5V0h-1.072Zm0-2.361H-60.5v1.2h-1.072Zm2.877.58h1.066v1.752h1v.861h-1v4.1a.443.443,0,0,0,.223.439A.946.946,0,0,0-57-.814l.164,0q.088,0,.205-.015V0a2.354,2.354,0,0,1-.378.076A3.593,3.593,0,0,1-57.431.1a1.145,1.145,0,0,1-1-.378A1.68,1.68,0,0,1-58.7-1.26V-5.414h-.85v-.861h.85ZM-49.749-.68a1.455,1.455,0,0,0,1.438-.794,3.955,3.955,0,0,0,.39-1.767A3.145,3.145,0,0,0-48.2-4.67a1.582,1.582,0,0,0-1.535-.867,1.514,1.514,0,0,0-1.406.738,3.422,3.422,0,0,0-.439,1.781,2.977,2.977,0,0,0,.439,1.67A1.548,1.548,0,0,0-49.749-.68Zm.041-5.777a2.842,2.842,0,0,1,2.051.809,3.158,3.158,0,0,1,.838,2.379,4.081,4.081,0,0,1-.738,2.508,2.671,2.671,0,0,1-2.291.99,2.586,2.586,0,0,1-2.057-.876A3.46,3.46,0,0,1-52.667-3a3.743,3.743,0,0,1,.8-2.52A2.694,2.694,0,0,1-49.708-6.457Zm4.143.182h1v.891a2.81,2.81,0,0,1,.943-.791,2.516,2.516,0,0,1,1.107-.24,1.826,1.826,0,0,1,1.8.932,3.308,3.308,0,0,1,.258,1.459V0h-1.072V-3.955a2.142,2.142,0,0,0-.17-.926,1.03,1.03,0,0,0-1.02-.586,2.076,2.076,0,0,0-.615.076,1.584,1.584,0,0,0-.762.516,1.552,1.552,0,0,0-.343.642,4.319,4.319,0,0,0-.079.946V0h-1.055ZM-34.89-3.064a3.111,3.111,0,0,0,.428,1.688,1.5,1.5,0,0,0,1.371.68,1.444,1.444,0,0,0,1.2-.63,2.975,2.975,0,0,0,.472-1.808A2.673,2.673,0,0,0-31.9-4.9a1.517,1.517,0,0,0-1.2-.571,1.586,1.586,0,0,0-1.292.609A2.791,2.791,0,0,0-34.89-3.064ZM-33.3-6.387a2.233,2.233,0,0,1,1.207.3,2.835,2.835,0,0,1,.639.615v-3.17h1.014V0h-.949V-.873a2.282,2.282,0,0,1-.873.838,2.5,2.5,0,0,1-1.154.258,2.337,2.337,0,0,1-1.816-.882A3.448,3.448,0,0,1-36-3.006a4.051,4.051,0,0,1,.7-2.376A2.292,2.292,0,0,1-33.3-6.387Zm7.031-.029a2.862,2.862,0,0,1,1.295.313,2.388,2.388,0,0,1,.955.812A2.8,2.8,0,0,1-23.6-4.184,7.245,7.245,0,0,1-23.5-2.8h-4.6a2.684,2.684,0,0,0,.451,1.532,1.511,1.511,0,0,0,1.307.577,1.689,1.689,0,0,0,1.318-.545,1.837,1.837,0,0,0,.4-.732h1.037a2.184,2.184,0,0,1-.272.771,2.74,2.74,0,0,1-.519.694,2.458,2.458,0,0,1-1.189.633,3.613,3.613,0,0,1-.861.094A2.643,2.643,0,0,1-28.421-.63a3.317,3.317,0,0,1-.814-2.388,3.607,3.607,0,0,1,.82-2.455A2.706,2.706,0,0,1-26.271-6.416Zm1.682,2.777a2.732,2.732,0,0,0-.3-1.1A1.532,1.532,0,0,0-26.335-5.5a1.6,1.6,0,0,0-1.219.524,1.981,1.981,0,0,0-.521,1.333Zm3.006,1.67a1.534,1.534,0,0,0,.264.809,1.657,1.657,0,0,0,1.383.51,2.039,2.039,0,0,0,1.031-.255.846.846,0,0,0,.445-.788.674.674,0,0,0-.357-.615,4.25,4.25,0,0,0-.9-.3l-.838-.211a4.087,4.087,0,0,1-1.184-.445,1.331,1.331,0,0,1-.68-1.184,1.808,1.808,0,0,1,.642-1.441,2.56,2.56,0,0,1,1.726-.551,2.4,2.4,0,0,1,2.045.832,1.806,1.806,0,0,1,.381,1.137h-1a1.22,1.22,0,0,0-.252-.65,1.607,1.607,0,0,0-1.26-.416,1.506,1.506,0,0,0-.905.229.716.716,0,0,0-.308.6.743.743,0,0,0,.4.656,2.429,2.429,0,0,0,.691.258l.7.17a5.391,5.391,0,0,1,1.523.533,1.412,1.412,0,0,1,.615,1.271,1.938,1.938,0,0,1-.636,1.447A2.706,2.706,0,0,1-19.989.24,2.6,2.6,0,0,1-21.973-.4,2.4,2.4,0,0,1-22.6-1.969Zm5.35-6.639h1.014v5l2.707-2.666h1.348l-2.4,2.35L-11.03,0h-1.348l-1.957-3.164-.885.809V0h-1.014Zm6.234.58h1.066v1.752h1v.861h-1v4.1a.443.443,0,0,0,.223.439.946.946,0,0,0,.41.064l.164,0q.088,0,.205-.015V0a2.354,2.354,0,0,1-.378.076A3.593,3.593,0,0,1-8.733.1a1.145,1.145,0,0,1-1-.378A1.68,1.68,0,0,1-10-1.26V-5.414h-.85v-.861H-10ZM-4.386-.68a1.455,1.455,0,0,0,1.438-.794,3.955,3.955,0,0,0,.39-1.767,3.145,3.145,0,0,0-.281-1.43,1.582,1.582,0,0,0-1.535-.867A1.514,1.514,0,0,0-5.78-4.8,3.422,3.422,0,0,0-6.22-3.018a2.977,2.977,0,0,0,.439,1.67A1.548,1.548,0,0,0-4.386-.68Zm.041-5.777a2.842,2.842,0,0,1,2.051.809A3.158,3.158,0,0,1-1.456-3.27,4.081,4.081,0,0,1-2.194-.762a2.671,2.671,0,0,1-2.291.99A2.586,2.586,0,0,1-6.542-.647,3.46,3.46,0,0,1-7.3-3a3.743,3.743,0,0,1,.8-2.52A2.694,2.694,0,0,1-4.345-6.457ZM2.446-.709a1.5,1.5,0,0,0,1.228-.618,2.942,2.942,0,0,0,.489-1.849,3.451,3.451,0,0,0-.217-1.289A1.5,1.5,0,0,0,2.446-5.5a1.5,1.5,0,0,0-1.5,1.1A4.343,4.343,0,0,0,.729-2.918,3.155,3.155,0,0,0,.946-1.682,1.5,1.5,0,0,0,2.446-.709ZM-.284-6.246H.741v.832a2.56,2.56,0,0,1,.691-.662,2.225,2.225,0,0,1,1.254-.352A2.358,2.358,0,0,1,4.5-5.61a3.349,3.349,0,0,1,.744,2.335A3.585,3.585,0,0,1,4.169-.346,2.423,2.423,0,0,1,2.587.211,2.147,2.147,0,0,1,1.4-.1,2.74,2.74,0,0,1,.771-.7V2.5H-.284Zm11.4,4.207a1.115,1.115,0,0,0,.229.633,1.545,1.545,0,0,0,1.148.334,1.751,1.751,0,0,0,.782-.146.469.469,0,0,0,.29-.439.474.474,0,0,0-.234-.428,9.535,9.535,0,0,0-1.74-.5,3.624,3.624,0,0,1-1.529-.674,1.461,1.461,0,0,1-.445-1.148,1.992,1.992,0,0,1,.694-1.521,2.789,2.789,0,0,1,1.954-.636,3.585,3.585,0,0,1,1.948.478,2.046,2.046,0,0,1,.864,1.649H13.4a.988.988,0,0,0-.182-.51,1.143,1.143,0,0,0-.937-.34,1.347,1.347,0,0,0-.776.17.489.489,0,0,0-.231.4.436.436,0,0,0,.246.416,10.653,10.653,0,0,0,1.74.463,3.2,3.2,0,0,1,1.494.709,1.61,1.61,0,0,1,.492,1.2,1.941,1.941,0,0,1-.706,1.55,3.317,3.317,0,0,1-2.183.6,3.286,3.286,0,0,1-2.224-.636,2.068,2.068,0,0,1-.718-1.62Zm4.717-3.1V-6.328h.891V-8.109h1.652v1.781h1.037v1.189H18.372v3.375a.76.76,0,0,0,.1.489,1.1,1.1,0,0,0,.609.1l.161,0q.085,0,.167-.009V.059l-.791.029A2.123,2.123,0,0,1,17-.322a1.221,1.221,0,0,1-.281-.885V-5.139Zm6.316-1.248v3.85a2.015,2.015,0,0,0,.129.82.892.892,0,0,0,.9.486,1.172,1.172,0,0,0,1.172-.691,2.5,2.5,0,0,0,.164-.99V-6.387H26.2V0H24.577V-.9q-.023.029-.117.176a1.176,1.176,0,0,1-.223.258,2.325,2.325,0,0,1-.759.48,2.586,2.586,0,0,1-.858.129,1.914,1.914,0,0,1-1.91-1.02,3.9,3.9,0,0,1-.275-1.658v-3.85Zm8.021-.152a2.06,2.06,0,0,1,1.031.255,2.028,2.028,0,0,1,.732.706V-8.625h1.693V0H32V-.885a2.355,2.355,0,0,1-.814.826A2.287,2.287,0,0,1,30.05.2a2.373,2.373,0,0,1-1.884-.905A3.476,3.476,0,0,1,27.4-3.029,4,4,0,0,1,28.154-5.6,2.45,2.45,0,0,1,30.167-6.539Zm.363,5.332a1.233,1.233,0,0,0,1.078-.527A2.33,2.33,0,0,0,31.978-3.1a2.094,2.094,0,0,0-.592-1.676,1.274,1.274,0,0,0-.844-.3,1.173,1.173,0,0,0-1.075.554,2.565,2.565,0,0,0-.343,1.374,2.542,2.542,0,0,0,.349,1.415A1.179,1.179,0,0,0,30.53-1.207Zm6.328-5.941H35.165V-8.689h1.693Zm-1.693.762h1.693V0H35.165Zm6.176,5.209A1.324,1.324,0,0,0,42.466-1.7a2.426,2.426,0,0,0,.393-1.482,2.413,2.413,0,0,0-.393-1.479,1.326,1.326,0,0,0-1.125-.519,1.334,1.334,0,0,0-1.128.519,2.4,2.4,0,0,0-.4,1.479,2.413,2.413,0,0,0,.4,1.482A1.331,1.331,0,0,0,41.341-1.178Zm3.27-2A3.7,3.7,0,0,1,43.8-.776a2.971,2.971,0,0,1-2.455,1,2.971,2.971,0,0,1-2.455-1,3.7,3.7,0,0,1-.809-2.405,3.727,3.727,0,0,1,.809-2.4,2.951,2.951,0,0,1,2.455-1.014A2.951,2.951,0,0,1,43.8-5.578,3.727,3.727,0,0,1,44.61-3.182Zm1.166,1.436h1.775V0H45.776ZM51.5-8.725q.158,0,.287.009l.352.026V-7.33q-.141-.018-.472-.026a.543.543,0,0,0-.457.146.531.531,0,0,0-.126.343v.539h1.1V-5.15h-1.1V0H49.415V-5.15h-.932V-6.328H49.4v-.41a2.158,2.158,0,0,1,.346-1.412Q50.106-8.725,51.5-8.725Zm3.3,2.338v3.85a2.015,2.015,0,0,0,.129.82.892.892,0,0,0,.9.486A1.172,1.172,0,0,0,57-1.922a2.5,2.5,0,0,0,.164-.99V-6.387h1.693V0H57.231V-.9q-.023.029-.117.176a1.176,1.176,0,0,1-.223.258,2.325,2.325,0,0,1-.759.48,2.586,2.586,0,0,1-.858.129,1.914,1.914,0,0,1-1.91-1.02,3.9,3.9,0,0,1-.275-1.658v-3.85Zm6.967,4.348A1.115,1.115,0,0,0,62-1.406a1.545,1.545,0,0,0,1.148.334,1.751,1.751,0,0,0,.782-.146.469.469,0,0,0,.29-.439.474.474,0,0,0-.234-.428,9.535,9.535,0,0,0-1.74-.5,3.624,3.624,0,0,1-1.529-.674,1.461,1.461,0,0,1-.445-1.148,1.992,1.992,0,0,1,.694-1.521,2.789,2.789,0,0,1,1.954-.636,3.585,3.585,0,0,1,1.948.478,2.046,2.046,0,0,1,.864,1.649h-1.67a.988.988,0,0,0-.182-.51,1.143,1.143,0,0,0-.937-.34,1.347,1.347,0,0,0-.776.17.489.489,0,0,0-.231.4.436.436,0,0,0,.246.416,10.653,10.653,0,0,0,1.74.463,3.2,3.2,0,0,1,1.494.709,1.61,1.61,0,0,1,.492,1.2A1.941,1.941,0,0,1,65.2-.384a3.317,3.317,0,0,1-2.183.6,3.286,3.286,0,0,1-2.224-.636,2.068,2.068,0,0,1-.718-1.62ZM69.659-5.18a1.134,1.134,0,0,0-.9.363,1.813,1.813,0,0,0-.4.984h2.6a1.454,1.454,0,0,0-.4-1A1.246,1.246,0,0,0,69.659-5.18Zm0-1.377a3.347,3.347,0,0,1,1.436.3,2.515,2.515,0,0,1,1.055.943A3.219,3.219,0,0,1,72.636-4a8.514,8.514,0,0,1,.053,1.266H68.317a1.587,1.587,0,0,0,.6,1.348,1.421,1.421,0,0,0,.832.24,1.2,1.2,0,0,0,.838-.293,1.391,1.391,0,0,0,.311-.439h1.705a2.118,2.118,0,0,1-.592,1.154,2.9,2.9,0,0,1-2.3.932,3.239,3.239,0,0,1-2.15-.785,3.167,3.167,0,0,1-.932-2.555,3.551,3.551,0,0,1,.841-2.543A2.875,2.875,0,0,1,69.659-6.557Zm4.125,4.811H75.56V0H73.784Zm5.08-5.4H77.171V-8.689h1.693Zm-1.693.762h1.693V0H77.171Zm6.176,5.209A1.324,1.324,0,0,0,84.472-1.7a2.426,2.426,0,0,0,.393-1.482,2.413,2.413,0,0,0-.393-1.479,1.326,1.326,0,0,0-1.125-.519,1.334,1.334,0,0,0-1.128.519,2.4,2.4,0,0,0-.4,1.479,2.413,2.413,0,0,0,.4,1.482A1.331,1.331,0,0,0,83.347-1.178Zm3.27-2a3.7,3.7,0,0,1-.809,2.405,2.971,2.971,0,0,1-2.455,1,2.971,2.971,0,0,1-2.455-1,3.7,3.7,0,0,1-.809-2.405,3.727,3.727,0,0,1,.809-2.4,2.951,2.951,0,0,1,2.455-1.014,2.951,2.951,0,0,1,2.455,1.014A3.727,3.727,0,0,1,86.616-3.182Z" transform="translate(121 669)" fill="#585858"/>
    <path id="Path_3911" data-name="Path 3911" d="M5.793.962a5.527,5.527,0,0,1,2.622.586A3.823,3.823,0,0,1,10.378,4.5H8.936A2.62,2.62,0,0,0,7.844,2.782a3.756,3.756,0,0,0-2.087-.538A3.271,3.271,0,0,0,3.241,3.365,4.809,4.809,0,0,0,2.219,6.7a5.337,5.337,0,0,0,.842,3.124,3.114,3.114,0,0,0,2.747,1.2,3.507,3.507,0,0,0,2.413-.846A3.541,3.541,0,0,0,9.2,7.452H5.83V6.243h4.724V12H9.617l-.352-1.384a5.526,5.526,0,0,1-1.311,1.128,4.914,4.914,0,0,1-2.439.542,4.752,4.752,0,0,1-3.289-1.238,5.874,5.874,0,0,1-1.5-4.263,6.113,6.113,0,0,1,1.465-4.3A4.656,4.656,0,0,1,5.793.962ZM15.747,11.15a1.818,1.818,0,0,0,1.8-.992,4.944,4.944,0,0,0,.487-2.208,3.932,3.932,0,0,0-.352-1.787,1.978,1.978,0,0,0-1.919-1.084A1.892,1.892,0,0,0,14,6a4.278,4.278,0,0,0-.549,2.227A3.721,3.721,0,0,0,14,10.315,1.935,1.935,0,0,0,15.747,11.15ZM15.8,3.929a3.552,3.552,0,0,1,2.563,1.011,3.947,3.947,0,0,1,1.047,2.974,5.1,5.1,0,0,1-.923,3.135,3.338,3.338,0,0,1-2.864,1.238,3.233,3.233,0,0,1-2.571-1.095A4.325,4.325,0,0,1,12.1,8.25a4.679,4.679,0,0,1,1-3.149A3.368,3.368,0,0,1,15.8,3.929Zm9.609-1.963h1.333v2.19h1.252V5.232H26.741v5.12a.554.554,0,0,0,.278.549,1.183,1.183,0,0,0,.513.081q.1,0,.205,0t.256-.018V12a2.943,2.943,0,0,1-.472.1,4.491,4.491,0,0,1-.531.029,1.431,1.431,0,0,1-1.252-.472,2.1,2.1,0,0,1-.33-1.227V5.232H24.346V4.156h1.062Zm7.017,9.185a1.818,1.818,0,0,0,1.8-.992,4.944,4.944,0,0,0,.487-2.208,3.932,3.932,0,0,0-.352-1.787,1.978,1.978,0,0,0-1.919-1.084A1.892,1.892,0,0,0,30.681,6a4.278,4.278,0,0,0-.549,2.227,3.721,3.721,0,0,0,.549,2.087A1.935,1.935,0,0,0,32.424,11.15Zm.051-7.222a3.552,3.552,0,0,1,2.563,1.011,3.947,3.947,0,0,1,1.047,2.974,5.1,5.1,0,0,1-.923,3.135A3.338,3.338,0,0,1,32.3,12.286a3.233,3.233,0,0,1-2.571-1.095,4.325,4.325,0,0,1-.952-2.941,4.679,4.679,0,0,1,1-3.149A3.368,3.368,0,0,1,32.476,3.929Zm9.675-.967a2.351,2.351,0,0,1,.286-1.2,2.019,2.019,0,0,1,1.78-.674q.125,0,.256.007t.3.022v1.2q-.205-.015-.3-.018t-.172,0q-.6,0-.718.311a6.154,6.154,0,0,0-.117,1.586h1.3v1.04H43.455V12h-1.3V5.232H41.06V4.192h1.091Zm5.156,1.194V9.363a2.2,2.2,0,0,0,.19.981,1.329,1.329,0,0,0,1.311.7,1.853,1.853,0,0,0,1.875-1.23,4.882,4.882,0,0,0,.271-1.809V4.156h1.318V12H51.028l.015-1.157a2.659,2.659,0,0,1-.637.754,2.8,2.8,0,0,1-1.831.615,2.362,2.362,0,0,1-2.285-1.121,3.337,3.337,0,0,1-.33-1.6V4.156Zm7.808,5.383a1.917,1.917,0,0,0,.33,1.011,2.071,2.071,0,0,0,1.729.637,2.549,2.549,0,0,0,1.289-.319,1.058,1.058,0,0,0,.557-.985.842.842,0,0,0-.447-.769,5.312,5.312,0,0,0-1.128-.374L56.4,8.477a5.109,5.109,0,0,1-1.479-.557,1.664,1.664,0,0,1-.85-1.479,2.261,2.261,0,0,1,.8-1.8,3.2,3.2,0,0,1,2.157-.688,2.994,2.994,0,0,1,2.556,1.04,2.257,2.257,0,0,1,.476,1.421H58.813A1.525,1.525,0,0,0,58.5,5.6a2.009,2.009,0,0,0-1.575-.52,1.882,1.882,0,0,0-1.132.286.9.9,0,0,0-.385.754.929.929,0,0,0,.505.82,3.037,3.037,0,0,0,.864.322l.872.212a6.739,6.739,0,0,1,1.9.667,1.765,1.765,0,0,1,.769,1.589,2.422,2.422,0,0,1-.795,1.809,3.383,3.383,0,0,1-2.421.762,3.248,3.248,0,0,1-2.479-.795,3.005,3.005,0,0,1-.78-1.967ZM65.1,3.98a3.578,3.578,0,0,1,1.619.392A2.985,2.985,0,0,1,67.91,5.386a3.5,3.5,0,0,1,.527,1.384A9.057,9.057,0,0,1,68.555,8.5h-5.75a3.355,3.355,0,0,0,.564,1.915A1.888,1.888,0,0,0,65,11.136a2.111,2.111,0,0,0,1.648-.681,2.3,2.3,0,0,0,.5-.916h1.3a2.73,2.73,0,0,1-.341.963,3.426,3.426,0,0,1-.648.868,3.072,3.072,0,0,1-1.487.791,4.517,4.517,0,0,1-1.077.117,3.3,3.3,0,0,1-2.483-1.066,4.146,4.146,0,0,1-1.018-2.985,4.508,4.508,0,0,1,1.025-3.069A3.383,3.383,0,0,1,65.1,3.98Zm2.1,3.472a3.416,3.416,0,0,0-.374-1.37,1.915,1.915,0,0,0-1.809-.952,2.005,2.005,0,0,0-1.523.656,2.476,2.476,0,0,0-.652,1.666Zm7.925,2.087a1.917,1.917,0,0,0,.33,1.011,2.071,2.071,0,0,0,1.729.637,2.549,2.549,0,0,0,1.289-.319,1.058,1.058,0,0,0,.557-.985.842.842,0,0,0-.447-.769,5.312,5.312,0,0,0-1.128-.374l-1.047-.264a5.109,5.109,0,0,1-1.479-.557,1.664,1.664,0,0,1-.85-1.479,2.261,2.261,0,0,1,.8-1.8,3.2,3.2,0,0,1,2.157-.688,2.994,2.994,0,0,1,2.556,1.04,2.257,2.257,0,0,1,.476,1.421H78.823a1.525,1.525,0,0,0-.315-.813,2.009,2.009,0,0,0-1.575-.52,1.882,1.882,0,0,0-1.132.286.9.9,0,0,0-.385.754.929.929,0,0,0,.505.82,3.037,3.037,0,0,0,.864.322l.872.212a6.739,6.739,0,0,1,1.9.667,1.765,1.765,0,0,1,.769,1.589,2.422,2.422,0,0,1-.795,1.809,3.383,3.383,0,0,1-2.421.762,3.248,3.248,0,0,1-2.479-.795,3.005,3.005,0,0,1-.78-1.967ZM82.1,1.966h1.333v2.19H84.69V5.232H83.438v5.12a.554.554,0,0,0,.278.549,1.183,1.183,0,0,0,.513.081q.1,0,.205,0t.256-.018V12a2.943,2.943,0,0,1-.472.1,4.491,4.491,0,0,1-.531.029,1.431,1.431,0,0,1-1.252-.472,2.1,2.1,0,0,1-.33-1.227V5.232H81.042V4.156H82.1Zm5.222,2.19V9.363a2.2,2.2,0,0,0,.19.981,1.329,1.329,0,0,0,1.311.7A1.853,1.853,0,0,0,90.7,9.817a4.882,4.882,0,0,0,.271-1.809V4.156h1.318V12H91.047l.015-1.157a2.659,2.659,0,0,1-.637.754,2.8,2.8,0,0,1-1.831.615,2.362,2.362,0,0,1-2.285-1.121,3.337,3.337,0,0,1-.33-1.6V4.156Zm7.859,4.014a3.888,3.888,0,0,0,.535,2.109,1.873,1.873,0,0,0,1.714.85,1.805,1.805,0,0,0,1.505-.787,3.718,3.718,0,0,0,.59-2.26,3.341,3.341,0,0,0-.608-2.2,1.9,1.9,0,0,0-1.5-.714,1.982,1.982,0,0,0-1.615.762A3.489,3.489,0,0,0,95.186,8.169ZM97.17,4.017a2.791,2.791,0,0,1,1.509.381,3.544,3.544,0,0,1,.8.769V1.2h1.267V12H99.558V10.909a2.852,2.852,0,0,1-1.091,1.047,3.124,3.124,0,0,1-1.443.322,2.922,2.922,0,0,1-2.271-1.1,4.31,4.31,0,0,1-.959-2.933,5.064,5.064,0,0,1,.875-2.97A2.865,2.865,0,0,1,97.17,4.017Zm5.522.176h1.34V12h-1.34Zm0-2.952h1.34V2.735h-1.34Zm6.445,9.91a1.818,1.818,0,0,0,1.8-.992,4.944,4.944,0,0,0,.487-2.208,3.932,3.932,0,0,0-.352-1.787,1.978,1.978,0,0,0-1.919-1.084A1.892,1.892,0,0,0,107.4,6a4.278,4.278,0,0,0-.549,2.227,3.721,3.721,0,0,0,.549,2.087A1.935,1.935,0,0,0,109.138,11.15Zm.051-7.222a3.552,3.552,0,0,1,2.563,1.011A3.947,3.947,0,0,1,112.8,7.913a5.1,5.1,0,0,1-.923,3.135,3.338,3.338,0,0,1-2.864,1.238,3.233,3.233,0,0,1-2.571-1.095,4.325,4.325,0,0,1-.952-2.941,4.679,4.679,0,0,1,1-3.149A3.368,3.368,0,0,1,109.189,3.929ZM1.23,19.966H2.563v2.19H3.816v1.077H2.563v5.12a.554.554,0,0,0,.278.549,1.183,1.183,0,0,0,.513.081q.1,0,.205,0t.256-.018V30a2.943,2.943,0,0,1-.472.1,4.491,4.491,0,0,1-.531.029,1.431,1.431,0,0,1-1.252-.472,2.1,2.1,0,0,1-.33-1.227V23.232H.168V22.156H1.23ZM8.247,29.15a1.818,1.818,0,0,0,1.8-.992,4.944,4.944,0,0,0,.487-2.208,3.932,3.932,0,0,0-.352-1.787,1.978,1.978,0,0,0-1.919-1.084A1.892,1.892,0,0,0,6.5,24a4.278,4.278,0,0,0-.549,2.227A3.721,3.721,0,0,0,6.5,28.315,1.935,1.935,0,0,0,8.247,29.15ZM8.3,21.929a3.552,3.552,0,0,1,2.563,1.011,3.947,3.947,0,0,1,1.047,2.974,5.1,5.1,0,0,1-.923,3.135,3.338,3.338,0,0,1-2.864,1.238,3.233,3.233,0,0,1-2.571-1.095A4.325,4.325,0,0,1,4.6,26.25a4.679,4.679,0,0,1,1-3.149A3.368,3.368,0,0,1,8.3,21.929Zm12.371,0a3.42,3.42,0,0,1,2.157.645,3.088,3.088,0,0,1,1,2.219H22.544a2.366,2.366,0,0,0-.535-1.2,1.689,1.689,0,0,0-1.34-.48,1.852,1.852,0,0,0-1.8,1.23,4.888,4.888,0,0,0-.352,1.97,3.708,3.708,0,0,0,.5,1.985,1.931,1.931,0,0,0,2.867.3,2.759,2.759,0,0,0,.663-1.373h1.282a3.44,3.44,0,0,1-1.1,2.281,3.428,3.428,0,0,1-2.249.721A3,3,0,0,1,18.025,29.1a4.3,4.3,0,0,1-.916-2.809,4.732,4.732,0,0,1,1-3.215A3.242,3.242,0,0,1,20.669,21.929Zm4.512.227h1.252v1.355a2.994,2.994,0,0,1,.754-.963,1.956,1.956,0,0,1,1.384-.568q.037,0,.125.007l.3.029v1.392a1.969,1.969,0,0,0-.216-.029q-.1-.007-.216-.007a1.881,1.881,0,0,0-1.531.641,2.237,2.237,0,0,0-.535,1.476V30H25.181Zm8.225-.176a3.578,3.578,0,0,1,1.619.392,2.985,2.985,0,0,1,1.194,1.014,3.5,3.5,0,0,1,.527,1.384,9.057,9.057,0,0,1,.117,1.729h-5.75a3.355,3.355,0,0,0,.564,1.915,1.888,1.888,0,0,0,1.633.721,2.111,2.111,0,0,0,1.648-.681,2.3,2.3,0,0,0,.5-.916h1.3a2.73,2.73,0,0,1-.341.963,3.426,3.426,0,0,1-.648.868,3.072,3.072,0,0,1-1.487.791,4.517,4.517,0,0,1-1.077.117,3.3,3.3,0,0,1-2.483-1.066A4.146,4.146,0,0,1,29.7,26.228a4.508,4.508,0,0,1,1.025-3.069A3.383,3.383,0,0,1,33.406,21.98Zm2.1,3.472a3.416,3.416,0,0,0-.374-1.37,1.915,1.915,0,0,0-1.809-.952,2.005,2.005,0,0,0-1.523.656,2.476,2.476,0,0,0-.652,1.666Zm3.984,2.461a1.086,1.086,0,0,0,.417.9,1.548,1.548,0,0,0,.989.33,3.006,3.006,0,0,0,1.348-.322,1.814,1.814,0,0,0,1.1-1.75V26.008a2.255,2.255,0,0,1-.623.256,5.3,5.3,0,0,1-.747.146l-.8.1a3.053,3.053,0,0,0-1.077.3A1.17,1.17,0,0,0,39.492,27.913Zm3.193-2.666a.716.716,0,0,0,.608-.381,1.159,1.159,0,0,0,.088-.505,1.071,1.071,0,0,0-.48-.978,2.574,2.574,0,0,0-1.373-.3,1.745,1.745,0,0,0-1.465.557,1.831,1.831,0,0,0-.315.916h-1.23a2.265,2.265,0,0,1,.941-2.018,3.864,3.864,0,0,1,2.1-.568,4.27,4.27,0,0,1,2.249.527,1.789,1.789,0,0,1,.857,1.641v4.519a.579.579,0,0,0,.084.33.406.406,0,0,0,.355.125q.088,0,.2-.011t.234-.033v.974a3.672,3.672,0,0,1-.469.11,3.426,3.426,0,0,1-.439.022,1.084,1.084,0,0,1-.989-.483,1.866,1.866,0,0,1-.227-.725,3.354,3.354,0,0,1-1.157.916,3.58,3.58,0,0,1-1.663.388,2.472,2.472,0,0,1-1.783-.663,2.2,2.2,0,0,1-.692-1.659A2.137,2.137,0,0,1,38.8,26.25a3.241,3.241,0,0,1,1.787-.74Zm4.4-5.281H48.42v2.19h1.252v1.077H48.42v5.12a.554.554,0,0,0,.278.549,1.183,1.183,0,0,0,.513.081q.1,0,.205,0t.256-.018V30a2.943,2.943,0,0,1-.472.1,4.491,4.491,0,0,1-.531.029,1.431,1.431,0,0,1-1.252-.472,2.1,2.1,0,0,1-.33-1.227V23.232H46.025V22.156h1.062Zm7.17,2.014a3.578,3.578,0,0,1,1.619.392,2.985,2.985,0,0,1,1.194,1.014,3.5,3.5,0,0,1,.527,1.384,9.057,9.057,0,0,1,.117,1.729h-5.75a3.355,3.355,0,0,0,.564,1.915,1.888,1.888,0,0,0,1.633.721,2.111,2.111,0,0,0,1.648-.681,2.3,2.3,0,0,0,.5-.916h1.3a2.73,2.73,0,0,1-.341.963,3.426,3.426,0,0,1-.648.868,3.072,3.072,0,0,1-1.487.791,4.517,4.517,0,0,1-1.077.117,3.3,3.3,0,0,1-2.483-1.066,4.146,4.146,0,0,1-1.018-2.985,4.508,4.508,0,0,1,1.025-3.069A3.383,3.383,0,0,1,54.258,21.98Zm2.1,3.472a3.416,3.416,0,0,0-.374-1.37,1.915,1.915,0,0,0-1.809-.952,2.005,2.005,0,0,0-1.523.656A2.476,2.476,0,0,0,52,25.452Zm12.041-3.3h1.458q-.278.754-1.238,3.442-.718,2.021-1.2,3.3a22.282,22.282,0,0,1-1.611,3.662,1.842,1.842,0,0,1-1.611.659,3.161,3.161,0,0,1-.428-.022,3.385,3.385,0,0,1-.37-.081v-1.2a4.548,4.548,0,0,0,.5.117,1.944,1.944,0,0,0,.271.022.949.949,0,0,0,.538-.121,1.115,1.115,0,0,0,.289-.3q.037-.059.264-.6t.33-.806l-2.9-8.071h1.494l2.1,6.387Zm5.713,6.995a1.818,1.818,0,0,0,1.8-.992A4.944,4.944,0,0,0,76.4,25.95a3.932,3.932,0,0,0-.352-1.787,1.978,1.978,0,0,0-1.919-1.084A1.892,1.892,0,0,0,72.371,24a4.278,4.278,0,0,0-.549,2.227,3.721,3.721,0,0,0,.549,2.087A1.935,1.935,0,0,0,74.114,29.15Zm.051-7.222a3.552,3.552,0,0,1,2.563,1.011,3.947,3.947,0,0,1,1.047,2.974,5.1,5.1,0,0,1-.923,3.135,3.338,3.338,0,0,1-2.864,1.238,3.233,3.233,0,0,1-2.571-1.095,4.325,4.325,0,0,1-.952-2.941,4.679,4.679,0,0,1,1-3.149A3.368,3.368,0,0,1,74.165,21.929Zm6.5.227v5.208a2.2,2.2,0,0,0,.19.981,1.329,1.329,0,0,0,1.311.7,1.853,1.853,0,0,0,1.875-1.23,4.882,4.882,0,0,0,.271-1.809V22.156h1.318V30H84.382l.015-1.157a2.659,2.659,0,0,1-.637.754,2.8,2.8,0,0,1-1.831.615,2.362,2.362,0,0,1-2.285-1.121,3.337,3.337,0,0,1-.33-1.6V22.156Zm7.061,0h1.252v1.355a2.994,2.994,0,0,1,.754-.963,1.956,1.956,0,0,1,1.384-.568q.037,0,.125.007l.3.029v1.392a1.969,1.969,0,0,0-.216-.029q-.1-.007-.216-.007a1.881,1.881,0,0,0-1.531.641,2.237,2.237,0,0,0-.535,1.476V30H87.722Z" transform="translate(39 608)" fill="#585858"/>
    <g id="Group_3770" data-name="Group 3770" transform="translate(135.805 630.402)">
      <g id="Group_1951" data-name="Group 1951" clip-path="url(#clip-path)">
        <g id="Group_1950" data-name="Group 1950" transform="translate(-449.743 -1141.204)" clip-path="url(#clip-path-2)">
          <path id="Path_1781" data-name="Path 1781" d="M0,15.6V0H18.509V15.6Z" transform="translate(446.397 1137.857)" fill="#585858"/>
        </g>
      </g>
    </g>
    <g id="Group_3769" data-name="Group 3769" transform="translate(-2828.432 410.849)">
      <path id="Path_3884" data-name="Path 3884" d="M3271.718,1106.239c.32,1.127,2.227,28.311-8.016,42.682a29.6,29.6,0,0,1-2.981-3.827c-1.239,4.844-3.653,11.084-7.3,14.869-3.588-3.847-5.935-10.117-7.136-14.961a27.3,27.3,0,0,1-3.037,3.772c-6.572-7.031-8.82-36.422-7.741-42.806.059.1.978,10.641,1.037,10.737a26.949,26.949,0,0,1,6.292-3.88,26.4,26.4,0,0,1,21.59.139,27.028,27.028,0,0,1,6.249,3.96C3270.795,1116.829,3271.658,1106.335,3271.718,1106.239Z" transform="translate(-146.639 -887.469)" fill="#1d1d1b" opacity="0.1"/>
      <path id="Path_3885" data-name="Path 3885" d="M3270.262,1026.728a24.637,24.637,0,0,1,.893,3.219,31.6,31.6,0,0,1,.343,4.871,30.1,30.1,0,0,1-8.291,20.786,29.586,29.586,0,0,1-2.981-3.827c-1.239,4.844-3.653,11.084-7.3,14.869-3.587-3.847-5.935-10.117-7.136-14.961a27.294,27.294,0,0,1-3.037,3.772,30.646,30.646,0,0,1-7.668-25.757,23.943,23.943,0,0,1,.964-3.143h0a26.945,26.945,0,0,1,6.291-3.88,26.4,26.4,0,0,1,21.59.139,27.024,27.024,0,0,1,6.249,3.961C3270.3,1026.679,3270.2,1026.823,3270.262,1026.728Z" transform="translate(-146.144 -811.798)" fill="url(#linear-gradient-2)"/>
      <path id="Path_3886" data-name="Path 3886" d="M3136.58,731.329c.063-.771.112-1.59.1-2.409a33.826,33.826,0,0,0-7.116-21.142,28.2,28.2,0,0,0-45.072-.29,33.82,33.82,0,0,0-7.346,21.049c0,.8.035,1.623.075,2.41a43.719,43.719,0,0,1-.725-48.737c6.874-10.351,18.09-17.06,30.748-16.979,12.628.081,23.8,6.933,30.561,17.372a43.784,43.784,0,0,1-1.226,48.725Z" transform="translate(0 -497.713)" fill="#41596b"/>
      <path id="Path_3887" data-name="Path 3887" d="M3192.3,682.607a90.712,90.712,0,0,1-8.241,25.173,28.2,28.2,0,0,0-45.072-.29,90.252,90.252,0,0,1-7.966-25.277c6.874-10.351,18.09-17.06,30.748-16.978C3174.367,665.315,3185.539,672.168,3192.3,682.607Z" transform="translate(-54.464 -497.716)" fill="#324856"/>
      <path id="Path_3888" data-name="Path 3888" d="M3186.981,214.977a27.063,27.063,0,0,0-10.854-5.565,25.8,25.8,0,0,0-12.392-.08,27,27,0,0,0-10.914,5.425c-16.632-27.92-16.361-64.246.767-91.869,2.8-4.513,11.166-20.511,16.925-20.474,5.62.036,13.946,16.141,16.7,20.69C3204.04,150.946,3203.917,187.273,3186.981,214.977Z" transform="translate(-62.885 0)" fill="#98b7b7"/>
      <path id="Path_3889" data-name="Path 3889" d="M3286.953,123.105l-33.627-.216c2.8-4.513,11.138-20.511,16.926-20.474C3276.084,102.453,3284.2,118.557,3286.953,123.105Z" transform="translate(-162.622 0)" fill="#334a5e"/>
      <path id="Path_3890" data-name="Path 3890" d="M3390.688,123.105c-2.755-4.549-11.082-20.654-16.7-20.69a5.77,5.77,0,0,0-3.357,1.418c5.19,4.031,11.2,15.539,13.462,19.272,16.189,26.788,16.678,61.431,1.606,88.691a27.968,27.968,0,0,1,4.756,3.181C3407.389,187.273,3407.513,150.946,3390.688,123.105Z" transform="translate(-266.358 0)" opacity="0.1"/>
      <path id="Path_3891" data-name="Path 3891" d="M3272.536,1025.613a27.056,27.056,0,0,0-6.258-3.965,27.22,27.22,0,0,0-10.8-2.416l-.068,0-.069,0a27.223,27.223,0,0,0-10.8,2.416,26.21,26.21,0,0,0-6.176,3.876,17.052,17.052,0,0,0-1.057,3.888,29.093,29.093,0,0,1,6.234-3.91,29.8,29.8,0,0,1,11.82-2.644h.093a29.8,29.8,0,0,1,11.82,2.644,29.1,29.1,0,0,1,6.235,3.91A15.484,15.484,0,0,0,3272.536,1025.613Z" transform="translate(-148.458 -810.766)" fill="#688786"/>
      <path id="Path_3892" data-name="Path 3892" d="M3365.425,822.473h0c-5.195,11.583-5.3,30.414-.229,42.031h0C3370.375,852.937,3370.493,834.122,3365.425,822.473Z" transform="translate(-258.249 -636.767)" fill="#41596b"/>
      <circle id="Ellipse_381" data-name="Ellipse 381" cx="16.301" cy="16.301" r="16.301" transform="translate(3090.895 139.882)" fill="#cae4e5"/>
      <circle id="Ellipse_382" data-name="Ellipse 382" cx="11.329" cy="11.329" r="11.329" transform="translate(3095.867 144.854)" fill="#4a687b"/>
    </g>
    <g id="Group_3771" data-name="Group 3771" transform="translate(-3427.48 -392.449)" opacity="0.601">
      <path id="Path_3893" data-name="Path 3893" d="M3733.971,1093.856a.374.374,0,0,1-.372-.338c0-.051-.12-1.276-.12-3.3l0-.718a.374.374,0,0,1,.374-.369h0a.374.374,0,0,1,.369.378l0,.708c0,1.99.115,3.222.116,3.235a.373.373,0,0,1-.336.406Zm.083-7.971h-.031a.374.374,0,0,1-.341-.4c.113-1.343.276-2.685.483-3.989a.378.378,0,0,1,.427-.31.372.372,0,0,1,.31.427c-.2,1.286-.364,2.61-.476,3.934A.373.373,0,0,1,3734.054,1085.885Zm1.263-7.869a.342.342,0,0,1-.088-.011.373.373,0,0,1-.274-.451c.323-1.327.7-2.624,1.126-3.859a.373.373,0,0,1,.706.243c-.417,1.212-.79,2.488-1.107,3.792A.375.375,0,0,1,3735.316,1078.016Zm2.606-7.521a.384.384,0,0,1-.158-.035.374.374,0,0,1-.18-.5,32.634,32.634,0,0,1,1.925-3.537.373.373,0,0,1,.632.4,32.047,32.047,0,0,0-1.88,3.458A.375.375,0,0,1,3737.923,1070.494Zm33.177-3.781a5.223,5.223,0,0,1-3.794-1.7.373.373,0,1,1,.537-.519,4.435,4.435,0,0,0,3.258,1.474Zm3.622-1.442a.373.373,0,0,1-.253-.647,2.49,2.49,0,0,0,.672-.921,6.73,6.73,0,0,0,.4-2.172c0-.1,0-.194-.007-.287a.372.372,0,0,1,.351-.394.363.363,0,0,1,.394.351c.006.109.009.221.008.334a7.47,7.47,0,0,1-.436,2.411,3.16,3.16,0,0,1-.871,1.224A.368.368,0,0,1,3774.721,1065.271Zm-32.554-1.491a.373.373,0,0,1-.286-.615,27.019,27.019,0,0,1,2.821-2.881.374.374,0,1,1,.492.562,26.208,26.208,0,0,0-2.742,2.8A.375.375,0,0,1,3742.167,1063.78Zm23.388-2.052a.372.372,0,0,1-.349-.241,21.889,21.889,0,0,1-1.038-3.909.373.373,0,0,1,.735-.13,21.134,21.134,0,0,0,1,3.775.374.374,0,0,1-.349.506Zm-17.423-3.169a.373.373,0,0,1-.2-.689,26.948,26.948,0,0,1,3.556-1.893.373.373,0,1,1,.3.683,26.3,26.3,0,0,0-3.458,1.84A.367.367,0,0,1,3748.133,1058.559Zm26.125-.479a.374.374,0,0,1-.265-.109,10.408,10.408,0,0,0-3.218-2.068.374.374,0,0,1,.3-.684,11.157,11.157,0,0,1,3.448,2.223.373.373,0,0,1-.265.638Zm-18.877-2.731a.374.374,0,0,1-.1-.732,33.851,33.851,0,0,1,3.924-.867.369.369,0,0,1,.428.309.374.374,0,0,1-.31.428,33.208,33.208,0,0,0-3.836.848A.365.365,0,0,1,3755.38,1055.349Zm11.753-.645a.4.4,0,0,1-.087-.01c-.964-.231-1.819-.387-2.384-.49a7.5,7.5,0,0,1-.821-.171q-.307.014-.607.032a.354.354,0,0,1-.395-.351.373.373,0,0,1,.35-.395l.479-.025c-.076-1.167-.115-2.415-.117-3.711a.373.373,0,0,1,.373-.374h0a.373.373,0,0,1,.374.373c0,1.339.043,2.623.125,3.819l.371.068c.574.1,1.441.262,2.425.5a.374.374,0,0,1-.087.737Zm-3-8.724a.4.4,0,0,1-.057,0,.373.373,0,0,1-.312-.427,26.3,26.3,0,0,1,.958-3.928.373.373,0,1,1,.71.229,25.777,25.777,0,0,0-.931,3.815A.373.373,0,0,1,3764.133,1045.979Zm2.407-7.578a.367.367,0,0,1-.159-.036.374.374,0,0,1-.18-.5,31.606,31.606,0,0,1,1.943-3.531.374.374,0,0,1,.63.4,30.661,30.661,0,0,0-1.9,3.448A.375.375,0,0,1,3766.541,1038.4Zm4.285-6.694a.373.373,0,0,1-.284-.616,27.218,27.218,0,0,1,2.833-2.872.373.373,0,0,1,.49.563,26.6,26.6,0,0,0-2.756,2.793A.373.373,0,0,1,3770.825,1031.708Zm5.986-5.207a.373.373,0,0,1-.2-.69,25.813,25.813,0,0,1,3.573-1.874.373.373,0,1,1,.294.687,25.141,25.141,0,0,0-3.47,1.819A.37.37,0,0,1,3776.812,1026.5Zm7.284-3.134a.374.374,0,0,1-.095-.735q.636-.167,1.3-.309a.37.37,0,0,1,.443.287.374.374,0,0,1-.288.444q-.646.139-1.266.3A.375.375,0,0,1,3784.1,1023.366Z" transform="translate(0 0)" fill="url(#linear-gradient-3)"/>
    </g>
    <g id="Group_3777" data-name="Group 3777" transform="translate(-2360.63 -528.615)" opacity="0.5">
      <g id="Group_3772" data-name="Group 3772" transform="translate(2578.601 1166.831)">
        <path id="Path_3894" data-name="Path 3894" d="M2646.061,1247.16a.276.276,0,0,1-.274-.245c-4.814-42.255-25.651-57.357-34.387-61.889a.276.276,0,1,1,.255-.49c8.814,4.572,29.837,19.8,34.68,62.317a.276.276,0,0,1-.243.306Z" transform="translate(-2611.251 -1184.504)" fill="url(#linear-gradient-4)"/>
      </g>
      <g id="Group_3776" data-name="Group 3776" transform="translate(2575.25 1165.017)">
        <g id="Group_3775" data-name="Group 3775" transform="translate(0)">
          <g id="Group_3774" data-name="Group 3774">
            <g id="Group_3773" data-name="Group 3773" clip-path="url(#clip-path-3)">
              <rect id="Rectangle_1886" data-name="Rectangle 1886" width="5.488" height="5.001" fill="#7f897a"/>
            </g>
          </g>
        </g>
      </g>
    </g>
    <g id="Group_3782" data-name="Group 3782" transform="translate(-2211.704 -305.368)">
      <g id="Group_3780" data-name="Group 3780" transform="translate(2407.646 949.273)">
        <path id="Path_3898" data-name="Path 3898" d="M2703.337,1051.243a.375.375,0,0,1-.373-.34c-.135-1.422-.32-2.862-.551-4.284a.375.375,0,0,1,.311-.429.382.382,0,0,1,.429.31c.233,1.437.421,2.895.556,4.333a.374.374,0,0,1-.338.408Zm-1.389-8.571a.375.375,0,0,1-.365-.291c-.323-1.4-.7-2.8-1.109-4.171a.375.375,0,0,1,.719-.217c.417,1.384.794,2.8,1.121,4.219a.375.375,0,0,1-.281.449A.369.369,0,0,1,2701.948,1042.672Zm-2.506-8.31a.376.376,0,0,1-.352-.243c-.5-1.342-1.057-2.685-1.649-3.99a.375.375,0,0,1,.684-.309c.6,1.32,1.159,2.677,1.668,4.035a.376.376,0,0,1-.22.483A.389.389,0,0,1,2699.442,1034.362Zm-3.578-7.907a.377.377,0,0,1-.331-.2c-.678-1.269-1.406-2.527-2.159-3.739a.375.375,0,0,1,.637-.4c.762,1.226,1.5,2.5,2.185,3.782a.375.375,0,0,1-.154.507A.38.38,0,0,1,2695.864,1026.455Zm-4.587-7.372a.376.376,0,0,1-.3-.156c-.833-1.162-1.718-2.314-2.631-3.426a.375.375,0,1,1,.58-.476c.924,1.124,1.819,2.29,2.66,3.464a.375.375,0,0,1-.086.523A.37.37,0,0,1,2691.277,1019.084Zm-5.51-6.711a.374.374,0,0,1-.273-.119c-.984-1.05-2.011-2.078-3.054-3.054a.375.375,0,1,1,.511-.548c1.055.988,2.094,2.027,3.089,3.089a.374.374,0,0,1-.273.631Zm-6.338-5.936a.374.374,0,0,1-.238-.085c-1.109-.911-2.262-1.8-3.426-2.63a.375.375,0,0,1,.438-.609c1.176.844,2.342,1.738,3.465,2.66a.375.375,0,0,1-.238.664Z" transform="translate(-2660.321 -994.876)" fill="url(#linear-gradient-5)"/>
      </g>
    </g>
  </g>
</svg>
