<svg xmlns="http://www.w3.org/2000/svg" width="11" height="14.143" viewBox="0 0 11 14.143">
  <path id="icons8-contract" d="M6.619,3A2.627,2.627,0,0,0,4,5.619v.524a.524.524,0,0,0,.524.524h5.762a.524.524,0,0,0,.524-.524V5.619a1.571,1.571,0,1,1,3.143,0v7.333h-.524A3.128,3.128,0,0,1,13.245,14h1.143A.524.524,0,0,0,15,13.476V5.619A2.627,2.627,0,0,0,12.381,3ZM5.571,7.714v5.762A.524.524,0,0,0,6.1,14H7.326a3.128,3.128,0,0,1-.183-1.048H6.619V7.714ZM8.714,8.762a.524.524,0,1,0,0,1.048h3.143a.524.524,0,1,0,0-1.048Zm1.571,2.1a2.1,2.1,0,0,0-2.1,2.1,2.075,2.075,0,0,0,.524,1.368v2.823L10.286,16.1l1.571,1.048V14.32a2.075,2.075,0,0,0,.524-1.368A2.1,2.1,0,0,0,10.286,10.857Zm0,1.048a1.048,1.048,0,1,1-1.048,1.048A1.04,1.04,0,0,1,10.286,11.9Z" transform="translate(-4 -3)"/>
</svg>
