<svg xmlns="http://www.w3.org/2000/svg" width="14.299" height="18.832" viewBox="0 0 14.299 18.832"><path d="M15.088,2.283V.755a.755.755,0,0,0-1.511,0v.831a3.777,3.777,0,0,0-.755-.076h-.755V.755a.755.755,0,0,0-1.511,0v.755H9.044V.755a.755.755,0,1,0-1.511,0v.755H6.777a3.778,3.778,0,0,0-.755.076V.755a.755.755,0,1,0-1.511,0V2.283A3.762,3.762,0,0,0,3,5.288v9.066a3.782,3.782,0,0,0,3.777,3.777h6.044A3.782,3.782,0,0,0,16.6,14.354V5.288a3.762,3.762,0,0,0-1.511-3.005Zm0,12.071a2.266,2.266,0,0,1-2.266,2.266H6.777a2.266,2.266,0,0,1-2.266-2.266V5.288A2.266,2.266,0,0,1,6.777,3.022h6.044a2.266,2.266,0,0,1,2.266,2.266Zm-1.511-8.31a.755.755,0,0,1-.755.755H6.777a.755.755,0,0,1,0-1.511h6.044A.755.755,0,0,1,13.577,6.044Zm0,3.022a.755.755,0,0,1-.755.755H6.777a.755.755,0,1,1,0-1.511h6.044A.755.755,0,0,1,13.577,9.066Zm-3.022,3.022a.755.755,0,0,1-.755.755H6.777a.755.755,0,1,1,0-1.511H9.8A.755.755,0,0,1,10.555,12.088Z" transform="translate(-2.65 0.35)" stroke="#fff" stroke-width="0.7"/></svg>