<svg version="1.1" id="Layer_1" xmlns="http://www.w3.org/2000/svg" x="0" y="0" viewBox="0 0 11 14.2" xml:space="preserve"><style></style><path id="icons8-contract" d="M2.6 0C1.2 0 0 1.2 0 2.6v.5c0 .3.2.5.5.5h5.8c.3 0 .5-.2.5-.5v-.5c0-.8.7-1.6 1.6-1.6s1.6.8 1.6 1.6V10h-.6c0 .4-.1.7-.2 1h1.1c.3 0 .6-.1.6-.4v-8C11 1.2 9.8 0 8.4 0H2.6zm-1 4.7v5.8c0 .3.2.5.5.5h1.2c-.1-.3-.2-.7-.2-1h-.5V4.7h-1zm3.1 1.1c-.3 0-.5.2-.5.5s.2.5.5.5h3.1c.3 0 .5-.2.5-.5s-.2-.5-.4-.5H4.7zm1.6 2.1c-1.2 0-2.1.9-2.1 2.1 0 .5.2 1 .5 1.4v2.8l1.6-1.1 1.6 1v-2.8c.3-.4.5-.9.5-1.4 0-1.1-1-2-2.1-2zm0 1c.6 0 1 .5 1 1s-.5 1-1 1c-.6 0-1-.5-1-1-.1-.5.4-1 1-1z"/></svg>