<?xml version="1.0" encoding="utf-8"?>
<!-- Generator: Adobe Illustrator 25.2.1, SVG Export Plug-In . SVG Version: 6.00 Build 0)  -->
<svg version="1.1" id="Layer_1" xmlns="http://www.w3.org/2000/svg" xmlns:xlink="http://www.w3.org/1999/xlink" x="0px" y="0px"
	 viewBox="0 0 13.5 11.4" style="enable-background:new 0 0 13.5 11.4;" xml:space="preserve">
<style type="text/css">
	.st0{fill:#1C1F21;}
	.st1{fill:none;}
</style>
<g id="Group_4373" transform="translate(-24.434 -196.574)">
	<g id="Group_4190" transform="translate(-2306.219 -621.927)">
		<path id="Path_4262" d="M2344.1,824.3l-2.8-2.8l-2.8,2.8h2.1c0,0.8-0.2,1.5-0.6,2.2c0,0,0,0.1-0.1,0.1s-0.1,0.1-0.1,0.1
			c-0.8,1.1-2.1,1.7-3.4,1.7c-0.5,0-0.9-0.1-1.3-0.2c-0.1,0-0.1,0-0.2-0.1c-0.1,0-0.1-0.1-0.2-0.1c-2.1-1-3-3.5-2.1-5.6
			c0.7-1.5,2.2-2.5,3.8-2.5v-1.5c-3.2,0-5.7,2.6-5.7,5.7c0,3.2,2.6,5.7,5.7,5.7c3.1,0,5.7-2.5,5.7-5.7L2344.1,824.3z"/>
		<g id="Group_4189">
			<path id="Path_4263" d="M2337.1,825h-3.2v-1h2.2v-2.5h1V825z"/>
		</g>
	</g>
</g>
</svg>
