<?xml version="1.0" encoding="utf-8"?>
<!-- Generator: Adobe Illustrator 25.2.1, SVG Export Plug-In . SVG Version: 6.00 Build 0)  -->
<svg version="1.1" id="Layer_1" xmlns="http://www.w3.org/2000/svg" xmlns:xlink="http://www.w3.org/1999/xlink" x="0px" y="0px"
	 viewBox="0 0 11 14.2" style="enable-background:new 0 0 11 14.2;" xml:space="preserve">
<style type="text/css">
	.st0{fill:#1C1F21;}
	.st1{fill:none;}
</style>
<path id="icons8-contract" d="M2.6,0C1.2,0,0,1.2,0,2.6v0.5c0,0.3,0.2,0.5,0.5,0.5h0h5.8c0.3,0,0.5-0.2,0.5-0.5v0V2.6
	C6.8,1.8,7.5,1,8.4,1S10,1.8,10,2.6V10H9.4c0,0.4-0.1,0.7-0.2,1h1.1c0.3,0,0.6-0.1,0.6-0.4c0,0,0-0.1,0-0.1V2.6C11,1.2,9.8,0,8.4,0
	H2.6z M1.6,4.7v5.8c0,0.3,0.2,0.5,0.5,0.5c0,0,0,0,0,0h1.2c-0.1-0.3-0.2-0.7-0.2-1H2.6V4.7H1.6z M4.7,5.8C4.4,5.8,4.2,6,4.2,6.3
	s0.2,0.5,0.5,0.5h3.1c0.3,0,0.5-0.2,0.5-0.5S8.1,5.8,7.9,5.8H4.7z M6.3,7.9c-1.2,0-2.1,0.9-2.1,2.1c0,0,0,0,0,0c0,0.5,0.2,1,0.5,1.4
	v2.8l1.6-1.1l1.6,1v-2.8c0.3-0.4,0.5-0.9,0.5-1.4C8.4,8.8,7.4,7.9,6.3,7.9L6.3,7.9z M6.3,8.9c0.6,0,1,0.5,1,1s-0.5,1-1,1
	c-0.6,0-1-0.5-1-1C5.2,9.4,5.7,8.9,6.3,8.9C6.3,8.9,6.3,8.9,6.3,8.9L6.3,8.9z"/>
</svg>
