<svg xmlns="http://www.w3.org/2000/svg" width="66" height="63.045" viewBox="0 0 66 63.045"><g transform="translate(-155 -103.132)"><g transform="translate(5 -42.931)"><g transform="translate(150 146.063)"><g transform="translate(0)"><path d="M9.94,7.881h0a3.94,3.94,0,0,0,3.94-3.94h0A3.94,3.94,0,0,0,9.94,0h0A3.94,3.94,0,0,0,6,3.94H6A3.94,3.94,0,0,0,9.94,7.881Z" transform="translate(0.896)" fill="#38d989"/><path d="M7.448,63.9h0A3.448,3.448,0,0,0,10.9,60.448h0A3.448,3.448,0,0,0,7.448,57h0A3.448,3.448,0,0,0,4,60.448H4A3.448,3.448,0,0,0,7.448,63.9Z" transform="translate(-4 -0.851)" fill="#38d989"/><path d="M64.729,20.194h0A4.433,4.433,0,0,0,60.3,15.761H43.328a3.94,3.94,0,0,1-3.94-3.94h0a3.94,3.94,0,0,1,3.94-3.94H45.3a3.94,3.94,0,0,0,3.94-3.94h0A3.94,3.94,0,0,0,45.3,0H21.657a3.94,3.94,0,0,0-3.94,3.94h0a3.94,3.94,0,0,0,3.94,3.94h1.97a2.955,2.955,0,0,1,2.955,2.955h0a2.955,2.955,0,0,1-2.955,2.955h-13.3a3.448,3.448,0,0,0-3.448,3.448h0a3.448,3.448,0,0,0,3.448,3.448h2.463a2.955,2.955,0,0,1,2.955,2.955h0A2.955,2.955,0,0,1,12.791,26.6H7.866A4.926,4.926,0,0,0,2.94,31.522h0a4.926,4.926,0,0,0,4.925,4.925h5.418A3.448,3.448,0,0,1,16.731,39.9h0a3.448,3.448,0,0,1-3.448,3.448H2.94A3.94,3.94,0,0,0-1,47.284h0a3.94,3.94,0,0,0,3.94,3.94H17.224a2.462,2.462,0,0,1,2.463,2.463h0a2.462,2.462,0,0,1-2.463,2.463h0A3.448,3.448,0,0,0,13.776,59.6h0a3.448,3.448,0,0,0,3.448,3.448H46.776A3.448,3.448,0,0,0,50.224,59.6h0a3.448,3.448,0,0,0-3.448-3.448h-.493a1.97,1.97,0,0,1-1.97-1.97h0a1.97,1.97,0,0,1,1.97-1.97h6.9a3.94,3.94,0,0,0,3.94-3.94h0a3.94,3.94,0,0,0-3.94-3.94h-6.4a2.462,2.462,0,0,1-2.463-2.463h0A2.462,2.462,0,0,1,46.776,39.4h.493a3.94,3.94,0,0,0,3.94-3.94h0a3.94,3.94,0,0,0-3.94-3.94H45.791a3.448,3.448,0,0,1-3.448-3.448h0a3.448,3.448,0,0,1,3.448-3.448H60.3A4.433,4.433,0,0,0,64.729,20.194Z" transform="translate(1)" fill="#38d989"/><path d="M58.94,39.881h0A3.94,3.94,0,0,1,55,35.94h0A3.94,3.94,0,0,1,58.94,32h0a3.94,3.94,0,0,1,3.94,3.94h0A3.94,3.94,0,0,1,58.94,39.881Z" transform="translate(3.119 -0.478)" fill="#38d989"/><path d="M31.806,6A12.806,12.806,0,0,0,19,18.806v9.851h4.925V18.806a7.881,7.881,0,0,1,15.761,0v9.851h4.925V18.806A12.806,12.806,0,0,0,31.806,6Z" transform="translate(0.701 -0.09)"/><path d="M48.448,56.522H14.955A2.955,2.955,0,0,1,12,53.567V34.851A9.851,9.851,0,0,1,21.851,25h19.7A9.851,9.851,0,0,1,51.4,34.851V53.567A2.955,2.955,0,0,1,48.448,56.522Z" transform="translate(0.806 -0.373)" fill="#f5f5f5"/><path d="M36.851,38.925a4.925,4.925,0,1,0-6.9,4.51v4.356a1.97,1.97,0,1,0,3.94,0V43.435A4.923,4.923,0,0,0,36.851,38.925Z" transform="translate(0.582 -0.507)"/></g></g></g></g></svg>