<svg xmlns="http://www.w3.org/2000/svg" xmlns:xlink="http://www.w3.org/1999/xlink" width="75.244" height="71.875" viewBox="0 0 75.244 71.875">
  <defs>
    <linearGradient id="linear-gradient" x1="0.5" x2="0.5" y2="7.855" gradientUnits="objectBoundingBox">
      <stop offset="0" stop-color="#b1fdc0"/>
      <stop offset="1" stop-color="#fefd86"/>
    </linearGradient>
    <linearGradient id="linear-gradient-2" y1="-8.141" y2="1" xlink:href="#linear-gradient"/>
    <linearGradient id="linear-gradient-3" y2="1" xlink:href="#linear-gradient"/>
    <linearGradient id="linear-gradient-4" y1="-4.045" y2="4.02" xlink:href="#linear-gradient"/>
  </defs>
  <g id="Group_3796" data-name="Group 3796" transform="translate(-150 -146.063)">
    <g id="Group_3794" data-name="Group 3794" transform="translate(-4 -3.938)">
      <g id="Group_3793" data-name="Group 3793" transform="translate(154 150)">
        <g id="icons8-lock">
          <path id="Path_3913" data-name="Path 3913" d="M10.492,8.984h0a4.492,4.492,0,0,0,4.492-4.492h0A4.492,4.492,0,0,0,10.492,0h0A4.492,4.492,0,0,0,6,4.492H6A4.492,4.492,0,0,0,10.492,8.984Z" transform="translate(1.861)" fill="url(#linear-gradient)"/>
          <path id="Path_3914" data-name="Path 3914" d="M7.931,64.861h0a3.931,3.931,0,0,0,3.931-3.931h0A3.931,3.931,0,0,0,7.931,57h0A3.931,3.931,0,0,0,4,60.931H4A3.931,3.931,0,0,0,7.931,64.861Z" transform="translate(-4 7.014)" fill="url(#linear-gradient-2)"/>
          <path id="Path_3915" data-name="Path 3915" d="M73.935,23.022h0a5.054,5.054,0,0,0-5.054-5.054H49.537a4.492,4.492,0,0,1-4.492-4.492h0a4.492,4.492,0,0,1,4.492-4.492h2.246a4.492,4.492,0,0,0,4.492-4.492h0A4.492,4.492,0,0,0,51.783,0H24.83a4.492,4.492,0,0,0-4.492,4.492h0A4.492,4.492,0,0,0,24.83,8.984h2.246a3.369,3.369,0,0,1,3.369,3.369h0a3.369,3.369,0,0,1-3.369,3.369H11.915a3.931,3.931,0,0,0-3.931,3.931h0a3.931,3.931,0,0,0,3.931,3.931h2.808a3.369,3.369,0,0,1,3.369,3.369h0a3.369,3.369,0,0,1-3.369,3.369H9.107a5.616,5.616,0,0,0-5.615,5.615h0a5.616,5.616,0,0,0,5.615,5.615h6.177a3.931,3.931,0,0,1,3.931,3.931h0a3.931,3.931,0,0,1-3.931,3.931H3.492A4.492,4.492,0,0,0-1,53.906h0A4.492,4.492,0,0,0,3.492,58.4H19.776a2.807,2.807,0,0,1,2.808,2.808h0a2.807,2.807,0,0,1-2.808,2.808h0a3.931,3.931,0,0,0-3.931,3.931h0a3.931,3.931,0,0,0,3.931,3.931H53.468A3.931,3.931,0,0,0,57.4,67.944h0a3.931,3.931,0,0,0-3.931-3.931h-.562a2.245,2.245,0,0,1-2.246-2.246h0a2.245,2.245,0,0,1,2.246-2.246h7.861a4.492,4.492,0,0,0,4.492-4.492h0a4.492,4.492,0,0,0-4.492-4.492h-7.3a2.807,2.807,0,0,1-2.808-2.808h0a2.807,2.807,0,0,1,2.808-2.808h.562a4.492,4.492,0,0,0,4.492-4.492h0a4.492,4.492,0,0,0-4.492-4.492H52.345a3.931,3.931,0,0,1-3.931-3.931h0a3.931,3.931,0,0,1,3.931-3.931H68.881A5.054,5.054,0,0,0,73.935,23.022Z" transform="translate(1)" fill="url(#linear-gradient-3)"/>
          <path id="Path_3916" data-name="Path 3916" d="M59.492,40.984h0A4.492,4.492,0,0,1,55,36.492h0A4.492,4.492,0,0,1,59.492,32h0a4.492,4.492,0,0,1,4.492,4.492h0A4.492,4.492,0,0,1,59.492,40.984Z" transform="translate(11.26 3.938)" fill="url(#linear-gradient-4)"/>
          <path id="Path_3917" data-name="Path 3917" d="M33.6,6A14.6,14.6,0,0,0,19,20.6V31.83h5.615V20.6a8.984,8.984,0,0,1,17.969,0V31.83H48.2V20.6A14.6,14.6,0,0,0,33.6,6Z" transform="translate(3.461 0.738)" fill="#9b9b9b"/>
          <path id="Path_3918" data-name="Path 3918" d="M53.553,60.938H15.369A3.369,3.369,0,0,1,12,57.568V36.23A11.23,11.23,0,0,1,23.23,25H45.691a11.23,11.23,0,0,1,11.23,11.23V57.568A3.369,3.369,0,0,1,53.553,60.938Z" transform="translate(2.6 3.076)" fill="#e0e0e0" stroke="#dbdbdb" stroke-width="0.5"/>
          <path id="Path_3919" data-name="Path 3919" d="M38.23,39.615a5.615,5.615,0,1,0-7.861,5.141v4.966a2.246,2.246,0,0,0,4.492,0V44.757A5.613,5.613,0,0,0,38.23,39.615Z" transform="translate(4.445 4.184)" fill="#9b9b9b"/>
        </g>
      </g>
    </g>
  </g>
</svg>
