<?xml version="1.0" encoding="utf-8"?>
<!-- Generator: Adobe Illustrator 25.2.1, SVG Export Plug-In . SVG Version: 6.00 Build 0)  -->
<svg version="1.1" id="Layer_1" xmlns="http://www.w3.org/2000/svg" xmlns:xlink="http://www.w3.org/1999/xlink" x="0px" y="0px"
	 viewBox="0 0 9.8 9.8" style="enable-background:new 0 0 9.8 9.8;" xml:space="preserve">
<style type="text/css">
	.st0{fill:#1C1F21;}
	.st1{fill:none;}
</style>
<path id="icons8-logout-rounded-left" d="M4.9,0c-1.6,0-3.1,0.8-4,2.1l0.7,0.5c1.3-1.9,3.9-2.3,5.7-1s2.3,3.9,1,5.7s-3.9,2.3-5.7,1
	c-0.4-0.3-0.7-0.6-1-1L0.9,7.7c1.6,2.2,4.6,2.8,6.9,1.2C10,7.4,10.5,4.3,9,2.1C8,0.8,6.5,0,4.9,0z M1.9,3L0.3,4.6L0,4.9l0.3,0.3
	l1.6,1.6l0.6-0.6L1.6,5.3h5V4.5h-5l0.9-0.9L1.9,3z"/>
</svg>
