<svg xmlns="http://www.w3.org/2000/svg" width="19.505" height="18.576" viewBox="0 0 19.505 18.576">
  <g id="Group_2111" data-name="Group 2111" transform="translate(-32 -364.773)">
    <rect id="Rectangle" width="1.858" height="11.145" rx="0.929" transform="translate(40.359 374.99) rotate(-90)"/>
    <path id="Path-103" d="M13.932,1.864a.929.929,0,0,1,0-1.858h.929a3.715,3.715,0,0,1,3.715,3.715v7.43a3.715,3.715,0,0,1-3.715,3.715H3.715A3.715,3.715,0,0,1,0,11.152V3.715A3.715,3.715,0,0,1,3.715,0h.929a.929.929,0,0,1,0,1.858H3.715A1.858,1.858,0,0,0,1.858,3.715v7.437a1.858,1.858,0,0,0,1.858,1.858H14.861a1.858,1.858,0,0,0,1.858-1.858V3.722a1.858,1.858,0,0,0-1.858-1.858Z" transform="translate(46.867 364.773) rotate(90)"/>
    <path id="Path-104" d="M5.845.272A.929.929,0,0,1,7.158,1.586L4.372,4.372a.929.929,0,0,1-1.314,0L.272,1.586A.929.929,0,0,1,1.586.272L3.715,2.4Z" transform="translate(43.145 370.346) rotate(90)"/>
  </g>
</svg>
