<svg xmlns="http://www.w3.org/2000/svg" width="45" height="45" viewBox="0 0 45 45">
  <g id="Group_3743" data-name="Group 3743" transform="translate(-311 -90)">
    <g id="Group_3742" data-name="Group 3742">
      <g id="Group_3741" data-name="Group 3741">
        <g id="Group_3721" data-name="Group 3721" transform="translate(0 -4)">
          <circle id="Ellipse_375" data-name="Ellipse 375" cx="22.5" cy="22.5" r="22.5" transform="translate(311 94)" fill="#292929"/>
          <path id="icons8-email-send" d="M2.348,11.151l4.373,4.373a1.186,1.186,0,0,0,1.594.077l11.7-9.65-9.65,11.7a1.186,1.186,0,0,0,.077,1.594l4.373,4.373a1.186,1.186,0,0,0,1.954-.434L23.894,3.594a1.186,1.186,0,0,0-1.52-1.52L2.782,9.2A1.186,1.186,0,0,0,2.348,11.151Z" transform="translate(320.017 105.017)" fill="#fff"/>
        </g>
      </g>
    </g>
  </g>
</svg>
