<svg xmlns="http://www.w3.org/2000/svg" xmlns:xlink="http://www.w3.org/1999/xlink" width="45" height="45" viewBox="0 0 45 45">
  <defs>
    <linearGradient id="linear-gradient" x1="0.5" y1="1" x2="0.5" gradientUnits="objectBoundingBox">
      <stop offset="0"/>
      <stop offset="1" stop-color="#545454"/>
    </linearGradient>
  </defs>
  <g id="Group_3921" data-name="Group 3921" transform="translate(-311 -114)">
    <g id="Component_6_1" data-name="Component 6 – 1" transform="translate(311 114)">
      <circle id="Ellipse_375" data-name="Ellipse 375" cx="22.5" cy="22.5" r="22.5" fill="url(#linear-gradient)"/>
      <g id="Group_3901" data-name="Group 3901" transform="translate(-130.5 -49.129)">
        <g id="Group_3900" data-name="Group 3900" transform="translate(142.5 60.129)">
          <path id="Path_3973" data-name="Path 3973" d="M-755.9,1277.788a7.51,7.51,0,0,1-2.825-.554l-4.72-1.914-2.358,1.05a1.266,1.266,0,0,0,.037,2.328l7.38,3.221a6.646,6.646,0,0,0,5,.006l7.413-3.213a1.483,1.483,0,0,0,0-2.749l-1.969-.8-5.149,2.072A7.511,7.511,0,0,1-755.9,1277.788Z" transform="translate(766.55 -1259.679)" fill="#fff"/>
          <path id="Path_3974" data-name="Path 3974" d="M-745.97,1158.243l-2.507-1.014-4.612,1.856a7.513,7.513,0,0,1-2.807.547,7.511,7.511,0,0,1-2.825-.554l-4.21-1.707-2.868,1.277a1.266,1.266,0,0,0,.037,2.328l4.4,1.793,3.251,1.351a5.868,5.868,0,0,0,4.418.006l3.585-1.461,4.139-1.674A1.482,1.482,0,0,0-745.97,1158.243Z" transform="translate(766.55 -1148.054)" fill="#fff"/>
          <path id="Path_3975" data-name="Path 3975" d="M-745.97,989.5l-8.259-3.341a4.2,4.2,0,0,0-3.286.057L-765.8,989.9a1.266,1.266,0,0,0,.037,2.328l4.922,2.005,2.728,1.15a5.869,5.869,0,0,0,4.418.006l3.034-1.25,4.689-1.9A1.483,1.483,0,0,0-745.97,989.5Z" transform="translate(766.55 -985.85)" fill="#fff"/>
        </g>
      </g>
    </g>
  </g>
</svg>
