<svg width="12" height="14" viewBox="0 0 12 14" fill="none" xmlns="http://www.w3.org/2000/svg">
<path d="M9.87746 1.729C9.82412 1.729 9.77077 1.715 9.7241 1.687C8.44383 0.994 7.33694 0.7 6.01 0.7C4.68973 0.7 3.43614 1.029 2.29591 1.687C2.13588 1.778 1.93584 1.715 1.84248 1.547C1.7558 1.379 1.81581 1.162 1.97584 1.071C3.2161 0.364 4.57638 0 6.01 0C7.43029 0 8.67055 0.329 10.0308 1.064C10.1975 1.155 10.2575 1.365 10.1709 1.533C10.1108 1.659 9.99748 1.729 9.87746 1.729ZM0.335508 5.404C0.268828 5.404 0.202147 5.383 0.142135 5.341C-0.0112297 5.229 -0.04457 5.012 0.0621185 4.851C0.722254 3.871 1.56243 3.101 2.56263 2.562C4.65639 1.428 7.33694 1.421 9.43737 2.555C10.4376 3.094 11.2777 3.857 11.9379 4.83C12.0446 4.984 12.0112 5.208 11.8579 5.32C11.7045 5.432 11.4978 5.397 11.3911 5.236C10.791 4.354 10.0308 3.661 9.13064 3.178C7.21692 2.149 4.76975 2.149 2.86269 3.185C1.95584 3.675 1.19568 4.375 0.595561 5.257C0.542217 5.355 0.442196 5.404 0.335508 5.404ZM4.50303 13.853C4.41634 13.853 4.32966 13.818 4.26965 13.748C3.68953 13.139 3.37613 12.747 2.92937 11.9C2.46928 11.039 2.22923 9.989 2.22923 8.862C2.22923 6.783 3.92291 5.089 6.00333 5.089C8.08376 5.089 9.77744 6.783 9.77744 8.862C9.77744 9.058 9.63074 9.212 9.44404 9.212C9.25733 9.212 9.11064 9.058 9.11064 8.862C9.11064 7.168 7.71702 5.789 6.00333 5.789C4.28965 5.789 2.89603 7.168 2.89603 8.862C2.89603 9.87 3.10941 10.801 3.51616 11.557C3.94291 12.362 4.23631 12.705 4.74974 13.251C4.87644 13.391 4.87644 13.608 4.74974 13.748C4.6764 13.818 4.58971 13.853 4.50303 13.853ZM9.28401 12.558C8.49051 12.558 7.79037 12.348 7.21692 11.935C6.22338 11.228 5.62992 10.08 5.62992 8.862C5.62992 8.666 5.77662 8.512 5.96333 8.512C6.15003 8.512 6.29673 8.666 6.29673 8.862C6.29673 9.849 6.77683 10.78 7.59033 11.354C8.06376 11.69 8.6172 11.851 9.28401 11.851C9.44404 11.851 9.71076 11.83 9.97748 11.781C10.1575 11.746 10.3309 11.872 10.3642 12.068C10.3976 12.257 10.2775 12.439 10.0908 12.474C9.71076 12.551 9.37736 12.558 9.28401 12.558ZM7.94373 14C7.91706 14 7.88372 13.993 7.85705 13.986C6.79683 13.678 6.10335 13.265 5.37654 12.516C4.44302 11.543 3.92958 10.248 3.92958 8.862C3.92958 7.728 4.84976 6.804 5.98333 6.804C7.1169 6.804 8.03708 7.728 8.03708 8.862C8.03708 9.611 8.65721 10.22 9.42403 10.22C10.1909 10.22 10.811 9.611 10.811 8.862C10.811 6.223 8.64387 4.081 5.97666 4.081C4.08294 4.081 2.34925 5.187 1.56909 6.902C1.30904 7.469 1.17568 8.134 1.17568 8.862C1.17568 9.408 1.22236 10.269 1.62244 11.389C1.68912 11.571 1.60243 11.774 1.42906 11.837C1.2557 11.907 1.06232 11.809 1.00231 11.634C0.675577 10.717 0.515545 9.807 0.515545 8.862C0.515545 8.022 0.668909 7.259 0.968971 6.594C1.85582 4.641 3.82289 3.374 5.97666 3.374C9.01062 3.374 11.4778 5.831 11.4778 8.855C11.4778 9.989 10.5576 10.913 9.42403 10.913C8.29047 10.913 7.37028 9.989 7.37028 8.855C7.37028 8.106 6.75015 7.497 5.98333 7.497C5.21651 7.497 4.59638 8.106 4.59638 8.855C4.59638 10.052 5.03647 11.172 5.8433 12.012C6.47676 12.67 7.08356 13.034 8.02375 13.307C8.20378 13.356 8.30381 13.552 8.25713 13.734C8.22379 13.895 8.08376 14 7.94373 14Z" fill="#37D888"/>
</svg>
