<svg xmlns="http://www.w3.org/2000/svg" width="179.669" height="110.383" viewBox="0 0 179.669 110.383"><g transform="translate(-97.666 -450.844)"><path d="M-6877.923,980.684l90.068-54.983,9.608-2.1,12.413,4.535,41.342,26.646-16.474,12.6-78.187,46.982-10.6,2.4-7.8-2.4L-6884.4,989.1v-4.12Z" transform="translate(6993.077 -464)" fill="#fff"/><g transform="translate(-551.685 -328.378)"><path d="M 715.30908203125 886.6048583984375 C 715.308837890625 886.6048583984375 715.30908203125 886.6048583984375 715.308837890625 886.6048583984375 C 715.1758422851562 886.6048583984375 715.041259765625 886.6036987304688 714.9080810546875 886.6014404296875 C 714.7954711914062 886.6031494140625 714.6818237304688 886.60400390625 714.569580078125 886.60400390625 C 711.1333618164062 886.60400390625 707.683837890625 885.8060913085938 704.5940551757812 884.2965087890625 L 704.5548095703125 884.27734375 L 704.51611328125 884.2570190429688 L 691.01611328125 877.1669311523438 L 688.6643676757812 875.9320678710938 L 686.3148193359375 874.6978149414062 L 669.1912231445312 865.697509765625 L 666.83837890625 864.462158203125 L 664.4859619140625 863.225341796875 L 658.8507080078125 860.2647705078125 C 656.9126586914062 859.2462158203125 655.3671264648438 857.9613647460938 654.2567138671875 856.4456787109375 C 653.0703125 854.826171875 652.4124755859375 852.9505004882812 652.3543701171875 851.0213012695312 C 652.29638671875 849.071533203125 652.8517456054688 847.1383666992188 653.9605712890625 845.4297485351562 C 654.9959106445312 843.8343505859375 656.486572265625 842.4421997070312 658.3910522460938 841.2919921875 L 703.09130859375 814.3009033203125 L 703.1312255859375 814.2767944335938 L 703.161865234375 814.2595825195312 C 704.1832275390625 813.6687622070312 735.167724609375 795.0648803710938 751.4302978515625 785.2972412109375 L 751.46630859375 785.275634765625 L 751.5028686523438 785.2550659179688 C 755.02587890625 783.27099609375 759.0257568359375 782.2222900390625 763.0701293945312 782.2222900390625 C 763.201416015625 782.2222900390625 763.3343505859375 782.223388671875 763.466064453125 782.2255859375 C 763.5772094726562 782.2239990234375 763.6881713867188 782.22314453125 763.7992553710938 782.22314453125 C 767.2391967773438 782.22314453125 770.6904907226562 783.0210571289062 773.7799682617188 784.5305786132812 L 773.8194580078125 784.5498046875 L 773.8583374023438 784.5702514648438 L 819.5162963867188 808.5582275390625 C 821.4544677734375 809.5771484375 822.9999389648438 810.862060546875 824.1104125976562 812.3776245117188 C 825.2974243164062 813.9976196289062 825.9558715820312 815.874267578125 826.0145874023438 817.8048095703125 C 826.0740356445312 819.754150390625 825.5189208984375 821.68798828125 824.4091796875 823.397216796875 C 823.3736572265625 824.9921264648438 821.8824462890625 826.3837890625 819.9769897460938 827.5336303710938 L 813.91845703125 831.1912231445312 L 811.6460571289062 832.5638427734375 L 809.371826171875 833.9384765625 L 792.0936889648438 844.37109375 L 789.8241577148438 845.7432861328125 L 787.5472412109375 847.1188354492188 L 775.2818603515625 854.5260009765625 L 775.2435302734375 854.5491943359375 L 775.2045288085938 854.5711669921875 C 774.5880126953125 854.9188232421875 768.0565795898438 858.743408203125 765.5684814453125 860.2014770507812 L 763.3131713867188 861.5638427734375 L 761.0387573242188 862.9384765625 L 743.7606811523438 873.37109375 L 741.4912109375 874.7432861328125 L 739.2142944335938 876.1188354492188 L 726.9488525390625 883.5260620117188 L 726.9103393554688 883.54931640625 L 726.87109375 883.5714721679688 C 723.3504028320312 885.555908203125 719.35205078125 886.6048583984375 715.30908203125 886.6048583984375 Z M 709.4617309570312 874.6956787109375 C 711.0477294921875 875.4456176757812 712.8104248046875 875.8418579101562 714.5628662109375 875.8418579101562 C 714.6522827148438 875.8418579101562 714.742919921875 875.8408203125 714.8322143554688 875.8388061523438 L 714.8982543945312 875.8373413085938 L 714.9641723632812 875.8387451171875 C 715.056884765625 875.8406982421875 715.15087890625 875.8416748046875 715.2435913085938 875.8416748046875 C 717.4020385742188 875.8416748046875 719.54248046875 875.3001708984375 721.4378662109375 874.275146484375 L 731.180419921875 868.392822265625 L 733.4540405273438 867.0172119140625 L 735.7320556640625 865.643798828125 L 753.011474609375 855.2117919921875 L 755.2838745117188 853.839111328125 L 756.8587036132812 852.8880004882812 L 756.8549194335938 852.8880004882812 L 766.0797729492188 847.319580078125 C 766.4922485351562 847.0706176757812 767.6748657226562 846.4199829101562 769.44921875 845.450927734375 L 769.7685546875 845.2764892578125 L 773.0194702148438 843.3137817382812 L 779.5133666992188 839.392822265625 L 781.787109375 838.0172119140625 L 784.0650634765625 836.643798828125 L 801.344482421875 826.2117919921875 L 803.6168823242188 824.839111328125 L 805.8920288085938 823.4650268554688 L 811.9446411132812 819.8104248046875 L 814.4119873046875 818.320068359375 C 814.5012817382812 818.26611328125 814.5834350585938 818.2135009765625 814.6588745117188 818.1625366210938 C 814.6139526367188 818.1372680664062 814.5668334960938 818.111572265625 814.5173950195312 818.085693359375 L 768.9090576171875 794.1228637695312 C 767.3201904296875 793.37255859375 765.554443359375 792.976318359375 763.7986450195312 792.976318359375 C 763.7106323242188 792.976318359375 763.6214599609375 792.977294921875 763.5335083007812 792.979248046875 L 763.46923828125 792.9806518554688 L 763.4049072265625 792.9793090820312 C 763.3150634765625 792.9774780273438 763.2239990234375 792.9765014648438 763.1341552734375 792.9765014648438 C 760.972900390625 792.9765014648438 758.8287353515625 793.5181884765625 756.928955078125 794.5436401367188 L 719.7577514648438 816.9901123046875 L 719.7447509765625 816.9979248046875 L 719.7316284179688 817.0056762695312 C 718.6934814453125 817.6183471679688 709.7595825195312 822.8894653320312 708.6096801757812 823.5353393554688 L 705.3477783203125 825.5050659179688 L 663.9547729492188 850.5010986328125 C 663.8670043945312 850.5540161132812 663.7860107421875 850.6057739257812 663.7116088867188 850.6558227539062 C 663.7561645507812 850.680908203125 663.8029174804688 850.706298828125 663.8518676757812 850.73193359375 L 672.0401000976562 855.0331420898438 L 674.3925170898438 856.2693481445312 L 676.7423095703125 857.502685546875 L 693.86767578125 866.50341796875 L 696.2161865234375 867.7371826171875 L 698.5680541992188 868.9736328125 L 709.4617309570312 874.6956787109375 Z" stroke="none"/><path d="M 763.0702514648438 785.2222290039062 C 759.5357666015625 785.2222290039062 756.0590209960938 786.1322021484375 752.9749755859375 787.8690185546875 C 752.9749755859375 787.8690185546875 705.4140014648438 816.4349975585938 704.6420288085938 816.8690185546875 L 659.9420166015625 843.8599853515625 C 656.9019775390625 845.6959838867188 655.27197265625 848.2080078125 655.35302734375 850.9310302734375 C 655.4340209960938 853.6209716796875 657.1710205078125 855.9929809570312 660.2459716796875 857.6090087890625 L 665.8820190429688 860.5700073242188 L 668.2329711914062 861.8060302734375 L 670.5869750976562 863.0419921875 L 687.7100219726562 872.0419921875 L 690.0590209960938 873.2760009765625 L 692.4110107421875 874.510986328125 L 705.9110107421875 881.6010131835938 C 708.608642578125 882.9190063476562 711.5698852539062 883.6039428710938 714.5694580078125 883.6039428710938 C 714.6832885742188 883.6039428710938 714.797119140625 883.6029663085938 714.9110107421875 883.6010131835938 C 715.0435791015625 883.6035766601562 715.1765747070312 883.6048583984375 715.3090209960938 883.6048583984375 C 718.8416137695312 883.6048583984375 722.3165283203125 882.6948852539062 725.3980102539062 880.9580078125 L 737.6630249023438 873.551025390625 L 739.9390258789062 872.176025390625 L 742.2100219726562 870.802978515625 L 759.4869995117188 860.3709716796875 L 761.7620239257812 858.9959716796875 L 764.0349731445312 857.6229858398438 C 764.0349731445312 857.6229858398438 772.9559936523438 852.39501953125 773.7310180664062 851.9580078125 L 785.9959716796875 844.551025390625 L 788.27197265625 843.176025390625 L 790.5430297851562 841.802978515625 L 807.8200073242188 831.3709716796875 L 810.094970703125 829.9959716796875 L 812.3679809570312 828.6229858398438 L 818.427001953125 824.9650268554688 C 821.468017578125 823.1300048828125 823.0989990234375 820.6190185546875 823.0159912109375 817.89599609375 C 822.9340209960938 815.2020263671875 821.1950073242188 812.8300170898438 818.1209716796875 811.2139892578125 L 772.4630126953125 787.2260131835938 C 769.7638549804688 785.9072265625 766.8004150390625 785.2232055664062 763.7991333007812 785.22314453125 C 763.68701171875 785.22314453125 763.5751953125 785.22412109375 763.4630126953125 785.2260131835938 C 763.3322143554688 785.2235107421875 763.2008666992188 785.2222290039062 763.0702514648438 785.2222290039062 M 715.24365234375 878.8416748046875 C 715.1292114257812 878.8416748046875 715.0146484375 878.8404541015625 714.9000244140625 878.8380126953125 C 714.78759765625 878.8405151367188 714.675048828125 878.841796875 714.562744140625 878.841796875 C 712.3343505859375 878.841796875 710.132568359375 878.3424682617188 708.1190185546875 877.3790283203125 L 697.1719970703125 871.6290283203125 L 694.8209838867188 870.3930053710938 L 692.4719848632812 869.1589965820312 L 675.3480224609375 860.1589965820312 L 672.9970092773438 858.9249877929688 L 670.64501953125 857.6890258789062 L 662.458984375 853.3889770507812 C 661.0130004882812 852.6309814453125 660.135986328125 851.656982421875 660.1099853515625 850.7839965820312 C 660.0850219726562 849.8790283203125 660.9420166015625 848.8150024414062 662.4039916992188 847.9329833984375 L 703.7969970703125 822.93701171875 L 707.10400390625 820.9400024414062 C 707.8599853515625 820.5280151367188 718.2069702148438 814.4219970703125 718.2069702148438 814.4219970703125 L 755.43701171875 791.9400024414062 C 757.7993774414062 790.6502685546875 760.4462890625 789.9766235351562 763.1341552734375 789.9765014648438 C 763.2451782226562 789.9765014648438 763.3558349609375 789.9776611328125 763.4669799804688 789.97998046875 C 763.5775756835938 789.9775390625 763.6881713867188 789.976318359375 763.7986450195312 789.976318359375 C 766.0298461914062 789.976318359375 768.23486328125 790.4756469726562 770.2509765625 791.4390258789062 L 815.9110107421875 815.4290161132812 C 817.35400390625 816.1859741210938 818.2319946289062 817.1619873046875 818.2570190429688 818.0349731445312 C 818.281982421875 818.9400024414062 817.4249877929688 820.0050048828125 815.9630126953125 820.8880004882812 L 815.9639892578125 820.8880004882812 L 807.4429931640625 826.0330200195312 L 805.1680297851562 827.406982421875 L 802.89501953125 828.780029296875 L 785.614013671875 839.2130126953125 L 783.3400268554688 840.583984375 L 781.0640258789062 841.9609985351562 L 774.5700073242188 845.8820190429688 L 771.2639770507812 847.8779907226562 C 770.5089721679688 848.291015625 768.1370239257812 849.5819702148438 767.6300048828125 849.8880004882812 L 767.6309814453125 849.8880004882812 L 760.1530151367188 854.4030151367188 L 759.1099853515625 855.0330200195312 L 756.8350219726562 856.406982421875 L 754.56201171875 857.780029296875 L 737.281005859375 868.2130126953125 L 735.0070190429688 869.583984375 L 732.7310180664062 870.9609985351562 L 722.9310302734375 876.8779907226562 C 720.5725708007812 878.1680297851562 717.928955078125 878.8416748046875 715.24365234375 878.8416748046875 M 763.0702514648438 779.2222290039062 L 763.1275634765625 779.2222290039062 L 763.5776977539062 779.2271118164062 C 763.5862426757812 779.22705078125 763.5953979492188 779.22705078125 763.6039428710938 779.22705078125 C 767.7100219726562 779.2269897460938 771.6070556640625 780.1299438476562 775.0969848632812 781.8350830078125 L 820.9115600585938 805.9024658203125 C 825.912353515625 808.5313720703125 828.8648071289062 812.8360595703125 829.01318359375 817.7135009765625 C 829.1629028320312 822.6253662109375 826.4342651367188 827.1409912109375 821.52685546875 830.1022338867188 L 815.468994140625 833.7594604492188 L 813.1972045898438 835.1317749023438 L 810.9236450195312 836.5059204101562 L 793.6444091796875 846.9392700195312 L 791.376220703125 848.3106079101562 L 789.0985107421875 849.6865844726562 L 776.832763671875 857.0940551757812 C 775.9099731445312 857.6174926757812 767.068603515625 862.799560546875 767.068603515625 862.799560546875 L 764.8643188476562 864.1317138671875 L 762.5905151367188 865.5059814453125 L 745.3114013671875 875.9392700195312 L 743.0433349609375 877.310546875 L 740.7655639648438 878.6865844726562 L 728.499755859375 886.0940551757812 C 724.3746948242188 888.4222412109375 719.8672485351562 889.6048583984375 715.3089599609375 889.6048583984375 C 710.679443359375 889.60400390625 706.774658203125 888.7007446289062 703.2771606445312 886.991943359375 L 689.6212158203125 879.8229370117188 L 687.2697143554688 878.5881958007812 L 684.9196166992188 877.3536376953125 L 667.79541015625 868.35302734375 L 665.4437255859375 867.1182861328125 L 663.08984375 865.8807373046875 L 657.4554443359375 862.9205932617188 C 652.4545288085938 860.2924194335938 649.5025634765625 855.9883422851562 649.355712890625 851.1116333007812 C 649.2095336914062 846.1992797851562 651.9375 841.6848754882812 656.8401489257812 838.7239990234375 L 701.5405883789062 811.7327270507812 C 703.169189453125 810.7848510742188 749.8856811523438 782.7254638671875 749.8856811523438 782.7254638671875 C 754.002197265625 780.4044799804688 758.5111694335938 779.2222290039062 763.0702514648438 779.2222290039062 Z M 808.553955078125 818.353271484375 L 767.4602661132812 796.7505493164062 C 766.4642333984375 796.2794189453125 765.1275024414062 795.976318359375 763.7986450195312 795.976318359375 C 761.453125 795.9765625 759.78564453125 796.4017944335938 758.3121948242188 797.2062377929688 L 721.3085327148438 819.5581665039062 C 721.25634765625 819.58935546875 710.7432861328125 825.7898559570312 709.9752807617188 826.2083740234375 L 706.8985595703125 828.0731811523438 L 669.8123779296875 850.4683837890625 L 673.4352416992188 852.3772583007812 L 675.7880249023438 853.6136474609375 L 678.1365966796875 854.8463745117188 L 695.263427734375 863.847900390625 L 697.6113891601562 865.0813598632812 L 699.964111328125 866.3182983398438 L 710.9091186523438 872.0671997070312 C 711.9052124023438 872.5391845703125 713.2379760742188 872.841796875 714.562744140625 872.841796875 L 715.24365234375 872.8416748046875 C 716.9207763671875 872.8416748046875 718.5833740234375 872.4171142578125 720.0518188476562 871.6139526367188 L 729.6298217773438 865.8245849609375 L 731.901123046875 864.450439453125 L 734.18310546875 863.0745849609375 L 751.4609985351562 852.6435546875 L 753.732666015625 851.271240234375 L 756.0081787109375 849.8970336914062 L 757.0508422851562 849.2672119140625 L 764.52978515625 844.7515869140625 C 764.9976806640625 844.4686279296875 766.9811401367188 843.380615234375 768.0208740234375 842.8128051757812 L 771.4689331054688 840.7455444335938 L 777.9627075195312 836.8246459960938 L 780.2340698242188 835.450439453125 L 782.51611328125 834.0745849609375 L 799.7940063476562 823.6435546875 L 802.065673828125 822.271240234375 L 804.3411254882812 820.8970336914062 L 808.553955078125 818.353271484375 Z" stroke="none" fill="#fff"/></g><path d="M56.6,11.637a27.014,27.014,0,0,0-8.322-3.624,37.007,37.007,0,0,0-9.612-1.119,39.742,39.742,0,0,0-9.808,1.34,33.261,33.261,0,0,0-8.926,3.806,22.4,22.4,0,0,0-6.353,5.725,14.21,14.21,0,0,0-2.72,6.579,11.872,11.872,0,0,0,1.1,6.664,15.981,15.981,0,0,0,5.127,5.924,26.1,26.1,0,0,0,8.435,3.949,36.7,36.7,0,0,0,10.029,1.272,39.691,39.691,0,0,0,10.291-1.432,32.685,32.685,0,0,0,9.2-4.1,21.4,21.4,0,0,0,6.24-6.05,13.592,13.592,0,0,0,2.3-6.733,12.027,12.027,0,0,0-1.582-6.572A16.834,16.834,0,0,0,56.6,11.637ZM51.116,24.579a2.55,2.55,0,0,1,.813.87,1.823,1.823,0,0,1,.224,1,2.062,2.062,0,0,1-.359,1.008,3.225,3.225,0,0,1-.937.894,4.886,4.886,0,0,1-1.362.6,5.935,5.935,0,0,1-1.518.21,5.571,5.571,0,0,1-1.488-.183,4.07,4.07,0,0,1-1.275-.577,2.53,2.53,0,0,1-.807-.877,1.819,1.819,0,0,1-.213-1,2.074,2.074,0,0,1,.369-1,3.247,3.247,0,0,1,.939-.886,4.9,4.9,0,0,1,1.356-.594,5.937,5.937,0,0,1,1.507-.208,5.578,5.578,0,0,1,1.479.179A4.09,4.09,0,0,1,51.116,24.579ZM37.044,14.872a2.412,2.412,0,0,1,.782.844,1.731,1.731,0,0,1,.2.97,2.027,2.027,0,0,1-.373.979,3.254,3.254,0,0,1-.938.869,4.945,4.945,0,0,1-1.35.585,5.95,5.95,0,0,1-1.5.206,5.5,5.5,0,0,1-1.459-.176,3.93,3.93,0,0,1-1.242-.558,2.393,2.393,0,0,1-.776-.851,1.728,1.728,0,0,1-.19-.972,2.041,2.041,0,0,1,.382-.976,3.277,3.277,0,0,1,.94-.862,4.958,4.958,0,0,1,1.344-.579,5.951,5.951,0,0,1,1.485-.2,5.5,5.5,0,0,1,1.45.172A3.951,3.951,0,0,1,37.044,14.872ZM33.468,34.606A9.9,9.9,0,0,0,31.8,31.7a13.661,13.661,0,0,0-2.678-2.474,18.036,18.036,0,0,0-3.493-1.924A21.669,21.669,0,0,0,21.5,26.055a2.848,2.848,0,0,1-.809-.285,1.876,1.876,0,0,1-.561-.454,1.275,1.275,0,0,1-.272-.571,1.2,1.2,0,0,1,.058-.635h0a1.766,1.766,0,0,1,.5-.71,2.944,2.944,0,0,1,.847-.512,3.894,3.894,0,0,1,1.055-.261,3.839,3.839,0,0,1,1.128.046q1.385.27,2.694.656a26.547,26.547,0,0,1,2.53.885,23.827,23.827,0,0,1,2.345,1.108,21.339,21.339,0,0,1,2.139,1.325,18.494,18.494,0,0,1,1.873,1.508,15.581,15.581,0,0,1,1.553,1.65A13.391,13.391,0,0,1,37.8,31.582a11.929,11.929,0,0,1,.875,1.892,1.234,1.234,0,0,1,.021.782,1.72,1.72,0,0,1-.444.714,2.771,2.771,0,0,1-.818.555,3.748,3.748,0,0,1-1.1.3h0a3.9,3.9,0,0,1-.966,0,3.236,3.236,0,0,1-.851-.226,2.257,2.257,0,0,1-.659-.417A1.479,1.479,0,0,1,33.468,34.606Z" transform="translate(152.693 479.718)" fill="#38d989"/></g></svg>