<svg xmlns="http://www.w3.org/2000/svg" width="26" height="26" viewBox="0 0 26 26">
  <g id="Group_3791" data-name="Group 3791" transform="translate(-144 -198)">
    <g id="Group_3790" data-name="Group 3790">
      <g id="Group_3787" data-name="Group 3787">
        <path id="Path_3811" data-name="Path 3811" d="M3330.09-1924.84a13,13,0,0,1-13,13,13,13,0,0,1-13-13,13,13,0,0,1,13-13A13,13,0,0,1,3330.09-1924.84Z" transform="translate(-3160.09 2135.84)" fill="#41596b"/>
        <g id="Group_3784" data-name="Group 3784" transform="translate(-3189.182 2135.736)">
          <path id="Path_3902" data-name="Path 3902" d="M3339.685-1924.764a1.253,1.253,0,0,0-1.251-1.252,1.254,1.254,0,0,0-1.252,1.252,1.253,1.253,0,0,0,1.252,1.251A1.252,1.252,0,0,0,3339.685-1924.764Z" fill="#fff"/>
          <path id="Path_3903" data-name="Path 3903" d="M3340.678-1928.971h.016a1.256,1.256,0,0,0,1.253-1.235,1.258,1.258,0,0,0-.367-.9,1.244,1.244,0,0,0-.866-.368h0a1.28,1.28,0,0,0-1.269,1.235A1.255,1.255,0,0,0,3340.678-1928.971Z" fill="#fff"/>
          <path id="Path_3904" data-name="Path 3904" d="M3339-1926.467h.026a1.244,1.244,0,0,0,.866-.348,1.251,1.251,0,0,0,.384-.88,1.257,1.257,0,0,0-.781-1.183,1.236,1.236,0,0,0-.445-.092h0a1.219,1.219,0,0,0-.892.349,1.24,1.24,0,0,0-.384.879,1.246,1.246,0,0,0,.35.893A1.24,1.24,0,0,0,3339-1926.467Z" fill="#fff"/>
          <path id="Path_3905" data-name="Path 3905" d="M3340.273-1921.8a1.226,1.226,0,0,0-.094-.484,1.247,1.247,0,0,0-1.148-.776h-.01a1.239,1.239,0,0,0-.878.361,1.239,1.239,0,0,0-.373.883,1.239,1.239,0,0,0,.36.887,1.244,1.244,0,0,0,.883.372h.009A1.252,1.252,0,0,0,3340.273-1921.8Z" fill="#fff"/>
          <path id="Path_3906" data-name="Path 3906" d="M3340.714-1920.558h0a1.239,1.239,0,0,0-1.268,1.235,1.254,1.254,0,0,0,1.235,1.269h.016a1.254,1.254,0,0,0,1.252-1.233,1.251,1.251,0,0,0-.367-.9A1.243,1.243,0,0,0,3340.714-1920.558Z" fill="#fff"/>
          <path id="Path_3907" data-name="Path 3907" d="M3346.154-1933.736a1.252,1.252,0,0,0-1.251,1.252,1.253,1.253,0,0,0,1.251,1.251,6.476,6.476,0,0,1,6.469,6.469,6.476,6.476,0,0,1-6.469,6.469,1.253,1.253,0,0,0-1.251,1.252,1.253,1.253,0,0,0,1.251,1.251,8.982,8.982,0,0,0,8.973-8.972A8.982,8.982,0,0,0,3346.154-1933.736Z" fill="#fff"/>
          <path id="Path_3908" data-name="Path 3908" d="M3343.21-1933.148h-.007a1.253,1.253,0,0,0-1.252,1.245,1.253,1.253,0,0,0,1.244,1.258h.007a1.253,1.253,0,0,0,1.252-1.245,1.239,1.239,0,0,0-.1-.486A1.249,1.249,0,0,0,3343.21-1933.148Z" fill="#fff"/>
          <path id="Path_3909" data-name="Path 3909" d="M3343.679-1918.789a1.262,1.262,0,0,0-.451-.094,1.226,1.226,0,0,0-.894.347,1.244,1.244,0,0,0-.385.877,1.255,1.255,0,0,0,1.224,1.279h.026a1.255,1.255,0,0,0,1.253-1.225A1.247,1.247,0,0,0,3343.679-1918.789Z" fill="#fff"/>
        </g>
      </g>
    </g>
  </g>
</svg>
