<svg width="14" height="14" viewBox="0 0 14 14" fill="none" xmlns="http://www.w3.org/2000/svg">
<circle cx="7" cy="7" r="7" fill="#0D874A"/>
<path d="M6.5 11C6.5 11.2761 6.72386 11.5 7 11.5C7.27614 11.5 7.5 11.2761 7.5 11L6.5 11ZM7.35355 2.64645C7.15829 2.45118 6.84171 2.45118 6.64645 2.64645L3.46447 5.82843C3.2692 6.02369 3.2692 6.34027 3.46447 6.53553C3.65973 6.7308 3.97631 6.7308 4.17157 6.53553L7 3.70711L9.82843 6.53553C10.0237 6.7308 10.3403 6.7308 10.5355 6.53553C10.7308 6.34027 10.7308 6.02369 10.5355 5.82843L7.35355 2.64645ZM7.5 11L7.5 3L6.5 3L6.5 11L7.5 11Z" fill="white"/>
</svg>
