<svg xmlns="http://www.w3.org/2000/svg" xmlns:xlink="http://www.w3.org/1999/xlink" width="7.43" height="9.854" viewBox="0 0 7.43 9.854"><defs><clipPath id="a"><path d="M0,3.715a.558.558,0,0,0,.558.558H7.853L5.7,6.429a.558.558,0,0,0,0,.789l.048.048a.558.558,0,0,0,.789,0L9.69,4.11a.558.558,0,0,0,0-.789L6.534.164a.558.558,0,0,0-.789,0L5.7.212A.558.558,0,0,0,5.7,1L7.853,3.157H.558A.558.558,0,0,0,0,3.715Z" transform="translate(0 0)" fill="#ff635c"/></clipPath><clipPath id="b"><path d="M0,2111.845H1105.035V0H0Z" fill="#ff635c"/></clipPath></defs><g transform="translate(-355.443 -428.146)"><g transform="translate(362.873 428.146) rotate(90)"><g transform="translate(0 0)" clip-path="url(#a)"><g transform="translate(-375.042 -951.654)" clip-path="url(#b)"><path d="M0,13.011V0H15.435V13.011Z" transform="translate(372.252 948.863)" fill="#ff635c"/></g></g></g></g></svg>