<svg width="14" height="14" viewBox="0 0 14 14" fill="none" xmlns="http://www.w3.org/2000/svg">
<circle cx="7" cy="7" r="7" fill="#F85050"/>
<path d="M7.5 3C7.5 2.72386 7.27614 2.5 7 2.5C6.72386 2.5 6.5 2.72386 6.5 3L7.5 3ZM6.64645 11.3536C6.84171 11.5488 7.15829 11.5488 7.35355 11.3536L10.5355 8.17157C10.7308 7.97631 10.7308 7.65973 10.5355 7.46447C10.3403 7.2692 10.0237 7.2692 9.82843 7.46447L7 10.2929L4.17157 7.46447C3.97631 7.2692 3.65973 7.2692 3.46447 7.46447C3.2692 7.65973 3.2692 7.97631 3.46447 8.17157L6.64645 11.3536ZM6.5 3L6.5 11L7.5 11L7.5 3L6.5 3Z" fill="white"/>
</svg>
