<svg xmlns="http://www.w3.org/2000/svg" width="19" height="19" viewBox="0 0 19 19">
  <g id="Group_2254" data-name="Group 2254" transform="translate(-21 -394)">
    <g id="Group_2250" data-name="Group 2250">
      <path id="icons8-phone" d="M4.625,2.4c.044,0,.044,0,.087.044s.176.174.176.263a2.187,2.187,0,0,0,.043.48c.087.219.176.788.306,1.094s.176.482.044.656a13.141,13.141,0,0,1-.962,1.051,3.2,3.2,0,0,0,.48.7A5.605,5.605,0,0,0,5.806,7.78a5.708,5.708,0,0,0,1.4.962c.482-.48.875-.875,1.007-.962s.132-.132.35-.043A3.449,3.449,0,0,0,9.437,8c.306.044.656.087.875.132s.219.044.263.132a.479.479,0,0,1,.13.261v1.794a.333.333,0,0,1-.043.219,1.7,1.7,0,0,0-.087.306c0,.044-.219.132-.35.132a7.7,7.7,0,0,1-.919-.044,8.738,8.738,0,0,1-1.444-.349A8.376,8.376,0,0,1,5.325,9.224,8.993,8.993,0,0,1,2.875,6.206a8.043,8.043,0,0,1-.788-2.538A4.779,4.779,0,0,1,2,2.793a.607.607,0,0,1,.263-.306A.812.812,0,0,1,2.612,2.4H4.625Z" transform="translate(24.5 397.102)" fill="none" stroke="#000" stroke-width="0.7"/>
      <path id="Path_2074" data-name="Path 2074" d="M9,0A9,9,0,1,1,0,9,9,9,0,0,1,9,0Z" transform="translate(21.5 394.5)" fill="none" stroke="#000" stroke-width="1"/>
    </g>
  </g>
</svg>
