<svg xmlns="http://www.w3.org/2000/svg" width="71.231" height="62.24" viewBox="0 0 71.231 62.24"><g transform="translate(-241.733 -229.588)"><g transform="translate(239.673 216.552)"><g transform="translate(2.06 13.037)"><ellipse cx="26.999" cy="6.679" rx="26.999" ry="6.679" transform="translate(8.286 48.882)" fill="#73e8ae" opacity="0.5"/><g transform="translate(0 0.712)"><path d="M12.78,33.542a2.086,2.086,0,0,1-.962-.283c-.736-.509-7.528-5.151-7.528-10.471a4.575,4.575,0,0,1,.057-.906,6.862,6.862,0,0,1-2.264-6A1.672,1.672,0,0,1,3.894,14.3a1.672,1.672,0,0,1,1.585,1.811,5.478,5.478,0,0,0,.113,1.7A5.721,5.721,0,0,1,8.705,15.26a4.363,4.363,0,0,1,4.924,1.415,3.759,3.759,0,0,1,.226,4.641C12.667,22.9,10.177,23.637,7.8,23.354c.509,2.83,4.528,6.113,6,7.075a1.715,1.715,0,0,1,.453,2.377,1.8,1.8,0,0,1-1.472.736ZM8.252,20.014a3.5,3.5,0,0,0,2.83-.679c.057-.057.113-.17-.226-.566a.92.92,0,0,0-1.132-.226A2.463,2.463,0,0,0,8.252,20.014Z" transform="translate(-2.06 -14.294)" fill="#0d874a"/></g><path d="M74.129,36.376H71.072a20.691,20.691,0,0,0-7.019-12.226L64.563,16l-6.849,3.905A35.129,35.129,0,0,0,42.206,16.4C26.075,16.34,13,26.584,13,39.206c0,7.075,4.075,13.358,10.471,17.546L22.339,59.7a6.217,6.217,0,0,0,11.6,4.471l1.075-2.773a36.143,36.143,0,0,0,7.075.679,38.372,38.372,0,0,0,6.792-.623l1.075,2.717a6.217,6.217,0,0,0,11.6-4.471l-1.019-2.773a24.812,24.812,0,0,0,7.585-7.358h6A2.271,2.271,0,0,0,76.393,47.3V38.64A2.271,2.271,0,0,0,74.129,36.376Z" transform="translate(-6.808 -14.323)" fill="#8de7bc"/><path d="M49.168,18.83a45.955,45.955,0,0,1,9.792,1.019A36.125,36.125,0,0,0,42.432,16C26.188,16,13,26.018,13,38.357a16.006,16.006,0,0,0,.17,2.321C16.905,28.169,31.565,18.83,49.168,18.83Z" transform="translate(-6.808 -14.323)" fill="#fff"/><g transform="translate(6.192 18.431)" opacity="0.2"><path d="M67.733,62.976c-7.754,3.226-13.98,4.358-25.018,3.792C27.546,65.976,15.151,57.43,14.189,45.6A18.907,18.907,0,0,0,13,52.052C13,59.128,17.075,65.41,23.471,69.6l-1.132,2.943a6.217,6.217,0,1,0,11.6,4.471l1.075-2.773a36.142,36.142,0,0,0,7.075.679,38.372,38.372,0,0,0,6.792-.623l1.075,2.717a6.217,6.217,0,1,0,11.6-4.471l-1.019-2.773a25.075,25.075,0,0,0,7.188-6.792Z" transform="translate(-13 -45.6)" fill="#31c27a"/><path d="M109,71.4l6.792.736a2.271,2.271,0,0,0,2.264-2.264V68H110.7S110.075,71,109,71.4Z" transform="translate(-54.663 -55.321)" fill="#783741"/></g><g transform="translate(24.9 6.545)"><path d="M49,28.915a27.79,27.79,0,0,1,16.98-.17" transform="translate(-47.331 -25.859)" fill="#0d874a"/><path d="M47.721,29.354a1.649,1.649,0,0,1-1.585-1.132,1.688,1.688,0,0,1,1.075-2.151A28.321,28.321,0,0,1,56.55,24.6a29.814,29.814,0,0,1,8.717,1.3,1.719,1.719,0,1,1-1.019,3.283,26.658,26.658,0,0,0-7.7-1.132,25.971,25.971,0,0,0-8.207,1.3h-.623Z" transform="translate(-46.052 -24.6)" fill="#0d874a"/></g><circle cx="2.547" cy="2.547" r="2.547" transform="translate(51.473 18.658)" fill="#0d874a"/><g transform="translate(29.964 14.695)"><g transform="translate(0 2.434)"><path d="M61.226,60.846a8.275,8.275,0,0,1-5.717-2.207,1.681,1.681,0,1,1,2.377-2.377,5.126,5.126,0,0,0,3.339,1.189c1.472,0,2.264-.566,2.264-1.7,0-.962-.849-1.472-3.339-2.377C58,52.583,55,51.507,55,48.394c0-3.056,2.264-5.094,5.66-5.094a9.27,9.27,0,0,1,4.924,1.415,1.7,1.7,0,0,1-1.868,2.83A6.676,6.676,0,0,0,60.66,46.7c-1.528,0-2.264.566-2.264,1.7,0,.679,1.132,1.132,2.943,1.811,2.377.849,5.547,2.038,5.547,5.547C66.886,58.3,65.132,60.846,61.226,60.846Z" transform="translate(-55 -43.3)" fill="#0d874a"/></g><g transform="translate(5.094)"><path d="M64.566,61.64A.535.535,0,0,1,64,61.074V39.566a.566.566,0,1,1,1.132,0V61.074A.535.535,0,0,1,64.566,61.64Z" transform="translate(-64 -39)" fill="#0d874a"/></g></g><g transform="translate(33.643 43.484)"><path d="M62.632,94.468a1.132,1.132,0,0,1,0-2.264A34.359,34.359,0,0,0,74.971,89.94a1.13,1.13,0,0,1,.849,2.094A36.616,36.616,0,0,1,62.632,94.468Z" transform="translate(-61.5 -89.862)" fill="#0d874a"/></g><g transform="translate(13.517 39)"><path d="M35.6,88.766a1.1,1.1,0,0,1-.4-.057,31.537,31.537,0,0,1-8.83-4.754A1.127,1.127,0,0,1,27.785,82.2a29.015,29.015,0,0,0,8.151,4.415,1.155,1.155,0,0,1,.679,1.472,1.009,1.009,0,0,1-1.019.679Z" transform="translate(-25.941 -81.941)" fill="#0d874a"/></g><g transform="translate(4.494)"><path d="M54.488,68.541a7.917,7.917,0,0,1-7.415-5.094l-.566-1.472a38.712,38.712,0,0,1-11.716-.057l-.566,1.472a7.829,7.829,0,0,1-4.188,4.415,8.013,8.013,0,0,1-6.056.17,7.829,7.829,0,0,1-4.415-4.188,8.013,8.013,0,0,1-.17-6.056l.623-1.7C13.679,51.448,10,44.882,10,37.92c0-13.528,13.811-24.508,30.847-24.508A37.275,37.275,0,0,1,56.3,16.695l6.169-3.453a1.767,1.767,0,0,1,1.755.057,1.68,1.68,0,0,1,.792,1.528l-.453,7.358a22.562,22.562,0,0,1,6.622,11.207h1.641A3.682,3.682,0,0,1,75.6,34.581a3.755,3.755,0,0,1,1.132,2.83v8.66a3.938,3.938,0,0,1-3.962,3.962H67.733a27.006,27.006,0,0,1-6.4,6.283l.566,1.528a7.95,7.95,0,0,1-4.585,10.245,9.548,9.548,0,0,1-2.83.453ZM47.64,58.41a1.705,1.705,0,0,1,1.585,1.075L50.3,62.2a4.47,4.47,0,0,0,2.377,2.49,4.564,4.564,0,0,0,3.453.113,4.469,4.469,0,0,0,2.49-2.377,4.564,4.564,0,0,0,.113-3.453L57.658,56.2a1.722,1.722,0,0,1,.679-2.038,23.4,23.4,0,0,0,7.075-6.849,1.828,1.828,0,0,1,1.415-.792h6a.535.535,0,0,0,.566-.566v-8.6a.58.58,0,0,0-.566-.566H69.77a1.756,1.756,0,0,1-1.7-1.415A19.232,19.232,0,0,0,61.62,24.166a1.584,1.584,0,0,1-.566-1.358l.34-5.037-4.188,2.377a1.742,1.742,0,0,1-1.585.057,33.1,33.1,0,0,0-14.773-3.339C25.735,16.752,13.4,26.261,13.4,37.92c0,6.226,3.566,12.056,9.735,16.131a1.722,1.722,0,0,1,.679,2.038l-1.132,2.943a4.309,4.309,0,0,0,.113,3.453,4.654,4.654,0,0,0,2.49,2.377,4.309,4.309,0,0,0,3.453-.113,4.462,4.462,0,0,0,2.377-2.49l1.075-2.773a1.661,1.661,0,0,1,1.924-1.075,35.92,35.92,0,0,0,13.245.057.424.424,0,0,1,.283-.057Z" transform="translate(-10 -13.037)" fill="#0d874a"/></g></g></g></g></svg>