<?xml version="1.0" encoding="utf-8"?>
<!-- Generator: Adobe Illustrator 25.2.1, SVG Export Plug-In . SVG Version: 6.00 Build 0)  -->
<svg version="1.1" id="Layer_1" xmlns="http://www.w3.org/2000/svg" xmlns:xlink="http://www.w3.org/1999/xlink" x="0px" y="0px"
	 viewBox="0 0 11.5 12.1" style="enable-background:new 0 0 11.5 12.1;" xml:space="preserve">
<style type="text/css">
	.st0{fill:#1C1F21;}
	.st1{fill:none;}
</style>
<path d="M10.3,1.8C9.1,1.6,7.8,1.1,6.8,0.3C6.5,0.1,6.1,0,5.8,0c0,0,0,0,0,0C5.4,0,5,0.1,4.7,0.4c-1,0.8-2.2,1.3-3.5,1.5
	C0.5,1.9,0,2.5,0,3.2c0.3,6,4,8.2,5.2,8.8c0.2,0.1,0.4,0.1,0.6,0.1c0.2,0,0.4,0,0.6-0.1c0.8-0.4,4.9-2.7,5.2-8.8
	C11.5,2.5,11,1.9,10.3,1.8z M5.8,10.7c-1-0.5-4.1-2.4-4.3-7.5C2.9,3,4.3,2.4,5.5,1.5c0.1-0.1,0.3-0.1,0.4,0C7.2,2.4,8.6,3,10.1,3.2
	C9.8,8.3,6.8,10.2,5.8,10.7z"/>
</svg>
