<svg xmlns="http://www.w3.org/2000/svg" width="15.81" height="18.838" viewBox="0 0 15.81 18.838"><path d="M14.527,1.617,9.794.038a.755.755,0,0,0-.477,0L4.582,1.617A3.772,3.772,0,0,0,2,5.2V9.066c0,5.714,6.951,8.87,7.248,9a.756.756,0,0,0,.613,0c.3-.131,7.248-3.287,7.248-9V5.2a3.772,3.772,0,0,0-2.583-3.583ZM15.6,9.066c0,4.121-4.774,6.824-6.044,7.471C8.283,15.893,3.511,13.2,3.511,9.066V5.2a2.267,2.267,0,0,1,1.55-2.15l4.494-1.5,4.494,1.5A2.266,2.266,0,0,1,15.6,5.2Z" transform="translate(-1.65 0.352)" stroke="#fff" stroke-width="0.7"/></svg>