<svg xmlns="http://www.w3.org/2000/svg" width="29" height="25" viewBox="0 0 29 25">
  <g id="Group_2309" data-name="Group 2309" transform="translate(-341 -125)">
    <g id="Iconly_Bold_Scan" data-name="Iconly/Bold/Scan" transform="translate(340 121.148)">
      <g id="Scan" transform="translate(1 4)">
        <path id="Scan-2" data-name="Scan" d="M19.326,25a.988.988,0,0,1,0-1.974h1.025a4.458,4.458,0,0,0,4.315-4.54v-3.7H21.111v1.474a3.156,3.156,0,0,1-.871,2.186,2.914,2.914,0,0,1-2.1.9H10.9a3.034,3.034,0,0,1-2.973-3.091V14.79h-3.5v3.7a4.455,4.455,0,0,0,4.365,4.54H9.877a.988.988,0,0,1,0,1.974H8.852a6.453,6.453,0,0,1-6.326-6.514v-3.7H1.058a.938.938,0,0,1-.912-.455,1.02,1.02,0,0,1,0-1.051.935.935,0,0,1,.912-.455H27.942a.935.935,0,0,1,.912.455,1.02,1.02,0,0,1,0,1.051.938.938,0,0,1-.912.455H26.6v3.7a6.635,6.635,0,0,1-1.826,4.6A6.128,6.128,0,0,1,20.351,25Zm1.418-14.2H8.282a.332.332,0,0,1-.254-.1.364.364,0,0,1-.1-.265v-1.7A3.034,3.034,0,0,1,10.9,5.645h7.224a2.914,2.914,0,0,1,2.1.9A3.156,3.156,0,0,1,21.1,8.736v1.7a.363.363,0,0,1-.1.265.332.332,0,0,1-.241.1Zm3.922-2.816V6.579a4.64,4.64,0,0,0-1.239-3.234,4.285,4.285,0,0,0-3.076-1.371H19.326a.969.969,0,0,1-.948-.988A.968.968,0,0,1,19.326,0h1.025a6.462,6.462,0,0,1,6.212,6.579V7.986a.949.949,0,1,1-1.9,0Zm-21.2.988a.97.97,0,0,1-.936-.988V6.579A6.46,6.46,0,0,1,8.789,0H9.813a.981.981,0,0,1,.949.986.982.982,0,0,1-.949.988H8.789a4.286,4.286,0,0,0-3.11,1.353A4.637,4.637,0,0,0,4.424,6.579V7.986a.983.983,0,0,1-.949.988Z" transform="translate(0 -0.148)" fill="#05f"/>
      </g>
    </g>
  </g>
</svg>
