<svg xmlns="http://www.w3.org/2000/svg" width="19.505" height="19.983" viewBox="0 0 19.505 19.983"><g transform="translate(-405.754 233.753)"><g transform="translate(406.354 -233.153)"><g transform="translate(2.716 3.146)"><g transform="translate(2.308 2.308)"><path d="M94.077,93.26a.578.578,0,1,0,.169.408A.582.582,0,0,0,94.077,93.26Z" transform="translate(-93.092 -93.091)"/></g><g transform="translate(0 0)"><path d="M5.194,0H.577A.577.577,0,0,0,0,.577V5.194a.577.577,0,0,0,.577.577H5.194a.577.577,0,0,0,.577-.577V.577A.577.577,0,0,0,5.194,0ZM4.617,4.617H1.154V1.154H4.617V4.617Z" transform="translate(0 0)"/></g><g transform="translate(9.234 2.308)"><path d="M373.35,93.26a.577.577,0,1,0,.169.408A.58.58,0,0,0,373.35,93.26Z" transform="translate(-372.365 -93.091)"/></g><g transform="translate(6.925 0)"><path d="M284.466,0h-4.617a.577.577,0,0,0-.577.577V5.194a.577.577,0,0,0,.577.577h4.617a.577.577,0,0,0,.577-.577V.577A.577.577,0,0,0,284.466,0Zm-.577,4.617h-3.463V1.154h3.463Z" transform="translate(-279.272 0)"/></g><g transform="translate(2.308 9.233)"><path d="M94.077,372.533a.578.578,0,1,0,.169.408A.582.582,0,0,0,94.077,372.533Z" transform="translate(-93.092 -372.364)"/></g><g transform="translate(0 6.925)"><path d="M5.194,279.273H.577A.577.577,0,0,0,0,279.85v4.617a.577.577,0,0,0,.577.577H5.194a.577.577,0,0,0,.577-.577V279.85A.577.577,0,0,0,5.194,279.273Zm-.577,4.617H1.154v-3.463H4.617v3.463Z" transform="translate(0 -279.273)"/></g><g transform="translate(9.233 9.233)"><path d="M373.325,372.364h-.385a.577.577,0,1,0,0,1.154h.385a.577.577,0,1,0,0-1.154Z" transform="translate(-372.363 -372.364)"/></g><g transform="translate(9.618 10.388)"><path d="M390.379,418.909a.577.577,0,0,0-.577.577v.577h-1.347a.577.577,0,1,0,0,1.154h1.924a.577.577,0,0,0,.577-.577v-1.154A.577.577,0,0,0,390.379,418.909Z" transform="translate(-387.878 -418.909)"/></g><g transform="translate(6.925 9.233)"><path d="M279.849,372.364a.577.577,0,0,0-.577.577v.769a.577.577,0,1,0,1.154,0v-.769A.577.577,0,0,0,279.849,372.364Z" transform="translate(-279.272 -372.364)"/></g><g transform="translate(8.464 6.925)"><path d="M343.064,279.273H341.91a.577.577,0,0,0,0,1.154h1.154a.577.577,0,1,0,0-1.154Z" transform="translate(-341.333 -279.273)"/></g></g><g transform="translate(0 0.072)"><line y1="3.021" transform="translate(0 3.128)" fill="none" stroke="#000" stroke-linecap="round" stroke-linejoin="round" stroke-width="1.2"/><path d="M375.853-200.088a3.128,3.128,0,0,1,3.128-3.128h3.163" transform="translate(-375.853 203.216)" fill="none" stroke="#000" stroke-linecap="round" stroke-linejoin="round" stroke-width="1.2"/></g><g transform="translate(18.305 18.712) rotate(180)"><line y1="3.021" transform="translate(0 3.128)" fill="none" stroke="#000" stroke-linecap="round" stroke-linejoin="round" stroke-width="1.2"/><path d="M0,3.128A3.128,3.128,0,0,1,3.128,0H6.291" transform="translate(0)" fill="none" stroke="#000" stroke-linecap="round" stroke-linejoin="round" stroke-width="1.2"/></g><g transform="translate(18.305 0) rotate(90)"><line y1="3.021" transform="translate(0 3.128)" fill="none" stroke="#000" stroke-linecap="round" stroke-linejoin="round" stroke-width="1.2"/><path d="M0,3.128A3.128,3.128,0,0,1,3.128,0H6.291" transform="translate(0 0)" fill="none" stroke="#000" stroke-linecap="round" stroke-linejoin="round" stroke-width="1.2"/></g><g transform="translate(0.001 18.783) rotate(-90)"><line y1="3.021" transform="translate(0 3.128)" fill="none" stroke="#000" stroke-linecap="round" stroke-linejoin="round" stroke-width="1.2"/><path d="M0,3.128A3.128,3.128,0,0,1,3.128,0H6.291" transform="translate(0)" fill="none" stroke="#000" stroke-linecap="round" stroke-linejoin="round" stroke-width="1.2"/></g></g></g></svg>