<svg xmlns="http://www.w3.org/2000/svg" xmlns:xlink="http://www.w3.org/1999/xlink" width="20" height="20" viewBox="0 0 20 20">
  <defs>
    <clipPath id="clip-path">
      <path id="Path_1783" data-name="Path 1783" d="M0,4.455a.67.67,0,0,0,.669.669H9.417L6.831,7.71a.669.669,0,0,0,0,.946l.058.058a.669.669,0,0,0,.946,0l3.786-3.786a.669.669,0,0,0,0-.946L7.835.2a.669.669,0,0,0-.946,0L6.831.254a.669.669,0,0,0,0,.946L9.417,3.786H.669A.67.67,0,0,0,0,4.455Z" fill="#fff"/>
    </clipPath>
    <clipPath id="clip-path-2">
      <path id="Path_1782" data-name="Path 1782" d="M0,2532.48H1325.135V0H0Z" fill="#fff"/>
    </clipPath>
  </defs>
  <g id="Group_4228" data-name="Group 4228" transform="translate(2656 -820)">
    <g id="Group_4224" data-name="Group 4224" transform="translate(-8)">
      <rect id="Rectangle_1951" data-name="Rectangle 1951" width="20" height="20" rx="4" transform="translate(-2628 840) rotate(180)" fill="#38d989"/>
      <g id="Group_4222" data-name="Group 4222" transform="translate(-2633.258 824.234) rotate(90)">
        <g id="Group_1951" data-name="Group 1951" clip-path="url(#clip-path)">
          <g id="Group_1950" data-name="Group 1950" transform="translate(-449.743 -1141.204)" clip-path="url(#clip-path-2)">
            <path id="Path_1781" data-name="Path 1781" d="M0,15.6V0H18.509V15.6Z" transform="translate(446.397 1137.857)" fill="#fff"/>
          </g>
        </g>
      </g>
      <g id="Group_4223" data-name="Group 4223" transform="translate(-2633.258 824.234) rotate(90)">
        <g id="Group_1951-2" data-name="Group 1951" clip-path="url(#clip-path)">
          <g id="Group_1950-2" data-name="Group 1950" transform="translate(-449.743 -1141.204)" clip-path="url(#clip-path-2)">
            <path id="Path_1781-2" data-name="Path 1781" d="M0,15.6V0H18.509V15.6Z" transform="translate(446.397 1137.857)" fill="#fff"/>
          </g>
        </g>
      </g>
    </g>
  </g>
</svg>
