<svg xmlns="http://www.w3.org/2000/svg" xmlns:xlink="http://www.w3.org/1999/xlink" width="20" height="20" viewBox="0 0 20 20">
  <defs>
    <clipPath id="clip-path">
      <path id="Path_1783" data-name="Path 1783" d="M0,4.453a.669.669,0,0,0,.669.669H9.413L6.828,7.707a.668.668,0,0,0,0,.946l.057.057a.668.668,0,0,0,.946,0l3.784-3.784a.668.668,0,0,0,0-.946L7.832.2a.668.668,0,0,0-.946,0L6.828.254a.668.668,0,0,0,0,.946L9.413,3.784H.669A.669.669,0,0,0,0,4.453Z" fill="#f8f8f8"/>
    </clipPath>
    <clipPath id="clip-path-2">
      <path id="Path_1782" data-name="Path 1782" d="M0,2531.492H1324.618V0H0Z" fill="#f8f8f8"/>
    </clipPath>
  </defs>
  <g id="Group_3858" data-name="Group 3858" transform="translate(-1550 -916)">
    <circle id="Ellipse_372" data-name="Ellipse 372" cx="10" cy="10" r="10" transform="translate(1570 936) rotate(180)" fill="#c0c7cc"/>
    <g id="Group_3854" data-name="Group 3854" transform="translate(1564.74 920.237) rotate(90)">
      <g id="Group_1951" data-name="Group 1951" clip-path="url(#clip-path)">
        <g id="Group_1950" data-name="Group 1950" transform="translate(-449.567 -1140.758)" clip-path="url(#clip-path-2)">
          <path id="Path_1781" data-name="Path 1781" d="M0,15.6V0H18.5V15.6Z" transform="translate(446.222 1137.413)" fill="#f8f8f8"/>
        </g>
      </g>
    </g>
  </g>
</svg>
