<svg xmlns="http://www.w3.org/2000/svg" width="18.441" height="18.891" viewBox="0 0 18.441 18.891"><g transform="translate(-212.411 -268.4)"><g transform="translate(-109.988 138.001)"><g transform="translate(325.558 133.963)"><g transform="translate(2.174 2.174)"><path d="M94.02,93.25a.544.544,0,1,0,.159.384A.548.548,0,0,0,94.02,93.25Z" transform="translate(-93.092 -93.091)"/></g><g transform="translate(0 0)"><path d="M4.892,0H.544A.544.544,0,0,0,0,.544V4.892a.544.544,0,0,0,.544.544H4.892a.544.544,0,0,0,.544-.544V.544A.544.544,0,0,0,4.892,0ZM4.348,4.348H1.087V1.087H4.348V4.348Z" transform="translate(0 0)"/></g><g transform="translate(8.697 2.174)"><path d="M373.293,93.25a.543.543,0,1,0,.159.384A.547.547,0,0,0,373.293,93.25Z" transform="translate(-372.365 -93.091)"/></g><g transform="translate(6.523 0)"><path d="M284.164,0h-4.348a.544.544,0,0,0-.544.544V4.892a.544.544,0,0,0,.544.544h4.348a.544.544,0,0,0,.544-.544V.544A.544.544,0,0,0,284.164,0Zm-.544,4.348h-3.261V1.087h3.261Z" transform="translate(-279.272 0)"/></g><g transform="translate(2.174 8.697)"><path d="M94.02,372.523a.544.544,0,1,0,.159.385A.548.548,0,0,0,94.02,372.523Z" transform="translate(-93.092 -372.364)"/></g><g transform="translate(0 6.523)"><path d="M4.892,279.273H.544a.544.544,0,0,0-.544.544v4.348a.544.544,0,0,0,.544.544H4.892a.544.544,0,0,0,.544-.544v-4.348A.544.544,0,0,0,4.892,279.273Zm-.544,4.348H1.087V280.36H4.348v3.261Z" transform="translate(0 -279.273)"/></g><g transform="translate(8.697 8.697)"><path d="M373.269,372.364h-.362a.544.544,0,1,0,0,1.087h.362a.544.544,0,1,0,0-1.087Z" transform="translate(-372.363 -372.364)"/></g><g transform="translate(9.059 9.784)"><path d="M390.233,418.909a.544.544,0,0,0-.544.544V420h-1.268a.544.544,0,1,0,0,1.087h1.812a.544.544,0,0,0,.544-.544v-1.087A.544.544,0,0,0,390.233,418.909Z" transform="translate(-387.878 -418.909)"/></g><g transform="translate(6.523 8.697)"><path d="M279.816,372.364a.544.544,0,0,0-.544.544v.725a.544.544,0,1,0,1.087,0v-.725A.544.544,0,0,0,279.816,372.364Z" transform="translate(-279.272 -372.364)"/></g><g transform="translate(7.972 6.523)"><path d="M342.964,279.273h-1.087a.544.544,0,0,0,0,1.087h1.087a.544.544,0,1,0,0-1.087Z" transform="translate(-341.333 -279.273)"/></g></g><g transform="translate(322.999 131.067)"><line y1="2.846" transform="translate(0 2.946)" fill="none" stroke="#000" stroke-linecap="round" stroke-linejoin="round" stroke-width="1.2"/><path d="M375.853-200.27a2.946,2.946,0,0,1,2.946-2.946h2.979" transform="translate(-375.853 203.216)" fill="none" stroke="#000" stroke-linecap="round" stroke-linejoin="round" stroke-width="1.2"/></g><g transform="translate(340.24 148.623) rotate(180)"><line y1="2.846" transform="translate(0 2.946)" fill="none" stroke="#000" stroke-linecap="round" stroke-linejoin="round" stroke-width="1.2"/><path d="M0,2.946A2.946,2.946,0,0,1,2.946,0H5.926" transform="translate(0)" fill="none" stroke="#000" stroke-linecap="round" stroke-linejoin="round" stroke-width="1.2"/></g><g transform="translate(340.241 130.999) rotate(90)"><line y1="2.846" transform="translate(0 2.946)" fill="none" stroke="#000" stroke-linecap="round" stroke-linejoin="round" stroke-width="1.2"/><path d="M0,2.946A2.946,2.946,0,0,1,2.946,0H5.926" transform="translate(0 0)" fill="none" stroke="#000" stroke-linecap="round" stroke-linejoin="round" stroke-width="1.2"/></g><g transform="translate(323 148.691) rotate(-90)"><line y1="2.846" transform="translate(0 2.946)" fill="none" stroke="#000" stroke-linecap="round" stroke-linejoin="round" stroke-width="1.2"/><path d="M0,2.946A2.946,2.946,0,0,1,2.946,0H5.926" transform="translate(0)" fill="none" stroke="#000" stroke-linecap="round" stroke-linejoin="round" stroke-width="1.2"/></g></g></g></svg>