<svg xmlns="http://www.w3.org/2000/svg" width="18.101" height="20.763" viewBox="0 0 18.101 20.763"><path d="M34.027,7.209l2.035-.741a2.464,2.464,0,1,1,3.2-3.747l1.405,1.242L40.946,2.1a2.465,2.465,0,1,1,4.86.821l1.919-.7a1.824,1.824,0,0,1,2.336,1.089L50.892,5.6a.607.607,0,0,1-.363.778L41.036,9.829H50.2a.607.607,0,0,1,.607.607v8.5a1.824,1.824,0,0,1-1.822,1.822H36.839a1.824,1.824,0,0,1-1.822-1.822V12.02l-.47.171a.607.607,0,0,1-.778-.363l-.831-2.283A1.824,1.824,0,0,1,34.027,7.209ZM44.735,19.548h4.252a.608.608,0,0,0,.607-.607v-7.9H44.735Zm-2.43,0h1.215v-8.5H42.306ZM38.458,3.632a1.25,1.25,0,1,0-.4,2.111l1.975-.719Zm5.663-2.174a1.25,1.25,0,0,0-1.974.823l-.311,2.086,1.975-.719A1.255,1.255,0,0,0,44.121,1.458Zm-.286,6.06L49.542,5.44l-.623-1.712a.608.608,0,0,0-.779-.363L43,5.235Zm-2.283.831,1.142-.416L41.862,5.65l-1.142.416ZM36.232,18.94a.608.608,0,0,0,.607.607h4.252v-8.5H37.7l-1.466.534V18.94ZM34.079,9.129l.623,1.712L40.41,8.764l-.831-2.283-5.137,1.87A.608.608,0,0,0,34.079,9.129Z" transform="translate(-32.828 0.001)"/></svg>