<svg xmlns="http://www.w3.org/2000/svg" width="20" height="20" viewBox="0 0 20 20">
  <path fill="#C4C4C4" d="M20,7 L20,17 C20,18.1045695 19.1045695,19 18,19 L2,19 C0.8954305,19 1.3527075e-16,18.1045695 0,17 L0,7 L20,7 Z M17,13 L14,13 L14,16 L17,16 L17,13 Z M4,2 L4,3 C4,4.1045695 4.8954305,5 6,5 C7.1045695,5 8,4.1045695 8,3 L8,3 L8,2 L12,2 L12,3 C12,4.0543618 12.8158778,4.91816512 13.8507377,4.99451426 L14,5 C15.1045695,5 16,4.1045695 16,3 L16,3 L16,2 L18,2 C19.1045695,2 20,2.8954305 20,4 L20,6 L0,6 L0,4 C-1.3527075e-16,2.8954305 0.8954305,2 2,2 L4,2 Z M6,0 C6.55228475,-1.01453063e-16 7,0.44771525 7,1 L7,3 C7,3.55228475 6.55228475,4 6,4 C5.44771525,4 5,3.55228475 5,3 L5,1 C5,0.44771525 5.44771525,1.01453063e-16 6,0 Z M14,0 C14.5522847,-1.01453063e-16 15,0.44771525 15,1 L15,3 C15,3.55228475 14.5522847,4 14,4 C13.4477153,4 13,3.55228475 13,3 L13,1 C13,0.44771525 13.4477153,1.01453063e-16 14,0 Z"/>
</svg>