<svg xmlns="http://www.w3.org/2000/svg" width="45" height="45" viewBox="0 0 45 45"><g transform="translate(-314 -122)"><rect width="45" height="45" rx="9" transform="translate(314 122)" fill="#fff"/><g transform="translate(327.045 135.685)"><g transform="translate(3.438 3.438)"><path d="M94.56,93.343a.86.86,0,1,0,.252.608A.867.867,0,0,0,94.56,93.343Z" transform="translate(-93.092 -93.091)"/></g><path d="M7.736,0H.86A.86.86,0,0,0,0,.86V7.736a.86.86,0,0,0,.86.86H7.736a.86.86,0,0,0,.86-.86V.86A.86.86,0,0,0,7.736,0Zm-.86,6.877H1.719V1.719H6.877V6.877Z"/><g transform="translate(13.753 3.438)"><path d="M373.832,93.343a.859.859,0,1,0,.252.608A.865.865,0,0,0,373.832,93.343Z" transform="translate(-372.365 -93.091)"/></g><g transform="translate(10.315)"><path d="M287.008,0h-6.877a.86.86,0,0,0-.86.86V7.736a.86.86,0,0,0,.86.86h6.877a.86.86,0,0,0,.86-.86V.86A.86.86,0,0,0,287.008,0Zm-.86,6.877h-5.158V1.719h5.157V6.877Z" transform="translate(-279.272 0)"/></g><g transform="translate(3.438 13.753)"><path d="M94.56,372.616a.86.86,0,1,0,.252.608A.867.867,0,0,0,94.56,372.616Z" transform="translate(-93.092 -372.364)"/></g><g transform="translate(0 10.315)"><path d="M7.736,279.273H.86a.86.86,0,0,0-.86.86v6.877a.86.86,0,0,0,.86.86H7.736a.86.86,0,0,0,.86-.86v-6.877A.86.86,0,0,0,7.736,279.273Zm-.86,6.877H1.719v-5.158H6.877v5.158Z" transform="translate(0 -279.273)"/></g><g transform="translate(13.753 13.753)"><path d="M373.8,372.364h-.573a.86.86,0,1,0,0,1.719h.573a.86.86,0,1,0,0-1.719Z" transform="translate(-372.363 -372.364)"/></g><g transform="translate(14.326 15.472)"><path d="M391.6,418.909a.86.86,0,0,0-.86.86v.86h-2.006a.86.86,0,1,0,0,1.719H391.6a.86.86,0,0,0,.86-.86v-1.719A.86.86,0,0,0,391.6,418.909Z" transform="translate(-387.878 -418.909)"/></g><g transform="translate(10.315 13.753)"><path d="M280.132,372.364a.86.86,0,0,0-.86.86v1.146a.86.86,0,1,0,1.719,0v-1.146A.86.86,0,0,0,280.132,372.364Z" transform="translate(-279.272 -372.364)"/></g><g transform="translate(12.607 10.315)"><path d="M343.912,279.273h-1.719a.86.86,0,0,0,0,1.719h1.719a.86.86,0,1,0,0-1.719Z" transform="translate(-341.333 -279.273)"/></g></g><g transform="translate(-52.853 334.322)"><line y1="4.5" transform="translate(375.853 -198.557)" fill="none" stroke="#000" stroke-linecap="round" stroke-linejoin="round" stroke-width="2"/><path d="M375.853-198.557a4.659,4.659,0,0,1,4.659-4.659h4.712" fill="none" stroke="#000" stroke-linecap="round" stroke-linejoin="round" stroke-width="2"/></g><g transform="translate(726.118 -44.345) rotate(180)"><line y1="4.5" transform="translate(375.853 -198.557)" fill="none" stroke="#000" stroke-linecap="round" stroke-linejoin="round" stroke-width="2"/><path d="M375.853-198.557a4.659,4.659,0,0,1,4.659-4.659h4.712" fill="none" stroke="#000" stroke-linecap="round" stroke-linejoin="round" stroke-width="2"/></g><g transform="translate(147.049 -244.853) rotate(90)"><line y1="4.5" transform="translate(375.853 -198.557)" fill="none" stroke="#000" stroke-linecap="round" stroke-linejoin="round" stroke-width="2"/><path d="M375.853-198.557a4.659,4.659,0,0,1,4.659-4.659h4.712" fill="none" stroke="#000" stroke-linecap="round" stroke-linejoin="round" stroke-width="2"/></g><g transform="translate(526.216 534.83) rotate(-90)"><line y1="4.5" transform="translate(375.853 -198.557)" fill="none" stroke="#000" stroke-linecap="round" stroke-linejoin="round" stroke-width="2"/><path d="M375.853-198.557a4.659,4.659,0,0,1,4.659-4.659h4.712" fill="none" stroke="#000" stroke-linecap="round" stroke-linejoin="round" stroke-width="2"/></g></g></svg>