<svg xmlns="http://www.w3.org/2000/svg" xmlns:xlink="http://www.w3.org/1999/xlink" width="8.658" height="11.482" viewBox="0 0 8.658 11.482"><defs><clipPath id="a"><path d="M0,4.329a.651.651,0,0,0,.65.65h8.5L6.638,7.492a.65.65,0,0,0,0,.92l.056.056a.65.65,0,0,0,.92,0l3.678-3.678a.65.65,0,0,0,0-.92L7.613.191a.65.65,0,0,0-.92,0L6.638.247a.65.65,0,0,0,0,.92L9.15,3.679H.65A.651.651,0,0,0,0,4.329Z"/></clipPath><clipPath id="b"><path d="M0,2460.826H1287.641V0H0Z"/></clipPath></defs><g transform="translate(-246.171 -262.513)"><g transform="translate(246.171 273.996) rotate(-90)"><g transform="translate(0 0)" clip-path="url(#a)"><g transform="translate(-437.018 -1108.914)" clip-path="url(#b)"><path d="M0,15.161V0H17.986V15.161Z" transform="translate(433.766 1105.662)"/></g></g></g></g></svg>