<svg xmlns="http://www.w3.org/2000/svg" xmlns:xlink="http://www.w3.org/1999/xlink" width="20" height="20" viewBox="0 0 20 20">
  <defs>
    <clipPath id="clip-path">
      <path id="Path_1783" data-name="Path 1783" d="M0,4.455a.67.67,0,0,0,.669.669H9.417L6.831,7.71a.669.669,0,0,0,0,.946l.058.058a.669.669,0,0,0,.946,0l3.786-3.786a.669.669,0,0,0,0-.946L7.835.2a.669.669,0,0,0-.946,0L6.831.254a.669.669,0,0,0,0,.946L9.417,3.786H.669A.67.67,0,0,0,0,4.455Z" fill="#f8f8f8"/>
    </clipPath>
    <clipPath id="clip-path-2">
      <path id="Path_1782" data-name="Path 1782" d="M0,2532.48H1325.135V0H0Z" fill="#fff"/>
    </clipPath>
  </defs>
  <g id="Group_3861" data-name="Group 3861" transform="translate(-1371 -958)">
    <circle id="Ellipse_373" data-name="Ellipse 373" cx="10" cy="10" r="10" transform="translate(1371 958)" fill="#05f"/>
    <g id="Group_3855" data-name="Group 3855" transform="translate(1376.258 973.766) rotate(-90)">
      <g id="Group_1951" data-name="Group 1951" clip-path="url(#clip-path)">
        <g id="Group_1950" data-name="Group 1950" transform="translate(-449.743 -1141.204)" clip-path="url(#clip-path-2)">
          <path id="Path_1781" data-name="Path 1781" d="M0,15.6V0H18.509V15.6Z" transform="translate(446.397 1137.857)" fill="#fff"/>
        </g>
      </g>
    </g>
  </g>
</svg>
