<svg xmlns="http://www.w3.org/2000/svg" xmlns:xlink="http://www.w3.org/1999/xlink" width="20" height="20" viewBox="0 0 20 20">
  <defs>
    <clipPath id="clip-path">
      <path id="Path_4282" data-name="Path 4282" d="M3141.172,410.736a.671.671,0,0,0,.669-.669v-8.748l2.586,2.586a.669.669,0,0,0,.946,0l.058-.058a.669.669,0,0,0,0-.946l-3.786-3.786a.669.669,0,0,0-.946,0l-3.782,3.786a.669.669,0,0,0,0,.946l.054.058a.669.669,0,0,0,.946,0l2.586-2.586v8.748A.67.67,0,0,0,3141.172,410.736Z" fill="none"/>
    </clipPath>
    <clipPath id="clip-path-2">
      <rect id="Rectangle_1957" data-name="Rectangle 1957" width="2532.48" height="1325.135" transform="translate(1995.513 -464.656)" fill="none"/>
    </clipPath>
  </defs>
  <g id="Group_4246" data-name="Group 4246" transform="translate(2644 -1001)">
    <g id="Rectangle_1956" data-name="Rectangle 1956" transform="translate(-5775.172 606.03)">
      <g id="Group_4239" data-name="Group 4239">
        <rect id="Rectangle_1956-2" data-name="Rectangle 1956" width="20" height="20" rx="4" transform="translate(3131.172 394.97)" fill="#fff"/>
      </g>
      <g id="Group_4240" data-name="Group 4240">
        <path id="Path_4280" data-name="Path 4280" d="M3147.172,414.97h-12a4,4,0,0,1-4-4v-12a4,4,0,0,1,4-4h12a4,4,0,0,1,4,4v12A4,4,0,0,1,3147.172,414.97Zm-12-18.5a2.5,2.5,0,0,0-2.5,2.5v12a2.5,2.5,0,0,0,2.5,2.5h12a2.5,2.5,0,0,0,2.5-2.5v-12a2.5,2.5,0,0,0-2.5-2.5Z"/>
      </g>
    </g>
    <g id="Group_4239-2" data-name="Group 4239" transform="translate(-5775.172 606.03)">
      <g id="Group_4244" data-name="Group 4244">
        <g id="Group_4243" data-name="Group 4243" clip-path="url(#clip-path)">
          <g id="Group_1951-4" data-name="Group 1951-4">
            <g id="Group_4242" data-name="Group 4242">
              <g id="Group_4241" data-name="Group 4241" clip-path="url(#clip-path-2)">
                <g id="Group_1950-4" data-name="Group 1950-4">
                  <g id="Path_1781-4" data-name="Path 1781-4">
                    <path id="Path_4281" data-name="Path 4281" d="M3148.97,414.082h-15.6V395.573h15.6Z"/>
                  </g>
                </g>
              </g>
            </g>
          </g>
        </g>
      </g>
    </g>
  </g>
</svg>
