<?xml version="1.0" encoding="utf-8"?>
<!-- Generator: Adobe Illustrator 25.2.1, SVG Export Plug-In . SVG Version: 6.00 Build 0)  -->
<svg version="1.1" id="Layer_1" xmlns="http://www.w3.org/2000/svg" xmlns:xlink="http://www.w3.org/1999/xlink" x="0px" y="0px"
	 viewBox="0 0 12.8 12.8" style="enable-background:new 0 0 12.8 12.8;" xml:space="preserve">
<style type="text/css">
	.st0{fill:#1C1F21;}
	.st1{fill:none;}
</style>
<g id="Group_4372" transform="translate(-24.434 -320.574)">
	<path id="Path_2120" d="M37.3,327.8v-1.5l-1.5-0.5c-0.1-0.5-0.3-1-0.6-1.4l0.7-1.4l-1.1-1.1l-1.4,0.7c-0.4-0.3-0.9-0.5-1.4-0.6
		l-0.5-1.5h-1.6l-0.5,1.5c-0.5,0.1-1,0.3-1.4,0.6l-1.4-0.7l-1.1,1.1l0.7,1.4c-0.3,0.4-0.5,0.9-0.6,1.4l-1.5,0.5v1.5l1.5,0.5
		c0.1,0.5,0.3,1,0.6,1.4l-0.7,1.3l1.1,1.1l1.4-0.7c0.4,0.3,0.9,0.5,1.4,0.6l0.5,1.5h1.5l0.5-1.5c0.5-0.1,1-0.3,1.4-0.6l1.4,0.7
		l1.1-1.1l-0.7-1.4c0.3-0.4,0.5-0.9,0.6-1.4L37.3,327.8z M30.9,330.4c-1.9,0-3.4-1.5-3.4-3.4s1.5-3.4,3.4-3.4c1.9,0,3.4,1.5,3.4,3.4
		c0,0,0,0,0,0C34.2,328.9,32.7,330.4,30.9,330.4L30.9,330.4z"/>
</g>
</svg>
