<svg version="1.1" id="Layer_1" xmlns="http://www.w3.org/2000/svg" x="0" y="0" viewBox="0 0 12.8 12.8" xml:space="preserve"><style></style><g id="Group_4372" transform="translate(-24.434 -320.574)"><path id="Path_2120" d="M37.3 327.8v-1.5l-1.5-.5c-.1-.5-.3-1-.6-1.4l.7-1.4-1.1-1.1-1.4.7c-.4-.3-.9-.5-1.4-.6l-.5-1.5h-1.6l-.5 1.5c-.5.1-1 .3-1.4.6l-1.4-.7-1.1 1.1.7 1.4c-.3.4-.5.9-.6 1.4l-1.5.5v1.5l1.5.5c.1.5.3 1 .6 1.4l-.7 1.3 1.1 1.1 1.4-.7c.4.3.9.5 1.4.6l.5 1.5h1.5l.5-1.5c.5-.1 1-.3 1.4-.6l1.4.7 1.1-1.1-.7-1.4c.3-.4.5-.9.6-1.4l1.6-.4zm-6.4 2.6c-1.9 0-3.4-1.5-3.4-3.4s1.5-3.4 3.4-3.4 3.4 1.5 3.4 3.4c-.1 1.9-1.6 3.4-3.4 3.4z"/></g></svg>