<svg xmlns="http://www.w3.org/2000/svg" width="17.149" height="18.832" viewBox="0 0 17.149 18.832"><g transform="translate(0.478 0.35)"><path d="M11.022,8a3.022,3.022,0,1,0,3.022,3.022A3.022,3.022,0,0,0,11.022,8Zm0,4.533a1.511,1.511,0,1,1,1.511-1.511A1.511,1.511,0,0,1,11.022,12.533Z" transform="translate(-2.865 -1.956)" stroke="#fff" stroke-width="0.7"/><path d="M16.382,10.5l-.335-.193a6.875,6.875,0,0,0,0-2.486l.335-.193A2.268,2.268,0,1,0,14.115,3.7l-.336.194a6.782,6.782,0,0,0-2.152-1.241V2.266a2.266,2.266,0,1,0-4.533,0v.388A6.782,6.782,0,0,0,4.942,3.9L4.6,3.7A2.268,2.268,0,1,0,2.338,7.631l.335.193a6.875,6.875,0,0,0,0,2.486l-.335.193A2.268,2.268,0,1,0,4.6,14.432l.336-.194a6.782,6.782,0,0,0,2.153,1.241v.388a2.266,2.266,0,1,0,4.533,0v-.388a6.782,6.782,0,0,0,2.152-1.244l.338.195A2.268,2.268,0,1,0,16.382,10.5ZM14.457,7.649a5.325,5.325,0,0,1,0,2.833.755.755,0,0,0,.351.856l.819.473a.756.756,0,1,1-.755,1.309l-.82-.474a.755.755,0,0,0-.918.125,5.276,5.276,0,0,1-2.45,1.417.755.755,0,0,0-.567.732v.947a.755.755,0,0,1-1.511,0V14.92a.755.755,0,0,0-.567-.732,5.276,5.276,0,0,1-2.449-1.42.755.755,0,0,0-.918-.125l-.819.474a.755.755,0,1,1-.756-1.309l.819-.473a.755.755,0,0,0,.351-.856,5.325,5.325,0,0,1,0-2.833.755.755,0,0,0-.351-.853L3.094,6.32a.756.756,0,0,1,.755-1.309l.82.474a.755.755,0,0,0,.917-.122,5.276,5.276,0,0,1,2.45-1.417A.755.755,0,0,0,8.6,3.212V2.266a.755.755,0,0,1,1.511,0v.946a.755.755,0,0,0,.567.732,5.276,5.276,0,0,1,2.45,1.42.755.755,0,0,0,.918.125l.819-.474a.755.755,0,1,1,.756,1.309l-.819.473a.755.755,0,0,0-.35.853Z" transform="translate(-1.203)" stroke="#fff" stroke-width="0.7"/></g></svg>