<svg xmlns="http://www.w3.org/2000/svg" width="20" height="20" viewBox="0 0 20 20"><g transform="translate(-23 -264)"><g transform="translate(0 -53)"><g transform="translate(23 317)" fill="#fff" stroke="#000" stroke-width="1.5"><rect width="20" height="20" rx="4" stroke="none"/><rect x="0.75" y="0.75" width="18.5" height="18.5" rx="3.25" fill="none"/></g><path d="M108.547,102.9v-1.547l-1.467-.461A5.036,5.036,0,0,0,106.5,99.5l.714-1.367-1.094-1.094-1.371.714a5.039,5.039,0,0,0-1.387-.573L102.9,95.7h-1.551l-.465,1.475a5.091,5.091,0,0,0-1.387.573l-1.359-.714-1.1,1.1.714,1.367a5.108,5.108,0,0,0-.581,1.395l-1.467.461V102.9l1.459.461a5.111,5.111,0,0,0,.581,1.407l-.706,1.347,1.094,1.094,1.351-.705a5.12,5.12,0,0,0,1.415.585l.457,1.451H102.9l.457-1.451a5.171,5.171,0,0,0,1.415-.585l1.351.705,1.094-1.094-.705-1.355a5.111,5.111,0,0,0,.581-1.407Zm-6.422,2.626a3.391,3.391,0,1,1,3.387-3.391A3.392,3.392,0,0,1,102.126,105.525Z" transform="translate(-69.126 224.874)"/></g></g></svg>