<svg xmlns="http://www.w3.org/2000/svg" width="20" height="20" viewBox="0 0 20 20">
  <g id="Group_2279" data-name="Group 2279" transform="translate(-23 -392)">
    <g id="Group_2278" data-name="Group 2278">
      <g id="Group_2277" data-name="Group 2277">
        <g id="Group_2276" data-name="Group 2276">
          <g id="icons8-settings_1_" data-name="icons8-settings (1)" transform="translate(19.1 384.1)">
            <g id="Group_2274" data-name="Group 2274" transform="translate(-4)">
              <path id="Path_2119" data-name="Path 2119" d="M27.9,17.9a10,10,0,1,0-10,10A10,10,0,0,0,27.9,17.9Z" fill="#d6d6d6"/>
              <path id="Path_2120" data-name="Path 2120" d="M108.547,102.9v-1.547l-1.467-.461A5.036,5.036,0,0,0,106.5,99.5l.714-1.367-1.094-1.094-1.371.714a5.039,5.039,0,0,0-1.387-.573L102.9,95.7h-1.551l-.465,1.475a5.091,5.091,0,0,0-1.387.573l-1.359-.714-1.1,1.1.714,1.367a5.108,5.108,0,0,0-.581,1.395l-1.467.461V102.9l1.459.461a5.111,5.111,0,0,0,.581,1.407l-.706,1.347,1.094,1.094,1.351-.705a5.12,5.12,0,0,0,1.415.585l.457,1.451H102.9l.457-1.451a5.171,5.171,0,0,0,1.415-.585l1.351.705,1.094-1.094-.705-1.355a5.111,5.111,0,0,0,.581-1.407Zm-6.422,2.626a3.391,3.391,0,1,1,3.387-3.391A3.392,3.392,0,0,1,102.126,105.525Z" transform="translate(-84.226 -84.226)" fill="#fff"/>
            </g>
          </g>
        </g>
      </g>
    </g>
  </g>
</svg>
