<?xml version="1.0" encoding="utf-8"?>
<!-- Generator: Adobe Illustrator 25.2.1, SVG Export Plug-In . SVG Version: 6.00 Build 0)  -->
<svg version="1.1" id="Layer_1" xmlns="http://www.w3.org/2000/svg" xmlns:xlink="http://www.w3.org/1999/xlink" x="0px" y="0px"
	 viewBox="0 0 11.4 10.8" style="enable-background:new 0 0 11.4 10.8;" xml:space="preserve">
<style type="text/css">
	.st0{fill:#1C1F21;}
	.st1{fill:none;}
</style>
<g>
	<path id="icons8-commercial" d="M9.6,0L9,1.2L3.6,3H1.2C0.5,3,0,3.5,0,4.2v2.4c0,0.7,0.5,1.2,1.2,1.2h1.2v3h1.2v-3L9,9.6l0.6,1.2
		h1.2V6.4c0.6-0.3,0.8-1.1,0.4-1.6c-0.1-0.2-0.3-0.3-0.4-0.4V0H9.6z M9.6,2.3v6.3L9.4,8.5L4.8,6.9V3.9l4.6-1.5L9.6,2.3z M1.2,4.2
		h2.4v2.4H1.2V4.2z"/>
</g>
</svg>
