<svg xmlns="http://www.w3.org/2000/svg" width="18.884" height="18.832" viewBox="0 0 18.884 18.832"><path d="M12.843,0a.755.755,0,0,0-.755.755c0,2.228-1.951,3.022-3.777,3.022H3.022A3.022,3.022,0,0,0,0,6.8V8.31a3.006,3.006,0,0,0,1.144,2.349l2.7,6.023a2.443,2.443,0,0,0,2.231,1.45,2.253,2.253,0,0,0,2.055-3.173L6.466,11.332H8.31c1.826,0,3.777.794,3.777,3.022a.755.755,0,0,0,1.511,0V.756A.755.755,0,0,0,12.843,0ZM6.752,15.578a.743.743,0,0,1-.678,1.043.931.931,0,0,1-.851-.555L3.1,11.332H4.8Zm5.336-4.547A5.835,5.835,0,0,0,8.31,9.821H3.022A1.511,1.511,0,0,1,1.511,8.31V6.8A1.511,1.511,0,0,1,3.022,5.288H8.31a5.835,5.835,0,0,0,3.777-1.205Zm5.968.644a.755.755,0,0,1-1.014.338l-1.511-.755A.756.756,0,1,1,16.207,9.9l1.511.755a.755.755,0,0,1,.338,1.01Zm-2.863-6.8a.755.755,0,0,1,.338-1.014l1.511-.755a.756.756,0,0,1,.675,1.352l-1.511.755A.755.755,0,0,1,15.193,4.874ZM15.11,7.555a.755.755,0,0,1,.755-.755h1.511a.755.755,0,1,1,0,1.511H15.865A.755.755,0,0,1,15.11,7.555Z" transform="translate(0.35 0.35)" stroke="#fff" stroke-width="0.7"/></svg>