<svg width="107" height="24" viewBox="0 0 107 24" fill="none"
  xmlns="http://www.w3.org/2000/svg">
  <rect width="107" height="24" rx="12" fill="#00C671"/>
  <path d="M9.03125 11.3984C9.03125 10.5807 9.16667 9.82292 9.4375 9.125C9.71354 8.41667 10.0938 7.80469 10.5781 7.28906C11.0729 6.76302 11.6589 6.35156 12.3359 6.05469C13.013 5.75781 13.7552 5.60938 14.5625 5.60938C15.0781 5.60938 15.5339 5.66146 15.9297 5.76562C16.3307 5.86979 16.7057 6.00781 17.0547 6.17969C17.3984 6.34635 17.6953 6.52865 17.9453 6.72656C18.1849 6.91406 18.3958 7.11198 18.5781 7.32031L17.6562 8.20312C17.3333 7.82812 16.9036 7.51562 16.3672 7.26562C15.8307 7.01562 15.2422 6.89062 14.6016 6.89062C13.987 6.89062 13.4219 7.01302 12.9062 7.25781C12.4115 7.49219 11.9792 7.82292 11.6094 8.25C11.2344 8.68229 10.9531 9.16146 10.7656 9.6875C10.5677 10.2396 10.4688 10.8099 10.4688 11.3984C10.4688 11.987 10.5677 12.5573 10.7656 13.1094C10.9583 13.6458 11.2396 14.1276 11.6094 14.5547C11.974 14.9766 12.4036 15.3073 12.8984 15.5469C13.4036 15.7917 13.9583 15.9141 14.5625 15.9141C14.9427 15.9141 15.2969 15.8672 15.625 15.7734C15.9479 15.6797 16.2474 15.5625 16.5234 15.4219C16.8047 15.276 17.0469 15.1172 17.25 14.9453C17.4896 14.7422 17.6719 14.5677 17.7969 14.4219L18.7109 15.3516C18.5078 15.5703 18.2734 15.7865 18.0078 16C17.7526 16.2031 17.4375 16.401 17.0625 16.5938C16.724 16.7656 16.3359 16.9089 15.8984 17.0234C15.4557 17.138 15 17.1953 14.5312 17.1953C13.7448 17.1953 13.0104 17.0443 12.3281 16.7422C11.651 16.4453 11.0729 16.0365 10.5938 15.5156C10.099 14.9792 9.71615 14.3646 9.44531 13.6719C9.16927 12.9635 9.03125 12.2057 9.03125 11.3984ZM19.5469 13.3047C19.5469 12.7422 19.6406 12.2318 19.8281 11.7734C20.026 11.2995 20.2943 10.8906 20.6328 10.5469C20.987 10.1927 21.388 9.91667 21.8359 9.71875C22.2995 9.51562 22.8047 9.41406 23.3516 9.41406C23.8984 9.41406 24.401 9.51562 24.8594 9.71875C25.3177 9.92188 25.7214 10.1979 26.0703 10.5469C26.4089 10.8906 26.6771 11.2995 26.875 11.7734C27.0625 12.2318 27.1562 12.7422 27.1562 13.3047C27.1562 13.862 27.0625 14.3698 26.875 14.8281C26.6771 15.3125 26.4089 15.724 26.0703 16.0625C25.7214 16.4115 25.3177 16.6875 24.8594 16.8906C24.401 17.0938 23.8984 17.1953 23.3516 17.1953C22.8047 17.1953 22.2995 17.0938 21.8359 16.8906C21.388 16.6927 20.987 16.4167 20.6328 16.0625C20.2943 15.724 20.026 15.3125 19.8281 14.8281C19.6406 14.3698 19.5469 13.862 19.5469 13.3047ZM21.0625 12.2812C20.9479 12.5938 20.8906 12.9349 20.8906 13.3047C20.8906 13.6745 20.9479 14.0156 21.0625 14.3281C21.1771 14.6406 21.3438 14.9219 21.5625 15.1719C21.7604 15.401 22.0182 15.5885 22.3359 15.7344C22.6432 15.875 22.9818 15.9453 23.3516 15.9453C23.7214 15.9453 24.0599 15.875 24.3672 15.7344C24.6849 15.5885 24.9427 15.401 25.1406 15.1719C25.3594 14.9219 25.526 14.6406 25.6406 14.3281C25.7552 14.0156 25.8125 13.6745 25.8125 13.3047C25.8125 12.9349 25.7552 12.5938 25.6406 12.2812C25.526 11.9688 25.3594 11.6875 25.1406 11.4375C24.9427 11.2083 24.6849 11.0208 24.3672 10.875C24.0651 10.7344 23.7266 10.6641 23.3516 10.6641C22.9818 10.6641 22.6432 10.7344 22.3359 10.875C22.0182 11.0208 21.7604 11.2083 21.5625 11.4375C21.3438 11.6875 21.1771 11.9688 21.0625 12.2812ZM28.6953 17V9.60938H29.9453V10.6953C30.0234 10.5443 30.1198 10.3932 30.2344 10.2422C30.3542 10.0807 30.4974 9.9401 30.6641 9.82031C30.8099 9.71094 31.0078 9.61458 31.2578 9.53125C31.487 9.45312 31.7422 9.41406 32.0234 9.41406C32.4766 9.41406 32.9141 9.51823 33.3359 9.72656C33.7682 9.9401 34.0885 10.2943 34.2969 10.7891C34.4688 10.4401 34.737 10.125 35.1016 9.84375C35.4766 9.55729 35.9609 9.41406 36.5547 9.41406C37.2891 9.41406 37.8906 9.65625 38.3594 10.1406C38.8281 10.625 39.0625 11.3281 39.0625 12.25V17H37.7188V12.4531C37.7188 11.8438 37.5755 11.3932 37.2891 11.1016C37.0026 10.8099 36.6354 10.6641 36.1875 10.6641C35.75 10.6641 35.401 10.7891 35.1406 11.0391C34.901 11.2734 34.7057 11.5443 34.5547 11.8516V17H33.2109V12.4531C33.2109 11.8542 33.0651 11.4036 32.7734 11.1016C32.487 10.8099 32.125 10.6641 31.6875 10.6641C31.4583 10.6641 31.2578 10.6979 31.0859 10.7656C30.9245 10.8281 30.7708 10.9193 30.625 11.0391C30.4948 11.1484 30.3802 11.276 30.2812 11.4219C30.1771 11.5729 30.0964 11.7161 30.0391 11.8516V17H28.6953ZM41.3906 7.88281C41.2083 7.70052 41.1172 7.48698 41.1172 7.24219C41.1172 6.9974 41.2083 6.78385 41.3906 6.60156C41.5729 6.41927 41.7865 6.32812 42.0312 6.32812C42.276 6.32812 42.4896 6.41927 42.6719 6.60156C42.8542 6.78385 42.9453 6.9974 42.9453 7.24219C42.9453 7.48698 42.8542 7.70052 42.6719 7.88281C42.4948 8.0599 42.2812 8.14844 42.0312 8.14844C41.7812 8.14844 41.5677 8.0599 41.3906 7.88281ZM41.3594 17V9.60938H42.7031V17H41.3594ZM44.9922 17V9.60938H46.2422V10.6484C46.4349 10.3359 46.7188 10.0521 47.0938 9.79688C47.4635 9.54167 47.9427 9.41406 48.5312 9.41406C48.8958 9.41406 49.2448 9.47656 49.5781 9.60156C49.9167 9.72656 50.2109 9.90625 50.4609 10.1406C50.7161 10.3802 50.9193 10.6771 51.0703 11.0312C51.2214 11.3906 51.2969 11.7969 51.2969 12.25V17H49.9531V12.4688C49.9531 12.1562 49.9062 11.8854 49.8125 11.6562C49.724 11.4375 49.5964 11.25 49.4297 11.0938C49.2682 10.9427 49.0885 10.8333 48.8906 10.7656C48.6875 10.6979 48.4714 10.6641 48.2422 10.6641C47.9818 10.6641 47.7604 10.7005 47.5781 10.7734C47.3646 10.8568 47.1875 10.9557 47.0469 11.0703C46.8906 11.1953 46.7552 11.3307 46.6406 11.4766C46.5312 11.6172 46.4297 11.763 46.3359 11.9141V17H44.9922ZM52.8438 13.3047C52.8438 12.7474 52.9349 12.237 53.1172 11.7734C53.3047 11.2995 53.5625 10.8906 53.8906 10.5469C54.2344 10.1875 54.6146 9.91146 55.0312 9.71875C55.4688 9.51562 55.9375 9.41406 56.4375 9.41406C56.75 9.41406 57.0339 9.45312 57.2891 9.53125C57.5651 9.61458 57.7969 9.70833 57.9844 9.8125C58.1875 9.92708 58.3724 10.0625 58.5391 10.2188C58.7057 10.375 58.8333 10.5286 58.9219 10.6797V9.60938H60.1484V17.0312C60.1484 17.6927 60.0469 18.2526 59.8438 18.7109C59.6302 19.1901 59.3516 19.5911 59.0078 19.9141C58.6641 20.2318 58.2578 20.4714 57.7891 20.6328C57.3151 20.7943 56.8281 20.875 56.3281 20.875C55.5729 20.875 54.9193 20.7292 54.3672 20.4375C53.8255 20.151 53.3802 19.8255 53.0312 19.4609L53.8516 18.4531C54.1068 18.7552 54.4297 19.0234 54.8203 19.2578C55.2318 19.5026 55.7396 19.625 56.3438 19.625C57.0833 19.625 57.6771 19.4115 58.125 18.9844C58.5781 18.5521 58.8047 17.9219 58.8047 17.0938V16.0703C58.737 16.1641 58.6432 16.2708 58.5234 16.3906C58.4036 16.5104 58.2396 16.6328 58.0312 16.7578C57.8385 16.8724 57.6068 16.974 57.3359 17.0625C57.0599 17.151 56.7552 17.1953 56.4219 17.1953C55.9219 17.1953 55.4531 17.0938 55.0156 16.8906C54.5938 16.6927 54.2161 16.4167 53.8828 16.0625C53.5599 15.7135 53.3047 15.3021 53.1172 14.8281C52.9349 14.3646 52.8438 13.8568 52.8438 13.3047ZM54.3594 12.2812C54.2448 12.5938 54.1875 12.9349 54.1875 13.3047C54.1875 13.6745 54.2448 14.0156 54.3594 14.3281C54.474 14.651 54.638 14.9323 54.8516 15.1719C55.0547 15.401 55.3073 15.5885 55.6094 15.7344C55.9062 15.875 56.2422 15.9453 56.6172 15.9453C56.8828 15.9453 57.1354 15.9036 57.375 15.8203C57.6146 15.737 57.8229 15.6406 58 15.5312C58.1719 15.4219 58.3307 15.2865 58.4766 15.125C58.612 14.9688 58.7214 14.8255 58.8047 14.6953V11.9141C58.5964 11.5964 58.3151 11.3099 57.9609 11.0547C57.5964 10.7943 57.1484 10.6641 56.6172 10.6641C56.2422 10.6641 55.9062 10.7344 55.6094 10.875C55.3073 11.0208 55.0547 11.2083 54.8516 11.4375C54.638 11.6771 54.474 11.9583 54.3594 12.2812ZM66.2031 15.6406L67.125 14.7734C67.2083 14.8984 67.3281 15.0391 67.4844 15.1953C67.6146 15.3255 67.7839 15.4531 67.9922 15.5781C68.1797 15.6875 68.3906 15.7839 68.625 15.8672C68.8385 15.9401 69.0911 15.9766 69.3828 15.9766C69.5547 15.9766 69.7344 15.9609 69.9219 15.9297C70.0833 15.9036 70.2526 15.8464 70.4297 15.7578C70.5807 15.6797 70.7083 15.5781 70.8125 15.4531C70.9167 15.3229 70.9688 15.1719 70.9688 15C70.9688 14.8333 70.9167 14.6849 70.8125 14.5547C70.7083 14.4245 70.5755 14.3177 70.4141 14.2344C70.2526 14.151 70.0729 14.0807 69.875 14.0234C69.6771 13.9661 69.4818 13.9193 69.2891 13.8828C69.0703 13.8359 68.7917 13.7604 68.4531 13.6562C68.1562 13.5677 67.8646 13.4375 67.5781 13.2656C67.3073 13.1042 67.0729 12.888 66.875 12.6172C66.6823 12.3568 66.5859 12.0312 66.5859 11.6406C66.5859 11.3385 66.6484 11.0521 66.7734 10.7812C66.8932 10.5156 67.0781 10.2786 67.3281 10.0703C67.5625 9.8724 67.849 9.71354 68.1875 9.59375C68.5208 9.47396 68.8932 9.41406 69.3047 9.41406C69.9349 9.41406 70.4818 9.53125 70.9453 9.76562C71.3984 9.99479 71.763 10.2526 72.0391 10.5391L71.1641 11.4453C70.9922 11.2734 70.7396 11.0911 70.4062 10.8984C70.099 10.7214 69.7214 10.6328 69.2734 10.6328C68.8307 10.6328 68.4896 10.7318 68.25 10.9297C68.0156 11.1224 67.8984 11.3438 67.8984 11.5938C67.8984 11.7656 67.9479 11.9089 68.0469 12.0234C68.1562 12.1484 68.2917 12.2474 68.4531 12.3203C68.6198 12.3984 68.8125 12.4688 69.0312 12.5312C69.099 12.5521 69.3177 12.6068 69.6875 12.6953C69.9167 12.7474 70.2083 12.8281 70.5625 12.9375C70.8594 13.026 71.138 13.1589 71.3984 13.3359C71.6484 13.5026 71.862 13.7188 72.0391 13.9844C72.2109 14.2448 72.2969 14.5677 72.2969 14.9531C72.2969 15.3385 72.2109 15.6719 72.0391 15.9531C71.862 16.2396 71.6406 16.4714 71.375 16.6484C71.1094 16.8255 70.7969 16.9609 70.4375 17.0547C70.0833 17.1484 69.7318 17.1953 69.3828 17.1953C69.013 17.1953 68.6641 17.1484 68.3359 17.0547C67.9974 16.9557 67.7005 16.8359 67.4453 16.6953C67.1745 16.5443 66.9349 16.3802 66.7266 16.2031C66.5234 16.0312 66.349 15.8438 66.2031 15.6406ZM73.4531 13.3047C73.4531 12.7422 73.5469 12.2318 73.7344 11.7734C73.9323 11.2995 74.2005 10.8906 74.5391 10.5469C74.8932 10.1927 75.2943 9.91667 75.7422 9.71875C76.2057 9.51562 76.7109 9.41406 77.2578 9.41406C77.8047 9.41406 78.3073 9.51562 78.7656 9.71875C79.224 9.92188 79.6276 10.1979 79.9766 10.5469C80.3151 10.8906 80.5833 11.2995 80.7812 11.7734C80.9688 12.2318 81.0625 12.7422 81.0625 13.3047C81.0625 13.862 80.9688 14.3698 80.7812 14.8281C80.5833 15.3125 80.3151 15.724 79.9766 16.0625C79.6276 16.4115 79.224 16.6875 78.7656 16.8906C78.3073 17.0938 77.8047 17.1953 77.2578 17.1953C76.7109 17.1953 76.2057 17.0938 75.7422 16.8906C75.2943 16.6927 74.8932 16.4167 74.5391 16.0625C74.2005 15.724 73.9323 15.3125 73.7344 14.8281C73.5469 14.3698 73.4531 13.862 73.4531 13.3047ZM74.9688 12.2812C74.8542 12.5938 74.7969 12.9349 74.7969 13.3047C74.7969 13.6745 74.8542 14.0156 74.9688 14.3281C75.0833 14.6406 75.25 14.9219 75.4688 15.1719C75.6667 15.401 75.9245 15.5885 76.2422 15.7344C76.5495 15.875 76.888 15.9453 77.2578 15.9453C77.6276 15.9453 77.9661 15.875 78.2734 15.7344C78.5911 15.5885 78.849 15.401 79.0469 15.1719C79.2656 14.9219 79.4323 14.6406 79.5469 14.3281C79.6615 14.0156 79.7188 13.6745 79.7188 13.3047C79.7188 12.9349 79.6615 12.5938 79.5469 12.2812C79.4323 11.9688 79.2656 11.6875 79.0469 11.4375C78.849 11.2083 78.5911 11.0208 78.2734 10.875C77.9714 10.7344 77.6328 10.6641 77.2578 10.6641C76.888 10.6641 76.5495 10.7344 76.2422 10.875C75.9245 11.0208 75.6667 11.2083 75.4688 11.4375C75.25 11.6875 75.0833 11.9688 74.9688 12.2812ZM82.0938 13.3047C82.0938 12.7422 82.1875 12.2318 82.375 11.7734C82.5729 11.2995 82.8411 10.8906 83.1797 10.5469C83.5339 10.1927 83.9349 9.91667 84.3828 9.71875C84.8464 9.51562 85.3516 9.41406 85.8984 9.41406C86.4453 9.41406 86.9479 9.51562 87.4062 9.71875C87.8646 9.92188 88.2682 10.1979 88.6172 10.5469C88.9557 10.8906 89.224 11.2995 89.4219 11.7734C89.6094 12.2318 89.7031 12.7422 89.7031 13.3047C89.7031 13.862 89.6094 14.3698 89.4219 14.8281C89.224 15.3125 88.9557 15.724 88.6172 16.0625C88.2682 16.4115 87.8646 16.6875 87.4062 16.8906C86.9479 17.0938 86.4453 17.1953 85.8984 17.1953C85.3516 17.1953 84.8464 17.0938 84.3828 16.8906C83.9349 16.6927 83.5339 16.4167 83.1797 16.0625C82.8411 15.724 82.5729 15.3125 82.375 14.8281C82.1875 14.3698 82.0938 13.862 82.0938 13.3047ZM83.6094 12.2812C83.4948 12.5938 83.4375 12.9349 83.4375 13.3047C83.4375 13.6745 83.4948 14.0156 83.6094 14.3281C83.724 14.6406 83.8906 14.9219 84.1094 15.1719C84.3073 15.401 84.5651 15.5885 84.8828 15.7344C85.1901 15.875 85.5286 15.9453 85.8984 15.9453C86.2682 15.9453 86.6068 15.875 86.9141 15.7344C87.2318 15.5885 87.4896 15.401 87.6875 15.1719C87.9062 14.9219 88.0729 14.6406 88.1875 14.3281C88.3021 14.0156 88.3594 13.6745 88.3594 13.3047C88.3594 12.9349 88.3021 12.5938 88.1875 12.2812C88.0729 11.9688 87.9062 11.6875 87.6875 11.4375C87.4896 11.2083 87.2318 11.0208 86.9141 10.875C86.612 10.7344 86.2734 10.6641 85.8984 10.6641C85.5286 10.6641 85.1901 10.7344 84.8828 10.875C84.5651 11.0208 84.3073 11.2083 84.1094 11.4375C83.8906 11.6875 83.724 11.9688 83.6094 12.2812ZM91.2422 17V9.60938H92.4922V10.6484C92.6849 10.3359 92.9688 10.0521 93.3438 9.79688C93.7135 9.54167 94.1927 9.41406 94.7812 9.41406C95.1458 9.41406 95.4948 9.47656 95.8281 9.60156C96.1667 9.72656 96.4609 9.90625 96.7109 10.1406C96.9661 10.3802 97.1693 10.6771 97.3203 11.0312C97.4714 11.3906 97.5469 11.7969 97.5469 12.25V17H96.2031V12.4688C96.2031 12.1562 96.1562 11.8854 96.0625 11.6562C95.974 11.4375 95.8464 11.25 95.6797 11.0938C95.5182 10.9427 95.3385 10.8333 95.1406 10.7656C94.9375 10.6979 94.7214 10.6641 94.4922 10.6641C94.2318 10.6641 94.0104 10.7005 93.8281 10.7734C93.6146 10.8568 93.4375 10.9557 93.2969 11.0703C93.1406 11.1953 93.0052 11.3307 92.8906 11.4766C92.7812 11.6172 92.6797 11.763 92.5859 11.9141V17H91.2422Z" fill="white"/>
</svg>
