<svg height="896" viewBox="0 0 414 896" width="414" xmlns="http://www.w3.org/2000/svg" xmlns:xlink="http://www.w3.org/1999/xlink"><clipPath id="a"><path d="m0 0h414v896h-414z"/></clipPath><g clip-path="url(#a)"><path d="m0 0h414v896h-414z" fill="#05f"/><path d="m0 0h496v167h-496z" fill="#f8fbff" transform="translate(-31 782)"/><g stroke="#fff" stroke-width="4"><path d="m154.034 0a154.034 154.034 0 1 1 -154.034 154.034 154.034 154.034 0 0 1 154.034-154.034z" fill="none" opacity=".04" transform="matrix(.17364817526 -.98480775388 .98480775388 .17364817526 31.38951433944 524.63523841296)"/><path d="m133.357 0a133.357 133.357 0 1 1 -133.357 133.357 133.357 133.357 0 0 1 133.357-133.357z" fill="none" opacity=".15" transform="matrix(.17364817526 -.98480775388 .98480775388 .17364817526 55.2882669203 507.52178056938)"/><path d="m112.088 0a112.088 112.088 0 1 1 -112.088 112.088 112.088 112.088 0 0 1 112.088-112.088z" fill="#ffc417" transform="matrix(.17364817526 -.98480775388 .98480775388 .17364817526 80.25544867232 490.25186470588)"/></g><g fill="#fff" transform="matrix(.9961946947 -.08715574671 .08715574671 .9961946947 136.3960103629 361.61600051644)"><path d="m41.421 0h-36.595a4.814 4.814 0 0 0 -4.826 4.794v3.349a4.814 4.814 0 0 0 4.826 4.8h36.595a4.849 4.849 0 0 0 3.417-1.413 4.778 4.778 0 0 0 1.406-3.394v-3.342a4.814 4.814 0 0 0 -4.823-4.794z" transform="translate(0 58.855)"/><path d="m4.826 12.921h36.595a4.81 4.81 0 0 0 4.823-4.8v-3.321a4.8 4.8 0 0 0 -4.807-4.8h-36.614a4.8 4.8 0 0 0 -4.823 4.778v3.346a4.814 4.814 0 0 0 4.826 4.797z" transform="translate(0 .052)"/><path d="m90.32 29.951a6.575 6.575 0 0 0 -1.067-.123 20.252 20.252 0 0 0 -2.619-.113h-6.876q-4.154 0-6.187-1.642c-1.348-1.089-2.03-2.825-2.03-5.172v-1.888c0-2.939.873-4.956 2.738-6.052a15.611 15.611 0 0 1 8.082-2.053h8.239c1.9 0 4.274.055 6.976.055a4.051 4.051 0 0 0 3-1.041 3.879 3.879 0 0 0 1.248-2.842l.165-4.329a4.332 4.332 0 0 0 -2.624-3.781c-1.064-.4-1.529-.6-5.147-.786s-6.229-.184-10.002-.184h-3.488c-15.068 0-22.628 7.371-22.628 20.366l-.061 1.261a11.382 11.382 0 0 1 -2.961 5.787 9.265 9.265 0 0 1 -6.3 2.45h-43.761a5.024 5.024 0 0 0 -5.017 5.021v3.372a5.02 5.02 0 0 0 5.043 4.988h79.607c2.263 0 4.2.323 5.437 1.409a6.032 6.032 0 0 1 1.839 4.733v2.513c0 2.586-.97 4.471-2.929 5.5s-4.849 1.548-8.728 1.548c-6.543 0-17.134-.045-17.134-.045a4.875 4.875 0 0 0 -2.816 1.038 3.449 3.449 0 0 0 -1.266 2.859l-.042 4.81a3.912 3.912 0 0 0 3.2 3.837l3.491.443a71.659 71.659 0 0 0 8.929.527c.97 0 1.94-.061 2.909-.061l3.488-.139a42.8 42.8 0 0 0 13.155-2.517 14.871 14.871 0 0 0 8.231-6q2.932-4.332 2.935-12.229v-3.95q-.048-7.946-4.807-12.9a16.755 16.755 0 0 0 -10.222-4.67z"/><path d="m.2 63.112 15.729-58.612a6.062 6.062 0 0 1 7.436-4.291l2.069.553a6.068 6.068 0 0 1 4.286 7.438l-15.72 58.61a6.068 6.068 0 0 1 -7.433 4.29l-2.067-.556a6.065 6.065 0 0 1 -4.29-7.435z" transform="translate(112.56 .622)"/></g><g transform="matrix(.9928328644 .12158909626 -.12158909626 .9928328644 -390.58388840248 263.89923440186)"><path d="m50.3 306.041-50.3-77.463a56.415 56.415 0 0 1 13.572.79 81.592 81.592 0 0 1 98.481-41.1 104.128 104.128 0 0 1 166.471-25.36 58.287 58.287 0 0 1 78.28 4.574 35.737 35.737 0 0 1 45.028-7.436 80.469 80.469 0 0 1 60.518-71.735 82.373 82.373 0 0 1 8.623-1.679 80.471 80.471 0 0 1 84.967 38.125 35.739 35.739 0 0 1 43.733-13.057 58.284 58.284 0 0 1 68.353-38.426 104.128 104.128 0 0 1 160.739-50.182 81.59 81.59 0 0 1 106.529-6.231 56.261 56.261 0 0 1 11.852-6.661l-11.256 91.676-26.021 99.748-404.918 85.076-387.53 97.587z" fill="#f5f5f6"/><path d="m50.3 306.041-50.3-77.463a56.415 56.415 0 0 1 13.572.79 81.592 81.592 0 0 1 98.481-41.1 104.128 104.128 0 0 1 166.471-25.36 58.287 58.287 0 0 1 78.28 4.574 35.737 35.737 0 0 1 45.028-7.436 80.469 80.469 0 0 1 60.518-71.735 82.373 82.373 0 0 1 8.623-1.679 80.471 80.471 0 0 1 84.967 38.125 35.739 35.739 0 0 1 43.733-13.057 58.284 58.284 0 0 1 68.353-38.426 104.128 104.128 0 0 1 160.739-50.182 81.59 81.59 0 0 1 106.529-6.231 56.261 56.261 0 0 1 11.852-6.661l-11.256 91.676-26.021 99.748-404.918 85.076-387.53 97.587z" fill="#0062ff" opacity=".03" transform="translate(.928 13.275)"/></g><g transform="matrix(.99862953 -.05233596 .05233596 .99862953 -390.771 490.9)"><path d="m0 594.969v-461.739h7.443l4.1-109.7a64.952 64.952 0 0 1 79.751 44.177 28.866 28.866 0 0 1 36.83-1.688 47.085 47.085 0 0 1 61.086-16.761 84.076 84.076 0 0 1 70.69-38.667q2.28-.075 4.6.007a65.209 65.209 0 0 1 13.358 1.9 84.021 84.021 0 0 1 47.142 28.839 65.954 65.954 0 0 1 57.827-4.151 47.1 47.1 0 0 1 39.447 1.481 84.113 84.113 0 0 1 135.795-7.921 65.475 65.475 0 0 1 31.883-8.926 65.807 65.807 0 0 1 11.831-.632 65 65 0 0 1 59.864 46.519 28.867 28.867 0 0 1 36.83-1.688 47.085 47.085 0 0 1 61.086-16.761 84.113 84.113 0 0 1 135.795-7.921 65.9 65.9 0 0 1 84.721 15.933 45.5 45.5 0 0 1 10.592-2.9l-26.739 69.654-14.093 25.827v445.118z" fill="#fff"/><g opacity="0" transform="translate(571.465 330.288)"><rect fill="#53a4ff" height="29" opacity=".1" rx="14.5" transform="translate(.304 103.68)" width="99"/><g font-family="Exo-Light, Exo" font-weight="300"><text fill="#05f" font-size="7" transform="translate(21.304 121.68)"><tspan x="0" y="0">Descagar ahora</tspan></text><text fill="#767d91" font-size="30" transform="translate(.304 36.68)"><tspan x="0" y="30">Consetetur</tspan></text><text fill="#13182a" font-size="15" transform="translate(.304 14.68)"><tspan x="0" y="0">¿Que es E-SOL?</tspan></text></g></g></g><path d="m0 0h413.5v48.517h-413.5z" fill="none" transform="translate(.5)"/><path d="m0 0h413.5v48.517h-413.5z" fill="none" transform="translate(.5)"/></g></svg>