<?xml version="1.0" encoding="utf-8"?>
<!-- Generator: Adobe Illustrator 25.2.1, SVG Export Plug-In . SVG Version: 6.00 Build 0)  -->
<svg version="1.1" id="Layer_1" xmlns="http://www.w3.org/2000/svg" xmlns:xlink="http://www.w3.org/1999/xlink" x="0px" y="0px"
	 viewBox="0 0 15.4 15.4" style="enable-background:new 0 0 15.4 15.4;" xml:space="preserve">
<style type="text/css">
	.st0{fill:#1C1F21;}
	.st1{fill:none;}
</style>
<g>
	<path d="M4,10.8L4,10.8c-0.2,0-0.5,0-0.7,0.1l0,0l-0.2,0.3c-0.2,0.4-0.1,0.9,0.3,1.2c0.1,0.1,0.3,0.1,0.4,0.1
		c0.3,0,0.6-0.1,0.7-0.4L5,11.3l-0.1-0.1C4.7,11,4.3,10.8,4,10.8z"/>
	<path d="M8.5,6.3c-0.3,0.6-0.4,1.3,0,1.9l2.3,3.9c0.1,0.2,0.3,0.3,0.5,0.4c0.1,0,0.1,0,0.2,0c0.1,0,0.3,0,0.4-0.1
		c0.2-0.1,0.3-0.3,0.4-0.5c0.1-0.2,0-0.4-0.1-0.6l-0.5-0.9h0.7c0.2,0,0.4-0.1,0.6-0.2c0.2-0.2,0.2-0.4,0.2-0.6
		c0-0.5-0.4-0.8-0.8-0.8h-1.7l-1.8-3L8.5,6.3z"/>
	<path d="M11.6,0H3.7C1.7,0,0,1.7,0,3.7v7.9c0,2.1,1.7,3.7,3.7,3.7h7.9c2.1,0,3.7-1.7,3.7-3.7V3.7C15.4,1.7,13.7,0,11.6,0z M3.7,1
		h7.9c0,0,0,0,0,0c1.5,0,2.7,1.2,2.8,2.8v7.9c0,1.5-1.2,2.8-2.8,2.8H3.7c0,0,0,0,0,0c-1.5,0-2.7-1.2-2.7-2.8V3.7C1,2.2,2.2,1,3.7,1z
		"/>
	<path d="M3,10.3h5.6l0-0.1c0.1-0.3,0-0.7-0.1-0.9C8.4,9,8.2,8.8,7.9,8.7l0,0H6.6l2.7-4.5c0.1-0.2,0.1-0.4,0.1-0.6
		C9.2,3.3,9.1,3.1,8.9,3C8.5,2.7,8,2.9,7.8,3.3L7.6,3.5L7.5,3.3C7.4,3,7.2,2.9,6.9,2.9l-0.1,0c-0.2,0-0.4,0.1-0.6,0.2
		C6,3.2,5.9,3.4,5.9,3.6c0,0.2,0,0.3,0.1,0.5l0.6,1l-2,3.5H3C2.5,8.6,2.2,9,2.2,9.5S2.5,10.3,3,10.3z"/>
</g>
</svg>
