<svg xmlns="http://www.w3.org/2000/svg" id="Layer_1" x="0" y="0" version="1.1" viewBox="0 0 15.4 15.4" xml:space="preserve"><path d="M4 10.8c-.2 0-.5 0-.7.1l-.2.3c-.2.4-.1.9.3 1.2.1.1.3.1.4.1.3 0 .6-.1.7-.4l.5-.8-.1-.1c-.2-.2-.6-.4-.9-.4zm4.5-4.5c-.3.6-.4 1.3 0 1.9l2.3 3.9c.1.2.3.3.5.4h.2c.1 0 .3 0 .4-.1.2-.1.3-.3.4-.5.1-.2 0-.4-.1-.6l-.5-.9h.7c.2 0 .4-.1.6-.2.2-.2.2-.4.2-.6 0-.5-.4-.8-.8-.8h-1.7l-1.8-3-.4.5z"/><path d="M11.6 0H3.7C1.7 0 0 1.7 0 3.7v7.9c0 2.1 1.7 3.7 3.7 3.7h7.9c2.1 0 3.7-1.7 3.7-3.7V3.7c.1-2-1.6-3.7-3.7-3.7zM3.7 1h7.9c1.5 0 2.7 1.2 2.8 2.8v7.9c0 1.5-1.2 2.8-2.8 2.8H3.7c-1.5 0-2.7-1.2-2.7-2.8v-8C1 2.2 2.2 1 3.7 1z"/><path d="M3 10.3h5.6v-.1c.1-.3 0-.7-.1-.9-.1-.3-.3-.5-.6-.6H6.6l2.7-4.5c.1-.2.1-.4.1-.6-.2-.3-.3-.5-.5-.6-.4-.3-.9-.1-1.1.3l-.2.2-.1-.2c-.1-.3-.3-.4-.6-.4h-.1c-.2 0-.4.1-.6.2-.2.1-.3.3-.3.5s0 .3.1.5l.6 1-2 3.5H3c-.5 0-.8.4-.8.9s.3.8.8.8z"/></svg>