<svg xmlns="http://www.w3.org/2000/svg" width="67.575" height="14.254" viewBox="0 0 67.575 14.254">
  <g id="Group_3718" data-name="Group 3718" transform="translate(-290.677 -21.93)">
    <g id="Group_3705" data-name="Group 3705" transform="translate(290.677 21.93)">
      <g id="Group_3703" data-name="Group 3703" transform="translate(0 0)">
        <path id="Path_3504" data-name="Path 3504" d="M-155.239-59.858a1.142,1.142,0,0,0-.465-.848,1.842,1.842,0,0,0-1.114-.3,2.161,2.161,0,0,0-.808.133,1.136,1.136,0,0,0-.5.368.872.872,0,0,0-.174.532.749.749,0,0,0,.106.433,1.034,1.034,0,0,0,.318.318,2.272,2.272,0,0,0,.469.23,4.586,4.586,0,0,0,.568.165l.83.2a5.856,5.856,0,0,1,1.11.361,3.372,3.372,0,0,1,.875.555,2.333,2.333,0,0,1,.575.776,2.475,2.475,0,0,1,.21,1.024,2.554,2.554,0,0,1-.431,1.469,2.745,2.745,0,0,1-1.227.961,4.916,4.916,0,0,1-1.929.341,5.066,5.066,0,0,1-1.947-.343,2.833,2.833,0,0,1-1.29-1.017,3.012,3.012,0,0,1-.485-1.672h1.89a1.4,1.4,0,0,0,.268.774,1.439,1.439,0,0,0,.636.465,2.475,2.475,0,0,0,.9.156,2.357,2.357,0,0,0,.864-.144,1.322,1.322,0,0,0,.571-.4.927.927,0,0,0,.2-.591.774.774,0,0,0-.183-.523,1.427,1.427,0,0,0-.532-.361,5.5,5.5,0,0,0-.855-.271l-1.006-.253a4.219,4.219,0,0,1-1.845-.889,2.062,2.062,0,0,1-.672-1.629,2.413,2.413,0,0,1,.449-1.466,3,3,0,0,1,1.247-.979,4.411,4.411,0,0,1,1.8-.352,4.285,4.285,0,0,1,1.8.352,2.843,2.843,0,0,1,1.2.979,2.59,2.59,0,0,1,.442,1.453Zm7.046-.347v1.444h-4.173v-1.444Zm-3.226-1.66h1.922v6.461a.862.862,0,0,0,.081.413.444.444,0,0,0,.228.205.913.913,0,0,0,.341.059,1.5,1.5,0,0,0,.271-.025l.208-.038.3,1.43q-.144.045-.406.106a3.393,3.393,0,0,1-.636.074,2.905,2.905,0,0,1-1.216-.185,1.7,1.7,0,0,1-.81-.659,2.014,2.014,0,0,1-.284-1.128Zm4.564,8.59v-6.93h1.863V-59h.072a1.8,1.8,0,0,1,.636-.977,1.68,1.68,0,0,1,1.029-.332,2.907,2.907,0,0,1,.311.018,2.192,2.192,0,0,1,.293.05v1.705a2.511,2.511,0,0,0-.374-.072,3.364,3.364,0,0,0-.438-.032,1.54,1.54,0,0,0-.756.183,1.358,1.358,0,0,0-.523.508,1.446,1.446,0,0,0-.192.749v3.921Zm7.064.131a2.864,2.864,0,0,1-1.182-.232,1.868,1.868,0,0,1-.819-.69,2.045,2.045,0,0,1-.3-1.144,2.02,2.02,0,0,1,.212-.97,1.717,1.717,0,0,1,.577-.632,2.8,2.8,0,0,1,.832-.361,6.268,6.268,0,0,1,.981-.171q.6-.063.975-.12a1.361,1.361,0,0,0,.537-.169.377.377,0,0,0,.167-.334v-.027a.834.834,0,0,0-.268-.663,1.119,1.119,0,0,0-.76-.235,1.354,1.354,0,0,0-.826.228,1.069,1.069,0,0,0-.406.571l-1.778-.144a2.431,2.431,0,0,1,.532-1.094,2.582,2.582,0,0,1,1.026-.713,3.93,3.93,0,0,1,1.46-.25,4.461,4.461,0,0,1,1.108.135,2.92,2.92,0,0,1,.943.42,2.053,2.053,0,0,1,.652.729,2.213,2.213,0,0,1,.239,1.063v4.674h-1.823v-.961h-.054a1.928,1.928,0,0,1-.447.571,2.014,2.014,0,0,1-.672.383A2.737,2.737,0,0,1-139.79-53.145Zm.55-1.326a1.6,1.6,0,0,0,.749-.169,1.31,1.31,0,0,0,.51-.458,1.187,1.187,0,0,0,.185-.654v-.735a.982.982,0,0,1-.246.106q-.156.047-.35.086t-.388.068l-.352.052a2.377,2.377,0,0,0-.591.158.954.954,0,0,0-.393.291.724.724,0,0,0-.14.453.689.689,0,0,0,.286.6A1.22,1.22,0,0,0-139.24-54.471Zm4.934,1.2v-6.93h1.922v6.93Zm.97-7.823a1.04,1.04,0,0,1-.735-.286.908.908,0,0,1-.307-.688.9.9,0,0,1,.307-.684,1.034,1.034,0,0,1,.731-.286,1.038,1.038,0,0,1,.738.286.907.907,0,0,1,.3.684.911.911,0,0,1-.3.688A1.032,1.032,0,0,1-133.335-61.1Zm6.261.893v1.444h-4.173v-1.444Zm-3.226-1.66h1.922v6.461a.862.862,0,0,0,.081.413.444.444,0,0,0,.228.205.913.913,0,0,0,.341.059,1.5,1.5,0,0,0,.271-.025l.208-.038.3,1.43q-.144.045-.406.106a3.393,3.393,0,0,1-.636.074,2.905,2.905,0,0,1-1.216-.185,1.7,1.7,0,0,1-.81-.659,2.014,2.014,0,0,1-.284-1.128Zm10.236,3.636-1.76.108a.925.925,0,0,0-.194-.408,1.065,1.065,0,0,0-.39-.293,1.373,1.373,0,0,0-.575-.111,1.421,1.421,0,0,0-.753.187.565.565,0,0,0-.307.5.534.534,0,0,0,.2.42,1.576,1.576,0,0,0,.681.275l1.254.253a3.109,3.109,0,0,1,1.507.668,1.572,1.572,0,0,1,.5,1.209,1.894,1.894,0,0,1-.4,1.2,2.608,2.608,0,0,1-1.092.8,4.145,4.145,0,0,1-1.595.286,3.729,3.729,0,0,1-2.19-.575,2.223,2.223,0,0,1-.954-1.568l1.89-.1a.963.963,0,0,0,.415.638,1.5,1.5,0,0,0,.844.219,1.5,1.5,0,0,0,.814-.2.6.6,0,0,0,.314-.508.537.537,0,0,0-.221-.431,1.61,1.61,0,0,0-.668-.259l-1.2-.239a2.861,2.861,0,0,1-1.509-.7,1.742,1.742,0,0,1-.494-1.277,1.859,1.859,0,0,1,.363-1.15,2.3,2.3,0,0,1,1.024-.744,4.2,4.2,0,0,1,1.55-.262,3.429,3.429,0,0,1,2.069.555A2.146,2.146,0,0,1-120.065-58.229Zm3.328-4.286,1.863,3.149h.072l1.872-3.149h2.206l-2.82,4.62,2.883,4.62h-2.247l-1.895-3.154h-.072l-1.895,3.154h-2.238l2.892-4.62-2.838-4.62Z" transform="translate(160.549 65.671)" fill="#fff"/>
        <path id="Path_3505" data-name="Path 3505" d="M3166.049-1958.178a3.563,3.563,0,0,1,3.254-3.55v-3.578h-4.431a2.324,2.324,0,0,0-2.324,2.324v9.606a2.324,2.324,0,0,0,2.324,2.324h4.431v-3.578A3.563,3.563,0,0,1,3166.049-1958.178Z" transform="translate(-3109.165 1965.306)" fill="#fff"/>
        <path id="Path_3506" data-name="Path 3506" d="M3215.486-1965.306h-4.338v3.587a3.564,3.564,0,0,1,3.161,3.54,3.564,3.564,0,0,1-3.161,3.541v3.587h4.338a2.324,2.324,0,0,0,2.324-2.324v-9.606A2.324,2.324,0,0,0,3215.486-1965.306Z" transform="translate(-3150.235 1965.306)" fill="#f68c17"/>
      </g>
    </g>
  </g>
</svg>
