<svg xmlns="http://www.w3.org/2000/svg" width="20" height="20" viewBox="0 0 20 20"><g transform="translate(-25.722 -670.135)"><g transform="translate(25.722 670.135)" fill="#fff" stroke="#000" stroke-width="1.5"><rect width="20" height="20" rx="4" stroke="none"/><rect x="0.75" y="0.75" width="18.5" height="18.5" rx="3.25" fill="none"/></g><path d="M7,1C2.258,1,2.016,4.121,2,6.6A1.543,1.543,0,0,0,1,8c0,.8.6,2,1.5,2,.078,0,.16-.008.242-.016C3.477,12.262,5.289,14,7,14a3.675,3.675,0,0,0,2.395-1.078A5.806,5.806,0,0,1,8.5,13H7c-1.176,0-2.816-1.457-3.391-3.625L3.445,8.8l-.469.117A2,2,0,0,1,2.5,9C2.34,8.98,2,8.41,2,8a.565.565,0,0,1,.531-.5L3,7.469V7c0-3.109.27-5,4-5l2.445.008-.34.691A2.793,2.793,0,0,1,8.234,3.75,6.364,6.364,0,0,1,4,5V6A7.462,7.462,0,0,0,8.875,4.523,4.436,4.436,0,0,0,9.848,3.41C10.875,3.934,11,4.973,11,7V9.465C10.887,10.723,9.16,11,8.5,11H8a1,1,0,1,0-1,1H8.5a3.438,3.438,0,0,0,3.363-1.875H12.5a1.505,1.505,0,0,0,1.5-1.5V7.5A1.505,1.505,0,0,0,12.5,6h-.52c-.051-1.434-.3-2.781-1.668-3.484l.742-1.5-.8,0ZM5.5,7a.5.5,0,1,0,.5.5A.5.5,0,0,0,5.5,7Zm3,0a.5.5,0,1,0,.5.5A.5.5,0,0,0,8.5,7ZM12,7h.5a.494.494,0,0,1,.5.5V8.625a.494.494,0,0,1-.5.5H12Z" transform="translate(28 673)"/></g></svg>