<svg xmlns="http://www.w3.org/2000/svg" width="14.155" height="14.078" viewBox="0 0 14.155 14.078"><g transform="translate(-63.461 -262.215)"><g transform="translate(60.755 259.724)"><path d="M19.269,94.664q.758.741,1.516,1.483a4.716,4.716,0,0,1,.341.359.494.494,0,0,1,0,.72.505.505,0,0,1-.746-.034c-.267-.254-.525-.518-.786-.779q-.958-.957-1.915-1.915c-.335-.337-.341-.592-.018-.915q1.333-1.338,2.673-2.667c.359-.354.849-.268.912.172a.793.793,0,0,1-.213.562c-.519.558-1.071,1.086-1.609,1.627-.053.053-.1.11-.188.207.134.015.225.032.316.032q3.4,0,6.791,0a3.016,3.016,0,0,0,3.082-2.9c.026-.428.221-.643.558-.615.306.025.481.274.468.666a4.1,4.1,0,0,1-4.259,3.9c-2.149.008-4.3,0-6.447,0h-.417C19.308,94.6,19.289,94.633,19.269,94.664Z" transform="translate(-13.588 -80.806)"/><path d="M13.831,6.371c-.121-.007-.242-.02-.363-.02-2.189,0-4.377-.008-6.566,0a3.022,3.022,0,0,0-3.077,2.3,5.553,5.553,0,0,0-.1.716c-.037.325-.2.538-.54.515s-.476-.237-.479-.572a4.016,4.016,0,0,1,3.9-3.955c2.278-.011,4.555,0,6.832,0h.516c-.183-.2-.28-.307-.384-.411-.5-.5-1.013-1-1.507-1.515a.519.519,0,0,1-.029-.779c.24-.222.492-.206.77.071q1.353,1.345,2.7,2.7a.516.516,0,0,1,.008.854q-1.342,1.357-2.7,2.7c-.286.284-.578.294-.8.055a.549.549,0,0,1,.08-.782c.591-.594,1.191-1.179,1.787-1.768Z" transform="translate(0 0)"/></g></g></svg>