<svg xmlns="http://www.w3.org/2000/svg" width="61" height="61" viewBox="0 0 61 61"><g transform="translate(-160.936 -193.5)"><path d="M27.5,0A27.5,27.5,0,1,1,0,27.5,27.5,27.5,0,0,1,27.5,0Z" transform="translate(163.936 196.5)" fill="#38d989" stroke="#fff" stroke-width="6"/><g transform="translate(175.545 209.417)"><path d="M21.389,100.02q1.629,1.592,3.257,3.185a10.125,10.125,0,0,1,.732.772,1.061,1.061,0,0,1,0,1.546,1.086,1.086,0,0,1-1.6-.072c-.574-.545-1.127-1.112-1.688-1.673q-2.058-2.056-4.113-4.115c-.719-.724-.732-1.272-.039-1.966q2.863-2.875,5.742-5.729c.772-.76,1.823-.576,1.959.369a1.7,1.7,0,0,1-.457,1.208c-1.115,1.2-2.3,2.333-3.457,3.494-.114.114-.216.237-.4.444.288.031.484.069.679.069q7.295,0,14.588,0a6.479,6.479,0,0,0,6.62-6.227c.056-.92.474-1.38,1.2-1.321.656.054,1.033.589,1.005,1.43-.163,4.75-4.085,8.354-9.149,8.376-4.616.018-9.233,0-13.849,0h-.895C21.475,99.884,21.432,99.953,21.389,100.02Z" transform="translate(-15.001 -75.602)" fill="#fff"/><path d="M26.6,10.826c-.26-.015-.52-.043-.78-.043-4.7,0-9.4-.016-14.1,0a6.491,6.491,0,0,0-6.61,4.931A11.929,11.929,0,0,0,4.9,17.255c-.079.7-.439,1.155-1.16,1.107-.7-.048-1.022-.51-1.03-1.229a8.628,8.628,0,0,1,8.374-8.5c4.893-.025,9.786-.007,14.677-.007h1.109c-.393-.421-.6-.66-.824-.883C24.963,6.663,23.866,5.6,22.8,4.493a1.114,1.114,0,0,1-.063-1.673c.515-.477,1.056-.443,1.653.153q2.907,2.89,5.794,5.8a1.109,1.109,0,0,1,.016,1.834q-2.882,2.914-5.794,5.8c-.615.61-1.242.632-1.726.118a1.178,1.178,0,0,1,.171-1.68c1.27-1.275,2.558-2.532,3.838-3.8C26.665,10.975,26.633,10.9,26.6,10.826Z" transform="translate(-2.707 -2.491)" fill="#fff"/></g></g></svg>