<svg width="343" height="208" viewBox="0 0 343 208" fill="none"
  xmlns="http://www.w3.org/2000/svg">
  <rect width="343" height="208" rx="12" fill="url(#paint0_linear)"/>
  <g filter="url(#filter0_d)">
    <circle cx="99.6951" cy="77.4634" r="34.9634" fill="url(#paint1_linear)" stroke="white" stroke-width="5"/>
    <path d="M103.091 86.0773C101.883 86.5676 100.592 86.8214 99.2884 86.8248C97.9771 86.8238 96.6784 86.5695 95.4638 86.076L89.0739 83.4887L85.8817 84.9081C85.0173 85.2933 84.6293 86.3053 85.0151 87.1684C85.1949 87.5708 85.5233 87.8885 85.9317 88.0552L95.9229 92.4093C98.0921 93.2916 100.521 93.2946 102.692 92.4174L112.728 88.074C113.755 87.6583 114.251 86.4895 113.835 85.4633C113.631 84.9603 113.231 84.5615 112.728 84.3578L110.062 83.2763L103.091 86.0773Z" fill="#A3A3A3"/>
    <path d="M103.094 77.2567C101.886 77.7439 100.596 77.9949 99.294 77.9962C97.9827 77.9952 96.684 77.7409 95.4694 77.2473L89.7699 74.9398L85.8872 76.666C85.0228 77.0511 84.6348 78.0632 85.0206 78.9262C85.2004 79.3287 85.5287 79.6463 85.9373 79.813L91.894 82.2368L96.2952 84.063C98.2118 84.8437 100.358 84.8465 102.276 84.0711L107.13 82.096L112.733 79.8331C113.76 79.4179 114.256 78.25 113.84 77.2244C113.636 76.7211 113.236 76.3221 112.732 76.1186L109.338 74.7478L103.094 77.2567Z" fill="#A3A3A3"/>
    <path d="M97.1022 62.8395L85.8859 67.8196C85.0215 68.2049 84.6334 69.2168 85.0192 70.0799C85.199 70.4823 85.5274 70.7999 85.9359 70.9667L92.5994 73.677L96.2926 75.2317C98.2092 76.0122 100.355 76.0151 102.274 75.2397L106.381 73.55L112.729 70.9815C113.754 70.5575 114.24 69.3846 113.815 68.3619C113.612 67.872 113.222 67.4826 112.732 67.2789L101.551 62.7624C100.866 62.4857 100.141 62.3476 99.4173 62.3476C98.6274 62.3476 97.8383 62.5119 97.1022 62.8395Z" fill="#A3A3A3"/>
  </g>
  <g filter="url(#filter1_d)">
    <circle cx="243.305" cy="130.537" r="34.9634" fill="url(#paint2_linear)" stroke="white" stroke-width="5"/>
    <g clip-path="url(#clip0)">
      <path d="M243.305 143.805C250.798 143.805 258.446 141.744 258.446 137.829V130.927V124.024C258.446 120.109 250.798 118.049 243.305 118.049C235.812 118.049 228.164 120.109 228.164 124.024V130.927V137.829C228.164 141.744 235.812 143.805 243.305 143.805ZM231.129 127.733C231.181 127.785 231.286 127.836 231.338 127.888C231.442 127.939 231.598 127.991 231.754 128.094C231.858 128.145 231.91 128.145 231.962 128.197C232.118 128.248 232.326 128.351 232.482 128.403C232.534 128.403 232.586 128.454 232.69 128.454C232.951 128.557 233.211 128.66 233.471 128.712C236.177 129.587 239.663 130.051 243.305 130.051C246.947 130.051 250.433 129.587 253.139 128.712C253.399 128.609 253.66 128.557 253.92 128.454C254.024 128.403 254.076 128.403 254.18 128.351C254.336 128.3 254.492 128.248 254.648 128.197C254.752 128.145 254.856 128.094 254.908 128.094C255.012 128.042 255.168 127.991 255.273 127.939C255.377 127.888 255.429 127.836 255.533 127.785C255.637 127.733 255.741 127.682 255.845 127.63V130.927C255.845 131.39 254.908 132.318 252.359 133.142C249.913 133.915 246.739 134.327 243.357 134.327C239.975 134.327 236.749 133.915 234.355 133.142C231.806 132.318 230.869 131.39 230.869 130.927V127.579C230.921 127.63 231.025 127.682 231.129 127.733ZM255.845 137.829C255.845 139.014 251.11 141.229 243.305 141.229C235.5 141.229 230.765 139.014 230.765 137.829V134.481C230.869 134.533 230.973 134.584 231.129 134.687C231.181 134.739 231.286 134.739 231.338 134.79C231.494 134.842 231.65 134.945 231.754 134.996C231.806 135.048 231.858 135.048 231.962 135.099C232.118 135.151 232.326 135.254 232.482 135.305C232.534 135.305 232.586 135.357 232.69 135.357C232.951 135.46 233.211 135.563 233.471 135.614C236.125 136.439 239.611 136.954 243.305 136.954C246.947 136.954 250.433 136.49 253.139 135.614C253.399 135.511 253.66 135.46 253.92 135.357C253.972 135.357 254.024 135.305 254.128 135.305C254.284 135.254 254.492 135.151 254.648 135.099C254.752 135.048 254.804 135.048 254.856 134.996C255.012 134.945 255.116 134.893 255.273 134.79C255.325 134.739 255.429 134.739 255.481 134.687C255.585 134.636 255.741 134.584 255.845 134.481V137.829ZM243.305 120.624C251.058 120.624 255.845 122.839 255.845 124.024C255.845 124.488 254.908 125.415 252.359 126.239C249.913 127.012 246.687 127.424 243.357 127.424C239.975 127.424 236.801 127.012 234.355 126.239C231.806 125.415 230.869 124.488 230.869 124.024C230.765 122.839 235.552 120.624 243.305 120.624Z" fill="#A3A3A3"/>
    </g>
  </g>
  <g clip-path="url(#clip1)">
    <path d="M158.451 90.7844H188.397L180.788 98.3932C179.74 99.44 179.74 101.139 180.788 102.187C181.312 102.711 181.998 102.974 182.684 102.974C183.371 102.974 184.057 102.711 184.581 102.187L196.769 90C196.893 89.8761 197.004 89.7396 197.103 89.5942C197.127 89.5561 197.145 89.5132 197.167 89.4742C197.234 89.3639 197.299 89.2527 197.35 89.1337C197.373 89.0771 197.384 89.0166 197.404 88.9591C197.441 88.8518 197.481 88.7454 197.504 88.6322C197.539 88.4586 197.558 88.282 197.558 88.1015C197.558 87.921 197.539 87.7444 197.504 87.5708C197.482 87.4576 197.442 87.3513 197.404 87.2439C197.384 87.1864 197.374 87.1259 197.35 87.0693C197.299 86.9503 197.235 86.84 197.167 86.7288C197.145 86.6898 197.127 86.6469 197.103 86.6088C197.004 86.4635 196.893 86.3269 196.769 86.203L184.584 74.0176C183.536 72.9698 181.839 72.9698 180.79 74.0176C179.742 75.0644 179.742 76.763 180.79 77.8118L188.397 85.4196H158.451C148.589 85.4196 140.564 93.4439 140.564 103.306C140.564 104.788 141.765 105.989 143.247 105.989C144.729 105.989 145.93 104.788 145.93 103.306C145.93 96.401 151.547 90.7844 158.451 90.7844ZM199.753 102.012C198.271 102.012 197.07 103.213 197.07 104.695C197.07 111.599 191.453 117.216 184.549 117.216H154.603L162.212 109.607C163.26 108.56 163.26 106.862 162.212 105.813C161.164 104.764 159.467 104.765 158.418 105.813L146.23 118.001C146.106 118.125 145.995 118.262 145.896 118.407C145.873 118.444 145.856 118.485 145.835 118.522C145.767 118.633 145.7 118.745 145.65 118.867C145.628 118.923 145.617 118.982 145.597 119.039C145.561 119.147 145.52 119.255 145.496 119.369C145.461 119.542 145.443 119.719 145.443 119.9C145.443 120.08 145.461 120.257 145.496 120.43C145.519 120.544 145.56 120.652 145.597 120.76C145.617 120.817 145.627 120.876 145.65 120.932C145.701 121.053 145.767 121.165 145.835 121.277C145.856 121.314 145.873 121.355 145.896 121.392C145.995 121.538 146.106 121.674 146.23 121.798L158.416 133.984C158.94 134.508 159.626 134.771 160.313 134.771C161 134.771 161.685 134.508 162.209 133.984C163.257 132.938 163.257 131.239 162.209 130.19L154.603 122.582H184.548C194.41 122.582 202.435 114.558 202.435 104.696C202.436 103.213 201.235 102.012 199.753 102.012Z" fill="#7CFFE7"/>
  </g>
  <rect x="0.5" y="0.5" width="342" height="207" rx="11.5" stroke="black" stroke-opacity="0.1" style="mix-blend-mode:multiply"/>
  <defs>
    <filter id="filter0_d" x="58.2317" y="40" width="82.9268" height="82.9268" filterUnits="userSpaceOnUse" color-interpolation-filters="sRGB">
      <feFlood flood-opacity="0" result="BackgroundImageFix"/>
      <feColorMatrix in="SourceAlpha" type="matrix" values="0 0 0 0 0 0 0 0 0 0 0 0 0 0 0 0 0 0 127 0"/>
      <feOffset dy="4"/>
      <feGaussianBlur stdDeviation="2"/>
      <feColorMatrix type="matrix" values="0 0 0 0 0 0 0 0 0 0 0 0 0 0 0 0 0 0 0.15 0"/>
      <feBlend mode="normal" in2="BackgroundImageFix" result="effect1_dropShadow"/>
      <feBlend mode="normal" in="SourceGraphic" in2="effect1_dropShadow" result="shape"/>
    </filter>
    <filter id="filter1_d" x="201.842" y="93.0732" width="82.9268" height="82.9268" filterUnits="userSpaceOnUse" color-interpolation-filters="sRGB">
      <feFlood flood-opacity="0" result="BackgroundImageFix"/>
      <feColorMatrix in="SourceAlpha" type="matrix" values="0 0 0 0 0 0 0 0 0 0 0 0 0 0 0 0 0 0 127 0"/>
      <feOffset dy="4"/>
      <feGaussianBlur stdDeviation="2"/>
      <feColorMatrix type="matrix" values="0 0 0 0 0 0 0 0 0 0 0 0 0 0 0 0 0 0 0.15 0"/>
      <feBlend mode="normal" in2="BackgroundImageFix" result="effect1_dropShadow"/>
      <feBlend mode="normal" in="SourceGraphic" in2="effect1_dropShadow" result="shape"/>
    </filter>
    <linearGradient id="paint0_linear" x1="171.5" y1="0" x2="171.5" y2="208" gradientUnits="userSpaceOnUse">
      <stop stop-color="#A7F0DF"/>
      <stop offset="1" stop-color="#3E9671"/>
    </linearGradient>
    <linearGradient id="paint1_linear" x1="99.6951" y1="114.927" x2="99.6951" y2="40" gradientUnits="userSpaceOnUse">
      <stop stop-color="#D7D7D7"/>
      <stop offset="1" stop-color="#F9F9FA"/>
    </linearGradient>
    <linearGradient id="paint2_linear" x1="243.305" y1="168" x2="243.305" y2="93.0732" gradientUnits="userSpaceOnUse">
      <stop stop-color="#D7D7D7"/>
      <stop offset="1" stop-color="#F9F9FA"/>
    </linearGradient>
    <clipPath id="clip0">
      <rect width="31.2195" height="25.7561" fill="white" transform="translate(227.695 118.049)"/>
    </clipPath>
    <clipPath id="clip1">
      <rect width="62.439" height="62.439" fill="white" transform="translate(140.281 72.7805)"/>
    </clipPath>
  </defs>
</svg>
