<svg xmlns="http://www.w3.org/2000/svg" xmlns:xlink="http://www.w3.org/1999/xlink" width="95.741" height="72.189" viewBox="0 0 95.741 72.189"><defs><clipPath id="a"><path d="M0,36.094a5.424,5.424,0,0,0,5.422,5.422H76.295L55.347,62.465a5.417,5.417,0,0,0,0,7.668l.466.466a5.417,5.417,0,0,0,7.668,0l30.67-30.67a5.417,5.417,0,0,0,0-7.668L63.48,1.59a5.417,5.417,0,0,0-7.668,0l-.466.466a5.417,5.417,0,0,0,0,7.668L76.295,30.672H5.422A5.424,5.424,0,0,0,0,36.094Z" transform="translate(0 0)"/></clipPath><clipPath id="b"><path d="M0,20518.379H10736.361V0H0Z"/></clipPath></defs><g transform="translate(-119.944 -290.159)"><g transform="translate(119.944 290.159)"><g transform="translate(0 0)" clip-path="url(#a)"><g transform="translate(-3643.856 -9246.132)" clip-path="url(#b)"><path d="M0,126.413V0H149.965V126.413Z" transform="translate(3616.744 9219.02)"/></g></g></g></g></svg>