<svg xmlns="http://www.w3.org/2000/svg" width="20" height="20" viewBox="0 0 20 20">
  <g id="Group_4249" data-name="Group 4249" transform="translate(2614 -1001)">
    <g id="Group_4247" data-name="Group 4247">
      <g id="Rectangle_1955" data-name="Rectangle 1955" transform="translate(-5775.172 606.03)">
        <g id="Group_4237" data-name="Group 4237">
          <rect id="Rectangle_1955-2" data-name="Rectangle 1955" width="20" height="20" rx="4" transform="translate(3161.172 394.97)" fill="#fff"/>
        </g>
        <g id="Group_4238" data-name="Group 4238">
          <path id="Path_4277" data-name="Path 4277" d="M3177.172,414.97h-12a4,4,0,0,1-4-4v-12a4,4,0,0,1,4-4h12a4,4,0,0,1,4,4v12A4,4,0,0,1,3177.172,414.97Zm-12-18.5a2.5,2.5,0,0,0-2.5,2.5v12a2.5,2.5,0,0,0,2.5,2.5h12a2.5,2.5,0,0,0,2.5-2.5v-12a2.5,2.5,0,0,0-2.5-2.5Z"/>
        </g>
      </g>
      <g id="_1-02" data-name=" 1-02" transform="translate(-5775.172 606.03)">
        <g id="Path_4204" data-name="Path 4204">
          <path id="Path_4278" data-name="Path 4278" d="M3167.076,409.433l1.514,1.48a4.625,4.625,0,0,1,.34.359.494.494,0,0,1,.022.7l-.022.022a.5.5,0,0,1-.707.007.49.49,0,0,1-.038-.041c-.267-.253-.524-.517-.784-.777q-.957-.955-1.911-1.912c-.334-.336-.34-.591-.018-.913q1.329-1.337,2.668-2.662c.359-.353.847-.268.91.171a.794.794,0,0,1-.213.561c-.518.557-1.069,1.084-1.606,1.624-.053.053-.1.11-.187.206a3.148,3.148,0,0,0,.316.032h6.778a3.012,3.012,0,0,0,3.073-2.894c.026-.427.22-.641.557-.614.3.025.48.274.467.664a4.1,4.1,0,0,1-4.251,3.892c-2.145.008-4.29,0-6.435,0h-.416C3167.111,409.37,3167.1,409.4,3167.076,409.433Z"/>
        </g>
        <g id="Path_4205" data-name="Path 4205">
          <path id="Path_4279" data-name="Path 4279" d="M3175.21,401.96c-.121-.007-.242-.02-.362-.02-2.185,0-4.369-.008-6.553,0a3.015,3.015,0,0,0-3.072,2.292,5.374,5.374,0,0,0-.1.715c-.037.324-.2.537-.539.514s-.475-.237-.479-.571a4.008,4.008,0,0,1,3.9-3.947c2.273-.011,4.547,0,6.82,0h.515c-.183-.2-.28-.307-.383-.411-.5-.5-1.011-1-1.5-1.512a.515.515,0,0,1-.029-.777c.239-.222.491-.206.768.071q1.35,1.343,2.692,2.7a.515.515,0,0,1,.143.714.523.523,0,0,1-.135.138q-1.34,1.353-2.692,2.7c-.286.284-.577.294-.8.055a.547.547,0,0,1,.068-.771l.012-.009c.59-.592,1.189-1.176,1.783-1.764Z"/>
        </g>
      </g>
    </g>
  </g>
</svg>
