<svg xmlns="http://www.w3.org/2000/svg" width="20" height="20" viewBox="0 0 20 20"><g transform="translate(-178 -523)"><path d="M10.5,20A10,10,0,1,0,.5,10,10,10,0,0,0,10.5,20ZM14.382,6.993H7.569A2.852,2.852,0,0,0,4.721,9.842a.61.61,0,1,1-1.221,0A4.074,4.074,0,0,1,7.569,5.773h6.812l-1.73-1.731a.61.61,0,0,1,.863-.863l2.772,2.772a.629.629,0,0,1,.076.092l.009.016.006.012a.616.616,0,0,1,.042.077.169.169,0,0,1,.007.023c0,.006,0,.011.005.017l0,.01a.479.479,0,0,1,.019.064.6.6,0,0,1,0,.241.5.5,0,0,1-.018.061l0,.013-.005.017a.177.177,0,0,1-.007.022.64.64,0,0,1-.042.077l-.006.012-.009.016a.63.63,0,0,1-.076.092L13.514,9.587a.61.61,0,1,1-.863-.863Zm1.973,3.165a.61.61,0,1,1,1.22,0,4.074,4.074,0,0,1-4.069,4.069H6.694l1.731,1.731a.61.61,0,1,1-.863.863L4.789,14.049a.625.625,0,0,1-.076-.092L4.7,13.942,4.7,13.93a.62.62,0,0,1-.042-.078.172.172,0,0,1-.007-.022c0-.006,0-.012-.005-.017l0-.012a.456.456,0,0,1-.019-.062.6.6,0,0,1,0-.241.482.482,0,0,1,.018-.06l.005-.015c0-.006,0-.012.005-.018a.2.2,0,0,1,.007-.021A.57.57,0,0,1,4.7,13.3l.006-.011.008-.015a.636.636,0,0,1,.076-.092l2.773-2.773a.61.61,0,1,1,.863.863L6.694,13.006h6.813A2.852,2.852,0,0,0,16.355,10.158Z" transform="translate(177.5 523)" fill="#c4c4c4" fill-rule="evenodd"/></g></svg>