<svg xmlns="http://www.w3.org/2000/svg" width="20" height="20"><g data-name="Group 4227"><g data-name="Group 4225" transform="translate(2674 -819)"><rect data-name="Rectangle 1949" width="20" height="20" rx="4" transform="translate(-2674 819)" fill="#38d989"/><g data-name="1-02" fill="#fff"><path data-name="Path 4204" d="M-2668.096 833.463l1.514 1.48a4.705 4.705 0 01.34.359.493.493 0 010 .719.5.5 0 01-.745-.034c-.267-.253-.524-.517-.784-.777q-.956-.955-1.911-1.912c-.334-.336-.34-.591-.018-.913q1.33-1.336 2.668-2.662c.359-.353.847-.268.91.171a.791.791 0 01-.213.561c-.518.557-1.069 1.084-1.606 1.624-.053.053-.1.11-.187.206.134.015.225.032.316.032h6.778a3.011 3.011 0 003.073-2.894c.026-.427.22-.641.557-.614.305.025.48.274.467.664a4.1 4.1 0 01-4.251 3.892c-2.145.008-4.29 0-6.435 0h-.416c-.022.035-.037.067-.057.098z"/><path data-name="Path 4205" d="M-2659.962 825.99c-.121-.007-.242-.02-.362-.02-2.185 0-4.369-.008-6.553 0a3.016 3.016 0 00-3.072 2.292 5.543 5.543 0 00-.1.715c-.037.324-.2.537-.539.514s-.475-.237-.479-.571a4.009 4.009 0 013.896-3.947c2.273-.011 4.547 0 6.82 0h.515c-.183-.2-.28-.307-.383-.411-.5-.5-1.011-1-1.5-1.512a.518.518 0 01-.029-.777c.239-.222.491-.206.768.071q1.351 1.343 2.692 2.695a.515.515 0 01.008.852q-1.339 1.354-2.692 2.695c-.286.284-.577.294-.8.055a.547.547 0 01.08-.78c.59-.592 1.189-1.176 1.783-1.764z"/></g></g></g></svg>