<svg xmlns="http://www.w3.org/2000/svg" width="21" height="21" viewBox="0 0 21 21"><g transform="translate(-99 233)"><rect width="21" height="21" transform="translate(99 -233)" fill="none"/><g transform="translate(101.794 -229.822)"><path d="M18.786,93.455q.56.549,1.12,1.1a3.491,3.491,0,0,1,.252.266.367.367,0,0,1,0,.533.373.373,0,0,1-.551-.025c-.2-.188-.388-.384-.581-.577q-.708-.709-1.415-1.419c-.247-.25-.252-.439-.014-.678q.985-.991,1.975-1.976c.265-.262.627-.2.674.127a.588.588,0,0,1-.157.416c-.384.414-.791.8-1.189,1.205-.039.039-.074.082-.139.153.1.011.166.024.234.024q2.509,0,5.017,0a2.231,2.231,0,0,0,2.277-2.148c.019-.317.163-.476.412-.456.226.019.355.2.346.493A3.036,3.036,0,0,1,23.9,93.382c-1.588.006-3.175,0-4.763,0h-.308C18.816,93.408,18.8,93.432,18.786,93.455Z" transform="translate(-13.88 -82.569)"/><path d="M10.925,5.366c-.089-.005-.179-.015-.268-.015-1.617,0-3.234-.006-4.851,0a2.233,2.233,0,0,0-2.273,1.7,4.124,4.124,0,0,0-.072.53c-.027.241-.151.4-.4.382s-.351-.176-.354-.424a2.971,2.971,0,0,1,2.88-2.93c1.683-.009,3.366,0,5.048,0h.381c-.135-.145-.207-.228-.283-.3-.371-.374-.749-.742-1.114-1.122A.385.385,0,0,1,9.6,2.6c.177-.165.363-.153.569.053q1,1,1.993,2a.383.383,0,0,1,.006.633q-.991,1.005-1.993,2c-.212.21-.427.218-.594.041a.407.407,0,0,1,.059-.579c.437-.44.88-.873,1.32-1.309Z" transform="translate(0 0)"/></g><g transform="translate(100.5 -231.5)" fill="none" stroke="#000" stroke-width="1"><rect width="18" height="18" rx="4" stroke="none"/><rect x="0.5" y="0.5" width="17" height="17" rx="3.5" fill="none"/></g></g></svg>