<svg xmlns="http://www.w3.org/2000/svg" width="17.522" height="12.743" viewBox="0 0 17.522 12.743">
  <g id="Group_3624" data-name="Group 3624" transform="translate(-108.796 -3.186)">
    <path id="Path_294" data-name="Path 294" d="M15.336,7.186l-3.186,3.186H14.54a4.783,4.783,0,0,1-4.779,4.779,4.676,4.676,0,0,1-2.23-.558L6.368,15.756a6.361,6.361,0,0,0,9.765-5.384h2.389ZM4.982,10.372A4.783,4.783,0,0,1,9.761,5.593a4.676,4.676,0,0,1,2.23.558l1.163-1.163a6.361,6.361,0,0,0-9.765,5.384H1l3.186,3.186,3.186-3.186Z" transform="translate(107.796 -0.814)" fill="#313131"/>
  </g>
</svg>
