<svg xmlns="http://www.w3.org/2000/svg" width="20" height="20" viewBox="0 0 20 20">
  <g id="Group_2272" data-name="Group 2272" transform="translate(-23 -189)">
    <circle id="Ellipse_355" data-name="Ellipse 355" cx="10" cy="10" r="10" transform="translate(23 189)" fill="#d0d0d0"/>
    <g id="cached-24px" transform="translate(24 190.442)">
      <path id="Path_294" data-name="Path 294" d="M14.091,6.835,11.182,9.67h2.182A4.313,4.313,0,0,1,9,13.922a4.358,4.358,0,0,1-2.036-.5L5.9,14.461A5.878,5.878,0,0,0,9,15.34a5.744,5.744,0,0,0,5.818-5.67H17ZM4.636,9.67A4.313,4.313,0,0,1,9,5.417a4.358,4.358,0,0,1,2.036.5L12.1,4.879A5.878,5.878,0,0,0,9,4,5.744,5.744,0,0,0,3.182,9.67H1L3.909,12.5,6.818,9.67Z" transform="translate(-0.204 -0.814)" fill="#fff"/>
      <path id="Path_295" data-name="Path 295" d="M0,0H18V18H0Z" fill="none"/>
    </g>
  </g>
</svg>
