<svg xmlns="http://www.w3.org/2000/svg" width="18.832" height="14.299" viewBox="0 0 18.832 14.299"><g transform="translate(0.35 0.35)"><circle cx="1.5" cy="1.5" r="1.5" transform="translate(2.636 7.895)" stroke="#fff" stroke-width="0.7"/><path d="M14.354,3H3.777A3.782,3.782,0,0,0,0,6.777v6.044A3.782,3.782,0,0,0,3.777,16.6H14.354a3.782,3.782,0,0,0,3.777-3.777V6.777A3.782,3.782,0,0,0,14.354,3ZM3.777,4.511H14.354a2.266,2.266,0,0,1,2.266,2.266H1.511A2.266,2.266,0,0,1,3.777,4.511ZM14.354,15.088H3.777a2.266,2.266,0,0,1-2.266-2.266V8.288h15.11v4.533A2.266,2.266,0,0,1,14.354,15.088Z" transform="translate(0 -3)" stroke="#fff" stroke-width="0.7"/></g></svg>