<svg xmlns="http://www.w3.org/2000/svg" width="20" height="20" viewBox="0 0 20 20">
  <g id="Group_2275" data-name="Group 2275" transform="translate(-23 -476)">
    <g id="icons8-settings_1_" data-name="icons8-settings (1)" transform="translate(19.1 468.1)">
      <g id="Group_2274" data-name="Group 2274" transform="translate(-4)">
        <path id="Path_2119" data-name="Path 2119" d="M27.9,17.9a10,10,0,1,0-10,10A10,10,0,0,0,27.9,17.9Z" fill="#00c671"/>
      </g>
    </g>
    <path id="Path_2122" data-name="Path 2122" d="M-23.293,614.7a4.07,4.07,0,0,0-1.825-.85,11.8,11.8,0,0,1-1.374-.232h0c-.087-.027-.17-.066-.254-.1-.067-.027-.136-.048-.2-.08a1.234,1.234,0,0,1-.536-.5,1.4,1.4,0,0,1-.145-.629.981.981,0,0,1,.233-.676l0,0a.645.645,0,0,1,.083-.081c.022-.019.044-.039.072-.059s.087-.059.14-.09c.014-.008.021-.015.035-.023a2.307,2.307,0,0,1,2.374.021l.008.005c.019.012.032.031.05.044a2.04,2.04,0,0,1,.628.72.926.926,0,0,0,.526.437.733.733,0,0,0,.679-.09.749.749,0,0,0,.363-.574,1.072,1.072,0,0,0-.172-.651,4.045,4.045,0,0,0-.747-.945,3.093,3.093,0,0,0-1.055-.641,4.189,4.189,0,0,0-.8-.188v-.368a.651.651,0,0,0-.184-.475.648.648,0,0,0-.451-.177.789.789,0,0,0-.459.177.62.62,0,0,0-.19.464v.385a4.523,4.523,0,0,0-1.09.288,3.126,3.126,0,0,0-1.308.965,2.438,2.438,0,0,0-.5,1.532,2.634,2.634,0,0,0,.429,1.479,3.132,3.132,0,0,0,1.195,1.043,4.841,4.841,0,0,0,1.271.43c.063.011,1.252.221,1.287.236a2.25,2.25,0,0,1,.653.4,1.393,1.393,0,0,1,.413,1,1.1,1.1,0,0,1-.234.714,1.623,1.623,0,0,1-.632.465l-.017.009c-.022.009-.085.032-.183.063a3.431,3.431,0,0,1-1.284.075,3.535,3.535,0,0,1-.85-.24,1.363,1.363,0,0,1-.733-.62.987.987,0,0,0-.4-.463.776.776,0,0,0-.585-.107.835.835,0,0,0-.611.415.778.778,0,0,0-.016.7,2.7,2.7,0,0,0,.85,1.1,3.951,3.951,0,0,0,1.326.673,5.434,5.434,0,0,0,1.016.2v.543c0,.007,0,.012,0,.019a.2.2,0,0,0,0,.024.642.642,0,0,0,.642.643.643.643,0,0,0,.643-.643c0-.006,0-.011,0-.017s0-.014,0-.021v-.575a4.324,4.324,0,0,0,.561-.126,3.728,3.728,0,0,0,1.139-.563,2.778,2.778,0,0,0,.827-.968,2.83,2.83,0,0,0,.305-1.327A2.714,2.714,0,0,0-23.293,614.7Z" transform="translate(58.76 -128.494)" fill="#fff"/>
  </g>
</svg>
