<svg xmlns="http://www.w3.org/2000/svg" width="20" height="20" viewBox="0 0 20 20">
  <g id="Group_3632" data-name="Group 3632" transform="translate(245.465 -293.03)">
    <circle id="Ellipse_381" data-name="Ellipse 381" cx="10" cy="10" r="10" transform="translate(-245.465 293.03)"/>
    <path id="Path_3822" data-name="Path 3822" d="M-229.023,298.682a.585.585,0,0,0-.617-.539l-2.865.1a.6.6,0,0,0-.58.62.6.6,0,0,0,.62.579l1.572-.053c-.884.894-3.6,3.695-4.628,4.756l-2.283-2a.6.6,0,0,0-.822.03l-3.665,3.7a.6.6,0,0,0,0,.848.6.6,0,0,0,.422.173.594.594,0,0,0,.427-.178l3.268-3.3,2.287,2a.6.6,0,0,0,.826-.035s3.849-3.974,4.989-5.128l.141,1.384a.6.6,0,0,0,.6.539l.061,0a.6.6,0,0,0,.536-.657Z" fill="#fff"/>
  </g>
</svg>
