<?xml version="1.0" encoding="utf-8"?>
<!-- Generator: Adobe Illustrator 25.2.1, SVG Export Plug-In . SVG Version: 6.00 Build 0)  -->
<svg version="1.1" id="Layer_1" xmlns="http://www.w3.org/2000/svg" xmlns:xlink="http://www.w3.org/1999/xlink" x="0px" y="0px"
	 viewBox="0 0 14.1 11.6" style="enable-background:new 0 0 14.1 11.6;" xml:space="preserve">
<style type="text/css">
	.st0{fill:#1C1F21;}
	.st1{fill:none;}
</style>
<path d="M13.8,1.3c-0.1-0.1-0.2-0.1-0.3-0.1c0.1-0.1,0.1-0.2,0.2-0.4c0.1-0.3-0.1-0.6-0.3-0.7c-0.1,0-0.3,0-0.4,0.1
	c-0.4,0.2-0.9,0.4-1.3,0.5C11,0.3,10.3,0,9.5,0h0C7.8,0,6.3,1.4,6.3,3.2C4.6,3,3,2.1,1.8,0.7C1.7,0.6,1.6,0.5,1.4,0.5
	C1.2,0.5,1.1,0.6,1,0.8c-0.5,0.9-0.6,2.1-0.1,3C0.8,3.8,0.7,3.9,0.6,4c0,0.1-0.1,0.2-0.1,0.3c0,0.9,0.4,1.7,1.1,2.3
	C1.5,6.7,1.5,6.8,1.5,6.9c0,0.1,0,0.2,0,0.2C1.8,7.9,2.4,8.6,3.1,9c-0.6,0.3-1.3,0.4-2,0.4c0,0,0,0,0,0c-0.2,0-0.4,0-0.6,0
	C0.3,9.3,0,9.5,0,9.8c0,0.2,0.1,0.4,0.2,0.5c1.3,0.8,2.8,1.3,4.4,1.3c0.1,0,0.1,0,0.1,0c2.3,0,4.4-1,5.9-2.7
	c1.3-1.5,2.1-3.5,2.1-5.5c0,0,0-0.1,0-0.1C13.2,3,13.6,2.6,14,2.1C14,2,14.1,1.8,14.1,1.7S14,1.4,13.8,1.3z M11.6,1.9
	c0,0-0.1,0.1-0.1,0.2c0,0.1,0,0.3,0,0.4c0.1,0.2,0.2,0.3,0.4,0.3c0,0,0,0,0,0c-0.1,0.1-0.2,0.3-0.2,0.4l0,0.3c0,1.8-0.7,3.5-1.8,4.8
	c-1.3,1.5-3.1,2.3-5.1,2.3c-0.7,0-1.5-0.1-2.2-0.3c0.8-0.2,1.6-0.6,2.2-1.1C4.9,9.1,5,9,5,8.9c0-0.1,0-0.3-0.1-0.4
	C4.8,8.4,4.6,8.3,4.5,8.3C3.9,8.3,3.3,8,2.9,7.5c0.1,0,0.3,0,0.4-0.1c0.1,0,0.2-0.1,0.3-0.2c0.1-0.1,0.1-0.3,0-0.4
	C3.6,6.6,3.5,6.4,3.3,6.4C2.6,6.2,2,5.7,1.7,5c0.2,0,0.3,0.1,0.5,0.1c0.1,0,0.3,0,0.4-0.1c0.1-0.1,0.2-0.2,0.2-0.4
	c0-0.2-0.1-0.4-0.2-0.5c-0.6-0.4-1-1.1-1-1.8c0-0.1,0-0.3,0-0.4C3,3.4,4.9,4.2,6.9,4.3c0.2,0,0.3-0.1,0.4-0.2C7.4,4,7.5,3.8,7.4,3.7
	c0-0.2-0.1-0.3-0.1-0.5C7.4,2,8.3,1,9.5,1h0h0c0.6,0,1.2,0.2,1.6,0.7C11.2,1.9,11.4,1.9,11.6,1.9z M9.5,0.8L9.5,0.8L9.5,0.8L9.5,0.8
	z"/>
</svg>
