<svg version="1.1" id="Layer_1" xmlns="http://www.w3.org/2000/svg" x="0" y="0" viewBox="0 0 14.1 11.6" xml:space="preserve"><style></style><path d="M13.8 1.3c-.1-.1-.2-.1-.3-.1.1-.1.1-.2.2-.4.1-.3-.1-.6-.3-.7-.1 0-.3 0-.4.1-.4.2-.9.4-1.3.5C11 .3 10.3 0 9.5 0 7.8 0 6.3 1.4 6.3 3.2 4.6 3 3 2.1 1.8.7 1.7.6 1.6.5 1.4.5s-.3.1-.4.3c-.5.9-.6 2.1-.1 3-.1 0-.2.1-.3.2 0 .1-.1.2-.1.3 0 .9.4 1.7 1.1 2.3-.1.1-.1.2-.1.3v.2c.3.8.9 1.5 1.6 1.9-.6.3-1.3.4-2 .4H.5c-.2-.1-.5.1-.5.4 0 .2.1.4.2.5 1.3.8 2.8 1.3 4.4 1.3h.1c2.3 0 4.4-1 5.9-2.7 1.3-1.5 2.1-3.5 2.1-5.5v-.1c.5-.3.9-.7 1.3-1.2 0-.1.1-.3.1-.4s-.1-.3-.3-.4zm-2.2.6s-.1.1-.1.2v.4c.1.2.2.3.4.3-.1.1-.2.3-.2.4v.3c0 1.8-.7 3.5-1.8 4.8-1.3 1.5-3.1 2.3-5.1 2.3-.7 0-1.5-.1-2.2-.3.8-.2 1.6-.6 2.2-1.1.1-.1.2-.2.2-.3 0-.1 0-.3-.1-.4-.1-.1-.3-.2-.4-.2-.6 0-1.2-.3-1.6-.8.1 0 .3 0 .4-.1.1 0 .2-.1.3-.2.1-.1.1-.3 0-.4 0-.2-.1-.4-.3-.4C2.6 6.2 2 5.7 1.7 5c.2 0 .3.1.5.1.1 0 .3 0 .4-.1.1-.1.2-.2.2-.4s-.1-.4-.2-.5c-.6-.4-1-1.1-1-1.8v-.4C3 3.4 4.9 4.2 6.9 4.3c.2 0 .3-.1.4-.2.1-.1.2-.3.1-.4 0-.2-.1-.3-.1-.5C7.4 2 8.3 1 9.5 1c.6 0 1.2.2 1.6.7.1.2.3.2.5.2zM9.5.8z"/></svg>