<svg xmlns="http://www.w3.org/2000/svg" width="45" height="45" viewBox="0 0 45 45"><g transform="translate(-19 -265)"><g transform="translate(19 265)" fill="#fff" stroke="#000" stroke-width="2"><rect width="45" height="45" rx="9" stroke="none"/><rect x="1" y="1" width="43" height="43" rx="8" fill="none"/></g><g transform="translate(-159.86 -104.296)"><g transform="translate(186.86 377.296)"><path d="M201.36,406.3a14.5,14.5,0,1,1,14.5-14.5A14.517,14.517,0,0,1,201.36,406.3Zm0-27.231A12.731,12.731,0,1,0,214.091,391.8,12.745,12.745,0,0,0,201.36,379.065Z" transform="translate(-186.86 -377.296)"/></g><g transform="translate(201.909 381.522)"><path d="M230.272,409.85a.885.885,0,0,1-.131-1.759,8.675,8.675,0,0,0,.333-17.1.885.885,0,1,1,.331-1.738,10.445,10.445,0,0,1-.4,20.584A.889.889,0,0,1,230.272,409.85Z" transform="translate(-229.389 -389.24)"/></g><g transform="translate(190.917 381.446)"><path d="M206.843,409.623a.9.9,0,0,1-.178-.018,10.445,10.445,0,0,1,.645-20.573.885.885,0,0,1,.245,1.752,8.675,8.675,0,0,0-.536,17.087.885.885,0,0,1-.177,1.752Z" transform="translate(-198.326 -389.024)"/></g><path d="M223.814,407.563a9.984,9.984,0,0,0-1.265-.406c-.524-.155-1.061-.274-1.577-.452a.826.826,0,0,1-.609-.8.975.975,0,0,1,.565-.893,1.975,1.975,0,0,1,1.12-.216,1.458,1.458,0,0,1,1.3.691,1.029,1.029,0,0,0,1.2.536.436.436,0,0,0,.374-.57,2.258,2.258,0,0,0-.8-1.251,3.01,3.01,0,0,0-1.3-.589c-.146-.029-.2-.091-.191-.237a3.583,3.583,0,0,0,0-.489.727.727,0,0,0-1.453,0,1.761,1.761,0,0,0,0,.356c.03.239-.057.334-.3.4a3.957,3.957,0,0,0-1.033.446,2.191,2.191,0,0,0-1.025,2.194,1.989,1.989,0,0,0,1.364,1.716,12.868,12.868,0,0,0,1.295.39c.434.123.875.224,1.3.36a1.143,1.143,0,0,1,.682.508.957.957,0,0,1-.456,1.317,2.348,2.348,0,0,1-1.979.1,1.258,1.258,0,0,1-.737-.578.923.923,0,0,0-.984-.531c-.082,0-.163,0-.245.012-.343.039-.49.22-.381.542a3.354,3.354,0,0,0,.414.875,2.763,2.763,0,0,0,1.876,1.039c.166.03.21.094.2.245-.007.185-.008.371,0,.556a.728.728,0,0,0,1.457-.006,2.629,2.629,0,0,0,0-.445c-.03-.243.057-.344.306-.394a2.717,2.717,0,0,0,1.781-1.079A2.207,2.207,0,0,0,223.814,407.563Z" transform="translate(-20.532 -16.074)"/></g></g></svg>