<svg xmlns="http://www.w3.org/2000/svg" width="86.404" height="77.889" viewBox="0 0 86.404 77.889"><g transform="translate(-154 -94.765)"><g transform="translate(4.177 3.765)"><g transform="translate(149.823 91)"><ellipse cx="30.5" cy="31" rx="30.5" ry="31" transform="translate(4 3.235)"/><path d="M37.275,3A34.275,34.275,0,1,0,71.549,37.275,34.276,34.276,0,0,0,37.275,3ZM17.281,57.671c3.333-10,13.33-6.1,15-11.511V42.55a9.531,9.531,0,0,1-3.119-5.327c-.591-.051-1.517-.637-1.791-2.953a2.19,2.19,0,0,1,.788-2.162,11.485,11.485,0,0,1-.88-4c0-5.918,2.933-10.831,10-10.831a5.259,5.259,0,0,1,5,2.7c3.41,0,5,3.739,5,8.123a10.18,10.18,0,0,1-.88,4,2.185,2.185,0,0,1,.791,2.162c-.274,2.316-1.2,2.9-1.791,2.953a9.515,9.515,0,0,1-3.119,5.327v3.61c1.665,5.418,11.662,1.517,15,11.513a28.559,28.559,0,0,1-39.987,0Z" transform="translate(-3 -3)" fill="#f5f5f5"/></g><g transform="translate(186.456 113.323)"><path d="M9.544,39.98,7.072,37.843,4.933,40.318a1.633,1.633,0,0,0,.168,2.3h0a1.634,1.634,0,0,0,2.3-.168Z" transform="translate(-4.536 12.547)"/><path d="M37.935,9.308,36.6,8.171a4.909,4.909,0,0,0-6.9.529L19,21.085l2.472,2.134L32.154,10.857a1.684,1.684,0,0,1,2.374-.173l1.271,1.1Z" transform="translate(4.631 -7)"/><path d="M43.1,8.194a4.9,4.9,0,0,0-6.911.5L19.538,27.2,26.957,33.6l16.65-18.5A4.9,4.9,0,0,0,43.1,8.194Z" transform="translate(4.972 -7)" fill="#38d989"/><path d="M8.237,51.826c3.013-.91,8.661-5.026,9.951-6.519l16.428-18.78L27.2,20.118,10.771,38.9c-1.291,1.492-4.542,7.679-5,10.79Z" transform="translate(-3.755 1.314)" fill="#38d989"/><path d="M0,0H9.8V3.271H0Z" transform="translate(24.51 20.196) rotate(40.819)" fill="#fff"/></g></g></g></svg>