<svg xmlns="http://www.w3.org/2000/svg" width="21" height="21" viewBox="0 0 21 21"><g transform="translate(-67 233)"><rect width="21" height="21" transform="translate(67 -233)" fill="none"/><g transform="translate(67.175 -274.839)"><g transform="translate(0 44.2)"><g transform="translate(0 0)"><path d="M20.254,49.659a1.43,1.43,0,0,0-.969-.4h.059V47.226A3.039,3.039,0,0,0,16.318,44.2H3.026A3.039,3.039,0,0,0,0,47.226V57.452a3.039,3.039,0,0,0,3.026,3.026H16.318a3.039,3.039,0,0,0,3.026-3.026V55.4h-.059a1.43,1.43,0,0,0,.969-.4,1.393,1.393,0,0,0,.4-.969v-3.4A1.43,1.43,0,0,0,20.254,49.659ZM12.545,60.09c0,.534,3.06-.858,2.7-.5s1.6-.218,1.069-.218H3.026c-.534,0,3.994.574,3.638.218s3,.534,3,0h1.674l-1.335-5.36c0-.534-.867-2.152-.511-2.508s.748-1.587,1.282-1.587l4.469-.475c.534,0,1.275-.356,1.631,0s.8-.534.8,0l.574-.4H12.125a3.025,3.025,0,0,0-2.116.87,2.989,2.989,0,0,0-.87,2.116v.138a3.025,3.025,0,0,0,.87,2.116c.534.534-1.7,2.666-.87,2.666l1.642,2.747Zm7.017-6.06h0a.3.3,0,0,1-.079.2.254.254,0,0,1-.2.079h-7.16a1.891,1.891,0,0,1-1.9-1.9V52.27a1.891,1.891,0,0,1,1.9-1.9h7.16a.3.3,0,0,1,.2.079.254.254,0,0,1,.079.2Z" transform="translate(0 -44.2)"/></g></g></g></g></svg>