<svg xmlns="http://www.w3.org/2000/svg" width="63.561" height="63.353" viewBox="0 0 63.561 63.353"><g transform="translate(-159.309 -94.765)"><g transform="translate(71)"><path d="M-343.685-1257.216c-.273-.125-27.314-13.056-27.314-51.615v-1.019l.993-.218a68.61,68.61,0,0,0,18.944-7.092c3.136-1.65,5.4-2.841,7.908-2.841s4.772,1.192,7.909,2.841a68.6,68.6,0,0,0,18.943,7.092l.994.218v1.016c0,37.274-27,51.457-27.272,51.6l-.547.279Z" transform="translate(459.308 1414.766)" fill="#f5f5f5"/><path d="M-369.619-1296.528a1.38,1.38,0,0,1-1.381-1.381v-8.744a4.6,4.6,0,0,1,3.221-4.392v-2.972A5.984,5.984,0,0,1-361.8-1320a5.983,5.983,0,0,1,5.983,5.983v2.972a4.605,4.605,0,0,1,3.222,4.392v8.744a1.38,1.38,0,0,1-1.381,1.381Zm11.506-14.728v-2.761a3.686,3.686,0,0,0-3.682-3.682,3.687,3.687,0,0,0-3.682,3.682v2.761Z" transform="translate(477.95 1430.426)"/><path d="M31.6,36.3a2.3,2.3,0,1,0-3.222,2.107v2.035a.92.92,0,0,0,1.841,0V38.408A2.3,2.3,0,0,0,31.6,36.3Z" transform="translate(86.853 89.312)" fill="#f5f5f5"/><g transform="translate(123.032 129.28)"><g transform="translate(0 0)"><path d="M35.837,20.419A14.419,14.419,0,1,1,21.419,6,14.42,14.42,0,0,1,35.837,20.419Z" transform="translate(-7 -6)" fill="#38d989"/><path d="M32.243,21.423,23.479,30.2,20.46,27.186a1.441,1.441,0,0,0-2.038,0h0a1.442,1.442,0,0,0,0,2.041l4.038,4.029a1.442,1.442,0,0,0,2.038,0l9.783-9.794a1.442,1.442,0,0,0,0-2.039h0A1.442,1.442,0,0,0,32.243,21.423Z" transform="translate(-11.656 -12.349)" fill="#fff"/></g></g></g></g></svg>