<svg xmlns="http://www.w3.org/2000/svg" width="113.174" height="107.737" viewBox="0 0 113.174 107.737"><g transform="translate(205.471 -9165.774)"><g transform="translate(-730.653 9123.669) rotate(-50)"><path d="M18.81,82.768q-.31,0-.621-.006c-.476-.009-.96-.029-1.438-.058A30.162,30.162,0,0,0,21,81.056a30.944,30.944,0,0,0,10.862-8.689,35.942,35.942,0,0,0,6.59-13.158,43.555,43.555,0,0,0,1.16-16.3,49.173,49.173,0,0,0-4.8-16.367,49.053,49.053,0,0,0-9.6-13.325,43.23,43.23,0,0,0-12.94-8.866A36.014,36.014,0,0,0,0,1.331,31.47,31.47,0,0,1,8.639,0q.255,0,.51,0A35.541,35.541,0,0,1,23.463,3.083,43.152,43.152,0,0,1,36.4,11.95,49.068,49.068,0,0,1,46,25.273a49.232,49.232,0,0,1,4.8,16.369,43.518,43.518,0,0,1-1.16,16.3A35.965,35.965,0,0,1,43.055,71.1a30.959,30.959,0,0,1-10.864,8.689A30.77,30.77,0,0,1,18.81,82.768Z" transform="translate(286.222 467.505)"/><g transform="translate(222.794 441.377)"><path d="M61.616,31.705a30.825,30.825,0,0,1,12.977,2.87,38.588,38.588,0,0,1,11.373,8.046,44.833,44.833,0,0,1,12.581,26.7A38.693,38.693,0,0,1,97.4,83.78a31.214,31.214,0,0,1-5.916,11.477,26.049,26.049,0,0,1-21.826,9.56,31.619,31.619,0,0,1-12.605-3.436A39.221,39.221,0,0,1,46.317,93.3,44.892,44.892,0,0,1,34.423,67.838,39.193,39.193,0,0,1,35.2,53.945a31.945,31.945,0,0,1,5.279-11.438,26.8,26.8,0,0,1,9.054-7.836A26.133,26.133,0,0,1,61.616,31.705Z" transform="translate(0.617 0.735)" fill="#fff"/><g transform="translate(1.998 2.32)"><path d="M98.2,80.772A42.514,42.514,0,0,0,98.461,65.1,48.082,48.082,0,0,0,93.324,50.17a47.026,47.026,0,0,0-9.593-12.365,40.109,40.109,0,0,0-13.007-8.051,32.092,32.092,0,0,0-13.947-1.989,28.054,28.054,0,0,0-12.2,3.985,29.228,29.228,0,0,0-9.217,8.99,35.005,35.005,0,0,0-5.094,13.116,42.816,42.816,0,0,0,.047,14.955A47.986,47.986,0,0,0,35.2,82.93a47.115,47.115,0,0,0,8.936,11.885A40.725,40.725,0,0,0,56.43,103a32.956,32.956,0,0,0,13.611,2.711,28.329,28.329,0,0,0,12.446-3.158,28.754,28.754,0,0,0,9.888-8.509A34.19,34.19,0,0,0,98.2,80.772ZM57.584,97.084a33.878,33.878,0,0,1-10.294-6.81,39.243,39.243,0,0,1-7.49-9.936,39.984,39.984,0,0,1-4.086-11.819A35.648,35.648,0,0,1,35.7,56.008,29.153,29.153,0,0,1,40.007,45.09a24.376,24.376,0,0,1,7.727-7.448,23.453,23.453,0,0,1,10.174-3.269A26.845,26.845,0,0,1,69.5,36.053a33.341,33.341,0,0,1,10.8,6.7,39.084,39.084,0,0,1,7.955,10.271A39.951,39.951,0,0,1,92.514,65.42,35.322,35.322,0,0,1,92.3,78.432a28.544,28.544,0,0,1-4.8,11.048A23.984,23.984,0,0,1,79.3,96.605a23.576,23.576,0,0,1-10.354,2.689A27.393,27.393,0,0,1,57.584,97.084Z"/><path d="M42.643,39.958q-.733-1.182-1.57-2.276T39.31,35.6a26.539,26.539,0,0,0-1.936-1.872,25.253,25.253,0,0,0-2.089-1.638q-.421-.42-.815-.869t-.762-.924q-.367-.475-.705-.976T32.357,28.3a4.885,4.885,0,0,1-.284-.765,4.718,4.718,0,0,1-.149-.785,4.418,4.418,0,0,1-.011-.782,4.035,4.035,0,0,1,.129-.755,5.36,5.36,0,0,1,.2-.8,4.926,4.926,0,0,1,.312-.733,4.543,4.543,0,0,1,.418-.654,4.242,4.242,0,0,1,.518-.561,2.48,2.48,0,0,1,.694-.4,2.526,2.526,0,0,1,.776-.156,2.784,2.784,0,0,1,.814.088,3.2,3.2,0,0,1,.807.334,5.8,5.8,0,0,1,.751.426,6.256,6.256,0,0,1,.695.54,6.653,6.653,0,0,1,.627.643,6.952,6.952,0,0,1,.547.736,2.8,2.8,0,0,1,.428.79,3.787,3.787,0,0,1,.194.948,6.518,6.518,0,0,1-.012,1.116,12.4,12.4,0,0,1-.192,1.292l8.052,3.145a12.306,12.306,0,0,0,.291-2.157,13.391,13.391,0,0,0-.082-2.219,14.227,14.227,0,0,0-.449-2.222,14.687,14.687,0,0,0-.809-2.164,14.887,14.887,0,0,0-1.235-2.073,14.34,14.34,0,0,0-1.521-1.8,13.423,13.423,0,0,0-1.76-1.489,12.277,12.277,0,0,0-1.952-1.129l1.106-5.622L37.789,9.8,36.694,15.41a12.219,12.219,0,0,0-2.1-.429,11.289,11.289,0,0,0-2.071-.045,10.641,10.641,0,0,0-2,.335,10.321,10.321,0,0,0-1.887.709,7.34,7.34,0,0,0-1.549,1.079A7.855,7.855,0,0,0,25.842,18.5a8.712,8.712,0,0,0-.9,1.753,9.789,9.789,0,0,0-.525,2,10.908,10.908,0,0,0-.281,2.055,11.938,11.938,0,0,0,.1,2.112,12.688,12.688,0,0,0,.474,2.1,13.025,13.025,0,0,0,.837,2.033q.79,1.1,1.643,2.145t1.764,2.021q.911.979,1.879,1.89t1.987,1.751q.442.349.853.746t.785.835q.374.439.709.916t.626.989a5.909,5.909,0,0,1,.267.851,5.652,5.652,0,0,1,.132.861,5.273,5.273,0,0,1,0,.851,4.825,4.825,0,0,1-.143.819,3.84,3.84,0,0,1-.162.735,3.425,3.425,0,0,1-.292.655,3.091,3.091,0,0,1-.412.557,2.875,2.875,0,0,1-.52.44,3.082,3.082,0,0,1-.72.2,3.291,3.291,0,0,1-.755.026,3.636,3.636,0,0,1-.768-.146,4.077,4.077,0,0,1-.757-.317A5.129,5.129,0,0,1,30.668,47a5.744,5.744,0,0,1-.915-.591,6.294,6.294,0,0,1-.816-.772,6.684,6.684,0,0,1-.689-.931,7.916,7.916,0,0,1-.452-1.184,7.648,7.648,0,0,1-.251-1.215A7.161,7.161,0,0,1,27.5,41.1a6.531,6.531,0,0,1,.163-1.177L19.88,36.8l-.057.3a11.308,11.308,0,0,0-.361,2.381,12.61,12.61,0,0,0,.132,2.461,13.567,13.567,0,0,0,.61,2.449,13.969,13.969,0,0,0,1.074,2.345,19.828,19.828,0,0,0,1.5,2.01,19.024,19.024,0,0,0,1.711,1.769,17.928,17.928,0,0,0,1.893,1.5,16.644,16.644,0,0,0,2.046,1.2l-.982,5.045,3.632,1.5.94-4.787a11.818,11.818,0,0,0,2.034.585,10.758,10.758,0,0,0,2.03.194,9.958,9.958,0,0,0,1.981-.2,9.49,9.49,0,0,0,1.886-.593,7.525,7.525,0,0,0,1.473-1.1,8.035,8.035,0,0,0,1.185-1.439,8.884,8.884,0,0,0,.863-1.727,9.97,9.97,0,0,0,.507-1.965,11.172,11.172,0,0,0,.278-2.17,12.33,12.33,0,0,0-.137-2.234,13.2,13.2,0,0,0-.541-2.226A13.616,13.616,0,0,0,42.643,39.958Z" transform="translate(29.911 32.299)"/></g></g></g></g></svg>