<svg xmlns="http://www.w3.org/2000/svg" width="49" height="49" viewBox="0 0 49 49">
  <g id="Group_3232" data-name="Group 3232" transform="translate(-254 -158)">
    <g id="Group_3218" data-name="Group 3218" transform="translate(-5.027 -2.027)" opacity="0.101">
      <g id="Wallet_balance" data-name="Wallet balance" transform="translate(258.948 159.948)">
        <rect id="Rectangle_1093" data-name="Rectangle 1093" width="49" height="49" rx="24.5" transform="translate(0.078 0.078)"/>
      </g>
    </g>
    <g id="gift-4-04-04" transform="translate(264.891 168.099)">
      <path id="Path_3368" data-name="Path 3368" d="M12.379,7.892c-.553-.277-.968-.553-1.245-.692a4.271,4.271,0,0,0-1.384.692C8.782,8.307,7.537,9,5.6,9.967V22.28L11,25.6l5.4-2.629V9.967C14.593,9,13.348,8.445,12.379,7.892Z" transform="translate(2.071 2.538)" fill="#20201d"/>
      <path id="Path_3369" data-name="Path 3369" d="M26.21,7.8l-4.289-2.49a6.148,6.148,0,0,0-.277-2.49A5.276,5.276,0,0,0,16.111.745a5.334,5.334,0,0,0-2.905,2.214A5.166,5.166,0,0,0,8.224.745c-4.842.83-4.012,4.289-4.012,4.566L.2,6.971v3.874l.692.415.138,9.27,3.736,2.352V10.845l.692-.415s1.107-.553,2.352-1.245c.692-.277,1.245-.553,1.8-.83h.138c-.553-.277-1.245-.415-1.8-.692C6.7,7.109,5.319,6.418,5.042,5.034V4.481c.138-1.8,1.937-2.629,3.459-2.905a4.441,4.441,0,0,1,2.352.277,2.894,2.894,0,0,1,.83.553h0l.138.138a6.016,6.016,0,0,1,.553.968,5.608,5.608,0,0,1,.692,1.245c.138-.138.138-.277.277-.415a.483.483,0,0,0,.138-.277,5.857,5.857,0,0,1,.692-.968,2.975,2.975,0,0,1,1.66-1.245c.138,0,.277-.138.415-.138a6.7,6.7,0,0,1,2.352,0c1.522.277,3.044,1.522,2.767,3.182v.138c-.415,1.66-2.214,2.352-3.6,2.905l-1.245.415h.138l1.66.83a16.517,16.517,0,0,0,2.214,1.107l.553.553v13.42L25.38,22.19V12.644l.83-.415Z" transform="translate(0 0)" fill="#20201d"/>
      <path id="Path_3370" data-name="Path 3370" d="M9.731,5.7s-.692-3.6-3.32-2.767c-.968.553-1.66.83-.553,1.384A36.009,36.009,0,0,0,9.731,5.7Z" transform="translate(1.952 0.855)" fill="#20201d"/>
      <path id="Path_3371" data-name="Path 3371" d="M10.8,5.7s.692-3.6,3.32-2.767c.968.553,1.66.83.553,1.384C13.429,4.871,10.8,5.7,10.8,5.7Z" transform="translate(4.065 0.855)" fill="#20201d"/>
    </g>
  </g>
</svg>
