<svg xmlns="http://www.w3.org/2000/svg" width="29" height="22.514" viewBox="0 0 29 22.514"><g transform="translate(-43.5 -403.854)"><g transform="translate(47.322 410.368)" fill="#e1f9ed"><path d="M 19.16895484924316 15.25 L 1.825613975524902 15.25 C 1.232523918151855 15.25 0.7500039339065552 14.68924999237061 0.7500039339065552 14 L 0.7500039339065552 2 C 0.7500039339065552 1.310750007629395 1.232523918151855 0.75 1.825613975524902 0.75 L 19.16895484924316 0.75 C 19.76204299926758 0.75 20.24456405639648 1.310750007629395 20.24456405639648 2 L 20.24456405639648 14 C 20.24456405639648 14.68924999237061 19.76204299926758 15.25 19.16895484924316 15.25 Z" stroke="none"/><path d="M 1.825613021850586 1.5 C 1.671913146972656 1.5 1.500003814697266 1.71382999420166 1.500003814697266 2 L 1.500003814697266 14 C 1.500003814697266 14.28617000579834 1.671913146972656 14.5 1.825613021850586 14.5 L 19.16895294189453 14.5 C 19.32265472412109 14.5 19.49456405639648 14.28617000579834 19.49456405639648 14 L 19.49456405639648 2 C 19.49456405639648 1.71382999420166 19.32265472412109 1.5 19.16895294189453 1.5 L 1.825613021850586 1.5 M 1.825613021850586 0 L 19.16895294189453 0 C 20.17721366882324 0 20.99456405639648 0.8954296112060547 20.99456405639648 2 L 20.99456405639648 14 C 20.99456405639648 15.10457038879395 20.17721366882324 16 19.16895294189453 16 L 1.825613021850586 16 C 0.8173542022705078 16 3.814697265625e-06 15.10457038879395 3.814697265625e-06 14 L 3.814697265625e-06 2 C 3.814697265625e-06 0.8954296112060547 0.8173542022705078 0 1.825613021850586 0 Z" stroke="none" fill="#000"/></g><g transform="translate(45.437 407.25)" fill="#e1f9ed" stroke="#000" stroke-width="1.5"><rect width="25" height="16" rx="2" stroke="none"/><rect x="0.75" y="0.75" width="23.5" height="14.5" rx="1.25" fill="none"/></g><g transform="translate(43.5 403.854)" fill="#e1f9ed"><path d="M 27 15.25 L 17.83641052246094 15.25 L 2 15.25 C 1.310750007629395 15.25 0.75 14.68924999237061 0.75 14 L 0.75 2 C 0.75 1.310750007629395 1.310750007629395 0.75 2 0.75 L 27 0.75 C 27.68925094604492 0.75 28.25 1.310750007629395 28.25 2 L 28.25 14 C 28.25 14.68924999237061 27.68925094604492 15.25 27 15.25 Z" stroke="none"/><path d="M 2 1.5 C 1.724300384521484 1.5 1.5 1.724300384521484 1.5 2 L 1.5 14 C 1.5 14.27569961547852 1.724300384521484 14.5 2 14.5 L 27 14.5 C 27.27569961547852 14.5 27.5 14.27569961547852 27.5 14 L 27.5 2 C 27.5 1.724300384521484 27.27569961547852 1.5 27 1.5 L 2 1.5 M 2 0 L 27 0 C 28.10457038879395 0 29 0.8954296112060547 29 2 L 29 14 C 29 15.10457038879395 28.10457038879395 16 27 16 L 2 16 C 0.8954296112060547 16 0 15.10457038879395 0 14 L 0 2 C 0 0.8954296112060547 0.8954296112060547 0 2 0 Z" stroke="none" fill="#000"/></g><circle cx="1" cy="1" r="1" transform="translate(48.5 410.854)"/><circle cx="1" cy="1" r="1" transform="translate(65.5 410.854)"/><circle cx="5" cy="5" r="5" transform="translate(53.5 406.854)"/><path d="M4.208-8.614a1.372,1.372,0,0,1-.4,1.013,1.711,1.711,0,0,1-1.075.466v.655H2.228v-.663A1.756,1.756,0,0,1,1.023-7.69,1.823,1.823,0,0,1,.6-8.953h.7a1.217,1.217,0,0,0,.316.882,1.163,1.163,0,0,0,.878.327,1.135,1.135,0,0,0,.751-.223A.78.78,0,0,0,3.507-8.6a.747.747,0,0,0-.189-.528,1.373,1.373,0,0,0-.6-.335L1.851-9.7a1.511,1.511,0,0,1-.813-.524,1.471,1.471,0,0,1-.281-.917,1.323,1.323,0,0,1,.4-.963,1.631,1.631,0,0,1,1.067-.462v-.693h.508v.709a1.543,1.543,0,0,1,.986.516,1.633,1.633,0,0,1,.37,1.079h-.7a1.05,1.05,0,0,0-.27-.751.981.981,0,0,0-.732-.266.98.98,0,0,0-.682.22.738.738,0,0,0-.243.574.822.822,0,0,0,.2.57,1.376,1.376,0,0,0,.655.354l.9.277A1.292,1.292,0,0,1,4.208-8.614Z" transform="translate(56.099 421.73)" fill="#fff"/></g></svg>